<svg width="251" height="250" viewBox="0 0 251 250" fill="none" xmlns="http://www.w3.org/2000/svg">
<path d="M132.456 164.526C130.707 164.547 128.981 164.136 127.431 163.329C125.636 162.383 124.209 160.868 123.373 159.023C122.625 158.947 121.887 158.798 121.168 158.577C120.491 158.69 119.805 158.747 119.119 158.747C118.787 158.747 118.458 158.733 118.136 158.707C116.009 158.541 113.978 157.753 112.299 156.441C112.116 156.297 111.939 156.146 111.768 155.992C110.375 156.609 108.904 157.031 107.395 157.246C106.637 157.354 105.873 157.41 105.107 157.411C104.142 157.409 103.18 157.323 102.231 157.154C100.907 156.919 99.6216 156.506 98.4098 155.926C97.0963 155.302 95.8981 154.46 94.8659 153.438C93.8051 152.391 92.9474 151.158 92.336 149.8C91.8895 148.815 91.5856 147.771 91.4336 146.701C90.4072 146.911 89.3617 147.016 88.3137 147.012C85.8785 147.02 83.4693 146.513 81.2451 145.525C78.0195 144.078 75.4757 141.45 74.1401 138.186C73.7238 137.296 73.4168 136.359 73.2257 135.396L72.9628 134.079C72.8917 133.725 72.856 133.365 72.856 133.005C72.8686 130.596 73.026 128.19 73.3274 125.8C73.1592 125.807 72.9934 125.81 72.8277 125.81C70.5269 125.812 68.2663 125.208 66.2758 124.058C64.0124 122.889 62.1446 121.082 60.9051 118.862C59.846 117.03 59.1429 115.015 58.8324 112.923C57.9866 108.153 58.9165 103.239 61.4477 99.1038C63.7294 95.5157 66.89 92.5653 70.6319 90.5304C74.3045 88.5197 78.2684 87.0902 82.3818 86.2931C86.6095 85.4416 90.9129 85.0193 95.226 85.0325C96.5857 85.0325 97.9013 85.079 99.1726 85.1718C103.654 85.527 108.053 86.5742 112.211 88.276C112.763 88.5262 113.237 88.7552 113.689 88.9913C115.665 90.01 117.481 91.3093 119.081 92.8485C120.906 91.8325 122.961 91.2986 125.051 91.2976C125.871 91.3014 126.69 91.3709 127.5 91.5054C129.183 89.4523 131.361 87.8579 133.83 86.8716C133.906 86.8456 134.313 86.7111 134.389 86.6898C135.574 86.3596 136.798 86.1905 138.028 86.187C142.081 86.2336 145.977 87.7606 148.977 90.4785C149.543 90.3957 150.115 90.3539 150.687 90.3535C153.947 90.4012 157.078 91.6306 159.495 93.8117C159.967 93.7652 160.441 93.7423 160.916 93.7433C161.38 93.7433 161.878 93.7645 162.413 93.8141C162.958 93.8755 163.408 93.9439 163.844 94.036C166.806 94.6151 169.507 96.1132 171.562 98.3158C172.687 99.5158 173.607 100.891 174.286 102.388C177.4 102.415 180.468 103.132 183.269 104.486C185.259 105.414 186.999 106.8 188.345 108.529C189.691 110.259 190.605 112.283 191.011 114.434C191.035 114.561 191.082 114.859 191.096 114.986C191.356 116.858 191.179 118.765 190.58 120.557C190.339 121.273 190.038 121.967 189.68 122.632C190.144 123.629 190.467 124.685 190.641 125.77C191.037 128.356 190.753 131 189.817 133.444C188.909 135.815 187.449 137.937 185.558 139.636C183.747 141.257 181.646 142.524 179.365 143.37C176.982 144.249 174.472 144.741 171.932 144.827C171.595 144.85 170.387 144.867 170.25 144.864C170.226 145.084 170.198 145.303 170.164 145.521C169.923 147.112 169.417 148.653 168.667 150.079C167.797 151.716 166.595 153.156 165.138 154.307C163.565 155.533 161.745 156.407 159.803 156.87C159.277 157.015 158.742 157.123 158.201 157.194C157.68 157.26 157.197 157.298 156.718 157.312C156.107 157.311 155.496 157.274 154.889 157.201C153.852 157.66 152.752 157.963 151.625 158.1C151.131 158.16 150.635 158.19 150.137 158.19C149.593 158.19 149.05 158.151 148.512 158.072C148.133 158.192 147.749 158.295 147.361 158.381C147.238 158.409 146.92 158.466 146.792 158.485C146.232 158.571 145.667 158.619 145.101 158.629H145.072C144.509 158.632 143.945 158.598 143.386 158.527C143.026 158.641 142.661 158.735 142.291 158.813C142.178 159.009 142.059 159.205 141.936 159.394C141.082 160.722 139.961 161.858 138.643 162.732C136.82 163.927 134.68 164.551 132.498 164.526H132.456L132.456 164.526Z" fill="#161415"/>
<path d="M183.917 121.354C184.561 120.622 185.049 119.768 185.352 118.843C185.697 117.796 185.791 116.684 185.627 115.594L185.616 115.509L185.6 115.424C185.348 114.108 184.781 112.872 183.947 111.821C183.112 110.771 182.035 109.938 180.807 109.392C178.585 108.337 176.146 107.813 173.685 107.864C172.434 107.858 171.187 108.009 169.974 108.315C169.998 107.739 169.963 107.161 169.869 106.591L169.857 106.522L169.843 106.453C169.501 104.8 168.701 103.275 167.532 102.052C166.252 100.676 164.562 99.747 162.712 99.401C162.438 99.3464 162.165 99.3056 161.895 99.2736C160.498 99.0287 159.059 99.2616 157.811 99.9345C153.091 94.1454 148.7 95.9782 147.489 96.6582C147.379 96.7258 147.268 96.7907 147.16 96.8625C146.046 95.0167 144.395 93.5529 142.426 92.6661C140.456 91.7793 138.262 91.5117 136.136 91.8989L136.01 91.9313L135.813 91.9931L135.673 92.0387C133.172 93.3285 131.105 95.3196 129.726 97.7664L129.716 97.7844C129.505 97.7001 129.29 97.6233 129.075 97.5486C128.063 97.2244 126.672 96.929 126.672 96.929C126.136 96.8358 125.593 96.787 125.049 96.783C123.693 96.788 122.369 97.1942 121.244 97.9502C120.211 98.6471 119.355 99.5745 118.744 100.659C118.597 100.913 118.462 101.179 118.336 101.452C117.854 100.183 117.169 98.9999 116.308 97.9489C114.88 96.243 113.116 94.8464 111.126 93.845C110.765 93.6559 110.389 93.4749 110.002 93.3C106.418 91.8429 102.63 90.9463 98.7723 90.642C97.6314 90.5597 96.4485 90.5182 95.2236 90.5174C91.2842 90.5041 87.3536 90.8885 83.492 91.6647C79.9383 92.3467 76.5125 93.5745 73.3371 95.3044C70.4026 96.8901 67.9203 99.1923 66.1227 101.995C64.2718 105.023 63.6121 108.627 64.2709 112.111C64.4785 113.523 64.9517 114.883 65.6657 116.12C66.4003 117.467 67.5315 118.557 68.9069 119.244C70.0881 119.96 71.4446 120.336 72.827 120.332C73.1255 120.332 73.4239 120.316 73.7207 120.283C74.4053 120.213 75.0819 120.08 75.742 119.886C76.5686 119.654 77.36 119.312 78.095 118.869C79.0034 118.324 79.7799 117.586 80.369 116.708C80.6243 116.327 80.8337 115.917 80.9931 115.487C80.7284 116.44 80.4844 117.385 80.2611 118.324C79.6195 120.972 79.1314 123.655 78.7994 126.359C78.5318 128.428 78.3834 130.51 78.355 132.596V133.007L78.6183 134.321C78.7393 134.912 78.933 135.486 79.1951 136.029C79.9922 138.022 81.5292 139.632 83.4866 140.524C85.0055 141.197 86.6504 141.542 88.3126 141.535C89.8387 141.567 91.3452 141.188 92.6736 140.439C92.8388 140.343 92.9973 140.239 93.1491 140.128C93.8899 140.222 94.6213 140.291 95.3431 140.337C95.9544 140.372 96.5883 140.4 97.2337 140.42C97.4683 140.426 97.7028 140.43 97.9372 140.43L98.0845 140.428C97.7976 140.904 97.559 141.407 97.3723 141.93C97.015 142.912 96.8251 143.947 96.8104 144.991V145.032C96.8105 145.903 96.995 146.764 97.3519 147.559C97.6915 148.308 98.1665 148.988 98.753 149.566C99.3517 150.153 100.045 150.636 100.803 150.996C101.563 151.357 102.368 151.614 103.197 151.76C103.826 151.874 104.465 151.932 105.104 151.933C105.604 151.933 106.103 151.897 106.597 151.825C107.626 151.68 108.629 151.391 109.577 150.966C109.684 150.917 109.786 150.866 109.888 150.814L111.146 150.182L111.444 148.873L111.457 148.807C111.557 148.802 111.658 148.796 111.757 148.796C112.473 148.797 113.183 148.922 113.854 149.168C113.925 149.194 113.998 149.215 114.07 149.237C114.215 150.381 114.803 151.424 115.709 152.143C116.529 152.782 117.521 153.165 118.559 153.245C118.743 153.26 118.931 153.268 119.117 153.268C119.876 153.264 120.63 153.144 121.352 152.913C121.455 152.881 121.557 152.847 121.658 152.811C122.473 153.316 123.411 153.59 124.37 153.604C124.455 153.608 124.541 153.61 124.627 153.61C125.468 153.599 126.298 153.427 127.074 153.105C127.218 153.048 127.362 152.987 127.503 152.923C127.82 153.103 128.155 153.25 128.502 153.363C128.364 153.751 128.246 154.146 128.149 154.546L128.068 154.882L128.071 155.328C128.072 155.981 128.253 156.622 128.595 157.18C128.936 157.738 129.425 158.191 130.008 158.491C130.765 158.874 131.605 159.065 132.454 159.047H132.473C133.571 159.073 134.652 158.772 135.576 158.183C136.273 157.722 136.866 157.122 137.317 156.42C137.676 155.861 137.963 155.26 138.172 154.631C138.239 154.419 138.322 154.213 138.422 154.015L138.457 153.945C138.535 153.785 138.621 153.621 138.715 153.454C139.107 153.54 139.507 153.583 139.908 153.581C140.013 153.581 140.12 153.579 140.229 153.573C141.175 153.518 142.097 153.252 142.927 152.796C143.534 153.038 144.184 153.159 144.838 153.153L145.014 153.15C145.336 153.144 145.657 153.117 145.976 153.069L146.073 153.054L146.168 153.033C146.856 152.879 147.52 152.636 148.145 152.311C148.771 152.587 149.45 152.724 150.135 152.712C150.416 152.711 150.697 152.694 150.976 152.66C151.894 152.536 152.774 152.216 153.556 151.721C153.735 151.612 153.91 151.498 154.081 151.379C154.832 151.682 155.635 151.838 156.445 151.837H156.495L156.546 151.835C156.847 151.826 157.156 151.802 157.469 151.762C157.807 151.718 158.142 151.649 158.47 151.556C159.645 151.281 160.748 150.758 161.703 150.022C162.567 149.346 163.28 148.497 163.794 147.529C164.258 146.643 164.572 145.686 164.723 144.697C164.863 143.786 164.902 142.862 164.84 141.943C164.781 141.079 164.659 140.22 164.473 139.374C164.387 138.98 164.294 138.597 164.194 138.222C165.426 138.691 166.711 139.005 168.021 139.16C168.889 139.311 169.768 139.388 170.65 139.389H170.65C170.995 139.389 171.344 139.377 171.689 139.353C173.637 139.294 175.564 138.923 177.394 138.254C179.03 137.654 180.538 136.753 181.84 135.598C183.096 134.476 184.067 133.073 184.672 131.505C185.267 129.96 185.452 128.289 185.209 126.653L185.204 126.622C184.974 125.327 184.397 124.119 183.534 123.125C183.322 122.866 183.096 122.604 182.856 122.34C183.242 122.047 183.597 121.717 183.917 121.354ZM156.642 113.437C157.512 112.96 158.28 112.318 158.903 111.547C159.359 110.945 159.588 110.203 159.552 109.45C159.465 109.221 159.311 109.022 159.111 108.881C159 108.796 158.887 108.708 158.773 108.615C158.659 108.522 158.544 108.426 158.426 108.325L158.424 108.324L158.409 108.311C158.166 108.104 157.932 107.888 157.707 107.663C157.487 107.45 157.349 107.166 157.318 106.861C157.218 106.435 157.228 105.992 157.346 105.571C157.464 105.15 157.687 104.766 157.993 104.453C158.217 104.224 158.472 104.027 158.752 103.87L158.842 103.822L159.01 103.74L159.109 103.695C159.188 103.662 159.27 103.631 159.353 103.602L159.444 103.574C159.517 103.551 159.593 103.53 159.669 103.511L159.736 103.494C159.833 103.472 159.932 103.454 160.033 103.438L160.111 103.427C160.217 103.412 160.324 103.4 160.436 103.392C160.923 103.36 161.413 103.395 161.891 103.496C162.877 103.674 163.779 104.164 164.463 104.894C165.103 105.553 165.544 106.378 165.736 107.276C165.868 108.153 165.751 109.05 165.398 109.864C164.645 111.699 163.349 113.261 161.683 114.343C160.956 114.841 160.117 115.152 159.241 115.25C158.865 115.285 158.486 115.25 158.123 115.146C157.799 115.061 157.491 114.921 157.214 114.732C157.006 114.698 156.798 114.516 156.59 114.188C156.382 113.86 156.4 113.61 156.642 113.437ZM121.646 104.738C121.731 104.319 121.853 103.909 122.01 103.511C122.062 103.379 122.117 103.248 122.176 103.124C122.238 102.993 122.303 102.866 122.373 102.745C122.663 102.218 123.072 101.766 123.568 101.424C124.003 101.124 124.52 100.961 125.049 100.958C125.566 100.972 126.08 101.041 126.582 101.165C127.186 101.303 127.778 101.494 128.349 101.735C128.889 101.959 129.396 102.255 129.856 102.615C130.241 102.887 130.51 103.294 130.609 103.754C130.678 104.169 130.418 104.669 129.829 105.256C129.393 105.699 129.025 106.206 128.738 106.758C128.427 107.345 128.132 107.906 127.855 108.44L127.796 108.55C127.724 108.685 127.651 108.815 127.579 108.939L127.578 108.94C127.404 109.243 127.21 109.534 126.998 109.812C126.894 109.976 126.753 110.113 126.586 110.212C126.419 110.311 126.23 110.369 126.036 110.382H125.257C124.61 110.36 123.975 110.198 123.396 109.908L123.333 109.876C123.219 109.816 123.107 109.753 122.997 109.683C122.695 109.484 122.438 109.225 122.242 108.923C122.173 108.82 122.109 108.714 122.051 108.605L122.026 108.557C121.987 108.481 121.949 108.401 121.912 108.319L121.843 108.156L121.791 108.022C121.756 107.927 121.722 107.829 121.691 107.727L121.667 107.647C121.632 107.527 121.598 107.404 121.568 107.275C121.461 106.431 121.487 105.574 121.646 104.738ZM116.034 125.01C116.161 123.714 116.361 122.426 116.631 121.152C116.694 120.858 116.762 120.571 116.834 120.288L116.904 120.025C116.957 119.826 117.013 119.63 117.071 119.437L117.153 119.166C117.226 118.936 117.302 118.711 117.382 118.489L117.422 118.374C117.525 118.094 117.634 117.82 117.748 117.553C118.042 116.859 118.406 116.197 118.836 115.577L118.879 115.515L119.02 115.322L119.111 115.204L119.22 115.066C119.291 114.978 119.363 114.892 119.437 114.809C120.032 114.103 120.862 113.634 121.776 113.489C122.555 113.379 123.348 113.414 124.114 113.592C124.641 113.687 125.119 113.962 125.465 114.369C125.683 114.664 125.842 114.998 125.933 115.353C125.97 115.949 125.944 116.548 125.855 117.139C125.761 117.702 125.622 118.256 125.439 118.796C125.342 119.085 125.239 119.385 125.129 119.697L125.127 119.702L124.964 120.157L124.79 120.635C124.547 121.291 124.287 122.085 124.01 123.016C123.768 123.811 123.508 124.735 123.231 125.787C122.952 126.846 122.778 127.93 122.711 129.023C122.716 129.144 122.746 129.262 122.799 129.371C122.853 129.48 122.928 129.576 123.021 129.654C123.114 129.732 123.222 129.79 123.339 129.824C123.456 129.858 123.578 129.867 123.699 129.851C124.694 129.719 125.608 129.232 126.271 128.479C126.739 128.045 127.218 127.576 127.706 127.076C127.726 126.603 127.749 126.114 127.777 125.606C127.805 125.119 127.836 124.626 127.872 124.127C127.89 123.866 127.912 123.6 127.932 123.336C127.949 123.12 127.965 122.905 127.984 122.687C128.013 122.332 128.045 121.974 128.079 121.613L128.11 121.293C128.15 120.871 128.193 120.446 128.238 120.017C128.282 119.604 128.326 119.191 128.375 118.771C128.423 118.355 128.478 117.937 128.532 117.52V117.52C128.614 116.887 128.703 116.253 128.798 115.617L128.801 115.601C129.002 114.258 129.233 112.906 129.492 111.547C129.668 110.632 129.86 109.741 130.068 108.874C130.118 108.666 130.169 108.46 130.221 108.255C130.369 107.669 130.524 107.094 130.687 106.53C130.772 106.236 130.859 105.946 130.947 105.658L130.955 105.634C131.045 105.341 131.138 105.051 131.233 104.764C131.843 102.859 132.662 101.027 133.675 99.3011C134.422 97.935 135.538 96.8048 136.897 96.0391C136.958 96.0128 137.021 95.9899 137.084 95.9704L137.219 95.9309C137.386 95.8868 137.557 95.8579 137.729 95.8444C137.829 95.8365 137.932 95.832 138.04 95.832C138.292 95.8329 138.544 95.8502 138.793 95.8838C139.064 95.9208 139.333 95.9726 139.599 96.0391C139.735 96.0757 139.869 96.1177 140.003 96.1625L140.102 96.197C140.213 96.236 140.324 96.2779 140.434 96.3226L140.501 96.3503C140.784 96.4691 141.06 96.6049 141.326 96.757C141.525 96.8703 141.721 96.9934 141.915 97.1264C142.001 97.1847 142.086 97.2449 142.171 97.3077C142.884 97.7674 143.395 98.4801 143.6 99.3012C143.668 99.6879 143.614 100.086 143.444 100.44C143.258 100.842 143.031 101.223 142.768 101.579C142.156 102.494 141.618 103.455 141.157 104.453C141.07 104.636 140.982 104.823 140.894 105.013L140.826 105.16C140.756 105.314 140.685 105.47 140.614 105.629L140.557 105.756C140.372 106.175 140.186 106.61 139.999 107.061C139.788 107.569 139.577 108.098 139.365 108.647C138.985 109.63 138.617 110.651 138.259 111.701C138.125 112.092 137.993 112.487 137.863 112.887C137.783 113.13 137.703 113.371 137.624 113.618C137.441 114.195 137.263 114.768 137.09 115.336L136.974 115.717C136.804 116.28 136.638 116.84 136.475 117.397C136.344 117.848 136.216 118.297 136.091 118.744C135.974 119.166 135.862 119.58 135.755 119.988V119.989C135.66 120.35 135.572 120.705 135.486 121.056L135.409 121.377C135.347 121.635 135.288 121.889 135.231 122.141L135.161 122.451C135.086 122.791 135.014 123.127 134.948 123.457C134.683 124.693 134.518 125.948 134.455 127.21C134.42 127.555 134.403 127.9 134.403 128.246C134.399 128.572 134.452 128.896 134.559 129.204C134.653 129.486 134.835 129.73 135.078 129.903C135.389 130.095 135.752 130.185 136.117 130.162C136.808 130.12 137.462 129.836 137.962 129.36C138.803 128.605 139.561 127.763 140.222 126.848L140.482 125.036C140.586 123.932 140.76 122.611 141.002 121.075C141.052 120.759 141.105 120.44 141.161 120.116C141.212 119.817 141.266 119.512 141.322 119.206V119.206C141.497 118.242 141.692 117.254 141.911 116.233C142.275 114.542 142.717 112.833 143.236 111.107C143.3 110.896 143.365 110.687 143.431 110.479C143.494 110.282 143.558 110.086 143.623 109.892L143.631 109.869C143.767 109.464 143.909 109.066 144.056 108.676C144.226 108.221 144.404 107.777 144.588 107.342L144.596 107.323C144.745 106.973 144.898 106.629 145.055 106.291C145.177 106.028 145.303 105.773 145.431 105.522L145.5 105.387C145.631 105.133 145.763 104.884 145.899 104.642C146.042 104.387 146.188 104.14 146.337 103.897V103.897C146.414 103.772 146.491 103.649 146.569 103.528L146.611 103.465C146.679 103.359 146.748 103.254 146.818 103.151L146.924 102.998L147.083 102.769C147.177 102.638 147.272 102.509 147.367 102.382C148.107 101.354 149.076 100.512 150.199 99.9227C150.771 99.9307 151.34 100.018 151.888 100.182C152.502 100.358 153.088 100.62 153.629 100.958C153.777 101.051 153.918 101.148 154.055 101.249C154.424 101.519 154.76 101.829 155.058 102.175C155.455 102.639 155.715 103.204 155.811 103.806C155.866 104.276 155.785 104.753 155.577 105.178C155.375 105.68 155.065 106.131 154.668 106.499C154.579 106.595 154.49 106.699 154.401 106.805C154.333 106.887 154.265 106.975 154.196 107.062C153.407 108.132 152.746 109.29 152.225 110.512C152.102 110.788 151.979 111.068 151.859 111.351L151.816 111.452C151.699 111.728 151.583 112.006 151.469 112.287C150.957 113.544 150.473 114.86 150.017 116.234L149.968 116.385C149.642 117.376 149.344 118.364 149.076 119.347L149.061 119.402C148.999 119.629 148.939 119.855 148.88 120.081L148.842 120.231C148.792 120.426 148.742 120.621 148.695 120.816L148.622 121.123L148.52 121.552C148.463 121.799 148.408 122.046 148.354 122.292C147.976 123.947 147.707 125.624 147.549 127.314C147.514 127.625 147.488 127.91 147.471 128.169C147.452 128.385 147.46 128.602 147.497 128.816C147.537 129.198 147.69 129.559 147.939 129.852C148.081 129.983 148.249 130.083 148.433 130.145C148.616 130.208 148.811 130.231 149.004 130.214C149.716 130.198 150.409 129.983 151.005 129.593C151.887 128.997 152.682 128.282 153.369 127.47C153.575 127.259 153.766 127.034 153.94 126.796L154.564 125.968C154.772 125.692 154.962 125.451 155.136 125.243C155.309 125.036 155.447 124.932 155.552 124.932C155.869 124.95 156.166 125.089 156.383 125.321C156.648 125.56 156.83 125.878 156.902 126.227C156.911 127.344 156.555 128.435 155.889 129.334C155.133 130.418 154.213 131.378 153.161 132.182C152.045 133.049 150.812 133.755 149.498 134.279C148.288 134.788 146.991 135.06 145.678 135.082C144.563 135.099 143.468 134.784 142.535 134.175C141.627 133.585 140.955 132.697 140.638 131.664C139.531 132.768 138.238 133.67 136.819 134.331C135.534 134.967 134.123 135.312 132.688 135.34C132.143 135.337 131.601 135.258 131.077 135.107C130.528 134.955 130.01 134.709 129.544 134.382C129.057 134.034 128.642 133.595 128.323 133.088C128.058 132.67 127.867 132.209 127.758 131.727L127.648 131.819C126.551 132.709 125.357 133.473 124.088 134.097C123.023 134.667 121.841 134.986 120.633 135.03C119.454 135.148 118.274 134.814 117.333 134.097C116.601 133.276 116.155 132.241 116.06 131.146C115.941 130.279 115.88 129.406 115.878 128.531C115.865 127.355 115.917 126.18 116.034 125.01ZM152.837 137.894C152.69 138.088 152.573 138.303 152.489 138.532C152.398 138.775 152.312 139.006 152.231 139.227C152.16 139.426 152.07 139.619 151.963 139.801C151.929 139.871 151.88 139.931 151.818 139.978C151.757 140.025 151.685 140.057 151.609 140.072L151.297 140.113C150.975 140.146 150.65 140.093 150.355 139.961C150.189 139.87 150.043 139.748 149.924 139.601C149.806 139.454 149.718 139.285 149.666 139.104C149.583 138.784 149.552 138.453 149.575 138.124C149.594 137.848 149.659 137.577 149.766 137.321C149.855 137.104 149.993 136.91 150.17 136.755C150.327 136.617 150.52 136.529 150.727 136.501C150.929 136.48 151.134 136.48 151.337 136.501C151.58 136.522 151.822 136.563 152.059 136.625C152.282 136.681 152.497 136.767 152.698 136.879C152.864 136.961 152.993 137.101 153.059 137.273C153.11 137.428 153.036 137.635 152.837 137.894V137.894ZM128.67 139.348C128.493 139.515 128.341 139.708 128.22 139.92C128.089 140.145 127.965 140.359 127.849 140.563C127.745 140.748 127.624 140.923 127.488 141.085C127.442 141.148 127.383 141.2 127.314 141.236C127.245 141.272 127.169 141.292 127.091 141.294L126.775 141.283C126.45 141.262 126.137 141.157 125.866 140.977C125.717 140.861 125.592 140.716 125.5 140.552C125.407 140.387 125.348 140.206 125.326 140.019C125.296 139.69 125.321 139.358 125.398 139.037C125.464 138.768 125.573 138.511 125.721 138.277C125.846 138.077 126.015 137.908 126.216 137.785C126.394 137.675 126.601 137.62 126.81 137.626C127.015 137.639 127.217 137.672 127.415 137.727C127.653 137.788 127.886 137.869 128.11 137.968C128.322 138.06 128.521 138.18 128.701 138.324C128.852 138.432 128.956 138.592 128.993 138.773C129.018 138.934 128.911 139.126 128.67 139.348V139.348ZM108.706 143.514C108.356 143.962 107.905 144.321 107.389 144.563C106.791 144.846 106.151 145.028 105.493 145.103C104.759 145.193 104.016 145.167 103.291 145.026C103.238 145.486 103.334 145.95 103.565 146.351C103.897 146.79 104.39 147.08 104.936 147.158C105.894 147.308 106.875 147.177 107.759 146.78L107.837 146.743C108.437 146.788 108.75 147.178 108.705 147.909C108.698 148.021 108.682 148.132 108.657 148.242C108.57 148.286 108.485 148.331 108.393 148.373C107.69 148.687 106.945 148.9 106.181 149.006C105.359 149.124 104.523 149.108 103.707 148.957C103.132 148.857 102.574 148.68 102.047 148.43C101.575 148.209 101.143 147.911 100.77 147.547C100.431 147.215 100.157 146.823 99.9601 146.391C99.7668 145.959 99.6678 145.49 99.6695 145.017C99.6809 144.29 99.8147 143.569 100.066 142.886C100.304 142.202 100.684 141.575 101.181 141.045C101.45 140.763 101.754 140.515 102.085 140.309C102.456 140.078 102.856 139.899 103.275 139.774C103.757 139.633 104.254 139.549 104.756 139.527C105.345 139.501 105.936 139.541 106.516 139.647C107.253 139.728 107.948 140.03 108.507 140.514C108.927 140.917 109.174 141.467 109.194 142.048C109.202 142.577 109.03 143.094 108.706 143.514L108.706 143.514ZM105.253 135.444C103.238 135.897 101.185 136.157 99.1211 136.22C98.5316 136.254 97.9427 136.263 97.3543 136.246C96.7648 136.228 96.1759 136.202 95.5876 136.169C94.429 136.093 93.2755 135.955 92.1321 135.754C91.837 135.703 91.5457 135.65 91.2581 135.594C91.2612 135.846 91.197 136.095 91.0721 136.314C90.9472 136.533 90.766 136.715 90.5472 136.842C89.8621 137.21 89.0906 137.389 88.3128 137.36C87.2392 137.367 86.1764 137.146 85.1951 136.712C84.1767 136.229 83.392 135.363 83.0126 134.305C82.8818 134.051 82.7857 133.781 82.7269 133.502L82.5449 132.596C82.5749 130.674 82.7137 128.755 82.9607 126.848C83.2729 124.304 83.7327 121.78 84.3376 119.288C85.0034 116.511 85.8186 113.771 86.7797 111.081C87.7127 108.417 88.9231 105.857 90.3912 103.443C90.7371 102.857 91.1095 102.27 91.5084 101.683C91.8875 101.121 92.3041 100.584 92.7555 100.078L92.8525 99.9764C90.7751 99.9967 88.7019 100.169 86.6499 100.492C84.5387 100.8 82.4717 101.356 80.4922 102.149C78.8003 102.798 77.2804 103.826 76.0496 105.152C75.5051 105.755 75.109 106.476 74.8926 107.258C74.6761 108.04 74.6453 108.861 74.8024 109.657C74.8721 110.151 75.0399 110.627 75.296 111.055C75.4971 111.373 75.7421 111.66 76.0237 111.91C76.2836 112.134 76.5262 112.342 76.7515 112.531C76.9484 112.677 77.0866 112.888 77.1411 113.127C77.219 113.567 77.1262 114.02 76.8813 114.395C76.6319 114.764 76.3036 115.073 75.9201 115.301C75.5061 115.55 75.0602 115.741 74.5946 115.871C74.1707 115.997 73.7357 116.084 73.2955 116.129C72.4551 116.248 71.6009 116.045 70.9052 115.56C70.2077 115.251 69.6387 114.711 69.2945 114.033C68.8389 113.242 68.5391 112.372 68.4111 111.469C67.9133 108.971 68.3672 106.377 69.6841 104.194C71.1107 101.987 73.0778 100.178 75.4 98.9386C78.1951 97.421 81.2105 96.3466 84.3376 95.7541C87.9208 95.0332 91.5682 94.6776 95.2236 94.6926C95.5563 94.6926 95.8834 94.697 96.2081 94.7035L96.5089 94.711C96.7394 94.7171 96.9678 94.7249 97.1941 94.7343L97.5078 94.7476C97.8071 94.7621 98.1038 94.7788 98.3956 94.7993L98.6598 94.8203C98.8687 94.8364 99.0765 94.8534 99.2817 94.8725L99.6741 94.9116C99.8374 94.9285 99.9994 94.9465 100.16 94.9656C100.291 94.981 100.423 94.996 100.553 95.0128C100.805 95.0453 101.053 95.0801 101.299 95.1174C101.954 95.2173 102.588 95.3346 103.2 95.4694C104.158 95.6814 105.054 95.9241 105.895 96.1942H105.896C106.17 96.2823 106.438 96.3736 106.7 96.468L106.91 96.5447C107.07 96.6038 107.227 96.6639 107.382 96.7251C107.501 96.7725 107.62 96.8205 107.737 96.8692L107.966 96.9659C108.143 97.0423 108.317 97.1203 108.487 97.2001L108.619 97.2632C108.809 97.3537 108.995 97.4455 109.176 97.5402C110.66 98.2762 111.977 99.3071 113.047 100.569C113.93 101.615 114.522 102.874 114.762 104.22C114.786 104.369 114.806 104.519 114.824 104.668C114.935 105.617 114.905 106.578 114.736 107.518L114.734 107.526C114.704 107.693 114.67 107.86 114.632 108.026C114.324 109.315 113.778 110.535 113.021 111.625C112.935 111.751 112.845 111.875 112.753 111.999L112.659 112.124L112.465 112.373L112.354 112.51C112.262 112.622 112.168 112.734 112.071 112.844C111.444 113.552 110.753 114.201 110.007 114.783C109.633 115.077 109.235 115.356 108.82 115.621L108.726 115.681C108.616 115.751 108.504 115.82 108.391 115.888L108.279 115.953C108.07 116.076 107.856 116.196 107.637 116.312L107.51 116.38L107.259 116.507L106.981 116.644L106.752 116.751C106.639 116.804 106.525 116.855 106.41 116.905L106.22 116.989C106.039 117.066 105.855 117.143 105.668 117.217C107.018 117.795 108.306 118.506 109.514 119.34C110.49 120.014 111.388 120.796 112.19 121.67C112.849 122.39 113.4 123.201 113.827 124.078C114.187 124.826 114.449 125.618 114.606 126.433C114.871 127.841 114.582 129.296 113.801 130.498C112.937 131.765 111.778 132.805 110.423 133.527C108.801 134.412 107.06 135.057 105.252 135.444L105.253 135.444ZM116.299 145.132C116.231 145.543 116.025 145.918 115.716 146.197C115.617 146.329 115.48 146.427 115.324 146.48C115.168 146.533 114.999 146.538 114.84 146.494C113.47 145.993 111.998 145.833 110.551 146.029C110.285 146.066 110.082 145.899 109.928 145.515C109.768 145.125 109.747 144.691 109.871 144.288C109.909 144.098 110.007 143.925 110.151 143.795C110.295 143.664 110.477 143.584 110.67 143.564C112.424 143.393 114.194 143.636 115.836 144.275C116.007 144.334 116.15 144.454 116.236 144.613C116.322 144.772 116.345 144.957 116.299 145.132L116.299 145.132ZM161.898 144.261C161.796 144.94 161.582 145.597 161.264 146.206C160.934 146.823 160.477 147.364 159.924 147.793C159.274 148.286 158.523 148.631 157.725 148.805C157.521 148.866 157.312 148.911 157.101 148.938C156.886 148.965 156.673 148.982 156.463 148.988C155.841 148.997 155.229 148.829 154.699 148.504C154.379 148.302 154.109 148.029 153.91 147.708C153.767 147.885 153.614 148.054 153.452 148.214C153.032 148.625 152.567 148.986 152.065 149.291C151.634 149.571 151.147 149.756 150.638 149.832C150.144 149.938 149.629 149.868 149.182 149.634C148.839 149.363 148.6 148.982 148.506 148.556L148.5 148.534C148.443 148.595 148.386 148.656 148.324 148.716C147.935 149.089 147.5 149.41 147.03 149.674C146.568 149.939 146.069 150.134 145.549 150.252C145.35 150.283 145.149 150.3 144.948 150.303C144.623 150.355 144.289 150.304 143.995 150.157C143.701 150.01 143.46 149.774 143.308 149.483C143.239 149.346 143.189 149.201 143.161 149.05C142.724 149.518 142.22 149.917 141.666 150.237C141.184 150.522 140.642 150.691 140.083 150.729C139.531 150.787 138.977 150.633 138.535 150.298C138.273 150.08 138.069 149.803 137.939 149.489C137.687 149.841 137.431 150.201 137.17 150.57C136.687 151.243 136.258 151.954 135.889 152.696C135.717 153.032 135.573 153.382 135.457 153.741C135.323 154.144 135.139 154.529 134.909 154.887C134.67 155.257 134.357 155.573 133.988 155.815C133.53 156.089 133 156.222 132.466 156.198C132.082 156.216 131.699 156.14 131.351 155.977C131.223 155.919 131.116 155.825 131.041 155.707C130.966 155.588 130.927 155.451 130.93 155.312L130.929 155.211C131.034 154.789 131.166 154.374 131.323 153.968C131.495 153.513 131.669 153.041 131.846 152.553C132.023 152.064 132.187 151.578 132.338 151.096C132.481 150.649 132.591 150.192 132.668 149.729C132.39 150.053 132.056 150.326 131.682 150.534C131.338 150.729 130.948 150.83 130.551 150.829C130.167 150.852 129.782 150.797 129.419 150.669C129.056 150.541 128.723 150.341 128.439 150.082C128.229 149.866 128.066 149.609 127.958 149.328C127.834 149.431 127.704 149.531 127.564 149.628C127.08 149.963 126.559 150.243 126.012 150.461C125.537 150.666 125.024 150.768 124.507 150.759C124 150.783 123.501 150.629 123.097 150.324C122.802 150 122.629 149.585 122.606 149.149L122.602 149.108C122.447 149.23 122.287 149.345 122.12 149.451C121.613 149.768 121.066 150.019 120.493 150.196C119.947 150.376 119.371 150.447 118.798 150.406C118.319 150.375 117.86 150.201 117.481 149.907C117.291 149.746 117.138 149.546 117.033 149.32C116.928 149.094 116.873 148.848 116.873 148.599C116.866 148.126 116.905 147.653 116.987 147.187C117.083 146.517 117.228 145.758 117.421 144.908C117.614 144.059 117.851 143.173 118.133 142.251C118.395 141.383 118.713 140.532 119.087 139.705C119.392 139.012 119.779 138.357 120.241 137.756C120.395 137.529 120.594 137.336 120.826 137.189C121.058 137.042 121.318 136.944 121.589 136.903C121.799 136.907 122.006 136.948 122.2 137.026C122.41 137.105 122.611 137.206 122.8 137.327C123.044 137.452 123.262 137.623 123.443 137.829C123.617 138.012 123.731 138.243 123.769 138.492C123.79 138.62 123.772 138.752 123.718 138.871C123.65 139.016 123.546 139.142 123.416 139.236C123.11 139.55 122.846 139.903 122.631 140.285C122.357 140.744 122.082 141.259 121.804 141.831C121.525 142.402 121.258 142.998 121 143.617C120.743 144.236 120.517 144.83 120.324 145.399C120.148 145.91 119.998 146.43 119.874 146.956C119.779 147.311 119.738 147.678 119.753 148.045C119.761 148.197 119.817 148.343 119.914 148.461C120.034 148.575 120.193 148.637 120.359 148.635C120.642 148.641 120.921 148.567 121.164 148.421C121.47 148.256 121.76 148.063 122.03 147.845C122.249 147.669 122.452 147.495 122.646 147.322C122.666 147.142 122.688 146.961 122.718 146.771C122.798 146.272 122.908 145.778 123.047 145.291C123.178 144.818 123.358 144.36 123.583 143.924C123.775 143.544 124.027 143.197 124.33 142.897C124.593 142.633 124.94 142.468 125.312 142.431C125.633 142.403 125.956 142.43 126.268 142.511C126.481 142.554 126.673 142.667 126.813 142.832C126.899 142.948 126.96 143.08 126.994 143.22C127.003 143.452 126.986 143.684 126.943 143.912C126.898 144.129 126.834 144.342 126.752 144.548C126.667 144.767 126.57 145.001 126.461 145.252C126.352 145.502 126.234 145.806 126.107 146.163C125.995 146.468 125.875 146.821 125.744 147.224C125.613 147.629 125.525 148.047 125.482 148.47C125.504 148.686 125.641 148.799 125.893 148.809C126.31 148.778 126.703 148.604 127.004 148.316C127.257 148.114 127.517 147.89 127.781 147.649C127.848 147.179 127.982 146.721 128.178 146.289C128.456 145.659 128.823 145.072 129.267 144.544C129.713 144.009 130.246 143.55 130.843 143.188C131.418 142.831 132.082 142.641 132.759 142.638C132.884 142.638 133.008 142.643 133.132 142.656C133.236 142.666 133.34 142.685 133.441 142.714C133.426 142.651 133.418 142.587 133.417 142.523L133.414 142.332C133.403 142.154 133.44 141.977 133.523 141.819C133.574 141.749 133.643 141.695 133.722 141.66C133.801 141.626 133.888 141.613 133.974 141.623C134.356 141.595 134.737 141.672 135.078 141.845C135.327 141.991 135.528 142.207 135.656 142.465C135.788 142.734 135.869 143.025 135.896 143.323C135.927 143.637 135.954 143.941 135.978 144.235C135.991 144.623 135.98 145.086 135.948 145.622C135.914 146.159 135.87 146.703 135.815 147.253C135.76 147.804 135.704 148.331 135.646 148.835C135.588 149.338 135.535 149.751 135.485 150.074C135.686 149.842 135.961 149.513 136.309 149.089C136.656 148.664 137.007 148.224 137.362 147.77C137.467 147.634 137.565 147.505 137.665 147.373C137.67 147.163 137.682 146.947 137.7 146.723C137.739 146.248 137.805 145.775 137.897 145.308C137.984 144.851 138.119 144.404 138.299 143.975C138.456 143.593 138.677 143.239 138.953 142.931C139.201 142.653 139.528 142.458 139.891 142.371C140.296 142.295 140.715 142.319 141.108 142.443C141.208 142.451 141.302 142.49 141.379 142.553C141.456 142.617 141.511 142.703 141.537 142.799C141.588 142.918 141.612 143.047 141.606 143.177C141.629 143.513 141.598 143.852 141.515 144.179C141.43 144.513 141.329 144.878 141.211 145.274C141.093 145.671 140.974 146.12 140.854 146.624C140.723 147.197 140.64 147.781 140.604 148.368C140.648 148.593 140.809 148.698 141.09 148.682C141.302 148.669 141.508 148.603 141.689 148.492C141.871 148.381 142.022 148.227 142.129 148.044C142.408 147.615 142.624 147.15 142.773 146.661C142.983 145.989 143.146 145.38 143.26 144.834C143.357 144.355 143.48 143.882 143.628 143.416C143.732 143.075 143.884 142.75 144.082 142.453C144.251 142.212 144.507 142.046 144.797 141.99C145.143 141.939 145.496 141.941 145.841 141.998C146.048 142.029 146.249 142.091 146.436 142.184C146.518 142.22 146.591 142.274 146.649 142.341C146.708 142.409 146.751 142.488 146.776 142.574C146.846 143.017 146.838 143.468 146.754 143.909C146.668 144.402 146.557 144.9 146.42 145.404C146.282 145.908 146.148 146.391 146.018 146.853C145.901 147.245 145.822 147.648 145.782 148.055C145.849 148.277 146.029 148.375 146.322 148.349C146.657 148.293 146.969 148.144 147.222 147.92C147.624 147.577 147.969 147.172 148.243 146.72C148.234 146.547 148.225 146.375 148.223 146.192C148.22 145.686 148.246 145.181 148.302 144.679C148.352 144.191 148.452 143.709 148.601 143.242C148.727 142.836 148.917 142.453 149.165 142.107C149.378 141.803 149.692 141.584 150.05 141.486C150.361 141.406 150.683 141.379 151.002 141.408C151.218 141.416 151.425 141.496 151.59 141.635C151.693 141.735 151.775 141.855 151.832 141.988C151.878 142.215 151.9 142.447 151.896 142.679C151.888 142.9 151.86 143.121 151.814 143.338C151.766 143.567 151.71 143.814 151.645 144.079C151.579 144.344 151.514 144.663 151.448 145.036C151.388 145.355 151.328 145.723 151.267 146.142C151.205 146.563 151.188 146.99 151.216 147.414C151.227 147.463 151.248 147.508 151.278 147.548C151.307 147.588 151.345 147.621 151.388 147.646C151.431 147.671 151.478 147.687 151.528 147.693C151.577 147.699 151.627 147.694 151.675 147.68C152.079 147.581 152.436 147.345 152.684 147.011C152.911 146.757 153.142 146.477 153.375 146.176C153.248 145.588 153.213 144.984 153.272 144.386C153.341 143.643 153.583 142.927 153.979 142.295C154.343 141.726 154.83 141.245 155.405 140.888C155.965 140.538 156.589 140.3 157.24 140.188C157.435 140.148 157.637 140.159 157.827 140.219C157.906 140.245 157.978 140.288 158.038 140.347C158.097 140.406 158.142 140.477 158.168 140.556C158.198 140.605 158.217 140.66 158.224 140.717C158.231 140.773 158.226 140.831 158.21 140.886C158.193 140.94 158.166 140.991 158.128 141.035C158.091 141.078 158.045 141.113 157.994 141.138C157.609 141.321 157.265 141.578 156.979 141.893C156.669 142.233 156.426 142.629 156.265 143.06C155.886 144.084 155.88 145.208 156.248 146.236C156.366 146.476 156.555 146.673 156.791 146.8C157.017 146.952 157.292 147.016 157.562 146.979C157.772 146.936 157.968 146.845 158.137 146.714C158.306 146.583 158.443 146.415 158.536 146.223C158.818 145.704 158.997 145.136 159.063 144.549C159.159 143.799 159.171 143.04 159.1 142.287C159.025 141.431 158.865 140.585 158.624 139.76C158.478 139.283 158.281 138.822 158.037 138.386C157.819 138.01 157.607 137.677 157.4 137.387C157.193 137.098 157.005 136.831 156.837 136.589C156.672 136.355 156.555 136.091 156.492 135.812C156.451 135.717 156.43 135.615 156.43 135.512C156.43 135.409 156.45 135.306 156.491 135.211C156.574 135.038 156.702 134.889 156.86 134.78C157.035 134.658 157.227 134.562 157.43 134.495C157.644 134.423 157.843 134.363 158.028 134.315C158.312 134.275 158.601 134.341 158.84 134.5C159.164 134.701 159.451 134.958 159.686 135.257C159.989 135.633 160.256 136.037 160.485 136.462C160.751 136.95 160.973 137.461 161.148 137.988C161.347 138.604 161.524 139.269 161.68 139.981C161.836 140.69 161.939 141.409 161.988 142.133C162.037 142.843 162.006 143.557 161.898 144.26L161.898 144.261ZM181.376 117.528C181.251 117.918 181.048 118.279 180.778 118.589C180.529 118.875 180.23 119.111 179.895 119.289C179.601 119.452 179.27 119.541 178.934 119.548C178.635 119.558 178.337 119.506 178.059 119.395C177.781 119.283 177.531 119.115 177.323 118.9C176.911 118.474 176.545 118.005 176.232 117.502C175.92 117.002 175.608 116.536 175.296 116.104C175.167 115.905 174.99 115.741 174.782 115.628C174.573 115.515 174.339 115.456 174.101 115.457C173.591 115.43 173.09 115.596 172.698 115.923C172.541 116.041 172.42 116.201 172.346 116.383C172.273 116.565 172.251 116.764 172.283 116.958C172.393 117.569 172.662 118.14 173.062 118.615C173.554 119.249 174.092 119.847 174.673 120.402C175.296 121.006 175.963 121.619 176.673 122.24C177.383 122.861 178.05 123.465 178.674 124.052C179.247 124.587 179.785 125.157 180.285 125.761C180.67 126.186 180.939 126.703 181.064 127.263C181.202 128.197 181.094 129.152 180.752 130.033C180.378 130.987 179.781 131.839 179.012 132.518C178.097 133.321 177.04 133.944 175.894 134.357C174.468 134.87 172.967 135.15 171.451 135.185C170.513 135.254 169.57 135.202 168.645 135.03C166.597 134.885 164.653 134.076 163.111 132.725C161.836 131.583 161.046 130 160.902 128.298C160.767 127.121 161.062 125.935 161.734 124.958C162.078 124.46 162.52 124.038 163.033 123.716C163.567 123.383 164.172 123.179 164.8 123.12C165.273 123.06 165.754 123.114 166.203 123.275C166.782 123.461 167.326 123.741 167.813 124.104C168.128 124.31 168.408 124.564 168.645 124.855C168.916 125.172 169.096 125.557 169.165 125.968C169.29 126.485 169.216 127.03 168.957 127.496C168.735 127.838 168.442 128.129 168.099 128.35C167.769 128.557 167.466 128.738 167.19 128.894C167.072 128.94 166.973 129.023 166.907 129.13C166.842 129.238 166.813 129.364 166.826 129.489C166.866 129.734 166.967 129.965 167.122 130.16C167.277 130.355 167.479 130.507 167.709 130.602C168.538 130.914 169.424 131.046 170.307 130.991C170.755 131.031 171.206 130.968 171.625 130.806C172.044 130.645 172.42 130.389 172.724 130.059C172.967 129.768 173.143 129.426 173.237 129.059C173.331 128.691 173.342 128.308 173.269 127.936C173.08 127.133 172.644 126.408 172.022 125.865C171.294 125.14 170.498 124.38 169.632 123.586C168.791 122.819 167.993 122.006 167.242 121.152C166.584 120.461 166.134 119.6 165.942 118.667C165.802 117.822 165.892 116.955 166.202 116.156C166.521 115.335 167.038 114.606 167.709 114.033C168.467 113.392 169.34 112.9 170.281 112.583C171.376 112.209 172.527 112.025 173.685 112.039C175.495 111.99 177.292 112.362 178.933 113.127C179.574 113.392 180.141 113.808 180.585 114.341C181.028 114.873 181.335 115.505 181.479 116.182C181.551 116.632 181.515 117.093 181.376 117.528L181.376 117.528ZM106.376 141.432C106.462 141.577 106.507 141.743 106.506 141.912C106.505 142.204 106.411 142.489 106.236 142.724C106.049 142.993 105.807 143.22 105.527 143.391C105.225 143.575 104.889 143.699 104.538 143.754C104.169 143.817 103.79 143.79 103.434 143.676C103.532 143.299 103.682 142.937 103.879 142.6C104.053 142.299 104.266 142.022 104.512 141.777C104.717 141.57 104.956 141.4 105.219 141.275C105.435 141.169 105.678 141.132 105.916 141.169C106.007 141.177 106.095 141.205 106.175 141.25C106.254 141.295 106.323 141.357 106.376 141.432ZM133.437 143.898L133.501 143.897C133.491 144.302 133.451 144.705 133.38 145.104C133.307 145.52 133.237 145.922 133.17 146.311C133.034 146.894 132.896 147.478 132.756 148.061C132.61 148.251 132.428 148.412 132.221 148.535C132.011 148.662 131.77 148.727 131.525 148.725C131.405 148.737 131.284 148.723 131.169 148.684C131.054 148.645 130.949 148.583 130.861 148.501C130.707 148.284 130.637 148.02 130.662 147.756C130.674 147.351 130.755 146.95 130.903 146.573C131.064 146.131 131.279 145.71 131.543 145.32C131.791 144.946 132.09 144.608 132.432 144.316C132.706 144.062 133.063 143.914 133.437 143.898ZM94.0501 115.177C94.0951 115.029 94.1385 114.88 94.1843 114.731C94.3347 113.932 94.5431 113.145 94.8079 112.376C95.1197 111.426 95.5094 110.399 95.9771 109.295C96.4447 108.19 96.9643 107.051 97.5359 105.877C98.0878 104.739 98.7037 103.632 99.3806 102.563V102.615C99.4478 102.449 99.4916 102.275 99.5106 102.097C99.5284 101.942 99.5196 101.784 99.4845 101.631C99.4332 101.271 99.3098 100.925 99.1217 100.613C99.3736 100.671 99.619 100.733 99.8611 100.798C99.9771 100.829 100.09 100.862 100.204 100.895L100.542 100.995C100.69 101.041 100.836 101.088 100.98 101.137L101.163 101.2C101.331 101.259 101.498 101.319 101.661 101.382C101.847 101.455 102.033 101.527 102.213 101.605C103.352 102.08 104.385 102.775 105.252 103.651C105.737 104.149 106.119 104.736 106.378 105.38L106.423 105.505C106.555 105.86 106.65 106.228 106.707 106.602C106.933 107.753 106.769 108.946 106.24 109.994C105.79 110.837 105.178 111.584 104.438 112.191L104.275 112.324C104.186 112.394 104.098 112.463 104.006 112.531C102.962 113.275 101.804 113.843 100.576 114.214C99.2572 114.629 97.8989 114.906 96.5228 115.042C95.9885 115.113 95.4509 115.156 94.9121 115.172C94.6245 115.181 94.3373 115.182 94.0501 115.177ZM106.344 125.813C106.439 126.336 106.423 126.874 106.298 127.391C106.173 127.908 105.94 128.393 105.616 128.816C104.885 129.736 103.939 130.465 102.862 130.939C101.571 131.526 100.208 131.944 98.8089 132.181C97.3175 132.454 95.8044 132.593 94.288 132.595C93.214 132.527 92.2007 132.432 91.2482 132.311L91.0989 132.29C91.073 129.762 91.2884 127.238 91.7422 124.751C92.1317 122.606 92.5955 120.497 93.1336 118.426C93.2721 118.455 93.4114 118.485 93.5605 118.512L95.4832 118.822C95.6561 118.857 95.821 118.883 95.9769 118.9C96.1328 118.918 96.2968 118.944 96.4705 118.978C97.8331 119.25 99.1648 119.657 100.446 120.194C101.499 120.636 102.501 121.192 103.434 121.851C104.198 122.391 104.873 123.046 105.434 123.793C105.893 124.386 106.204 125.078 106.344 125.813Z" fill="white"/>
<path d="M110.834 243.624C110.594 245.067 110.072 246.114 109.266 246.766C108.44 247.431 107.34 247.65 105.965 247.422C104.589 247.194 103.627 246.633 103.077 245.739C102.508 244.86 102.343 243.698 102.582 242.255L102.696 241.568L105.345 242.007L105.201 242.873C105.094 243.518 105.147 243.989 105.359 244.286C105.552 244.597 105.869 244.789 106.311 244.862C106.752 244.936 107.123 244.858 107.422 244.628C107.702 244.413 107.896 243.983 108.003 243.337C108.104 242.726 108.058 242.16 107.866 241.64C107.67 241.136 107.404 240.639 107.066 240.147C106.727 239.672 106.363 239.184 105.975 238.683C105.567 238.197 105.2 237.674 104.874 237.114C104.548 236.554 104.302 235.937 104.134 235.264C103.967 234.591 103.953 233.83 104.094 232.981C104.333 231.538 104.874 230.485 105.717 229.822C106.54 229.173 107.639 228.963 109.014 229.191C110.389 229.419 111.37 229.974 111.957 230.857C112.523 231.753 112.687 232.923 112.448 234.366L112.245 235.589L109.596 235.149L109.828 233.749C109.935 233.103 109.883 232.632 109.67 232.335C109.441 232.036 109.105 231.849 108.664 231.776C108.223 231.703 107.853 231.772 107.556 231.985C107.243 232.195 107.032 232.622 106.925 233.267C106.824 233.878 106.871 234.436 107.066 234.939C107.259 235.46 107.526 235.957 107.866 236.432C108.203 236.925 108.575 237.414 108.983 237.9C109.371 238.401 109.728 238.931 110.054 239.491C110.38 240.051 110.626 240.667 110.794 241.341C110.961 242.014 110.974 242.775 110.834 243.624Z" fill="black"/>
<path d="M89.1972 243.117L86.4976 242.236L92.104 225.057L94.8036 225.938L89.1972 243.117Z" fill="black"/>
<path d="M73.2721 232.824L79.2247 221.168L81.5009 222.33L73.2822 238.424L70.1094 236.804L72.4309 225.844L67.5114 235.477L65.2583 234.326L73.4769 218.232L76.0749 219.559L73.2721 232.824Z" fill="black"/>
<path d="M54.3138 212.817L55.7798 210.916C56.673 209.757 57.6476 209.085 58.7034 208.9C59.7351 208.717 60.803 209.051 61.907 209.903C63.011 210.754 63.6127 211.707 63.7123 212.761C63.7877 213.819 63.3788 214.927 62.4855 216.086L56.7477 223.528C55.8545 224.686 54.892 225.357 53.8603 225.539C52.8045 225.725 51.7245 225.392 50.6205 224.541C49.5166 223.69 48.9268 222.735 48.8514 221.677C48.7519 220.623 49.1487 219.516 50.042 218.357L51.1139 216.967L53.2401 218.607L52.0579 220.14C51.6585 220.658 51.4891 221.103 51.5495 221.476C51.5858 221.851 51.7812 222.176 52.1355 222.449C52.4899 222.722 52.8602 222.834 53.2464 222.784C53.6085 222.737 53.9892 222.455 54.3885 221.937L60.347 214.209C60.7463 213.691 60.9226 213.251 60.8758 212.889C60.8153 212.516 60.6079 212.193 60.2536 211.92C59.8992 211.647 59.541 211.534 59.1789 211.581C58.8032 211.617 58.4157 211.894 58.0163 212.412L56.44 214.456L54.3138 212.817Z" fill="black"/>
<path d="M40.6213 204.601L38.0076 201.709L39.9229 199.978L42.5366 202.87L46.4629 199.322L43.1741 195.683L45.0894 193.952L50.2822 199.698L36.8753 211.814L31.6824 206.069L33.5977 204.338L36.8865 207.977L40.6213 204.601Z" fill="black"/>
<path d="M16.9711 176.07C16.2406 176.417 15.8102 176.775 15.6797 177.142C15.5264 177.5 15.5458 177.882 15.7379 178.286C15.9301 178.69 16.2096 178.957 16.5766 179.088C16.9206 179.21 17.3879 179.131 17.9785 178.85L19.7271 178.018L20.8801 180.443L19.2947 181.197C17.9736 181.825 16.8118 181.987 15.8094 181.682C14.784 181.369 13.972 180.584 13.3733 179.325C12.7746 178.066 12.6812 176.948 13.0932 175.97C13.4822 174.985 14.3372 174.178 15.6584 173.55C16.5443 173.129 17.4112 172.888 18.2592 172.828C19.0998 172.752 19.9115 172.776 20.6943 172.899C21.4771 173.022 22.2281 173.199 22.9471 173.428C23.6507 173.666 24.3165 173.863 24.9446 174.022C25.5572 174.188 26.1328 174.277 26.6715 174.287C27.2102 174.298 27.7019 174.15 28.1468 173.843L25.8408 168.994L28.1722 167.885L31.6977 175.299L29.6927 176.252C28.9 176.629 28.1415 176.837 27.4171 176.877C26.6927 176.917 25.9931 176.868 25.3183 176.732C24.6207 176.587 23.9507 176.4 23.3086 176.172C22.6509 175.951 21.9847 175.773 21.31 175.636C20.6278 175.484 19.9323 175.424 19.2234 175.456C18.5146 175.489 17.7638 175.693 16.9711 176.07Z" fill="black"/>
<path d="M19.1359 156.249C19.7671 156.078 20.1818 155.832 20.38 155.51C20.5571 155.177 20.5871 154.795 20.47 154.363C20.3528 153.931 20.1359 153.624 19.8192 153.442C19.4814 153.249 18.9969 153.237 18.3657 153.409L8.94746 155.963C8.31625 156.134 7.91211 156.386 7.73502 156.719C7.53681 157.04 7.49626 157.417 7.61337 157.849C7.73048 158.281 7.95795 158.594 8.29579 158.787C8.61251 158.969 9.08648 158.974 9.71768 158.803L19.1359 156.249ZM10.6353 161.496C9.22338 161.879 8.04686 161.815 7.1057 161.303C6.14793 160.796 5.48663 159.87 5.12179 158.525C4.75694 157.179 4.85973 156.046 5.43013 155.124C5.98393 154.207 6.96677 153.557 8.37867 153.174L17.448 150.715C18.8599 150.332 20.0448 150.394 21.0025 150.901C21.9437 151.413 22.5967 152.342 22.9615 153.687C23.3264 155.032 23.2319 156.164 22.6781 157.081C22.1077 158.002 21.1166 158.654 19.7047 159.037L10.6353 161.496Z" fill="black"/>
<path d="M4.10223 138.697C4.05508 138.148 3.95676 137.708 3.80726 137.375C3.65629 137.025 3.46834 136.748 3.24342 136.543C3.0185 136.337 2.76297 136.178 2.47682 136.064C2.19068 135.951 1.88886 135.856 1.57137 135.779L1.40782 133.876L19.4124 132.329L19.6556 135.158L5.9206 136.338L6.10846 138.525L4.10223 138.697Z" fill="black"/>
<path d="M5.47678 119.512C3.95172 119.369 2.82797 118.91 2.10552 118.133C1.36594 117.355 1.06515 116.229 1.20314 114.756C1.33311 113.368 1.8251 112.359 2.67912 111.731C3.51761 111.083 4.66511 110.828 6.12163 110.964L6.58428 111.007L6.33397 113.68L5.69139 113.62C5.04024 113.559 4.57332 113.654 4.29061 113.904C3.99238 114.135 3.8224 114.474 3.78068 114.919C3.73415 115.416 3.85227 115.816 4.13503 116.119C4.4178 116.422 4.98757 116.614 5.84434 116.694L9.13435 117.002C8.11849 116.406 7.66912 115.482 7.78625 114.231C7.88413 113.186 8.30841 112.439 9.0591 111.991C9.8114 111.526 10.8558 111.355 12.1924 111.481L15.4824 111.789C16.9389 111.925 18.0268 112.399 18.746 113.209C19.4481 114.018 19.7342 115.117 19.6042 116.505C19.4743 117.893 18.9892 118.919 18.1491 119.584C17.2919 120.247 16.135 120.51 14.6785 120.374L5.47678 119.512ZM10.2483 115.629C10.2065 116.074 10.3099 116.447 10.5584 116.747C10.7914 117.028 11.2334 117.199 11.8846 117.26L15.1232 117.563C15.7744 117.624 16.2405 117.538 16.5216 117.305C16.8043 117.055 16.9665 116.707 17.0082 116.262C17.0499 115.816 16.9543 115.453 16.7213 115.172C16.49 114.873 16.0487 114.694 15.3976 114.633L12.159 114.33C11.5078 114.269 11.0409 114.363 10.7582 114.613C10.46 114.845 10.29 115.183 10.2483 115.629Z" fill="black"/>
<path d="M16.7236 86.452C16.2609 86.2648 15.8657 86.0028 15.5378 85.666C15.1939 85.3227 14.9365 84.9493 14.7655 84.546C14.585 84.1202 14.4876 83.6724 14.4735 83.2026C14.4658 82.7168 14.5555 82.2425 14.7426 81.7798C14.9298 81.3172 15.1918 80.9219 15.5286 80.594C15.8719 80.2502 16.2532 79.996 16.6725 79.8314C17.0823 79.6444 17.5301 79.5471 18.0159 79.5394C18.4858 79.5252 18.9521 79.6117 19.4148 79.7989C19.8774 79.986 20.2807 80.2512 20.6245 80.5945C20.9524 80.9314 21.2066 81.3127 21.3871 81.7384C21.5581 82.1418 21.6475 82.5864 21.6552 83.0722C21.6694 83.542 21.5829 84.0083 21.3957 84.471C21.2086 84.9337 20.9434 85.3369 20.6001 85.6808C20.2632 86.0086 19.8899 86.2661 19.4801 86.453C19.0608 86.6176 18.6162 86.707 18.1464 86.7211C17.6605 86.7288 17.1863 86.6391 16.7236 86.452Z" fill="black"/>
<path d="M27.578 54.6279C26.4362 53.7133 25.7783 52.7452 25.6043 51.7237C25.4276 50.6781 25.775 49.6112 26.6465 48.5232C27.5181 47.4352 28.478 46.87 29.5263 46.8277C30.5719 46.7612 31.6656 47.1852 32.8073 48.0998L33.3513 48.5356L31.6727 50.631L30.9877 50.0823C30.4773 49.6734 30.0406 49.489 29.6777 49.5291C29.3122 49.545 28.9895 49.7275 28.7098 50.0768C28.43 50.426 28.3169 50.7874 28.3704 51.1611C28.4213 51.5105 28.7019 51.8897 29.2123 52.2986C29.6959 52.6859 30.2118 52.9228 30.76 53.0091C31.2949 53.0847 31.8593 53.0959 32.4533 53.0425C33.034 52.9784 33.6374 52.8995 34.2637 52.8058C34.8874 52.6879 35.5231 52.6238 36.1709 52.6135C36.8187 52.6032 37.4771 52.6896 38.1463 52.8728C38.8154 53.056 39.4858 53.4166 40.1574 53.9546C41.2991 54.8692 41.953 55.856 42.1189 56.9151C42.2822 57.9501 41.9281 59.0115 41.0565 60.0995C40.185 61.1875 39.221 61.7715 38.1647 61.8515C37.1056 61.9072 36.0052 61.4778 34.8635 60.5632L33.8964 59.7885L35.5749 57.6931L36.6831 58.5808C37.1935 58.9897 37.6302 59.1741 37.9931 59.134C38.3667 59.0805 38.6934 58.8791 38.9732 58.5298C39.2529 58.1806 39.3728 57.8245 39.3327 57.4617C39.3033 57.0853 39.0335 56.6928 38.523 56.2839C38.0395 55.8965 37.5303 55.665 36.9955 55.5894C36.4472 55.5031 35.8828 55.492 35.3022 55.5561C34.7081 55.6095 34.0993 55.6951 33.4756 55.8129C32.8493 55.9066 32.2123 55.9586 31.5645 55.969C30.9167 55.9793 30.2583 55.8929 29.5891 55.7097C28.92 55.5264 28.2496 55.1658 27.578 54.6279Z" fill="black"/>
<path d="M39.4197 35.7091L41.5085 33.7853L53.7509 47.0775L51.6622 49.0013L39.4197 35.7091Z" fill="black"/>
<path d="M55.7973 28.2984L63.0533 39.1916L60.9263 40.6084L50.9081 25.5686L53.8731 23.5936L62.2976 30.9788L56.301 21.9764L58.4066 20.5738L68.4247 35.6137L65.9968 37.2309L55.7973 28.2984Z" fill="black"/>
<path d="M83.6331 20.3227L84.5746 22.5313C85.1482 23.8771 85.2577 25.0558 84.9032 26.0675C84.5578 27.0566 83.7439 27.8245 82.4615 28.3712C81.1791 28.9178 80.0536 28.9766 79.0849 28.5476C78.1254 28.096 77.3588 27.1974 76.7852 25.8516L73.1004 17.2073C72.5268 15.8615 72.4127 14.6941 72.7581 13.705C73.1127 12.6933 73.9311 11.9141 75.2135 11.3675C76.4959 10.8208 77.6169 10.7733 78.5765 11.2249C79.5451 11.6539 80.3162 12.5413 80.8898 13.887L81.5782 15.5019L79.1084 16.5546L78.3492 14.7735C78.0927 14.1719 77.7872 13.8063 77.4327 13.6768C77.0872 13.5248 76.7087 13.5364 76.2971 13.7119C75.8854 13.8874 75.6069 14.1557 75.4616 14.517C75.3253 14.8557 75.3854 15.3259 75.6419 15.9275L79.4683 24.9043C79.7248 25.506 80.0223 25.8749 80.3611 26.0112C80.7156 26.1407 81.0987 26.1177 81.5103 25.9422C81.922 25.7668 82.1959 25.5097 82.3322 25.171C82.4842 24.8255 82.4321 24.352 82.1756 23.7503L81.1633 21.3755L83.6331 20.3227Z" fill="black"/>
<path d="M96.7155 12.0815L100.516 11.2161L101.089 13.7333L97.2886 14.5986L98.4634 19.7588L103.246 18.6699L103.819 21.1871L96.2676 22.9063L92.2561 5.28625L99.8075 3.56702L100.381 6.08417L95.598 7.17302L96.7155 12.0815Z" fill="black"/>
<path d="M133.054 5.80418C133.108 4.99711 133.007 4.44697 132.751 4.15374C132.513 3.8445 132.171 3.67487 131.725 3.64484C131.278 3.61481 130.908 3.72793 130.615 3.9842C130.34 4.22445 130.181 4.67084 130.137 5.32336L130.007 7.25517L127.328 7.075L127.446 5.32349C127.544 3.8639 127.971 2.77142 128.727 2.04605C129.502 1.30466 130.584 0.980741 131.975 1.07429C133.366 1.16784 134.387 1.63323 135.038 2.47048C135.707 3.29171 135.993 4.43212 135.894 5.89171C135.829 6.8705 135.615 7.74444 135.252 8.51355C134.907 9.28381 134.49 9.98019 133.999 10.6027C133.509 11.2252 132.988 11.7938 132.436 12.3087C131.885 12.8064 131.386 13.2903 130.941 13.7606C130.496 14.2137 130.138 14.6725 129.865 15.1372C129.592 15.6018 129.481 16.1032 129.531 16.6413L134.888 17.0016L134.715 19.5774L126.524 19.0265L126.673 16.8113C126.732 15.9356 126.922 15.1721 127.241 14.5209C127.561 13.8697 127.946 13.2832 128.395 12.7614C128.862 12.2236 129.352 11.7305 129.865 11.282C130.38 10.8164 130.861 10.3226 131.311 9.80087C131.777 9.28025 132.169 8.70292 132.488 8.06888C132.806 7.43483 132.995 6.67993 133.054 5.80418Z" fill="black"/>
<path d="M148.577 17.5862C148.417 18.2205 148.429 18.7026 148.612 19.0326C148.816 19.3501 149.135 19.5634 149.569 19.6724C150.003 19.7815 150.377 19.7423 150.69 19.5549C151.025 19.3549 151.271 18.9378 151.431 18.3036L153.809 8.8396C153.969 8.20533 153.946 7.72945 153.742 7.41195C153.559 7.08197 153.25 6.86243 152.816 6.75336C152.383 6.64429 151.998 6.68972 151.664 6.88966C151.351 7.0771 151.115 7.48795 150.955 8.12222L148.577 17.5862ZM148.157 7.60528C148.514 6.18652 149.145 5.19178 150.052 4.62106C150.962 4.03365 152.094 3.90986 153.446 4.24966C154.798 4.58947 155.736 5.23347 156.261 6.18167C156.79 7.11317 156.876 8.2883 156.519 9.70706L154.229 18.8205C153.872 20.2393 153.239 21.2424 152.328 21.8298C151.421 22.4005 150.292 22.5159 148.94 22.1761C147.588 21.8363 146.648 21.2007 146.119 20.2692C145.594 19.321 145.51 18.1375 145.866 16.7187L148.157 7.60528Z" fill="black"/>
<path d="M171.781 13.2855C172.283 13.5128 172.716 13.6425 173.079 13.6748C173.458 13.7142 173.792 13.686 174.081 13.5902C174.37 13.4944 174.634 13.3495 174.873 13.1554C175.112 12.9614 175.342 12.7446 175.564 12.505L177.304 13.2933L169.848 29.7542L167.261 28.5825L172.949 16.0252L170.951 15.1197L171.781 13.2855Z" fill="black"/>
<path d="M187.775 23.3854C188.646 22.125 189.596 21.3696 190.627 21.1192C191.667 20.8546 192.796 21.1428 194.014 21.9839C195.161 22.7761 195.8 23.6984 195.931 24.7508C196.085 25.7989 195.747 26.9247 194.916 28.1285L194.652 28.5108L192.442 26.9851L192.809 26.4541C193.181 25.9159 193.327 25.4624 193.247 25.0935C193.191 24.7202 192.979 24.4064 192.611 24.1521C192.2 23.8685 191.793 23.7759 191.391 23.8743C190.988 23.9728 190.542 24.376 190.053 25.0841L188.175 27.8031C189.192 27.2087 190.218 27.2685 191.252 27.9824C192.115 28.579 192.559 29.3143 192.583 30.1884C192.621 31.0722 192.259 32.0664 191.496 33.171L189.618 35.89C188.787 37.0937 187.842 37.811 186.783 38.0419C185.734 38.2586 184.636 37.9709 183.489 37.1787C182.342 36.3865 181.684 35.4615 181.515 34.4036C181.356 33.3317 181.692 32.1938 182.523 30.9901L187.775 23.3854ZM188.829 29.4465C188.461 29.1922 188.085 29.1001 187.702 29.1702C187.343 29.2359 186.977 29.5379 186.606 30.076L184.757 32.7525C184.386 33.2907 184.233 33.7393 184.298 34.0984C184.378 34.4673 184.602 34.7789 184.97 35.0332C185.339 35.2875 185.702 35.3818 186.061 35.316C186.435 35.2601 186.807 34.9631 187.179 34.4249L189.027 31.7484C189.399 31.2103 189.545 30.7568 189.465 30.3879C189.409 30.0146 189.197 29.7008 188.829 29.4465Z" fill="black"/>
<path d="M210.987 50.0604C211.377 49.7483 211.799 49.5317 212.253 49.4105C212.72 49.2785 213.172 49.2365 213.607 49.2846C214.067 49.3354 214.505 49.4695 214.922 49.6869C215.35 49.9178 215.719 50.228 216.031 50.6175C216.343 51.0071 216.56 51.4289 216.681 51.8831C216.813 52.3507 216.849 52.8076 216.787 53.2538C216.75 53.7027 216.616 54.1409 216.385 54.5684C216.167 54.9852 215.864 55.3496 215.474 55.6616C215.085 55.9736 214.656 56.1957 214.188 56.3277C213.734 56.4489 213.277 56.4841 212.818 56.4334C212.382 56.3853 211.951 56.2458 211.523 56.0149C211.107 55.7975 210.742 55.494 210.43 55.1044C210.118 54.7149 209.896 54.2863 209.764 53.8187C209.643 53.3646 209.601 52.9131 209.638 52.4642C209.7 52.0179 209.839 51.5865 210.057 51.1697C210.288 50.7422 210.598 50.3724 210.987 50.0604Z" fill="black"/>
<path d="M233.927 75.2002C235.283 74.6516 236.449 74.5512 237.425 74.899C238.423 75.2563 239.184 76.0811 239.707 77.3734C240.229 78.6657 240.253 79.7794 239.777 80.7145C239.324 81.659 238.419 82.4056 237.063 82.9541L236.417 83.2155L235.41 80.7266L236.224 80.3974C236.83 80.1522 237.204 79.8615 237.347 79.5254C237.512 79.1988 237.51 78.8281 237.343 78.4132C237.175 77.9984 236.915 77.723 236.563 77.5869C236.233 77.4604 235.765 77.5197 235.159 77.7649C234.585 77.9973 234.126 78.3314 233.782 78.7674C233.455 79.1969 233.169 79.6838 232.925 80.228C232.697 80.7658 232.471 81.3308 232.246 81.9229C232.044 82.5245 231.789 83.1104 231.481 83.6804C231.173 84.2505 230.776 84.7826 230.289 85.2766C229.802 85.7707 229.159 86.179 228.361 86.5017C227.005 87.0503 225.825 87.1379 224.82 86.7647C223.837 86.401 223.085 85.5729 222.562 84.2806C222.039 82.9883 222.001 81.8619 222.448 80.9014C222.917 79.9504 223.83 79.2006 225.186 78.652L226.335 78.1874L227.342 80.6763L226.025 81.2087C225.419 81.454 225.045 81.7446 224.902 82.0808C224.766 82.4328 224.782 82.8163 224.95 83.2311C225.118 83.6459 225.37 83.9246 225.706 84.0671C226.048 84.2256 226.523 84.1822 227.129 83.937C227.703 83.7046 228.154 83.3737 228.482 82.9442C228.825 82.5082 229.111 82.0213 229.339 81.4835C229.583 80.9393 229.806 80.3663 230.008 79.7647C230.233 79.1726 230.499 78.5915 230.807 78.0215C231.115 77.4514 231.512 76.9193 231.999 76.4253C232.486 75.9312 233.129 75.5229 233.927 75.2002Z" fill="black"/>
<path d="M244.806 94.5681L245.462 97.3309L227.88 101.508L227.224 98.7454L244.806 94.5681Z" fill="black"/>
<path d="M243.307 112.336L230.257 113.338L230.061 110.789L248.079 109.407L248.352 112.959L237.79 116.695L248.575 115.868L248.769 118.39L230.751 119.773L230.528 116.864L243.307 112.336Z" fill="black"/>
<path d="M236.891 140.422L234.504 140.163C233.049 140.005 231.968 139.524 231.259 138.72C230.565 137.935 230.293 136.85 230.444 135.464C230.594 134.078 231.093 133.068 231.941 132.433C232.804 131.816 233.963 131.587 235.417 131.745L244.759 132.759C246.214 132.917 247.288 133.388 247.982 134.173C248.691 134.977 248.97 136.072 248.82 137.458C248.669 138.844 248.162 139.845 247.299 140.461C246.451 141.096 245.3 141.335 243.846 141.177L242.101 140.988L242.39 138.319L244.315 138.527C244.965 138.598 245.434 138.51 245.72 138.264C246.022 138.037 246.197 137.702 246.245 137.257C246.293 136.812 246.195 136.438 245.951 136.134C245.722 135.85 245.283 135.672 244.633 135.602L234.931 134.549C234.281 134.478 233.814 134.557 233.529 134.786C233.243 135.032 233.076 135.377 233.027 135.822C232.979 136.267 233.069 136.632 233.298 136.916C233.525 137.218 233.964 137.404 234.614 137.475L237.18 137.753L236.891 140.422Z" fill="black"/>
<path d="M237.332 155.721L236.228 159.459L233.752 158.728L234.857 154.99L229.781 153.491L228.392 158.195L225.916 157.464L228.11 150.036L245.441 155.155L243.247 162.582L240.771 161.851L242.16 157.147L237.332 155.721Z" fill="black"/>
<path d="M224.658 190.492C225.335 190.934 225.865 191.115 226.246 191.034C226.632 190.978 226.947 190.763 227.192 190.388C227.436 190.013 227.518 189.635 227.438 189.254C227.363 188.897 227.052 188.54 226.504 188.182L224.883 187.124L226.35 184.876L227.82 185.835C229.045 186.634 229.789 187.541 230.052 188.555C230.32 189.593 230.073 190.696 229.311 191.864C228.549 193.031 227.644 193.694 226.595 193.852C225.552 194.034 224.418 193.726 223.192 192.926C222.371 192.39 221.713 191.776 221.22 191.084C220.716 190.406 220.313 189.701 220.01 188.969C219.707 188.237 219.466 187.504 219.287 186.771C219.122 186.047 218.944 185.375 218.752 184.757C218.574 184.148 218.349 183.61 218.077 183.145C217.805 182.68 217.422 182.338 216.929 182.118L213.994 186.615L211.832 185.204L216.319 178.329L218.178 179.543C218.913 180.022 219.486 180.561 219.898 181.158C220.309 181.756 220.633 182.378 220.868 183.025C221.109 183.695 221.299 184.364 221.439 185.031C221.594 185.707 221.789 186.369 222.025 187.016C222.251 187.677 222.562 188.302 222.959 188.89C223.357 189.478 223.923 190.012 224.658 190.492Z" fill="black"/>
<path d="M206.831 198.737C206.355 198.288 205.929 198.063 205.552 198.061C205.175 198.084 204.833 198.258 204.525 198.583C204.218 198.908 204.069 199.253 204.08 199.618C204.091 200.007 204.334 200.427 204.809 200.876L211.9 207.579C212.376 208.029 212.802 208.242 213.178 208.219C213.556 208.221 213.898 208.059 214.206 207.734C214.513 207.409 214.661 207.051 214.65 206.662C214.64 206.297 214.397 205.89 213.922 205.441L206.831 198.737ZM215.742 203.253C216.805 204.258 217.363 205.295 217.418 206.365C217.485 207.447 217.039 208.494 216.082 209.507C215.124 210.52 214.104 211.024 213.02 211.018C211.949 211.023 210.881 210.524 209.818 209.519L202.99 203.064C201.926 202.059 201.361 201.016 201.294 199.934C201.24 198.864 201.692 197.823 202.649 196.81C203.607 195.797 204.621 195.287 205.692 195.281C206.776 195.287 207.85 195.793 208.913 196.798L215.742 203.253Z" fill="black"/>
<path d="M199.841 221.497C199.398 221.824 199.073 222.138 198.867 222.439C198.647 222.75 198.509 223.055 198.451 223.354C198.393 223.653 198.39 223.954 198.443 224.258C198.495 224.561 198.571 224.868 198.672 225.179L197.133 226.311L186.422 211.757L188.709 210.073L196.88 221.176L198.648 219.876L199.841 221.497Z" fill="black"/>
<path d="M182.395 229.453C183.068 230.829 183.262 232.027 182.977 233.049C182.699 234.086 181.895 234.929 180.566 235.58C179.314 236.193 178.197 236.3 177.215 235.899C176.225 235.521 175.409 234.676 174.765 233.362L174.561 232.944L176.972 231.764L177.256 232.343C177.544 232.931 177.868 233.28 178.229 233.39C178.582 233.524 178.959 233.493 179.361 233.296C179.809 233.076 180.089 232.767 180.2 232.368C180.311 231.968 180.177 231.382 179.799 230.609L178.346 227.642C178.367 228.82 177.813 229.685 176.685 230.237C175.742 230.699 174.883 230.726 174.109 230.32C173.32 229.921 172.63 229.118 172.04 227.913L170.586 224.945C169.943 223.631 169.78 222.456 170.096 221.42C170.42 220.399 171.208 219.582 172.46 218.968C173.712 218.355 174.841 218.234 175.846 218.604C176.859 218.99 177.687 219.839 178.33 221.153L182.395 229.453ZM176.593 227.408C176.995 227.211 177.259 226.928 177.385 226.56C177.503 226.215 177.419 225.748 177.131 225.161L175.7 222.24C175.413 221.652 175.096 221.299 174.751 221.181C174.39 221.07 174.009 221.113 173.607 221.31C173.205 221.507 172.945 221.778 172.827 222.123C172.693 222.476 172.77 222.947 173.057 223.534L174.488 226.455C174.775 227.043 175.1 227.392 175.461 227.502C175.814 227.636 176.191 227.605 176.593 227.408Z" fill="black"/>
<path d="M147.838 238.195C147.92 238.688 147.903 239.162 147.786 239.617C147.673 240.089 147.488 240.504 147.234 240.86C146.964 241.236 146.633 241.553 146.24 241.81C145.829 242.07 145.378 242.241 144.885 242.322C144.393 242.404 143.919 242.387 143.464 242.27C142.991 242.157 142.575 241.964 142.216 241.692C141.843 241.44 141.526 241.109 141.266 240.698C141.009 240.305 140.84 239.862 140.758 239.37C140.677 238.877 140.693 238.395 140.806 237.922C140.922 237.467 141.115 237.051 141.384 236.675C141.639 236.319 141.972 236.011 142.382 235.751C142.776 235.493 143.219 235.324 143.711 235.242C144.204 235.161 144.686 235.177 145.158 235.29C145.614 235.407 146.028 235.591 146.401 235.843C146.761 236.115 147.069 236.448 147.326 236.841C147.586 237.252 147.757 237.703 147.838 238.195Z" fill="black"/>
</svg>
