<svg width="184" height="91" viewBox="0 0 184 91" fill="none" xmlns="http://www.w3.org/2000/svg">
<path d="M1 7C10.8333 7 31.6 12 36 32" stroke="#FF007A" stroke-width="2" stroke-linecap="round"/>
<path d="M6 1C15.8333 1 36.6 6 41 26" stroke="#FF007A" stroke-width="2" stroke-linecap="round"/>
<path d="M68.522 42.984C68.3687 43.076 68.1847 43.0377 67.97 42.869C67.7707 42.685 67.5867 42.4397 67.418 42.133C67.326 41.903 67.257 41.7037 67.211 41.535L67.004 40.983L66.958 40.132C66.9427 40.1167 66.728 40.293 66.314 40.661C65.9153 41.0137 65.4093 41.4967 64.796 42.11C64.4433 42.432 64.1903 42.6467 64.037 42.754C63.8837 42.8613 63.761 42.915 63.669 42.915C63.577 42.915 63.4697 42.8767 63.347 42.8C63.2243 42.7233 63.163 42.6773 63.163 42.662C63.1477 42.6313 63.14 42.5087 63.14 42.294C63.14 41.972 63.163 41.742 63.209 41.604C63.3623 41.4047 63.7763 40.96 64.451 40.27C65.1257 39.5647 65.5243 39.166 65.647 39.074C65.7697 38.9667 65.831 38.8823 65.831 38.821C65.831 38.775 65.7697 38.6983 65.647 38.591C65.6163 38.5603 65.5857 38.5297 65.555 38.499C65.5243 38.4683 65.5013 38.4377 65.486 38.407C65.486 38.3763 65.5013 38.361 65.532 38.361C65.532 38.3457 65.5243 38.3227 65.509 38.292C65.4937 38.246 65.463 38.2153 65.417 38.2C65.325 38.062 65.279 37.9317 65.279 37.809C65.279 37.7477 65.2483 37.648 65.187 37.51C65.141 37.372 65.1103 37.28 65.095 37.234C65.0183 37.188 65.0107 37.0423 65.072 36.797C65.1487 36.5517 65.2253 36.3907 65.302 36.314C65.3173 36.314 65.3403 36.3217 65.371 36.337C65.4017 36.3523 65.4477 36.383 65.509 36.429C65.555 36.429 65.6623 36.5363 65.831 36.751C66.015 36.9503 66.176 37.142 66.314 37.326C66.406 37.51 66.4673 37.625 66.498 37.671C66.544 37.7017 66.59 37.717 66.636 37.717C66.6973 37.7017 66.751 37.694 66.797 37.694C66.8277 37.6327 66.889 37.5023 66.981 37.303C67.0883 37.1037 67.1573 36.889 67.188 36.659C67.3873 36.383 67.533 36.1607 67.625 35.992C67.7323 35.8233 67.8243 35.693 67.901 35.601C67.9317 35.5243 67.97 35.4477 68.016 35.371C68.0773 35.2943 68.1157 35.2483 68.131 35.233C68.131 35.2023 68.1463 35.1563 68.177 35.095C68.223 35.0337 68.269 34.9953 68.315 34.98C68.407 34.8573 68.5297 34.7577 68.683 34.681C68.8363 34.6043 68.936 34.5813 68.982 34.612C69.028 34.6733 69.0893 34.7423 69.166 34.819C69.2427 34.8957 69.2963 34.98 69.327 35.072L69.741 35.417L69.442 35.808C69.1353 36.268 68.867 36.7203 68.637 37.165C68.407 37.6097 68.315 37.832 68.361 37.832C68.407 37.8167 68.4913 37.786 68.614 37.74C68.752 37.6787 68.89 37.6327 69.028 37.602C69.2273 37.51 69.419 37.4333 69.603 37.372C69.7563 37.372 69.9403 37.303 70.155 37.165C70.293 37.119 70.4003 37.096 70.477 37.096C70.5537 37.096 70.6303 37.119 70.707 37.165C70.8143 37.2723 70.914 37.4487 71.006 37.694C71.1133 37.924 71.167 38.085 71.167 38.177C71.1517 38.1923 71.0213 38.292 70.776 38.476C70.546 38.66 70.201 38.821 69.741 38.959C68.775 39.2503 68.2767 39.4497 68.246 39.557C68.1693 39.557 68.131 39.5953 68.131 39.672C68.131 39.7333 68.1693 39.8253 68.246 39.948C68.2767 40.04 68.2997 40.247 68.315 40.569C68.3917 40.8603 68.4453 41.0903 68.476 41.259C68.522 41.4277 68.5527 41.535 68.568 41.581C68.614 41.581 68.637 41.5733 68.637 41.558C68.6523 41.5273 68.66 41.489 68.66 41.443C68.66 41.3817 68.729 41.351 68.867 41.351C68.9283 41.351 69.0357 41.4583 69.189 41.673C69.3423 41.8723 69.396 41.9873 69.35 42.018V42.156C69.4267 42.1713 69.3193 42.317 69.028 42.593C68.752 42.8537 68.5833 42.984 68.522 42.984ZM78.2345 43.49C78.3571 43.6127 78.4185 43.7813 78.4185 43.996C78.4185 44.1953 78.3725 44.3947 78.2805 44.594C78.1885 44.778 78.0811 44.9237 77.9585 45.031C77.5751 45.3223 77.1535 45.6597 76.6935 46.043C75.6968 46.8403 74.9531 47.4153 74.4625 47.768C74.5545 47.906 74.7461 48.251 75.0375 48.803L75.2905 49.286C75.3518 49.378 75.4285 49.5007 75.5205 49.654C75.6125 49.8073 75.7121 49.9147 75.8195 49.976C75.9268 50.022 76.1031 50.045 76.3485 50.045C76.6245 50.1677 76.8008 50.298 76.8775 50.436C76.9541 50.5587 76.9925 50.689 76.9925 50.827C76.9925 50.9497 77.0001 51.0493 77.0155 51.126L76.8775 51.494C76.8775 51.494 76.8008 51.586 76.6475 51.77C76.5095 51.954 76.2488 52.046 75.8655 52.046C75.7275 52.046 75.5435 52.0077 75.3135 51.931C74.8995 51.793 74.4625 51.4633 74.0025 50.942C73.8951 50.804 73.5961 50.1677 73.1055 49.033C72.8601 48.4503 72.6608 47.998 72.5075 47.676C72.3235 48.1513 72.2315 48.5347 72.2315 48.826C72.0935 49.056 71.9708 49.3627 71.8635 49.746C71.7561 50.1293 71.6871 50.367 71.6565 50.459C71.5645 50.8423 71.3268 51.1797 70.9435 51.471C70.6215 51.4863 70.3838 51.4633 70.2305 51.402C70.0925 51.3253 69.9161 51.1567 69.7015 50.896C69.5941 50.666 69.5405 50.4283 69.5405 50.183C69.5405 50.0143 69.5711 49.8073 69.6325 49.562C69.6631 49.4547 69.9315 48.7033 70.4375 47.308C70.8515 46.1427 71.0661 45.5293 71.0815 45.468C71.1275 45.3147 71.1965 45.1383 71.2885 44.939C71.3958 44.7397 71.4725 44.6017 71.5185 44.525C71.7945 44.0497 71.9708 43.651 72.0475 43.329C72.1088 43.099 72.2238 42.915 72.3925 42.777C72.5765 42.6237 72.7681 42.547 72.9675 42.547C73.2281 42.547 73.4505 42.662 73.6345 42.892V42.869C73.6805 42.8843 73.7341 42.9227 73.7955 42.984C73.8721 43.03 73.9258 43.076 73.9565 43.122C74.1558 43.352 74.2555 43.6127 74.2555 43.904C74.2555 44.1033 74.2018 44.2873 74.0945 44.456L73.7035 45.169C73.4428 45.5677 73.2205 45.997 73.0365 46.457C73.3278 46.411 73.5425 46.365 73.6805 46.319C73.8185 46.273 73.9565 46.1657 74.0945 45.997C74.2631 45.8283 74.4701 45.6213 74.7155 45.376C74.9761 45.1307 75.2291 44.8853 75.4745 44.64C75.7811 44.364 76.0648 44.0957 76.3255 43.835C76.3408 43.8043 76.3945 43.7277 76.4865 43.605C76.5938 43.467 76.7011 43.352 76.8085 43.26C76.9311 43.168 77.0615 43.099 77.1995 43.053C77.5061 43.0837 77.7361 43.1297 77.8895 43.191C78.0581 43.2523 78.1731 43.352 78.2345 43.49ZM78.8436 51.977C78.7209 51.931 78.5676 51.885 78.3836 51.839C78.2149 51.793 78.0769 51.7547 77.9696 51.724C77.6629 51.4173 77.4789 51.0953 77.4176 50.758C77.3869 50.6353 77.3716 50.5587 77.3716 50.528C77.3716 50.39 77.4253 50.2597 77.5326 50.137C77.5326 50.0603 77.5479 49.9607 77.5786 49.838H78.1996C78.5983 49.516 79.0046 49.056 79.4186 48.458C79.8326 47.86 80.1163 47.3233 80.2696 46.848C80.3003 46.7407 80.3309 46.6027 80.3616 46.434C80.3923 46.25 80.4383 46.1043 80.4996 45.997L80.7526 45.353C80.5073 45.307 80.3233 45.2457 80.2006 45.169C80.0779 45.077 79.8863 44.9007 79.6256 44.64C79.5949 44.272 79.6409 43.9807 79.7636 43.766C79.8863 43.5513 80.1316 43.4133 80.4996 43.352C80.6836 43.26 80.9826 43.214 81.3966 43.214C81.9333 43.214 82.4393 43.283 82.9146 43.421C83.0219 43.4517 83.1523 43.5053 83.3056 43.582C83.4589 43.6587 83.5969 43.72 83.7196 43.766C84.1949 43.904 84.6013 44.18 84.9386 44.594C85.2913 44.9927 85.4676 45.4297 85.4676 45.905C85.4676 46.411 85.3986 46.8863 85.2606 47.331L84.9846 48.274C84.8466 48.688 84.7623 48.9563 84.7316 49.079C84.4403 49.999 84.2869 50.8117 84.2716 51.517C84.1949 51.5477 84.0953 51.586 83.9726 51.632C83.8653 51.6627 83.7349 51.6933 83.5816 51.724C83.2443 51.632 82.9606 51.517 82.7306 51.379C82.5006 51.2257 82.3626 51.011 82.3166 50.735C82.3013 50.6583 82.2936 50.5433 82.2936 50.39C82.2936 50.0833 82.3396 49.7613 82.4316 49.424C82.5236 49.0867 82.6616 48.6343 82.8456 48.067L83.1676 47.055C83.3363 46.503 83.4206 46.112 83.4206 45.882C83.4206 45.7287 83.4053 45.6213 83.3746 45.56C83.2673 45.4833 83.1446 45.4297 83.0066 45.399C82.8686 45.353 82.7766 45.3223 82.7306 45.307C82.6539 45.491 82.5236 45.8207 82.3396 46.296C82.1709 46.7713 82.0866 47.032 82.0866 47.078C82.0713 47.3233 82.0176 47.5533 81.9256 47.768C81.8489 47.9827 81.7646 48.182 81.6726 48.366C81.5959 48.5347 81.5423 48.642 81.5116 48.688L81.2356 49.194C80.6223 50.436 79.8249 51.3637 78.8436 51.977ZM92.2885 51.954C92.1505 51.816 92.0355 51.6397 91.9435 51.425C91.8669 51.195 91.7672 50.85 91.6445 50.39C91.6139 50.298 91.5985 50.1677 91.5985 49.999C91.5985 49.815 91.5985 49.6847 91.5985 49.608C91.5372 49.746 91.4605 49.8993 91.3685 50.068C91.2765 50.2213 91.1845 50.3287 91.0925 50.39C90.7399 50.7427 90.3872 51.0033 90.0345 51.172C89.5439 51.4787 89.1222 51.632 88.7695 51.632C88.3402 51.632 87.9722 51.4327 87.6655 51.034C87.1749 50.6353 86.9295 50.16 86.9295 49.608C86.9295 49.5313 86.9449 49.3857 86.9755 49.171C87.0062 48.6037 87.0829 48.0593 87.2055 47.538C87.3435 47.0167 87.5965 46.3497 87.9645 45.537L88.6545 44.157L89.0225 43.444C89.0992 43.4133 89.2219 43.398 89.3905 43.398C89.6359 43.398 89.8659 43.444 90.0805 43.536C90.2952 43.628 90.4102 43.7507 90.4255 43.904C90.4715 43.9653 90.4945 44.0803 90.4945 44.249C90.4945 44.7397 90.2875 45.3913 89.8735 46.204L89.6895 46.641C89.4135 47.3003 89.2142 47.814 89.0915 48.182C88.9689 48.55 88.9075 48.8567 88.9075 49.102C88.9075 49.3473 88.9995 49.5083 89.1835 49.585C89.2602 49.631 89.3522 49.654 89.4595 49.654C89.7662 49.654 90.1342 49.4163 90.5635 48.941C91.0082 48.4657 91.4605 47.6683 91.9205 46.549C92.1352 46.0277 92.2655 45.491 92.3115 44.939C92.2809 44.7703 92.3269 44.5863 92.4495 44.387C92.5722 44.1877 92.7332 44.0267 92.9325 43.904C92.9939 43.812 93.0782 43.743 93.1855 43.697C93.2929 43.6357 93.3619 43.6357 93.3925 43.697L93.7605 43.674C93.8065 43.6587 93.8755 43.7277 93.9675 43.881C94.0749 44.0343 94.1515 44.1263 94.1975 44.157C94.3509 44.2797 94.4275 44.525 94.4275 44.893C94.4275 45.399 94.2435 46.0967 93.8755 46.986C93.5842 47.5993 93.3849 48.0747 93.2775 48.412C93.1855 48.734 93.1319 49.0483 93.1165 49.355C93.1165 49.677 93.1395 49.93 93.1855 50.114C93.2469 50.2827 93.3849 50.459 93.5995 50.643C93.8449 50.8117 93.9445 51.2103 93.8985 51.839C93.8679 51.9463 93.7835 52.0307 93.6455 52.092C93.5075 52.1533 93.3389 52.184 93.1395 52.184C92.8022 52.184 92.5185 52.1073 92.2885 51.954ZM100.479 46.917L99.8122 47.469C100.334 48.1437 100.755 48.7263 101.077 49.217C101.384 49.6617 101.629 49.9837 101.813 50.183C101.997 50.367 102.304 50.574 102.733 50.804C102.779 50.85 102.825 50.9267 102.871 51.034C102.933 51.1413 102.963 51.2563 102.963 51.379C102.871 51.8083 102.457 52.023 101.721 52.023C101.292 52.023 100.817 51.7393 100.295 51.172C99.7739 50.5893 99.0149 49.6387 98.0182 48.32C97.8802 48.5807 97.7116 49.1097 97.5122 49.907C97.3436 50.5357 97.1979 51.0033 97.0752 51.31C96.9679 51.6013 96.8376 51.7547 96.6842 51.77C96.6076 51.77 96.4466 51.747 96.2012 51.701C95.9712 51.655 95.7412 51.5707 95.5112 51.448C95.2966 51.31 95.1892 51.126 95.1892 50.896C95.1892 50.6507 95.2352 50.367 95.3272 50.045C95.4346 49.7077 95.5036 49.5007 95.5342 49.424C95.6262 49.1787 95.6876 48.9947 95.7182 48.872C96.2856 47.2773 96.8299 45.859 97.3512 44.617C97.4126 44.479 97.4892 44.272 97.5812 43.996C97.7039 43.6433 97.8189 43.3597 97.9262 43.145C98.0336 42.915 98.1716 42.7003 98.3402 42.501C98.4016 42.363 98.5932 42.294 98.9152 42.294C99.2986 42.294 99.5822 42.386 99.7662 42.57C99.9502 42.754 100.042 42.961 100.042 43.191C100.042 43.3137 100.019 43.4287 99.9732 43.536C99.9272 43.6433 99.8659 43.7507 99.7892 43.858C99.7279 43.95 99.6742 44.042 99.6282 44.134L99.5592 44.318C99.4212 44.7167 99.2602 45.1077 99.0762 45.491C98.9076 45.8743 98.7926 46.1273 98.7312 46.25C98.9306 46.0507 99.0379 45.928 99.0532 45.882C99.0686 45.836 99.6359 45.376 100.755 44.502C101.675 43.7967 102.227 43.352 102.411 43.168C102.457 43.1067 102.565 43.076 102.733 43.076C102.933 43.076 103.063 43.0913 103.124 43.122C103.308 43.168 103.454 43.283 103.561 43.467C103.684 43.6357 103.745 43.8657 103.745 44.157C103.745 44.3257 103.661 44.4867 103.492 44.64C103.324 44.7933 103.032 45.0233 102.618 45.33L101.79 45.928L101.468 46.204C101.407 46.2347 101.177 46.3957 100.778 46.687L100.479 46.917Z" fill="#FF007A"/>
<path d="M76.02 65.016C76.5 65.196 76.872 65.4 77.136 65.628C77.4 65.844 77.514 66.156 77.478 66.564C77.454 66.672 77.436 66.81 77.424 66.978C77.412 67.134 77.388 67.284 77.352 67.428C77.328 67.56 77.28 67.686 77.208 67.806C77.208 67.83 77.118 68.082 76.938 68.562C76.662 69.21 76.512 69.642 76.488 69.858C76.428 70.074 76.38 70.26 76.344 70.416C76.296 70.644 76.248 70.83 76.2 70.974C76.152 71.118 76.08 71.244 75.984 71.352C75.84 71.496 75.666 71.568 75.462 71.568C75.222 71.568 75.012 71.478 74.832 71.298C74.652 71.118 74.58 70.902 74.616 70.65C74.616 70.422 74.652 70.056 74.724 69.552C74.736 69.456 74.766 69.36 74.814 69.264C74.862 69.168 74.892 69.102 74.904 69.066C75.096 68.61 75.264 68.094 75.408 67.518C75.564 66.942 75.654 66.504 75.678 66.204C75.306 66.216 74.724 66.252 73.932 66.312C73.836 66.708 73.728 67.08 73.608 67.428C73.452 67.908 73.362 68.22 73.338 68.364C73.302 68.544 73.194 68.838 73.014 69.246C72.714 69.942 72.558 70.398 72.546 70.614C72.486 70.698 72.444 70.806 72.42 70.938C72.396 71.07 72.378 71.196 72.366 71.316C72.33 71.508 72.252 71.64 72.132 71.712C72.024 71.784 71.862 71.844 71.646 71.892C71.454 71.892 71.298 71.856 71.178 71.784C71.07 71.712 70.98 71.616 70.908 71.496C70.836 71.364 70.77 71.226 70.71 71.082C70.71 70.746 70.776 70.416 70.908 70.092C70.944 70.008 70.98 69.906 71.016 69.786C71.064 69.666 71.1 69.57 71.124 69.498C71.232 69.162 71.322 68.922 71.394 68.778C71.43 68.538 71.532 68.202 71.7 67.77C71.832 67.434 71.91 67.212 71.934 67.104C72.126 66.468 72.264 66.024 72.348 65.772C72.348 65.52 72.414 65.316 72.546 65.16C72.69 65.004 72.864 64.926 73.068 64.926C73.2 64.974 73.308 64.998 73.392 64.998C73.44 64.998 73.488 64.986 73.536 64.962C73.608 64.926 73.902 64.908 74.418 64.908C74.73 64.908 74.928 64.902 75.012 64.89C75.132 64.878 75.246 64.884 75.354 64.908C75.474 64.932 75.552 64.95 75.588 64.962C75.636 64.974 75.696 64.986 75.768 64.998C75.84 65.01 75.924 65.016 76.02 65.016ZM79.7408 71.874C79.5968 71.874 79.4828 71.85 79.3988 71.802C79.3148 71.754 79.1948 71.664 79.0388 71.532C78.7988 71.28 78.6128 71.022 78.4808 70.758C78.3488 70.482 78.3008 70.242 78.3368 70.038C78.3728 69.954 78.3848 69.87 78.3728 69.786C78.3728 69.702 78.3728 69.648 78.3728 69.624C78.3248 69.576 78.3008 69.546 78.3008 69.534C78.3008 69.51 78.3128 69.492 78.3368 69.48C78.3608 69.456 78.3788 69.432 78.3908 69.408C78.4628 69.408 78.4868 69.342 78.4628 69.21C78.4388 69.114 78.4808 68.904 78.5888 68.58C78.6968 68.256 78.8348 67.956 79.0028 67.68C79.1348 67.464 79.3268 67.194 79.5788 66.87C79.8428 66.546 80.0768 66.3 80.2808 66.132C80.8808 65.616 81.4208 65.304 81.9008 65.196C82.1408 65.136 82.3748 65.106 82.6028 65.106C82.9508 65.106 83.2208 65.202 83.4128 65.394C83.6768 65.502 83.8688 65.658 83.9888 65.862C84.1088 66.066 84.1868 66.336 84.2228 66.672C84.2348 66.744 84.2408 66.864 84.2408 67.032C84.2408 67.92 83.9048 68.844 83.2328 69.804C82.9568 70.2 82.6808 70.518 82.4048 70.758C82.1288 70.998 81.7928 71.238 81.3968 71.478C81.1808 71.622 80.9528 71.718 80.7128 71.766C80.4728 71.814 80.1488 71.85 79.7408 71.874ZM81.5768 69.678C81.8048 69.474 81.9668 69.27 82.0628 69.066C82.1708 68.85 82.3208 68.478 82.5128 67.95C82.5848 67.842 82.6208 67.626 82.6208 67.302C82.6208 67.014 82.5788 66.852 82.4948 66.816C82.4348 66.768 82.3628 66.744 82.2788 66.744C82.1708 66.744 81.9968 66.828 81.7568 66.996C81.3368 67.356 80.9828 67.734 80.6948 68.13C80.4188 68.514 80.2268 68.958 80.1188 69.462C80.1068 69.51 80.1008 69.582 80.1008 69.678C80.1008 70.086 80.2448 70.29 80.5328 70.29C80.8088 70.29 81.1568 70.086 81.5768 69.678ZM85.2183 70.758C85.1943 70.71 85.1823 70.638 85.1823 70.542V70.47C85.1823 70.302 85.1283 70.17 85.0203 70.074C85.0443 69.882 85.0683 69.744 85.0923 69.66C85.2003 68.94 85.3203 68.388 85.4523 68.004C85.5963 67.608 85.8783 67.17 86.2983 66.69C86.3943 66.582 86.4963 66.48 86.6043 66.384C86.7843 66.084 87.0483 65.832 87.3963 65.628C87.7563 65.412 88.1343 65.244 88.5303 65.124C88.8063 65.04 89.0163 64.998 89.1603 64.998C89.2203 64.998 89.3223 65.01 89.4663 65.034C89.4663 64.974 89.4483 64.896 89.4123 64.8C89.3883 64.692 89.3763 64.608 89.3763 64.548C89.4003 64.476 89.4123 64.422 89.4123 64.386C89.4123 64.338 89.3943 64.242 89.3583 64.098C89.3103 64.038 89.2743 63.966 89.2503 63.882C89.2383 63.786 89.2263 63.726 89.2143 63.702C89.1903 63.474 89.1303 63.306 89.0343 63.198C89.0703 62.886 88.9323 62.628 88.6203 62.424C88.3203 62.22 87.9783 62.118 87.5943 62.118C87.2823 62.118 87.0243 62.19 86.8203 62.334C86.7003 62.358 86.5683 62.37 86.4243 62.37C86.1963 62.37 86.0403 62.328 85.9563 62.244C85.6563 61.932 85.5063 61.674 85.5063 61.47C85.5063 61.362 85.5543 61.266 85.6503 61.182C85.7463 61.086 85.9023 60.978 86.1183 60.858L86.5323 60.606C86.6283 60.63 86.7063 60.642 86.7663 60.642C86.7783 60.63 86.8083 60.612 86.8563 60.588C86.9163 60.564 86.9643 60.552 87.0003 60.552C87.0483 60.552 87.0963 60.558 87.1443 60.57C87.2883 60.546 87.3903 60.534 87.4503 60.534C87.5823 60.534 87.7323 60.558 87.9003 60.606C88.0803 60.642 88.2183 60.666 88.3143 60.678C88.7463 60.75 89.1483 60.942 89.5203 61.254C89.9043 61.566 90.1923 61.926 90.3843 62.334C90.5643 62.694 90.6903 62.958 90.7623 63.126C90.8343 63.306 90.9003 63.63 90.9603 64.098C91.0323 64.554 91.0683 64.938 91.0683 65.25C91.0683 65.37 91.0623 65.454 91.0503 65.502C90.9063 66.354 90.6663 67.236 90.3303 68.148C90.0063 69.06 89.6223 69.888 89.1783 70.632C88.9143 71.088 88.5483 71.448 88.0803 71.712C87.6123 71.976 87.1143 72.12 86.5863 72.144L86.2803 71.91C85.9803 71.694 85.7463 71.508 85.5783 71.352C85.4223 71.196 85.3023 70.992 85.2183 70.74V70.758ZM86.6043 70.524C86.6643 70.608 86.7363 70.656 86.8203 70.668C86.8443 70.656 86.8923 70.638 86.9643 70.614C87.0363 70.578 87.0843 70.536 87.1083 70.488C87.3483 70.308 87.6243 69.99 87.9363 69.534C88.2483 69.066 88.4703 68.67 88.6023 68.346C88.7463 67.914 88.8543 67.656 88.9263 67.572C89.1303 67.176 89.2263 66.822 89.2143 66.51C88.2903 66.894 87.5703 67.548 87.0543 68.472C87.0183 68.676 86.9523 68.898 86.8563 69.138C86.7363 69.474 86.6703 69.738 86.6583 69.93C86.5983 70.038 86.5683 70.152 86.5683 70.272C86.5683 70.32 86.5803 70.404 86.6043 70.524ZM91.273 76.374C91.129 76.326 90.913 76.158 90.625 75.87C90.349 75.594 90.211 75.402 90.211 75.294C90.211 75.114 90.331 74.52 90.571 73.512C90.811 72.516 91.045 71.706 91.273 71.082C91.285 71.034 91.363 70.836 91.507 70.488C91.651 70.14 91.789 69.72 91.921 69.228C92.017 68.88 92.269 68.202 92.677 67.194L93.199 65.898C93.295 65.622 93.409 65.322 93.541 64.998C93.673 64.674 93.751 64.476 93.775 64.404C93.823 64.26 94.087 64.122 94.567 63.99C94.591 63.978 94.633 63.972 94.693 63.972C94.861 63.972 95.005 64.068 95.125 64.26C95.161 64.332 95.179 64.416 95.179 64.512C95.179 64.74 95.113 65.004 94.981 65.304L94.855 65.664L95.503 65.52C96.343 65.568 96.811 65.604 96.907 65.628C97.171 65.64 97.357 65.688 97.465 65.772C97.585 65.856 97.699 65.988 97.807 66.168C98.023 66.372 98.143 66.552 98.167 66.708C98.179 66.756 98.185 66.834 98.185 66.942C98.185 67.362 98.023 67.848 97.699 68.4C97.375 68.952 97.039 69.342 96.691 69.57C96.571 69.618 96.469 69.666 96.385 69.714C96.301 69.762 96.247 69.792 96.223 69.804C96.199 69.864 96.067 69.966 95.827 70.11C95.587 70.254 95.311 70.392 94.999 70.524C94.699 70.656 94.441 70.734 94.225 70.758C94.105 70.782 93.967 70.794 93.811 70.794C93.679 70.794 93.577 70.776 93.505 70.74C93.361 70.716 93.265 70.704 93.217 70.704C93.181 70.704 93.163 70.728 93.163 70.776C93.163 70.788 93.085 70.956 92.929 71.28C92.785 71.592 92.617 72.114 92.425 72.846C92.077 73.89 91.771 74.844 91.507 75.708C91.375 76.116 91.297 76.338 91.273 76.374ZM93.595 69.192C93.607 69.24 93.679 69.264 93.811 69.264C94.003 69.264 94.255 69.21 94.567 69.102C94.879 68.994 95.161 68.856 95.413 68.688C95.665 68.52 95.809 68.352 95.845 68.184C95.905 68.124 96.001 68.022 96.133 67.878C96.265 67.722 96.355 67.608 96.403 67.536C96.451 67.452 96.475 67.386 96.475 67.338C96.475 67.302 96.445 67.254 96.385 67.194C96.253 67.014 96.085 66.924 95.881 66.924C95.617 66.924 95.209 67.074 94.657 67.374C94.429 67.458 94.279 67.53 94.207 67.59C94.147 67.65 94.075 67.782 93.991 67.986C93.919 68.166 93.871 68.28 93.847 68.328C93.655 68.784 93.571 69.072 93.595 69.192ZM101.405 71.856C101.345 71.868 101.267 71.874 101.171 71.874C101.015 71.874 100.889 71.85 100.793 71.802C100.697 71.742 100.583 71.646 100.451 71.514C100.175 71.382 99.9348 71.16 99.7308 70.848C99.5268 70.536 99.4368 70.29 99.4608 70.11C99.5208 69.534 99.6828 68.91 99.9468 68.238C100.211 67.554 100.553 66.942 100.973 66.402C101.405 65.85 101.861 65.466 102.341 65.25C102.557 65.166 102.755 65.124 102.935 65.124C103.307 65.124 103.553 65.244 103.673 65.484C103.757 65.652 103.799 65.778 103.799 65.862C103.799 66.006 103.715 66.102 103.547 66.15C103.511 66.15 103.469 66.168 103.421 66.204C103.373 66.24 103.349 66.276 103.349 66.312C103.361 66.324 103.415 66.33 103.511 66.33C103.715 66.33 103.967 66.3 104.267 66.24C104.567 66.18 104.759 66.114 104.843 66.042C104.915 66.006 104.975 65.988 105.023 65.988L105.275 66.024C105.479 66.084 105.581 66.156 105.581 66.24C105.581 66.3 105.599 66.378 105.635 66.474C105.683 66.57 105.725 66.618 105.761 66.618C105.821 66.618 105.851 66.66 105.851 66.744C105.851 66.816 105.809 66.912 105.725 67.032C105.653 67.14 105.545 67.248 105.401 67.356C105.341 67.392 105.251 67.446 105.131 67.518C105.023 67.59 104.957 67.65 104.933 67.698C104.921 67.746 104.927 67.812 104.951 67.896C104.999 67.992 105.023 68.112 105.023 68.256C105.023 68.664 104.825 69.144 104.429 69.696C104.033 70.236 103.547 70.716 102.971 71.136C102.407 71.556 101.885 71.796 101.405 71.856ZM101.459 70.344C101.531 70.344 101.711 70.272 101.999 70.128C102.155 69.972 102.281 69.876 102.377 69.84C102.413 69.84 102.443 69.81 102.467 69.75C102.503 69.678 102.557 69.576 102.629 69.444C102.713 69.3 102.845 69.114 103.025 68.886C103.217 68.67 103.349 68.496 103.421 68.364C103.505 68.232 103.547 68.1 103.547 67.968C103.547 67.92 103.535 67.836 103.511 67.716C103.499 67.68 103.457 67.65 103.385 67.626C103.325 67.59 103.265 67.56 103.205 67.536C103.145 67.536 103.085 67.554 103.025 67.59C102.965 67.614 102.923 67.626 102.899 67.626C102.839 67.626 102.773 67.596 102.701 67.536L102.413 67.176L102.107 67.482C101.831 67.758 101.597 68.13 101.405 68.598C101.225 69.066 101.117 69.492 101.081 69.876C101.069 70.044 101.093 70.164 101.153 70.236C101.225 70.296 101.327 70.332 101.459 70.344ZM107.859 72.162C107.763 72.102 107.613 72.036 107.409 71.964C107.013 71.808 106.767 71.688 106.671 71.604C106.203 71.16 105.969 70.59 105.969 69.894C105.969 69.654 105.987 69.444 106.023 69.264C106.059 69.072 106.077 68.958 106.077 68.922C106.053 68.766 106.077 68.622 106.149 68.49C106.233 68.346 106.281 68.256 106.293 68.22C106.557 67.704 106.785 67.296 106.977 66.996C107.169 66.696 107.433 66.36 107.769 65.988C107.913 65.868 108.039 65.778 108.147 65.718C108.255 65.658 108.375 65.64 108.507 65.664L108.921 65.97C109.053 66.114 109.119 66.27 109.119 66.438C109.119 66.522 109.101 66.618 109.065 66.726C108.981 66.978 108.903 67.152 108.831 67.248C108.687 67.38 108.561 67.53 108.453 67.698C108.357 67.866 108.267 68.034 108.183 68.202C108.099 68.37 108.033 68.496 107.985 68.58C107.949 68.664 107.865 68.814 107.733 69.03C107.577 69.246 107.475 69.432 107.427 69.588C107.391 69.816 107.373 69.972 107.373 70.056C107.373 70.104 107.385 70.2 107.409 70.344C107.481 70.38 107.601 70.398 107.769 70.398C107.997 70.398 108.141 70.368 108.201 70.308C108.417 70.128 108.567 69.978 108.651 69.858C108.747 69.726 108.843 69.552 108.939 69.336C108.999 69.18 109.077 69.012 109.173 68.832C109.293 68.616 109.401 68.31 109.497 67.914C109.605 67.506 109.659 67.194 109.659 66.978C109.659 66.906 109.653 66.858 109.641 66.834L109.623 66.492V66.06L109.515 65.448C109.443 64.668 109.407 64.074 109.407 63.666C109.407 63.282 109.443 62.874 109.515 62.442C109.551 62.274 109.641 62.094 109.785 61.902C109.941 61.71 110.085 61.554 110.217 61.434C110.433 61.242 110.727 61.086 111.099 60.966C111.483 60.846 111.831 60.798 112.143 60.822L113.313 60.786C113.445 60.762 113.547 60.738 113.619 60.714C113.691 60.69 113.817 60.624 113.997 60.516C114.141 60.444 114.267 60.408 114.375 60.408C114.471 60.408 114.555 60.426 114.627 60.462L115.095 61.128C115.083 61.428 114.969 61.668 114.753 61.848C114.537 62.016 114.189 62.124 113.709 62.172C113.649 62.172 113.571 62.172 113.475 62.172C113.391 62.16 113.325 62.16 113.277 62.172C113.205 62.196 113.151 62.208 113.115 62.208C113.031 62.208 112.959 62.202 112.899 62.19C112.839 62.166 112.803 62.154 112.791 62.154C112.707 62.154 112.599 62.166 112.467 62.19C112.347 62.202 112.239 62.208 112.143 62.208C112.023 62.208 111.933 62.202 111.873 62.19C111.165 62.406 110.811 62.91 110.811 63.702C110.823 63.846 110.841 63.978 110.865 64.098C110.889 64.218 110.907 64.332 110.919 64.44C110.967 64.716 111.015 65.034 111.063 65.394C111.111 65.742 111.141 66.102 111.153 66.474C111.213 66.714 111.243 66.984 111.243 67.284C111.243 67.632 111.201 67.878 111.117 68.022C111.105 68.07 111.093 68.22 111.081 68.472C111.069 68.712 111.003 68.958 110.883 69.21C110.547 69.894 110.229 70.452 109.929 70.884C109.629 71.304 109.269 71.652 108.849 71.928C108.705 72.024 108.555 72.09 108.399 72.126C108.255 72.162 108.075 72.174 107.859 72.162ZM117.333 72.09C117.285 72.09 117.213 72.06 117.117 72L116.667 71.856C116.523 71.628 116.451 71.358 116.451 71.046C116.451 70.818 116.481 70.59 116.541 70.362C116.613 70.122 116.685 69.906 116.757 69.714C116.841 69.51 116.895 69.378 116.919 69.318C116.823 69.342 116.481 69.414 115.893 69.534C115.581 69.57 115.287 69.624 115.011 69.696L114.777 69.57L114.669 70.092C114.573 70.668 114.459 71.088 114.327 71.352C114.087 71.376 113.937 71.388 113.877 71.388C113.709 71.388 113.481 71.34 113.193 71.244C113.013 71.004 112.923 70.728 112.923 70.416C112.923 70.212 112.953 70.008 113.013 69.804C113.073 69.6 113.163 69.36 113.283 69.084C113.391 68.832 113.469 68.628 113.517 68.472C113.565 68.304 113.589 68.142 113.589 67.986C113.661 67.914 113.859 67.458 114.183 66.618C114.519 65.778 114.699 65.268 114.723 65.088C114.735 64.8 114.879 64.656 115.155 64.656C115.395 64.656 115.641 64.758 115.893 64.962C116.145 65.154 116.271 65.364 116.271 65.592C116.271 65.688 116.241 65.784 116.181 65.88L115.371 68.022C115.551 67.998 115.695 67.956 115.803 67.896H116.973C117.093 67.956 117.189 68.022 117.261 68.094C117.477 67.578 117.651 67.146 117.783 66.798C117.915 66.45 118.017 66.096 118.089 65.736C118.149 65.436 118.347 65.19 118.683 64.998C118.755 65.022 118.893 65.07 119.097 65.142C119.301 65.214 119.457 65.31 119.565 65.43C119.685 65.55 119.763 65.706 119.799 65.898C119.775 65.97 119.745 66.084 119.709 66.24C119.685 66.396 119.655 66.51 119.619 66.582L119.313 67.32C119.277 67.416 119.175 67.668 119.007 68.076C118.839 68.472 118.701 68.85 118.593 69.21C118.485 69.57 118.401 69.9 118.341 70.2C118.329 70.236 118.275 70.422 118.179 70.758C118.083 71.046 118.023 71.262 117.999 71.406C117.963 71.706 117.837 71.922 117.621 72.054L117.333 72.09ZM122.433 71.838C122.037 71.682 121.743 71.442 121.551 71.118C121.371 70.782 121.281 70.35 121.281 69.822C121.281 69.702 121.293 69.486 121.317 69.174C121.329 69.078 121.335 68.964 121.335 68.832C121.335 68.628 121.311 68.478 121.263 68.382C121.215 68.274 121.131 68.166 121.011 68.058C120.975 68.022 120.891 67.944 120.759 67.824C120.627 67.704 120.567 67.614 120.579 67.554V67.5C120.579 67.416 120.597 67.326 120.633 67.23C120.681 67.122 120.723 67.056 120.759 67.032C120.795 67.02 120.867 66.984 120.975 66.924C121.083 66.864 121.167 66.846 121.227 66.87C121.275 66.87 121.347 66.9 121.443 66.96C121.551 67.02 121.605 67.074 121.605 67.122C121.677 67.266 121.863 67.032 122.163 66.42C122.331 66.168 122.559 65.922 122.847 65.682C123.135 65.43 123.399 65.238 123.639 65.106C123.723 65.07 123.909 65.022 124.197 64.962C124.497 64.89 124.731 64.854 124.899 64.854C125.091 64.854 125.313 64.932 125.565 65.088C125.829 65.244 126.045 65.412 126.213 65.592C126.465 65.772 126.591 66.114 126.591 66.618C126.591 66.918 126.543 67.176 126.447 67.392C126.399 67.572 126.159 67.848 125.727 68.22C125.307 68.58 124.965 68.814 124.701 68.922C124.437 68.982 124.143 69.012 123.819 69.012C123.495 69.012 123.273 68.982 123.153 68.922C123.069 68.874 122.997 68.898 122.937 68.994C122.889 69.078 122.847 69.276 122.811 69.588L122.793 69.768C122.793 69.9 122.823 70.026 122.883 70.146C122.967 70.29 123.045 70.392 123.117 70.452C123.189 70.512 123.297 70.542 123.441 70.542L123.603 70.524C123.735 70.512 123.873 70.446 124.017 70.326C124.173 70.206 124.353 70.044 124.557 69.84C124.773 69.636 124.899 69.516 124.935 69.48C124.995 69.36 125.157 69.3 125.421 69.3C125.529 69.3 125.667 69.318 125.835 69.354C125.955 69.45 126.015 69.57 126.015 69.714C126.015 69.918 125.919 70.194 125.727 70.542C125.667 70.662 125.481 70.866 125.169 71.154C124.869 71.442 124.629 71.64 124.449 71.748C124.125 71.928 123.765 72.018 123.369 72.018C123.069 72.018 122.757 71.958 122.433 71.838ZM123.765 67.788C124.053 67.716 124.275 67.632 124.431 67.536C124.599 67.428 124.791 67.224 125.007 66.924C125.103 66.636 125.121 66.462 125.061 66.402C124.989 66.33 124.905 66.294 124.809 66.294C124.689 66.294 124.545 66.36 124.377 66.492C124.257 66.528 124.089 66.642 123.873 66.834C123.669 67.014 123.495 67.194 123.351 67.374C123.207 67.542 123.165 67.644 123.225 67.68C123.201 67.716 123.261 67.746 123.405 67.77C123.549 67.782 123.669 67.788 123.765 67.788ZM129.703 72C129.019 72 128.467 71.808 128.047 71.424C127.627 71.04 127.417 70.494 127.417 69.786C127.417 69.51 127.435 69.204 127.471 68.868C127.495 68.58 127.609 68.184 127.813 67.68C128.029 67.176 128.317 66.684 128.677 66.204C129.049 65.724 129.481 65.37 129.973 65.142C130.201 65.034 130.393 64.962 130.549 64.926C130.705 64.878 130.885 64.854 131.089 64.854C131.581 64.854 131.977 64.944 132.277 65.124C132.589 65.304 132.805 65.508 132.925 65.736C133.057 65.964 133.123 66.162 133.123 66.33V66.42V66.474C133.123 66.618 133.039 66.882 132.871 67.266C132.703 67.65 132.433 68.01 132.061 68.346C131.701 68.682 131.233 68.868 130.657 68.904C130.369 68.904 130.087 68.88 129.811 68.832C129.547 68.772 129.379 68.742 129.307 68.742C129.127 68.742 129.013 68.808 128.965 68.94C128.917 69.072 128.893 69.294 128.893 69.606C128.929 69.942 129.019 70.176 129.163 70.308C129.319 70.44 129.541 70.506 129.829 70.506C129.973 70.506 130.141 70.464 130.333 70.38C130.525 70.284 130.753 70.134 131.017 69.93C131.161 69.81 131.275 69.726 131.359 69.678C131.443 69.63 131.545 69.606 131.665 69.606C131.773 69.606 131.899 69.678 132.043 69.822C132.187 69.966 132.265 70.104 132.277 70.236C132.253 70.38 132.121 70.596 131.881 70.884C131.641 71.172 131.329 71.43 130.945 71.658C130.561 71.886 130.147 72 129.703 72ZM130.333 67.662C130.561 67.662 130.717 67.638 130.801 67.59C130.921 67.53 131.101 67.38 131.341 67.14C131.593 66.888 131.725 66.714 131.737 66.618C131.737 66.498 131.683 66.402 131.575 66.33C131.479 66.246 131.341 66.192 131.161 66.168H130.963C130.807 66.168 130.579 66.3 130.279 66.564C129.991 66.816 129.739 67.11 129.523 67.446C129.535 67.506 129.625 67.56 129.793 67.608C129.961 67.644 130.141 67.662 130.333 67.662ZM72.024 86.874C71.88 86.874 71.766 86.85 71.682 86.802C71.598 86.754 71.478 86.664 71.322 86.532C71.082 86.28 70.896 86.022 70.764 85.758C70.632 85.482 70.584 85.242 70.62 85.038C70.656 84.954 70.668 84.87 70.656 84.786C70.656 84.702 70.656 84.648 70.656 84.624C70.608 84.576 70.584 84.546 70.584 84.534C70.584 84.51 70.596 84.492 70.62 84.48C70.644 84.456 70.662 84.432 70.674 84.408C70.746 84.408 70.77 84.342 70.746 84.21C70.722 84.114 70.764 83.904 70.872 83.58C70.98 83.256 71.118 82.956 71.286 82.68C71.418 82.464 71.61 82.194 71.862 81.87C72.126 81.546 72.36 81.3 72.564 81.132C73.164 80.616 73.704 80.304 74.184 80.196C74.424 80.136 74.658 80.106 74.886 80.106C75.234 80.106 75.504 80.202 75.696 80.394C75.96 80.502 76.152 80.658 76.272 80.862C76.392 81.066 76.47 81.336 76.506 81.672C76.518 81.744 76.524 81.864 76.524 82.032C76.524 82.92 76.188 83.844 75.516 84.804C75.24 85.2 74.964 85.518 74.688 85.758C74.412 85.998 74.076 86.238 73.68 86.478C73.464 86.622 73.236 86.718 72.996 86.766C72.756 86.814 72.432 86.85 72.024 86.874ZM73.86 84.678C74.088 84.474 74.25 84.27 74.346 84.066C74.454 83.85 74.604 83.478 74.796 82.95C74.868 82.842 74.904 82.626 74.904 82.302C74.904 82.014 74.862 81.852 74.778 81.816C74.718 81.768 74.646 81.744 74.562 81.744C74.454 81.744 74.28 81.828 74.04 81.996C73.62 82.356 73.266 82.734 72.978 83.13C72.702 83.514 72.51 83.958 72.402 84.462C72.39 84.51 72.384 84.582 72.384 84.678C72.384 85.086 72.528 85.29 72.816 85.29C73.092 85.29 73.44 85.086 73.86 84.678ZM88.3949 80.34C88.4909 80.436 88.5389 80.568 88.5389 80.736C88.5389 80.892 88.5029 81.048 88.4309 81.204C88.3589 81.348 88.2749 81.462 88.1789 81.546C87.8789 81.774 87.5489 82.038 87.1889 82.338C86.4089 82.962 85.8269 83.412 85.4429 83.688C85.5149 83.796 85.6649 84.066 85.8929 84.498L86.0909 84.876C86.1389 84.948 86.1989 85.044 86.2709 85.164C86.3429 85.284 86.4209 85.368 86.5049 85.416C86.5889 85.452 86.7269 85.47 86.9189 85.47C87.1349 85.566 87.2729 85.668 87.3329 85.776C87.3929 85.872 87.4229 85.974 87.4229 86.082C87.4229 86.178 87.4289 86.256 87.4409 86.316L87.3329 86.604C87.3329 86.604 87.2729 86.676 87.1529 86.82C87.0449 86.964 86.8409 87.036 86.5409 87.036C86.4329 87.036 86.2889 87.006 86.1089 86.946C85.7849 86.838 85.4429 86.58 85.0829 86.172C84.9989 86.064 84.7649 85.566 84.3809 84.678C84.1889 84.222 84.0329 83.868 83.9129 83.616C83.7689 83.988 83.6969 84.288 83.6969 84.516C83.5889 84.696 83.4929 84.936 83.4089 85.236C83.3249 85.536 83.2709 85.722 83.2469 85.794C83.1749 86.094 82.9889 86.358 82.6889 86.586C82.4369 86.598 82.2509 86.58 82.1309 86.532C82.0229 86.472 81.8849 86.34 81.7169 86.136C81.6329 85.956 81.5909 85.77 81.5909 85.578C81.5909 85.446 81.6149 85.284 81.6629 85.092C81.6869 85.008 81.8969 84.42 82.2929 83.328C82.6169 82.416 82.7849 81.936 82.7969 81.888C82.8329 81.768 82.8869 81.63 82.9589 81.474C83.0429 81.318 83.1029 81.21 83.1389 81.15C83.3549 80.778 83.4929 80.466 83.5529 80.214C83.6009 80.034 83.6909 79.89 83.8229 79.782C83.9669 79.662 84.1169 79.602 84.2729 79.602C84.4769 79.602 84.6509 79.692 84.7949 79.872V79.854C84.8309 79.866 84.8729 79.896 84.9209 79.944C84.9809 79.98 85.0229 80.016 85.0469 80.052C85.2029 80.232 85.2809 80.436 85.2809 80.664C85.2809 80.82 85.2389 80.964 85.1549 81.096L84.8489 81.654C84.6449 81.966 84.4709 82.302 84.3269 82.662C84.5549 82.626 84.7229 82.59 84.8309 82.554C84.9389 82.518 85.0469 82.434 85.1549 82.302C85.2869 82.17 85.4489 82.008 85.6409 81.816C85.8449 81.624 86.0429 81.432 86.2349 81.24C86.4749 81.024 86.6969 80.814 86.9009 80.61C86.9129 80.586 86.9549 80.526 87.0269 80.43C87.1109 80.322 87.1949 80.232 87.2789 80.16C87.3749 80.088 87.4769 80.034 87.5849 79.998C87.8249 80.022 88.0049 80.058 88.1249 80.106C88.2569 80.154 88.3469 80.232 88.3949 80.34ZM90.7616 86.748C90.6416 86.772 90.5336 86.784 90.4376 86.784C90.2816 86.784 90.1376 86.772 90.0056 86.748C89.8736 86.712 89.8076 86.67 89.8076 86.622C89.8076 86.586 89.8016 86.562 89.7896 86.55C89.7776 86.538 89.7536 86.532 89.7176 86.532C89.6816 86.496 89.5976 86.436 89.4656 86.352C89.3456 86.256 89.2436 86.19 89.1596 86.154C89.0156 85.95 88.9436 85.728 88.9436 85.488C88.9436 85.26 89.0156 84.894 89.1596 84.39C89.1716 83.922 89.3396 83.4 89.6636 82.824C89.9996 82.236 90.4016 81.696 90.8696 81.204C91.3376 80.7 91.7576 80.34 92.1296 80.124C92.3096 79.944 92.5616 79.854 92.8856 79.854C93.1376 79.854 93.3596 79.908 93.5516 80.016C93.7076 80.112 93.8996 80.316 94.1276 80.628C94.3676 80.94 94.5476 81.222 94.6676 81.474C94.6916 81.558 94.7216 81.672 94.7576 81.816C94.8056 81.96 94.8296 82.134 94.8296 82.338L94.7936 82.842C94.6496 83.334 94.5776 83.778 94.5776 84.174C94.5536 84.342 94.5656 84.48 94.6136 84.588C94.6616 84.684 94.7276 84.732 94.8116 84.732C94.8716 84.732 94.9376 84.714 95.0096 84.678C95.0816 84.642 95.1656 84.624 95.2616 84.624C95.4176 84.624 95.5496 84.672 95.6576 84.768C95.7656 84.864 95.8196 84.984 95.8196 85.128C95.8196 85.248 95.7896 85.362 95.7296 85.47C95.6216 85.71 95.4176 85.926 95.1176 86.118C94.8296 86.31 94.5596 86.406 94.3076 86.406C94.1036 86.406 93.9056 86.298 93.7136 86.082C93.5336 85.866 93.3896 85.584 93.2816 85.236L93.1736 84.822L92.5256 85.416L92.1116 85.83C91.9196 86.022 91.8116 86.136 91.7876 86.172C91.7276 86.268 91.6196 86.358 91.4636 86.442C91.3196 86.526 91.0856 86.628 90.7616 86.748ZM91.2476 85.02C91.4636 84.9 91.6436 84.75 91.7876 84.57C91.9436 84.39 92.1356 84.138 92.3636 83.814C92.4116 83.742 92.4596 83.67 92.5076 83.598C92.5556 83.514 92.6156 83.43 92.6876 83.346C92.8916 83.07 93.0356 82.848 93.1196 82.68C93.2156 82.512 93.2876 82.332 93.3356 82.14C93.2876 81.984 93.2156 81.84 93.1196 81.708C93.0356 81.564 92.9576 81.486 92.8856 81.474C92.5496 81.474 92.0936 81.87 91.5176 82.662C91.4576 82.746 91.3616 82.896 91.2296 83.112C91.1096 83.328 91.0316 83.472 90.9956 83.544C90.9356 83.628 90.8516 83.832 90.7436 84.156C90.6476 84.468 90.5996 84.672 90.5996 84.768C90.5996 85.032 90.6776 85.164 90.8336 85.164C90.9536 85.164 91.0916 85.116 91.2476 85.02ZM96.5113 87.234C96.4753 87.186 96.3733 87.096 96.2053 86.964C96.0493 86.832 95.9473 86.724 95.8993 86.64C95.8273 86.508 95.7913 86.406 95.7913 86.334C95.7913 86.25 95.8093 86.178 95.8453 86.118C95.8933 86.058 95.9713 85.974 96.0793 85.866C96.0913 85.854 96.1393 85.806 96.2233 85.722C96.3073 85.638 96.3673 85.542 96.4033 85.434C96.6313 85.338 97.1053 84.984 97.8253 84.372C98.5573 83.748 99.0553 83.292 99.3193 83.004C99.2113 82.752 98.9713 82.374 98.5993 81.87C98.3833 81.582 98.2273 81.366 98.1313 81.222C98.0833 81.15 98.0053 80.976 97.8973 80.7L97.7533 80.376C97.8733 80.184 97.9393 80.01 97.9513 79.854C98.4553 79.842 98.8333 79.95 99.0853 80.178C99.3373 80.394 99.5893 80.73 99.8413 81.186C100.105 81.666 100.351 82.02 100.579 82.248L100.669 82.23C100.933 81.366 101.089 80.592 101.137 79.908L101.515 79.476C101.707 79.524 101.929 79.626 102.181 79.782C102.421 79.914 102.565 79.992 102.613 80.016C102.613 80.34 102.583 80.646 102.523 80.934C102.475 81.222 102.397 81.594 102.289 82.05C102.265 82.194 102.217 82.41 102.145 82.698L102.235 82.77C102.403 82.662 102.673 82.458 103.045 82.158C103.069 82.134 103.237 82.002 103.549 81.762C103.993 81.402 104.341 81.108 104.593 80.88C104.845 80.652 105.067 80.394 105.259 80.106L105.763 80.124C105.991 80.28 106.207 80.502 106.411 80.79C106.387 80.958 106.357 81.09 106.321 81.186C106.297 81.282 106.243 81.372 106.159 81.456C105.967 81.66 105.739 81.876 105.475 82.104C105.211 82.32 104.953 82.524 104.701 82.716C104.413 82.932 104.197 83.1 104.053 83.22C104.005 83.268 103.891 83.34 103.711 83.436C103.423 83.604 103.225 83.766 103.117 83.922C103.585 84.258 104.053 84.672 104.521 85.164C105.001 85.656 105.241 86.022 105.241 86.262C105.241 86.466 105.151 86.64 104.971 86.784C104.803 86.916 104.611 86.982 104.395 86.982C104.215 86.982 104.053 86.928 103.909 86.82C103.705 86.652 103.435 86.364 103.099 85.956C102.547 85.332 102.073 84.846 101.677 84.498L101.587 84.516C101.407 84.996 101.269 85.506 101.173 86.046C101.137 86.274 101.053 86.46 100.921 86.604C100.801 86.748 100.621 86.868 100.381 86.964C100.321 86.928 100.207 86.862 100.039 86.766C99.8713 86.658 99.7393 86.55 99.6433 86.442C99.5833 86.358 99.5533 86.244 99.5533 86.1C99.5533 85.824 99.6613 85.374 99.8773 84.75C99.9013 84.642 99.9313 84.564 99.9673 84.516L99.8953 84.444L98.6533 85.596C98.3773 85.812 98.2093 85.95 98.1493 86.01L97.6273 86.568C97.3393 86.916 97.0933 87.174 96.8893 87.342L96.5113 87.234ZM108.007 87.144C107.215 86.628 106.819 85.944 106.819 85.092C106.819 84.6 106.975 83.928 107.287 83.076C107.479 82.512 107.809 81.96 108.277 81.42C108.745 80.88 109.237 80.502 109.753 80.286C109.789 80.262 109.897 80.214 110.077 80.142C110.173 80.106 110.317 80.04 110.509 79.944C110.893 79.944 111.169 80.004 111.337 80.124C111.421 79.656 111.463 79.368 111.463 79.26C111.451 79.236 111.421 79.176 111.373 79.08C111.325 78.972 111.313 78.888 111.337 78.828C111.301 78.732 111.259 78.612 111.211 78.468C111.175 78.312 111.145 78.192 111.121 78.108C111.013 77.784 110.827 77.55 110.563 77.406C110.299 77.25 109.993 77.172 109.645 77.172C109.441 77.172 109.219 77.202 108.979 77.262C108.883 77.31 108.787 77.34 108.691 77.352C108.595 77.352 108.511 77.364 108.439 77.388C108.235 77.316 108.061 77.184 107.917 76.992C107.773 76.788 107.701 76.584 107.701 76.38C107.701 76.116 107.791 75.93 107.971 75.822C108.151 75.714 108.421 75.612 108.781 75.516L109.033 75.444L109.213 75.426C109.321 75.45 109.471 75.462 109.663 75.462C109.687 75.462 109.777 75.468 109.933 75.48C110.089 75.492 110.233 75.534 110.365 75.606C110.749 75.738 111.031 75.852 111.211 75.948C111.403 76.044 111.577 76.206 111.733 76.434C111.757 76.47 111.811 76.524 111.895 76.596C111.979 76.668 112.033 76.728 112.057 76.776C112.333 77.244 112.537 77.778 112.669 78.378C112.813 78.966 112.885 79.584 112.885 80.232C112.885 81.18 112.735 82.122 112.435 83.058C112.423 83.118 112.381 83.202 112.309 83.31C112.249 83.406 112.225 83.49 112.237 83.562C111.913 84.21 111.649 84.714 111.445 85.074C111.241 85.422 110.983 85.77 110.671 86.118C110.359 86.466 109.987 86.754 109.555 86.982C109.447 87.042 109.285 87.09 109.069 87.126C108.853 87.174 108.667 87.198 108.511 87.198L108.349 87.18L108.007 87.144ZM108.547 85.29C108.643 85.35 108.745 85.38 108.853 85.38C109.165 85.38 109.489 85.164 109.825 84.732C110.161 84.3 110.449 83.772 110.689 83.148C111.001 82.404 111.145 81.744 111.121 81.168C110.557 81.384 110.065 81.666 109.645 82.014C109.225 82.362 108.931 82.74 108.763 83.148C108.499 83.784 108.367 84.324 108.367 84.768C108.367 85.044 108.427 85.218 108.547 85.29ZM115.497 87.162C115.353 87.174 115.233 87.162 115.137 87.126C115.053 87.102 114.927 87.036 114.759 86.928C114.495 86.724 114.273 86.472 114.093 86.172C113.925 85.872 113.847 85.62 113.859 85.416C113.871 85.38 113.877 85.326 113.877 85.254C113.877 85.182 113.871 85.128 113.859 85.092C113.847 85.044 113.841 85.014 113.841 85.002C113.793 84.966 113.763 84.942 113.751 84.93C113.751 84.906 113.757 84.882 113.769 84.858C113.793 84.834 113.811 84.81 113.823 84.786C113.871 84.774 113.895 84.75 113.895 84.714C113.895 84.678 113.883 84.636 113.859 84.588C113.823 84.492 113.841 84.276 113.913 83.94C113.997 83.592 114.105 83.268 114.237 82.968C114.333 82.74 114.483 82.446 114.687 82.086C114.903 81.726 115.101 81.45 115.281 81.258C115.581 80.91 115.827 80.652 116.019 80.484C116.223 80.316 116.451 80.184 116.703 80.088C116.907 80.004 117.117 79.962 117.333 79.962C117.621 79.962 117.873 80.046 118.089 80.214C118.773 80.406 119.187 80.778 119.331 81.33C119.403 81.582 119.439 81.864 119.439 82.176C119.439 82.848 119.229 83.586 118.809 84.39C118.581 84.846 118.353 85.224 118.125 85.524C117.909 85.812 117.645 86.088 117.333 86.352C117.117 86.532 116.829 86.7 116.469 86.856C116.121 87 115.797 87.102 115.497 87.162ZM117.063 84.444C117.219 84.216 117.345 84 117.441 83.796C117.537 83.592 117.621 83.316 117.693 82.968C117.741 82.752 117.765 82.536 117.765 82.32C117.765 81.936 117.711 81.726 117.603 81.69C117.519 81.654 117.435 81.636 117.351 81.636C117.099 81.636 116.835 81.798 116.559 82.122C116.283 82.422 116.079 82.716 115.947 83.004C115.815 83.292 115.665 83.754 115.497 84.39C115.449 84.582 115.425 84.774 115.425 84.966C115.425 85.158 115.455 85.314 115.515 85.434C115.575 85.542 115.665 85.596 115.785 85.596C116.121 85.596 116.547 85.212 117.063 84.444ZM129.364 81.564C129.268 81.78 129.13 82.248 128.95 82.968C128.782 83.688 128.686 84.192 128.662 84.48C128.638 84.864 128.626 85.14 128.626 85.308C128.626 85.548 128.65 85.764 128.698 85.956C128.758 86.256 128.788 86.472 128.788 86.604C128.788 86.796 128.74 86.934 128.644 87.018C128.56 87.114 128.416 87.186 128.212 87.234C128.008 87.234 127.846 87.198 127.726 87.126C127.618 87.066 127.528 86.952 127.456 86.784C127.408 86.676 127.348 86.538 127.276 86.37C127.204 86.19 127.15 86.034 127.114 85.902C127.09 85.77 127.084 85.626 127.096 85.47C127.084 85.422 127.072 85.326 127.06 85.182C127.048 85.038 127.054 84.954 127.078 84.93L127.06 84.696C127.06 84.42 127.126 83.904 127.258 83.148C127.198 83.208 127.108 83.316 126.988 83.472C126.94 83.52 126.892 83.58 126.844 83.652C126.796 83.724 126.736 83.796 126.664 83.868C126.352 84.288 126.148 84.558 126.052 84.678C125.908 84.858 125.782 85.02 125.674 85.164C125.578 85.308 125.512 85.44 125.476 85.56C125.428 85.752 125.35 85.884 125.242 85.956C125.146 86.028 125.02 86.07 124.864 86.082C124.816 86.082 124.648 85.944 124.36 85.668C124.192 85.5 124.108 85.296 124.108 85.056C124.108 84.996 124.12 84.894 124.144 84.75C124.144 84.678 124.138 84.342 124.126 83.742C124.114 83.13 124.036 82.638 123.892 82.266L121.84 85.596C121.708 85.74 121.606 85.926 121.534 86.154C121.378 86.478 121.204 86.64 121.012 86.64C120.916 86.64 120.82 86.592 120.724 86.496C120.472 86.364 120.304 86.232 120.22 86.1C120.136 85.956 120.088 85.716 120.076 85.38C120.184 85.164 120.286 85.05 120.382 85.038C121.138 83.874 121.582 83.208 121.714 83.04C121.858 82.86 121.954 82.734 122.002 82.662C122.086 82.47 122.254 82.23 122.506 81.942C122.53 81.882 122.656 81.708 122.884 81.42C123.124 81.132 123.286 80.97 123.37 80.934L123.478 80.7C123.538 80.4 123.742 80.25 124.09 80.25C124.162 80.25 124.222 80.256 124.27 80.268C124.39 80.316 124.492 80.382 124.576 80.466C124.672 80.538 124.75 80.61 124.81 80.682C124.882 80.754 124.942 80.814 124.99 80.862L125.098 81.15C125.074 81.246 125.062 81.318 125.062 81.366C125.062 81.45 125.11 81.666 125.206 82.014C125.194 82.074 125.224 82.272 125.296 82.608C125.392 83.04 125.422 83.31 125.386 83.418C125.686 83.01 126.616 82.026 128.176 80.466C128.356 80.322 128.494 80.25 128.59 80.25C128.662 80.25 128.74 80.274 128.824 80.322C128.98 80.406 129.07 80.484 129.094 80.556C129.118 80.616 129.178 80.688 129.274 80.772C129.382 80.928 129.436 81.09 129.436 81.258C129.436 81.378 129.412 81.48 129.364 81.564ZM136.565 87.036C136.481 86.964 136.415 86.922 136.367 86.91C136.331 86.886 136.277 86.874 136.205 86.874C136.133 86.862 136.061 86.85 135.989 86.838C135.953 86.694 135.869 86.484 135.737 86.208C135.641 86.052 135.569 85.914 135.521 85.794C135.485 85.674 135.467 85.536 135.467 85.38C135.467 85.308 135.431 85.236 135.359 85.164C135.299 85.08 135.263 85.032 135.251 85.02L135.413 84.912C135.377 84.84 135.359 84.768 135.359 84.696C135.359 84.648 135.377 84.588 135.413 84.516C135.389 84.396 135.377 84.294 135.377 84.21C135.377 84.006 135.407 83.772 135.467 83.508C135.527 83.232 135.563 83.064 135.575 83.004C135.599 82.908 135.623 82.782 135.647 82.626C135.683 82.458 135.707 82.326 135.719 82.23C135.659 82.194 135.593 82.14 135.521 82.068C135.449 81.984 135.395 81.924 135.359 81.888C135.395 81.6 135.449 81.396 135.521 81.276C135.593 81.144 135.743 81.018 135.971 80.898H136.133C136.289 80.658 136.463 80.22 136.655 79.584C136.775 79.212 136.931 78.852 137.123 78.504C137.327 78.156 137.459 77.934 137.519 77.838C137.687 77.442 137.963 77.022 138.347 76.578C138.731 76.122 139.103 75.78 139.463 75.552C139.691 75.42 139.883 75.336 140.039 75.3C140.207 75.264 140.447 75.24 140.759 75.228C141.011 75.372 141.227 75.552 141.407 75.768C141.587 75.984 141.677 76.218 141.677 76.47V76.74C141.677 76.908 141.647 77.052 141.587 77.172C141.587 77.28 141.569 77.388 141.533 77.496C141.497 77.604 141.473 77.67 141.461 77.694C141.449 77.73 141.425 77.79 141.389 77.874C141.365 77.958 141.353 78.03 141.353 78.09C140.957 78.93 140.591 79.554 140.255 79.962C139.931 80.37 139.391 80.88 138.635 81.492C138.875 81.672 139.025 81.858 139.085 82.05C139.145 82.242 139.181 82.518 139.193 82.878C139.193 83.046 139.199 83.178 139.211 83.274C139.235 83.586 139.247 83.814 139.247 83.958C139.247 84.63 139.109 85.242 138.833 85.794C138.605 86.19 138.341 86.478 138.041 86.658C137.741 86.838 137.345 86.976 136.853 87.072L136.565 87.036ZM140.021 76.578C139.109 77.586 138.359 78.894 137.771 80.502C138.251 80.274 138.683 79.992 139.067 79.656C139.463 79.32 139.763 78.96 139.967 78.576C140.135 78.276 140.219 77.91 140.219 77.478C140.219 77.106 140.153 76.806 140.021 76.578ZM137.105 85.632C137.417 85.476 137.633 85.266 137.753 85.002C137.885 84.726 137.951 84.408 137.951 84.048C137.951 83.736 137.909 83.352 137.825 82.896C137.789 82.752 137.771 82.602 137.771 82.446C137.759 82.398 137.705 82.332 137.609 82.248C137.513 82.164 137.453 82.11 137.429 82.086C137.285 82.194 137.165 82.494 137.069 82.986C136.985 83.466 136.943 83.952 136.943 84.444C136.943 84.936 136.985 85.26 137.069 85.416L137.105 85.632ZM144.757 83.022L144.235 83.454C144.643 83.982 144.973 84.438 145.225 84.822C145.465 85.17 145.657 85.422 145.801 85.578C145.945 85.722 146.185 85.884 146.521 86.064C146.557 86.1 146.593 86.16 146.629 86.244C146.677 86.328 146.701 86.418 146.701 86.514C146.629 86.85 146.305 87.018 145.729 87.018C145.393 87.018 145.021 86.796 144.613 86.352C144.205 85.896 143.611 85.152 142.831 84.12C142.723 84.324 142.591 84.738 142.435 85.362C142.303 85.854 142.189 86.22 142.093 86.46C142.009 86.688 141.907 86.808 141.787 86.82C141.727 86.82 141.601 86.802 141.409 86.766C141.229 86.73 141.049 86.664 140.869 86.568C140.701 86.46 140.617 86.316 140.617 86.136C140.617 85.944 140.653 85.722 140.725 85.47C140.809 85.206 140.863 85.044 140.887 84.984C140.959 84.792 141.007 84.648 141.031 84.552C141.475 83.304 141.901 82.194 142.309 81.222C142.357 81.114 142.417 80.952 142.489 80.736C142.585 80.46 142.675 80.238 142.759 80.07C142.843 79.89 142.951 79.722 143.083 79.566C143.131 79.458 143.281 79.404 143.533 79.404C143.833 79.404 144.055 79.476 144.199 79.62C144.343 79.764 144.415 79.926 144.415 80.106C144.415 80.202 144.397 80.292 144.361 80.376C144.325 80.46 144.277 80.544 144.217 80.628C144.169 80.7 144.127 80.772 144.091 80.844L144.037 80.988C143.929 81.3 143.803 81.606 143.659 81.906C143.527 82.206 143.437 82.404 143.389 82.5C143.545 82.344 143.629 82.248 143.641 82.212C143.653 82.176 144.097 81.816 144.973 81.132C145.693 80.58 146.125 80.232 146.269 80.088C146.305 80.04 146.389 80.016 146.521 80.016C146.677 80.016 146.779 80.028 146.827 80.052C146.971 80.088 147.085 80.178 147.169 80.322C147.265 80.454 147.313 80.634 147.313 80.862C147.313 80.994 147.247 81.12 147.115 81.24C146.983 81.36 146.755 81.54 146.431 81.78L145.783 82.248L145.531 82.464C145.483 82.488 145.303 82.614 144.991 82.842L144.757 83.022ZM153.648 80.358C153.804 80.526 153.918 80.67 153.99 80.79C154.062 80.898 154.098 81.03 154.098 81.186C154.098 81.438 154.002 81.738 153.81 82.086C153.714 82.362 153.606 82.62 153.486 82.86C153.378 83.1 153.294 83.256 153.234 83.328L152.82 84.282C152.64 84.678 152.418 85.14 152.154 85.668C151.83 86.34 151.602 86.838 151.47 87.162L151.236 87.54C150.636 88.5 150.174 89.172 149.85 89.556C149.586 89.796 149.274 90.042 148.914 90.294C148.554 90.558 148.266 90.708 148.05 90.744C147.822 90.792 147.57 90.816 147.294 90.816C146.802 90.816 146.364 90.732 145.98 90.564C145.596 90.396 145.374 90.192 145.314 89.952L145.278 89.736C145.278 89.532 145.362 89.37 145.53 89.25C145.686 89.142 145.86 89.088 146.052 89.088C146.172 89.088 146.262 89.118 146.322 89.178C146.346 89.19 146.442 89.256 146.61 89.376C146.778 89.496 147.006 89.556 147.294 89.556C147.834 89.556 148.362 89.202 148.878 88.494C149.382 87.69 149.766 87.048 150.03 86.568C149.79 86.424 149.556 86.184 149.328 85.848C149.1 85.5 148.998 85.26 149.022 85.128V84.93C148.926 84.93 148.854 84.75 148.806 84.39C148.77 84.03 148.752 83.586 148.752 83.058C148.752 82.482 148.764 82.08 148.788 81.852C148.836 81.66 148.86 81.426 148.86 81.15C148.872 80.862 148.878 80.676 148.878 80.592C148.866 80.424 148.896 80.28 148.968 80.16C149.052 80.028 149.13 79.938 149.202 79.89C149.358 79.83 149.484 79.8 149.58 79.8C150.132 79.8 150.408 80.388 150.408 81.564C150.408 81.792 150.402 81.966 150.39 82.086C150.366 82.662 150.354 83.07 150.354 83.31C150.354 84.234 150.48 84.834 150.732 85.11C150.84 84.858 150.93 84.678 151.002 84.57C151.17 84.222 151.266 84 151.29 83.904C151.314 83.82 151.38 83.682 151.488 83.49L151.722 83.004C151.746 82.932 151.824 82.704 151.956 82.32C152.088 81.924 152.22 81.606 152.352 81.366C152.4 81.27 152.472 81.132 152.568 80.952C152.664 80.76 152.742 80.622 152.802 80.538C152.862 80.454 152.928 80.4 153 80.376C153.096 80.292 153.198 80.25 153.306 80.25C153.414 80.25 153.528 80.286 153.648 80.358ZM156.615 87.072C156.471 87.096 156.357 87.108 156.273 87.108C155.781 87.108 155.343 86.952 154.959 86.64C154.587 86.316 154.401 85.908 154.401 85.416L154.383 85.128C154.383 84.564 154.509 83.91 154.761 83.166C155.013 82.422 155.325 81.816 155.697 81.348C155.997 81 156.255 80.718 156.471 80.502C156.687 80.286 156.885 80.142 157.065 80.07C157.221 80.01 157.419 79.956 157.659 79.908C157.899 79.86 158.079 79.836 158.199 79.836C158.439 79.896 158.661 79.98 158.865 80.088C159.081 80.196 159.189 80.316 159.189 80.448L159.279 80.538C159.363 80.538 159.459 80.67 159.567 80.934C159.687 81.198 159.747 81.438 159.747 81.654C159.747 81.762 159.729 81.852 159.693 81.924C159.645 82.152 159.549 82.374 159.405 82.59C159.273 82.806 159.159 82.914 159.063 82.914C158.931 82.914 158.865 82.95 158.865 83.022C158.865 83.082 158.793 83.112 158.649 83.112C158.529 83.112 158.403 83.088 158.271 83.04C158.139 82.98 158.061 82.908 158.037 82.824C158.037 82.764 158.085 82.524 158.181 82.104C158.217 81.924 158.235 81.774 158.235 81.654C158.235 81.438 158.163 81.33 158.019 81.33C157.983 81.33 157.893 81.354 157.749 81.402C157.437 81.57 157.185 81.768 156.993 81.996C156.813 82.212 156.651 82.512 156.507 82.896C156.363 83.28 156.195 83.838 156.003 84.57C155.967 84.714 155.949 84.846 155.949 84.966C155.949 85.11 155.967 85.23 156.003 85.326C156.039 85.41 156.075 85.458 156.111 85.47C156.171 85.494 156.279 85.506 156.435 85.506C156.735 85.506 156.975 85.452 157.155 85.344C157.371 85.224 157.581 85.092 157.785 84.948C157.989 84.792 158.115 84.696 158.163 84.66C158.187 84.636 158.235 84.57 158.307 84.462C158.379 84.342 158.457 84.264 158.541 84.228C158.613 84.12 158.703 84.054 158.811 84.03C158.919 84.006 159.027 83.994 159.135 83.994C159.243 83.994 159.315 83.994 159.351 83.994C159.507 84.042 159.657 84.15 159.801 84.318C159.945 84.486 159.969 84.594 159.873 84.642C159.837 84.642 159.813 84.654 159.801 84.678C159.789 84.702 159.783 84.72 159.783 84.732C159.807 84.792 159.711 84.954 159.495 85.218C159.279 85.47 159.039 85.716 158.775 85.956C158.511 86.184 158.331 86.298 158.235 86.298C158.187 86.298 158.145 86.304 158.109 86.316C158.073 86.328 158.055 86.358 158.055 86.406C158.055 86.454 157.869 86.568 157.497 86.748C157.137 86.916 156.843 87.024 156.615 87.072ZM163.081 87.324C161.713 87.324 161.029 86.544 161.029 84.984C161.029 84.42 161.167 83.784 161.443 83.076C161.731 82.356 162.085 81.714 162.505 81.15C162.937 80.574 163.363 80.19 163.783 79.998C164.011 79.878 164.275 79.818 164.575 79.818C165.115 79.818 165.583 79.938 165.979 80.178C166.387 80.406 166.591 80.844 166.591 81.492C166.591 81.864 166.465 82.272 166.213 82.716C165.961 83.16 165.643 83.538 165.259 83.85C164.887 84.15 164.521 84.3 164.161 84.3C163.621 84.3 163.165 84.126 162.793 83.778C162.589 84.186 162.487 84.576 162.487 84.948C162.487 85.248 162.523 85.482 162.595 85.65C162.667 85.806 162.835 85.884 163.099 85.884C163.351 85.884 163.555 85.848 163.711 85.776C163.867 85.704 164.011 85.62 164.143 85.524C164.275 85.428 164.377 85.356 164.449 85.308L164.521 85.272H164.503C164.719 85.152 164.875 85.062 164.971 85.002C165.079 84.93 165.169 84.882 165.241 84.858C165.421 84.858 165.589 84.912 165.745 85.02C165.901 85.128 165.979 85.26 165.979 85.416C165.979 85.536 165.871 85.734 165.655 86.01C165.439 86.274 165.217 86.46 164.989 86.568L164.773 86.676H164.791C164.683 86.82 164.575 86.892 164.467 86.892H164.323C164.275 86.988 164.113 87.084 163.837 87.18C163.573 87.276 163.321 87.324 163.081 87.324ZM164.017 82.986C164.353 82.986 164.629 82.842 164.845 82.554C165.073 82.266 165.187 81.978 165.187 81.69C165.187 81.558 165.151 81.438 165.079 81.33C165.019 81.222 164.935 81.168 164.827 81.168C164.623 81.168 164.395 81.264 164.143 81.456C163.891 81.648 163.669 81.9 163.477 82.212L163.243 82.59C163.291 82.566 163.327 82.554 163.351 82.554C163.447 82.554 163.519 82.596 163.567 82.68C163.615 82.764 163.669 82.836 163.729 82.896C163.789 82.956 163.885 82.986 164.017 82.986Z" fill="#161415"/>
<path d="M89.4205 28.4416C85.4875 14.9107 76.2564 10.5786 54.3763 14.0043M54.3763 14.0043L63.1414 6.32031M54.3763 14.0043L63.7805 18.6076" stroke="#FF007A" stroke-width="2" stroke-linecap="round"/>
</svg>
