<svg width="48" height="48" viewBox="0 0 48 48" fill="none" xmlns="http://www.w3.org/2000/svg">
<circle cx="24" cy="24" r="24" fill="#FAFAFA"/>
<path fill-rule="evenodd" clip-rule="evenodd" d="M35.4493 19.0157C35.6163 18.4303 35.4494 18 34.6553 18L32.0297 18C31.362 18 31.0544 18.3716 30.8875 18.7816C30.8875 18.7816 29.5522 22.2065 27.6607 24.4313C27.0487 25.0753 26.7706 25.2799 26.4367 25.2799C26.2698 25.2799 26.0283 25.0753 26.0283 24.4899L26.0283 19.0157C26.0283 18.313 25.8345 18 25.2781 18L21.1521 18C20.735 18 20.4841 18.3261 20.4841 18.6351C20.4841 19.3013 21.4297 19.4548 21.5272 21.3282L21.5272 25.3974C21.5272 26.2895 21.3742 26.4513 21.0404 26.4513C20.1503 26.4513 17.9853 23.0108 16.701 19.0743C16.4493 18.3091 16.1969 18 15.5258 18L12.9002 18C12.15 18 12 18.3716 12 18.7816C12 19.5134 12.8903 23.1434 16.1447 27.9442C18.3146 31.2225 21.3712 33 24.1528 33C25.822 33 26.0283 32.6053 26.0283 31.9253L26.0283 29.4474C26.0283 28.6579 26.1864 28.5004 26.7147 28.5004C27.1044 28.5004 27.7719 28.7053 29.3298 30.286C31.11 32.1592 31.4033 33 32.4048 33L35.0304 33C35.7806 33 36.1556 32.6053 35.9392 31.8262C35.7025 31.0498 34.8526 29.9236 33.7247 28.5882C33.1127 27.827 32.1947 27.0073 31.9168 26.5976C31.5272 26.0706 31.6385 25.8365 31.9168 25.3684C31.9168 25.3684 35.1155 20.626 35.4493 19.0159L35.4493 19.0157Z" fill="#161415"/>
</svg>
