<svg width="48" height="48" viewBox="0 0 48 48" fill="none" xmlns="http://www.w3.org/2000/svg">
<circle cx="24" cy="24" r="24" fill="#FAFAFA"/>
<path fill-rule="evenodd" clip-rule="evenodd" d="M32.9556 16.5037C33.9627 16.775 34.7568 17.5693 35.0279 18.5768C35.5315 20.4174 35.5121 24.2536 35.5121 24.2536C35.5121 24.2536 35.5121 28.0704 35.0279 29.911C34.7568 30.9185 33.9627 31.7129 32.9556 31.9841C31.1157 32.4685 23.756 32.4685 23.756 32.4685C23.756 32.4685 16.4158 32.4685 14.5565 31.9647C13.5494 31.6935 12.7553 30.8991 12.4842 29.8916C12 28.0704 12 24.2342 12 24.2342C12 24.2342 12 20.4174 12.4842 18.5768C12.7553 17.5693 13.5688 16.7556 14.5565 16.4844C16.3964 16 23.756 16 23.756 16C23.756 16 31.1157 16 32.9556 16.5037ZM27.5322 24.2345L21.4121 27.7598V20.7092L27.5322 24.2345Z" fill="#161415"/>
</svg>
