<svg width="48" height="48" viewBox="0 0 48 48" fill="none" xmlns="http://www.w3.org/2000/svg">
<circle cx="24" cy="24" r="24" fill="#FAFAFA"/>
<path d="M13.3749 24.61C18.7436 21.7875 22.3236 19.9268 24.1148 19.0278C29.2292 16.4609 30.2919 16.015 30.9846 16.0001C31.1369 15.9971 31.4776 16.0426 31.6982 16.2587C31.8845 16.4411 31.9358 16.6875 31.9603 16.8605C31.9848 17.0334 32.0154 17.4274 31.9911 17.7353C31.714 21.2491 30.5147 29.7763 29.9046 33.7118C29.6465 35.3771 29.1382 35.9354 28.6461 35.9901C27.5766 36.1088 26.7645 35.1373 25.7287 34.3179C24.1078 33.0359 23.1921 32.2378 21.6188 30.9867C19.8005 29.5409 20.9792 28.7462 22.0154 27.4476C22.2866 27.1077 26.9987 21.9359 27.0899 21.4668C27.1013 21.4081 27.1119 21.1894 27.0042 21.0739C26.8965 20.9584 26.7376 20.9979 26.6229 21.0293C26.4604 21.0738 23.871 23.139 18.8549 27.2248C18.1199 27.8338 17.4542 28.1305 16.8577 28.1149C16.2001 28.0978 14.9353 27.6663 13.995 27.2975C12.8417 26.8451 11.925 26.606 12.0048 25.8377C12.0464 25.4375 12.5031 25.0283 13.3749 24.61Z" fill="#161415"/>
</svg>
