<svg width="327" height="52" viewBox="0 0 327 52" fill="none" xmlns="http://www.w3.org/2000/svg">
<path d="M4.944 1.2C6.32 1.2 7.312 1.52 7.92 2.16C8.544 2.8 8.856 3.768 8.856 5.064V5.664C8.856 6.528 8.72 7.24 8.448 7.8C8.176 8.36 7.744 8.776 7.152 9.048C7.872 9.32 8.376 9.768 8.664 10.392C8.968 11 9.12 11.752 9.12 12.648V14.016C9.12 15.312 8.784 16.304 8.112 16.992C7.44 17.664 6.44 18 5.112 18H0.96V1.2H4.944ZM3.6 10.44V15.6H5.112C5.56 15.6 5.896 15.48 6.12 15.24C6.36 15 6.48 14.568 6.48 13.944V12.48C6.48 11.696 6.344 11.16 6.072 10.872C5.816 10.584 5.384 10.44 4.776 10.44H3.6ZM3.6 3.6V8.04H4.632C5.128 8.04 5.512 7.912 5.784 7.656C6.072 7.4 6.216 6.936 6.216 6.264V5.328C6.216 4.72 6.104 4.28 5.88 4.008C5.672 3.736 5.336 3.6 4.872 3.6H3.6ZM10.71 1.2H13.35V15.6H17.694V18H10.71V1.2ZM21.4097 1.2V14.16C21.4097 14.768 21.5297 15.192 21.7697 15.432C22.0257 15.672 22.3617 15.792 22.7777 15.792C23.1937 15.792 23.5217 15.672 23.7617 15.432C24.0177 15.192 24.1457 14.768 24.1457 14.16V1.2H26.6417V13.992C26.6417 15.352 26.3057 16.4 25.6337 17.136C24.9777 17.856 24.0017 18.216 22.7057 18.216C21.4097 18.216 20.4257 17.856 19.7537 17.136C19.0977 16.4 18.7697 15.352 18.7697 13.992V1.2H21.4097ZM31.0922 8.28H34.7162V10.68H31.0922V15.6H35.6522V18H28.4522V1.2H35.6522V3.6H31.0922V8.28ZM44.9987 1.2C46.3747 1.2 47.3667 1.52 47.9747 2.16C48.5987 2.8 48.9107 3.768 48.9107 5.064V5.664C48.9107 6.528 48.7747 7.24 48.5027 7.8C48.2307 8.36 47.7987 8.776 47.2067 9.048C47.9267 9.32 48.4307 9.768 48.7187 10.392C49.0227 11 49.1747 11.752 49.1747 12.648V14.016C49.1747 15.312 48.8387 16.304 48.1667 16.992C47.4947 17.664 46.4947 18 45.1667 18H41.0147V1.2H44.9987ZM43.6547 10.44V15.6H45.1667C45.6147 15.6 45.9507 15.48 46.1747 15.24C46.4147 15 46.5347 14.568 46.5347 13.944V12.48C46.5347 11.696 46.3987 11.16 46.1267 10.872C45.8707 10.584 45.4387 10.44 44.8307 10.44H43.6547ZM43.6547 3.6V8.04H44.6867C45.1827 8.04 45.5667 7.912 45.8387 7.656C46.1267 7.4 46.2707 6.936 46.2707 6.264V5.328C46.2707 4.72 46.1587 4.28 45.9347 4.008C45.7267 3.736 45.3907 3.6 44.9267 3.6H43.6547ZM53.4047 8.28H57.0287V10.68H53.4047V15.6H57.9647V18H50.7647V1.2H57.9647V3.6H53.4047V8.28ZM65.1206 18C65.0886 17.888 65.0566 17.784 65.0246 17.688C64.9926 17.592 64.9606 17.472 64.9286 17.328C64.9126 17.184 64.8966 17 64.8806 16.776C64.8806 16.552 64.8806 16.272 64.8806 15.936V13.296C64.8806 12.512 64.7446 11.96 64.4726 11.64C64.2006 11.32 63.7606 11.16 63.1526 11.16H62.2406V18H59.6006V1.2H63.5846C64.9606 1.2 65.9526 1.52 66.5606 2.16C67.1846 2.8 67.4966 3.768 67.4966 5.064V6.384C67.4966 8.112 66.9206 9.248 65.7686 9.792C66.4406 10.064 66.8966 10.512 67.1366 11.136C67.3926 11.744 67.5206 12.488 67.5206 13.368V15.96C67.5206 16.376 67.5366 16.744 67.5686 17.064C67.6006 17.368 67.6806 17.68 67.8086 18H65.1206ZM62.2406 3.6V8.76H63.2726C63.7686 8.76 64.1526 8.632 64.4246 8.376C64.7126 8.12 64.8566 7.656 64.8566 6.984V5.328C64.8566 4.72 64.7446 4.28 64.5206 4.008C64.3126 3.736 63.9766 3.6 63.5126 3.6H62.2406ZM74.7769 18C74.7449 17.888 74.7129 17.784 74.6809 17.688C74.6489 17.592 74.6169 17.472 74.5849 17.328C74.5689 17.184 74.5529 17 74.5369 16.776C74.5369 16.552 74.5369 16.272 74.5369 15.936V13.296C74.5369 12.512 74.4009 11.96 74.1289 11.64C73.8569 11.32 73.4169 11.16 72.8089 11.16H71.8969V18H69.2569V1.2H73.2409C74.6169 1.2 75.6089 1.52 76.2169 2.16C76.8409 2.8 77.1529 3.768 77.1529 5.064V6.384C77.1529 8.112 76.5769 9.248 75.4249 9.792C76.0969 10.064 76.5529 10.512 76.7929 11.136C77.0489 11.744 77.1769 12.488 77.1769 13.368V15.96C77.1769 16.376 77.1929 16.744 77.2249 17.064C77.2569 17.368 77.3369 17.68 77.4649 18H74.7769ZM71.8969 3.6V8.76H72.9289C73.4249 8.76 73.8089 8.632 74.0809 8.376C74.3689 8.12 74.5129 7.656 74.5129 6.984V5.328C74.5129 4.72 74.4009 4.28 74.1769 4.008C73.9689 3.736 73.6329 3.6 73.1689 3.6H71.8969ZM81.3851 12.432L78.0491 1.2H80.8091L82.8251 8.856L84.8411 1.2H87.3611L84.0251 12.432V18H81.3851V12.432ZM92.1553 1.2H94.7953V15.6H99.1393V18H92.1553V1.2ZM102.975 8.28H106.599V10.68H102.975V15.6H107.535V18H100.335V1.2H107.535V3.6H102.975V8.28ZM114.763 13.128L116.563 1.2H120.235V18H117.739V5.952L115.915 18H113.419L111.451 6.12V18H109.147V1.2H112.819L114.763 13.128ZM124.579 14.136C124.579 14.744 124.699 15.176 124.939 15.432C125.195 15.672 125.531 15.792 125.947 15.792C126.363 15.792 126.691 15.672 126.931 15.432C127.187 15.176 127.315 14.744 127.315 14.136V5.064C127.315 4.456 127.187 4.032 126.931 3.792C126.691 3.536 126.363 3.408 125.947 3.408C125.531 3.408 125.195 3.536 124.939 3.792C124.699 4.032 124.579 4.456 124.579 5.064V14.136ZM121.939 5.232C121.939 3.872 122.283 2.832 122.971 2.112C123.659 1.376 124.651 1.008 125.947 1.008C127.243 1.008 128.235 1.376 128.923 2.112C129.611 2.832 129.955 3.872 129.955 5.232V13.968C129.955 15.328 129.611 16.376 128.923 17.112C128.235 17.832 127.243 18.192 125.947 18.192C124.651 18.192 123.659 17.832 122.971 17.112C122.283 16.376 121.939 15.328 121.939 13.968V5.232ZM134.023 5.832V18H131.647V1.2H134.959L137.671 11.256V1.2H140.023V18H137.311L134.023 5.832ZM150.457 18H147.793L147.337 14.952H144.097L143.641 18H141.217L143.905 1.2H147.769L150.457 18ZM144.433 12.672H146.977L145.705 4.176L144.433 12.672ZM151.687 1.2H155.863C157.191 1.2 158.175 1.552 158.815 2.256C159.471 2.96 159.799 3.992 159.799 5.352V13.848C159.799 15.208 159.471 16.24 158.815 16.944C158.175 17.648 157.191 18 155.863 18H151.687V1.2ZM154.327 3.6V15.6H155.815C156.231 15.6 156.559 15.48 156.799 15.24C157.039 15 157.159 14.576 157.159 13.968V5.232C157.159 4.624 157.039 4.2 156.799 3.96C156.559 3.72 156.231 3.6 155.815 3.6H154.327ZM164.123 8.28H167.747V10.68H164.123V15.6H168.683V18H161.483V1.2H168.683V3.6H164.123V8.28Z" fill="#8A40B4"/>
<path d="M186.616 11.736V13.968C186.616 15.328 186.28 16.376 185.608 17.112C184.952 17.832 183.976 18.192 182.68 18.192C181.384 18.192 180.4 17.832 179.728 17.112C179.072 16.376 178.744 15.328 178.744 13.968V5.232C178.744 3.872 179.072 2.832 179.728 2.112C180.4 1.376 181.384 1.008 182.68 1.008C183.976 1.008 184.952 1.376 185.608 2.112C186.28 2.832 186.616 3.872 186.616 5.232V6.864H184.12V5.064C184.12 4.456 183.992 4.032 183.736 3.792C183.496 3.536 183.168 3.408 182.752 3.408C182.336 3.408 182 3.536 181.744 3.792C181.504 4.032 181.384 4.456 181.384 5.064V14.136C181.384 14.744 181.504 15.168 181.744 15.408C182 15.648 182.336 15.768 182.752 15.768C183.168 15.768 183.496 15.648 183.736 15.408C183.992 15.168 184.12 14.744 184.12 14.136V11.736H186.616ZM188.218 1.2H190.858V18H188.218V1.2ZM192.068 1.2H200.228V3.6H197.468V18H194.828V3.6H192.068V1.2ZM206.957 18C206.925 17.888 206.893 17.784 206.861 17.688C206.829 17.592 206.797 17.472 206.765 17.328C206.749 17.184 206.733 17 206.717 16.776C206.717 16.552 206.717 16.272 206.717 15.936V13.296C206.717 12.512 206.581 11.96 206.309 11.64C206.037 11.32 205.597 11.16 204.989 11.16H204.077V18H201.437V1.2H205.421C206.797 1.2 207.789 1.52 208.397 2.16C209.021 2.8 209.333 3.768 209.333 5.064V6.384C209.333 8.112 208.757 9.248 207.605 9.792C208.277 10.064 208.733 10.512 208.973 11.136C209.229 11.744 209.357 12.488 209.357 13.368V15.96C209.357 16.376 209.373 16.744 209.405 17.064C209.437 17.368 209.517 17.68 209.645 18H206.957ZM204.077 3.6V8.76H205.109C205.605 8.76 205.989 8.632 206.261 8.376C206.549 8.12 206.693 7.656 206.693 6.984V5.328C206.693 4.72 206.581 4.28 206.357 4.008C206.149 3.736 205.813 3.6 205.349 3.6H204.077ZM213.613 1.2V14.16C213.613 14.768 213.733 15.192 213.973 15.432C214.229 15.672 214.565 15.792 214.981 15.792C215.397 15.792 215.725 15.672 215.965 15.432C216.221 15.192 216.349 14.768 216.349 14.16V1.2H218.845V13.992C218.845 15.352 218.509 16.4 217.837 17.136C217.181 17.856 216.205 18.216 214.909 18.216C213.613 18.216 212.629 17.856 211.957 17.136C211.301 16.4 210.973 15.352 210.973 13.992V1.2H213.613ZM220.319 5.232C220.319 3.872 220.639 2.832 221.279 2.112C221.935 1.376 222.911 1.008 224.207 1.008C225.503 1.008 226.471 1.376 227.111 2.112C227.767 2.832 228.095 3.872 228.095 5.232V5.88H225.599V5.064C225.599 4.456 225.479 4.032 225.239 3.792C225.015 3.536 224.695 3.408 224.279 3.408C223.863 3.408 223.535 3.536 223.295 3.792C223.071 4.032 222.959 4.456 222.959 5.064C222.959 5.64 223.087 6.152 223.343 6.6C223.599 7.032 223.919 7.448 224.303 7.848C224.687 8.232 225.095 8.624 225.527 9.024C225.975 9.408 226.391 9.832 226.775 10.296C227.159 10.76 227.479 11.288 227.735 11.88C227.991 12.472 228.119 13.168 228.119 13.968C228.119 15.328 227.783 16.376 227.111 17.112C226.455 17.832 225.479 18.192 224.183 18.192C222.887 18.192 221.903 17.832 221.231 17.112C220.575 16.376 220.247 15.328 220.247 13.968V12.816H222.743V14.136C222.743 14.744 222.863 15.168 223.103 15.408C223.359 15.648 223.695 15.768 224.111 15.768C224.527 15.768 224.855 15.648 225.095 15.408C225.351 15.168 225.479 14.744 225.479 14.136C225.479 13.56 225.351 13.056 225.095 12.624C224.839 12.176 224.519 11.76 224.135 11.376C223.751 10.976 223.335 10.584 222.887 10.2C222.455 9.8 222.047 9.368 221.663 8.904C221.279 8.44 220.959 7.912 220.703 7.32C220.447 6.728 220.319 6.032 220.319 5.232ZM241.014 11.736V13.968C241.014 15.328 240.678 16.376 240.006 17.112C239.35 17.832 238.374 18.192 237.078 18.192C235.782 18.192 234.798 17.832 234.126 17.112C233.47 16.376 233.142 15.328 233.142 13.968V5.232C233.142 3.872 233.47 2.832 234.126 2.112C234.798 1.376 235.782 1.008 237.078 1.008C238.374 1.008 239.35 1.376 240.006 2.112C240.678 2.832 241.014 3.872 241.014 5.232V6.864H238.518V5.064C238.518 4.456 238.39 4.032 238.134 3.792C237.894 3.536 237.566 3.408 237.15 3.408C236.734 3.408 236.398 3.536 236.142 3.792C235.902 4.032 235.782 4.456 235.782 5.064V14.136C235.782 14.744 235.902 15.168 236.142 15.408C236.398 15.648 236.734 15.768 237.15 15.768C237.566 15.768 237.894 15.648 238.134 15.408C238.39 15.168 238.518 14.744 238.518 14.136V11.736H241.014ZM245.04 14.136C245.04 14.744 245.16 15.176 245.4 15.432C245.656 15.672 245.992 15.792 246.408 15.792C246.824 15.792 247.152 15.672 247.392 15.432C247.648 15.176 247.776 14.744 247.776 14.136V5.064C247.776 4.456 247.648 4.032 247.392 3.792C247.152 3.536 246.824 3.408 246.408 3.408C245.992 3.408 245.656 3.536 245.4 3.792C245.16 4.032 245.04 4.456 245.04 5.064V14.136ZM242.4 5.232C242.4 3.872 242.744 2.832 243.432 2.112C244.12 1.376 245.112 1.008 246.408 1.008C247.704 1.008 248.696 1.376 249.384 2.112C250.072 2.832 250.416 3.872 250.416 5.232V13.968C250.416 15.328 250.072 16.376 249.384 17.112C248.696 17.832 247.704 18.192 246.408 18.192C245.112 18.192 244.12 17.832 243.432 17.112C242.744 16.376 242.4 15.328 242.4 13.968V5.232ZM252.132 1.2H254.772V15.6H259.116V18H252.132V1.2ZM268.856 18H266.192L265.736 14.952H262.496L262.04 18H259.616L262.304 1.2H266.168L268.856 18ZM262.832 12.672H265.376L264.104 4.176L262.832 12.672Z" fill="#FF8D00"/>
<path d="M3.6 36.664H7.008V39.064H3.6V46H0.96V29.2H7.944V31.6H3.6V36.664ZM14.73 46C14.698 45.888 14.666 45.784 14.634 45.688C14.602 45.592 14.57 45.472 14.538 45.328C14.522 45.184 14.506 45 14.49 44.776C14.49 44.552 14.49 44.272 14.49 43.936V41.296C14.49 40.512 14.354 39.96 14.082 39.64C13.81 39.32 13.37 39.16 12.762 39.16H11.85V46H9.21V29.2H13.194C14.57 29.2 15.562 29.52 16.17 30.16C16.794 30.8 17.106 31.768 17.106 33.064V34.384C17.106 36.112 16.53 37.248 15.378 37.792C16.05 38.064 16.506 38.512 16.746 39.136C17.002 39.744 17.13 40.488 17.13 41.368V43.96C17.13 44.376 17.146 44.744 17.178 45.064C17.21 45.368 17.29 45.68 17.418 46H14.73ZM11.85 31.6V36.76H12.882C13.378 36.76 13.762 36.632 14.034 36.376C14.322 36.12 14.466 35.656 14.466 34.984V33.328C14.466 32.72 14.354 32.28 14.13 32.008C13.922 31.736 13.586 31.6 13.122 31.6H11.85ZM21.2903 42.136C21.2903 42.744 21.4103 43.176 21.6503 43.432C21.9063 43.672 22.2423 43.792 22.6583 43.792C23.0743 43.792 23.4023 43.672 23.6423 43.432C23.8983 43.176 24.0263 42.744 24.0263 42.136V33.064C24.0263 32.456 23.8983 32.032 23.6423 31.792C23.4023 31.536 23.0743 31.408 22.6583 31.408C22.2423 31.408 21.9063 31.536 21.6503 31.792C21.4103 32.032 21.2903 32.456 21.2903 33.064V42.136ZM18.6503 33.232C18.6503 31.872 18.9943 30.832 19.6823 30.112C20.3703 29.376 21.3623 29.008 22.6583 29.008C23.9543 29.008 24.9463 29.376 25.6343 30.112C26.3223 30.832 26.6663 31.872 26.6663 33.232V41.968C26.6663 43.328 26.3223 44.376 25.6343 45.112C24.9463 45.832 23.9543 46.192 22.6583 46.192C21.3623 46.192 20.3703 45.832 19.6823 45.112C18.9943 44.376 18.6503 43.328 18.6503 41.968V33.232ZM35.7019 29.2V31.552L30.6859 43.6H35.7019V46H27.9739V43.648L32.9899 31.6H28.2139V29.2H35.7019ZM39.9047 36.28H43.5287V38.68H39.9047V43.6H44.4647V46H37.2647V29.2H44.4647V31.6H39.9047V36.28ZM48.4526 33.832V46H46.0766V29.2H49.3886L52.1006 39.256V29.2H54.4526V46H51.7406L48.4526 33.832ZM60.0694 29.2H62.7094V43.6H67.0534V46H60.0694V29.2ZM70.7211 40.432L67.3851 29.2H70.1451L72.1611 36.856L74.1771 29.2H76.6971L73.3611 40.432V46H70.7211V40.432ZM85.4207 39.736V41.968C85.4207 43.328 85.0847 44.376 84.4127 45.112C83.7567 45.832 82.7807 46.192 81.4847 46.192C80.1887 46.192 79.2047 45.832 78.5327 45.112C77.8767 44.376 77.5487 43.328 77.5487 41.968V33.232C77.5487 31.872 77.8767 30.832 78.5327 30.112C79.2047 29.376 80.1887 29.008 81.4847 29.008C82.7807 29.008 83.7567 29.376 84.4127 30.112C85.0847 30.832 85.4207 31.872 85.4207 33.232V34.864H82.9247V33.064C82.9247 32.456 82.7967 32.032 82.5407 31.792C82.3007 31.536 81.9727 31.408 81.5567 31.408C81.1407 31.408 80.8047 31.536 80.5487 31.792C80.3087 32.032 80.1887 32.456 80.1887 33.064V42.136C80.1887 42.744 80.3087 43.168 80.5487 43.408C80.8047 43.648 81.1407 43.768 81.5567 43.768C81.9727 43.768 82.3007 43.648 82.5407 43.408C82.7967 43.168 82.9247 42.744 82.9247 42.136V39.736H85.4207ZM89.6625 46H87.0225V29.2H89.6625V36.4H92.6625V29.2H95.3505V46H92.6625V38.8H89.6625V46ZM99.9047 36.28H103.529V38.68H99.9047V43.6H104.465V46H97.2647V29.2H104.465V31.6H99.9047V36.28ZM108.741 36.28H112.365V38.68H108.741V43.6H113.301V46H106.101V29.2H113.301V31.6H108.741V36.28Z" fill="#FF0055"/>
<path d="M126.92 36.64H130.616V41.968C130.616 43.328 130.28 44.376 129.608 45.112C128.952 45.832 127.976 46.192 126.68 46.192C125.384 46.192 124.4 45.832 123.728 45.112C123.072 44.376 122.744 43.328 122.744 41.968V33.232C122.744 31.872 123.072 30.832 123.728 30.112C124.4 29.376 125.384 29.008 126.68 29.008C127.976 29.008 128.952 29.376 129.608 30.112C130.28 30.832 130.616 31.872 130.616 33.232V34.864H128.12V33.064C128.12 32.456 127.992 32.032 127.736 31.792C127.496 31.536 127.168 31.408 126.752 31.408C126.336 31.408 126 31.536 125.744 31.792C125.504 32.032 125.384 32.456 125.384 33.064V42.136C125.384 42.744 125.504 43.168 125.744 43.408C126 43.648 126.336 43.768 126.752 43.768C127.168 43.768 127.496 43.648 127.736 43.408C127.992 43.168 128.12 42.744 128.12 42.136V39.04H126.92V36.64ZM140.856 46H138.192L137.736 42.952H134.496L134.04 46H131.616L134.304 29.2H138.168L140.856 46ZM134.832 40.672H137.376L136.104 32.176L134.832 40.672ZM147.605 46C147.573 45.888 147.541 45.784 147.509 45.688C147.477 45.592 147.445 45.472 147.413 45.328C147.397 45.184 147.381 45 147.365 44.776C147.365 44.552 147.365 44.272 147.365 43.936V41.296C147.365 40.512 147.229 39.96 146.957 39.64C146.685 39.32 146.245 39.16 145.637 39.16H144.725V46H142.085V29.2H146.069C147.445 29.2 148.437 29.52 149.045 30.16C149.669 30.8 149.981 31.768 149.981 33.064V34.384C149.981 36.112 149.405 37.248 148.253 37.792C148.925 38.064 149.381 38.512 149.621 39.136C149.877 39.744 150.005 40.488 150.005 41.368V43.96C150.005 44.376 150.021 44.744 150.053 45.064C150.085 45.368 150.165 45.68 150.293 46H147.605ZM144.725 31.6V36.76H145.757C146.253 36.76 146.637 36.632 146.909 36.376C147.197 36.12 147.341 35.656 147.341 34.984V33.328C147.341 32.72 147.229 32.28 147.005 32.008C146.797 31.736 146.461 31.6 145.997 31.6H144.725ZM154.093 33.832V46H151.717V29.2H155.029L157.741 39.256V29.2H160.093V46H157.381L154.093 33.832ZM164.623 36.28H168.247V38.68H164.623V43.6H169.183V46H161.983V29.2H169.183V31.6H164.623V36.28ZM170.099 29.2H178.259V31.6H175.499V46H172.859V31.6H170.099V29.2ZM183.194 29.2H187.37C188.698 29.2 189.682 29.552 190.322 30.256C190.978 30.96 191.306 31.992 191.306 33.352V41.848C191.306 43.208 190.978 44.24 190.322 44.944C189.682 45.648 188.698 46 187.37 46H183.194V29.2ZM185.834 31.6V43.6H187.322C187.738 43.6 188.066 43.48 188.306 43.24C188.546 43 188.666 42.576 188.666 41.968V33.232C188.666 32.624 188.546 32.2 188.306 31.96C188.066 31.72 187.738 31.6 187.322 31.6H185.834ZM198.511 46C198.479 45.888 198.447 45.784 198.415 45.688C198.383 45.592 198.351 45.472 198.319 45.328C198.303 45.184 198.287 45 198.271 44.776C198.271 44.552 198.271 44.272 198.271 43.936V41.296C198.271 40.512 198.135 39.96 197.863 39.64C197.591 39.32 197.151 39.16 196.543 39.16H195.631V46H192.991V29.2H196.975C198.351 29.2 199.343 29.52 199.951 30.16C200.575 30.8 200.887 31.768 200.887 33.064V34.384C200.887 36.112 200.311 37.248 199.159 37.792C199.831 38.064 200.287 38.512 200.527 39.136C200.783 39.744 200.911 40.488 200.911 41.368V43.96C200.911 44.376 200.927 44.744 200.959 45.064C200.991 45.368 201.071 45.68 201.199 46H198.511ZM195.631 31.6V36.76H196.663C197.159 36.76 197.543 36.632 197.815 36.376C198.103 36.12 198.247 35.656 198.247 34.984V33.328C198.247 32.72 198.135 32.28 197.911 32.008C197.703 31.736 197.367 31.6 196.903 31.6H195.631ZM202.648 29.2H205.288V46H202.648V29.2ZM209.57 33.832V46H207.194V29.2H210.506L213.218 39.256V29.2H215.57V46H212.858L209.57 33.832ZM220.916 39.304L220.1 40.84V46H217.46V29.2H220.1V36.52L223.604 29.2H226.196L222.524 36.688L226.196 46H223.484L220.916 39.304Z" fill="#FA0008"/>
<path d="M239.944 29.2C241.32 29.2 242.312 29.52 242.92 30.16C243.544 30.8 243.856 31.768 243.856 33.064V33.664C243.856 34.528 243.72 35.24 243.448 35.8C243.176 36.36 242.744 36.776 242.152 37.048C242.872 37.32 243.376 37.768 243.664 38.392C243.968 39 244.12 39.752 244.12 40.648V42.016C244.12 43.312 243.784 44.304 243.112 44.992C242.44 45.664 241.44 46 240.112 46H235.96V29.2H239.944ZM238.6 38.44V43.6H240.112C240.56 43.6 240.896 43.48 241.12 43.24C241.36 43 241.48 42.568 241.48 41.944V40.48C241.48 39.696 241.344 39.16 241.072 38.872C240.816 38.584 240.384 38.44 239.776 38.44H238.6ZM238.6 31.6V36.04H239.632C240.128 36.04 240.512 35.912 240.784 35.656C241.072 35.4 241.216 34.936 241.216 34.264V33.328C241.216 32.72 241.104 32.28 240.88 32.008C240.672 31.736 240.336 31.6 239.872 31.6H238.6ZM245.71 29.2H248.35V43.6H252.694V46H245.71V29.2ZM262.434 46H259.77L259.314 42.952H256.074L255.618 46H253.194L255.882 29.2H259.746L262.434 46ZM256.41 40.672H258.954L257.682 32.176L256.41 40.672ZM271.319 39.736V41.968C271.319 43.328 270.983 44.376 270.311 45.112C269.655 45.832 268.679 46.192 267.383 46.192C266.087 46.192 265.103 45.832 264.431 45.112C263.775 44.376 263.447 43.328 263.447 41.968V33.232C263.447 31.872 263.775 30.832 264.431 30.112C265.103 29.376 266.087 29.008 267.383 29.008C268.679 29.008 269.655 29.376 270.311 30.112C270.983 30.832 271.319 31.872 271.319 33.232V34.864H268.823V33.064C268.823 32.456 268.695 32.032 268.439 31.792C268.199 31.536 267.871 31.408 267.455 31.408C267.039 31.408 266.703 31.536 266.447 31.792C266.207 32.032 266.087 32.456 266.087 33.064V42.136C266.087 42.744 266.207 43.168 266.447 43.408C266.703 43.648 267.039 43.768 267.455 43.768C267.871 43.768 268.199 43.648 268.439 43.408C268.695 43.168 268.823 42.744 268.823 42.136V39.736H271.319ZM276.377 39.304L275.561 40.84V46H272.921V29.2H275.561V36.52L279.065 29.2H281.657L277.985 36.688L281.657 46H278.945L276.377 39.304ZM294.241 39.736V41.968C294.241 43.328 293.905 44.376 293.233 45.112C292.577 45.832 291.601 46.192 290.305 46.192C289.009 46.192 288.025 45.832 287.353 45.112C286.697 44.376 286.369 43.328 286.369 41.968V33.232C286.369 31.872 286.697 30.832 287.353 30.112C288.025 29.376 289.009 29.008 290.305 29.008C291.601 29.008 292.577 29.376 293.233 30.112C293.905 30.832 294.241 31.872 294.241 33.232V34.864H291.745V33.064C291.745 32.456 291.617 32.032 291.361 31.792C291.121 31.536 290.793 31.408 290.377 31.408C289.961 31.408 289.625 31.536 289.369 31.792C289.129 32.032 289.009 32.456 289.009 33.064V42.136C289.009 42.744 289.129 43.168 289.369 43.408C289.625 43.648 289.961 43.768 290.377 43.768C290.793 43.768 291.121 43.648 291.361 43.408C291.617 43.168 291.745 42.744 291.745 42.136V39.736H294.241ZM298.483 46H295.843V29.2H298.483V36.4H301.483V29.2H304.171V46H301.483V38.8H298.483V46ZM306.085 29.2H308.725V46H306.085V29.2ZM310.655 29.2H313.295V43.6H317.639V46H310.655V29.2ZM318.835 29.2H321.475V43.6H325.819V46H318.835V29.2Z" fill="#0047FF"/>
</svg>
