<svg width="284" height="52" viewBox="0 0 284 52" fill="none" xmlns="http://www.w3.org/2000/svg">
<path d="M9.504 18H6.84L6.384 14.952H3.144L2.688 18H0.264L2.952 1.2H6.816L9.504 18ZM3.48 12.672H6.024L4.752 4.176L3.48 12.672ZM14.6214 1.2C15.9494 1.2 16.9334 1.552 17.5734 2.256C18.2294 2.96 18.5574 3.992 18.5574 5.352V7.536C18.5574 8.896 18.2294 9.928 17.5734 10.632C16.9334 11.336 15.9494 11.688 14.6214 11.688H13.3734V18H10.7334V1.2H14.6214ZM13.3734 3.6V9.288H14.6214C15.0374 9.288 15.3574 9.176 15.5814 8.952C15.8054 8.728 15.9174 8.312 15.9174 7.704V5.184C15.9174 4.576 15.8054 4.16 15.5814 3.936C15.3574 3.712 15.0374 3.6 14.6214 3.6H13.3734ZM23.6683 1.2C24.9963 1.2 25.9803 1.552 26.6203 2.256C27.2763 2.96 27.6043 3.992 27.6043 5.352V7.536C27.6043 8.896 27.2763 9.928 26.6203 10.632C25.9803 11.336 24.9963 11.688 23.6683 11.688H22.4203V18H19.7803V1.2H23.6683ZM22.4203 3.6V9.288H23.6683C24.0843 9.288 24.4043 9.176 24.6283 8.952C24.8523 8.728 24.9643 8.312 24.9643 7.704V5.184C24.9643 4.576 24.8523 4.16 24.6283 3.936C24.4043 3.712 24.0843 3.6 23.6683 3.6H22.4203ZM28.8272 1.2H31.4672V15.6H35.8112V18H28.8272V1.2ZM39.6469 8.28H43.2709V10.68H39.6469V15.6H44.2069V18H37.0069V1.2H44.2069V3.6H39.6469V8.28Z" fill="#4D8E4B"/>
<path d="M57.944 1.2C59.32 1.2 60.312 1.52 60.92 2.16C61.544 2.8 61.856 3.768 61.856 5.064V5.664C61.856 6.528 61.72 7.24 61.448 7.8C61.176 8.36 60.744 8.776 60.152 9.048C60.872 9.32 61.376 9.768 61.664 10.392C61.968 11 62.12 11.752 62.12 12.648V14.016C62.12 15.312 61.784 16.304 61.112 16.992C60.44 17.664 59.44 18 58.112 18H53.96V1.2H57.944ZM56.6 10.44V15.6H58.112C58.56 15.6 58.896 15.48 59.12 15.24C59.36 15 59.48 14.568 59.48 13.944V12.48C59.48 11.696 59.344 11.16 59.072 10.872C58.816 10.584 58.384 10.44 57.776 10.44H56.6ZM56.6 3.6V8.04H57.632C58.128 8.04 58.512 7.912 58.784 7.656C59.072 7.4 59.216 6.936 59.216 6.264V5.328C59.216 4.72 59.104 4.28 58.88 4.008C58.672 3.736 58.336 3.6 57.872 3.6H56.6ZM66.35 8.28H69.974V10.68H66.35V15.6H70.91V18H63.71V1.2H70.91V3.6H66.35V8.28ZM78.0659 18C78.0339 17.888 78.0019 17.784 77.9699 17.688C77.9379 17.592 77.9059 17.472 77.8739 17.328C77.8579 17.184 77.8419 17 77.8259 16.776C77.8259 16.552 77.8259 16.272 77.8259 15.936V13.296C77.8259 12.512 77.6899 11.96 77.4179 11.64C77.1459 11.32 76.7059 11.16 76.0979 11.16H75.1859V18H72.5459V1.2H76.5299C77.9059 1.2 78.8979 1.52 79.5059 2.16C80.1299 2.8 80.4419 3.768 80.4419 5.064V6.384C80.4419 8.112 79.8659 9.248 78.7139 9.792C79.3859 10.064 79.8419 10.512 80.0819 11.136C80.3379 11.744 80.4659 12.488 80.4659 13.368V15.96C80.4659 16.376 80.4819 16.744 80.5139 17.064C80.5459 17.368 80.6259 17.68 80.7539 18H78.0659ZM75.1859 3.6V8.76H76.2179C76.7139 8.76 77.0979 8.632 77.3699 8.376C77.6579 8.12 77.8019 7.656 77.8019 6.984V5.328C77.8019 4.72 77.6899 4.28 77.4659 4.008C77.2579 3.736 76.9219 3.6 76.4579 3.6H75.1859ZM87.7222 18C87.6902 17.888 87.6582 17.784 87.6262 17.688C87.5942 17.592 87.5622 17.472 87.5302 17.328C87.5142 17.184 87.4982 17 87.4822 16.776C87.4822 16.552 87.4822 16.272 87.4822 15.936V13.296C87.4822 12.512 87.3462 11.96 87.0742 11.64C86.8022 11.32 86.3622 11.16 85.7542 11.16H84.8422V18H82.2022V1.2H86.1862C87.5622 1.2 88.5542 1.52 89.1622 2.16C89.7862 2.8 90.0982 3.768 90.0982 5.064V6.384C90.0982 8.112 89.5222 9.248 88.3702 9.792C89.0422 10.064 89.4982 10.512 89.7382 11.136C89.9942 11.744 90.1222 12.488 90.1222 13.368V15.96C90.1222 16.376 90.1382 16.744 90.1702 17.064C90.2022 17.368 90.2822 17.68 90.4102 18H87.7222ZM84.8422 3.6V8.76H85.8742C86.3702 8.76 86.7542 8.632 87.0262 8.376C87.3142 8.12 87.4582 7.656 87.4582 6.984V5.328C87.4582 4.72 87.3462 4.28 87.1222 4.008C86.9142 3.736 86.5782 3.6 86.1142 3.6H84.8422ZM94.3304 12.432L90.9944 1.2H93.7544L95.7704 8.856L97.7864 1.2H100.306L96.9704 12.432V18H94.3304V12.432Z" fill="#A643B7"/>
<path d="M117.616 11.736V13.968C117.616 15.328 117.28 16.376 116.608 17.112C115.952 17.832 114.976 18.192 113.68 18.192C112.384 18.192 111.4 17.832 110.728 17.112C110.072 16.376 109.744 15.328 109.744 13.968V5.232C109.744 3.872 110.072 2.832 110.728 2.112C111.4 1.376 112.384 1.008 113.68 1.008C114.976 1.008 115.952 1.376 116.608 2.112C117.28 2.832 117.616 3.872 117.616 5.232V6.864H115.12V5.064C115.12 4.456 114.992 4.032 114.736 3.792C114.496 3.536 114.168 3.408 113.752 3.408C113.336 3.408 113 3.536 112.744 3.792C112.504 4.032 112.384 4.456 112.384 5.064V14.136C112.384 14.744 112.504 15.168 112.744 15.408C113 15.648 113.336 15.768 113.752 15.768C114.168 15.768 114.496 15.648 114.736 15.408C114.992 15.168 115.12 14.744 115.12 14.136V11.736H117.616ZM119.218 1.2H121.858V18H119.218V1.2ZM123.068 1.2H131.228V3.6H128.468V18H125.828V3.6H123.068V1.2ZM137.957 18C137.925 17.888 137.893 17.784 137.861 17.688C137.829 17.592 137.797 17.472 137.765 17.328C137.749 17.184 137.733 17 137.717 16.776C137.717 16.552 137.717 16.272 137.717 15.936V13.296C137.717 12.512 137.581 11.96 137.309 11.64C137.037 11.32 136.597 11.16 135.989 11.16H135.077V18H132.437V1.2H136.421C137.797 1.2 138.789 1.52 139.397 2.16C140.021 2.8 140.333 3.768 140.333 5.064V6.384C140.333 8.112 139.757 9.248 138.605 9.792C139.277 10.064 139.733 10.512 139.973 11.136C140.229 11.744 140.357 12.488 140.357 13.368V15.96C140.357 16.376 140.373 16.744 140.405 17.064C140.437 17.368 140.517 17.68 140.645 18H137.957ZM135.077 3.6V8.76H136.109C136.605 8.76 136.989 8.632 137.261 8.376C137.549 8.12 137.693 7.656 137.693 6.984V5.328C137.693 4.72 137.581 4.28 137.357 4.008C137.149 3.736 136.813 3.6 136.349 3.6H135.077ZM144.613 1.2V14.16C144.613 14.768 144.733 15.192 144.973 15.432C145.229 15.672 145.565 15.792 145.981 15.792C146.397 15.792 146.725 15.672 146.965 15.432C147.221 15.192 147.349 14.768 147.349 14.16V1.2H149.845V13.992C149.845 15.352 149.509 16.4 148.837 17.136C148.181 17.856 147.205 18.216 145.909 18.216C144.613 18.216 143.629 17.856 142.957 17.136C142.301 16.4 141.973 15.352 141.973 13.992V1.2H144.613ZM151.319 5.232C151.319 3.872 151.639 2.832 152.279 2.112C152.935 1.376 153.911 1.008 155.207 1.008C156.503 1.008 157.471 1.376 158.111 2.112C158.767 2.832 159.095 3.872 159.095 5.232V5.88H156.599V5.064C156.599 4.456 156.479 4.032 156.239 3.792C156.015 3.536 155.695 3.408 155.279 3.408C154.863 3.408 154.535 3.536 154.295 3.792C154.071 4.032 153.959 4.456 153.959 5.064C153.959 5.64 154.087 6.152 154.343 6.6C154.599 7.032 154.919 7.448 155.303 7.848C155.687 8.232 156.095 8.624 156.527 9.024C156.975 9.408 157.391 9.832 157.775 10.296C158.159 10.76 158.479 11.288 158.735 11.88C158.991 12.472 159.119 13.168 159.119 13.968C159.119 15.328 158.783 16.376 158.111 17.112C157.455 17.832 156.479 18.192 155.183 18.192C153.887 18.192 152.903 17.832 152.231 17.112C151.575 16.376 151.247 15.328 151.247 13.968V12.816H153.743V14.136C153.743 14.744 153.863 15.168 154.103 15.408C154.359 15.648 154.695 15.768 155.111 15.768C155.527 15.768 155.855 15.648 156.095 15.408C156.351 15.168 156.479 14.744 156.479 14.136C156.479 13.56 156.351 13.056 156.095 12.624C155.839 12.176 155.519 11.76 155.135 11.376C154.751 10.976 154.335 10.584 153.887 10.2C153.455 9.8 153.047 9.368 152.663 8.904C152.279 8.44 151.959 7.912 151.703 7.32C151.447 6.728 151.319 6.032 151.319 5.232Z" fill="#FF7A00"/>
<path d="M4.92 36.64H8.616V41.968C8.616 43.328 8.28 44.376 7.608 45.112C6.952 45.832 5.976 46.192 4.68 46.192C3.384 46.192 2.4 45.832 1.728 45.112C1.072 44.376 0.744 43.328 0.744 41.968V33.232C0.744 31.872 1.072 30.832 1.728 30.112C2.4 29.376 3.384 29.008 4.68 29.008C5.976 29.008 6.952 29.376 7.608 30.112C8.28 30.832 8.616 31.872 8.616 33.232V34.864H6.12V33.064C6.12 32.456 5.992 32.032 5.736 31.792C5.496 31.536 5.168 31.408 4.752 31.408C4.336 31.408 4 31.536 3.744 31.792C3.504 32.032 3.384 32.456 3.384 33.064V42.136C3.384 42.744 3.504 43.168 3.744 43.408C4 43.648 4.336 43.768 4.752 43.768C5.168 43.768 5.496 43.648 5.736 43.408C5.992 43.168 6.12 42.744 6.12 42.136V39.04H4.92V36.64ZM12.8316 29.2V42.16C12.8316 42.768 12.9516 43.192 13.1916 43.432C13.4476 43.672 13.7836 43.792 14.1996 43.792C14.6156 43.792 14.9436 43.672 15.1836 43.432C15.4396 43.192 15.5676 42.768 15.5676 42.16V29.2H18.0636V41.992C18.0636 43.352 17.7276 44.4 17.0556 45.136C16.3996 45.856 15.4236 46.216 14.1276 46.216C12.8316 46.216 11.8476 45.856 11.1756 45.136C10.5196 44.4 10.1916 43.352 10.1916 41.992V29.2H12.8316ZM25.4661 41.128L27.2661 29.2H30.9381V46H28.4421V33.952L26.6181 46H24.1221L22.1541 34.12V46H19.8501V29.2H23.5221L25.4661 41.128ZM38.4504 41.128L40.2504 29.2H43.9224V46H41.4264V33.952L39.6024 46H37.1064L35.1384 34.12V46H32.8344V29.2H36.5064L38.4504 41.128ZM48.3148 40.432L44.9788 29.2H47.7388L49.7548 36.856L51.7708 29.2H54.2908L50.9548 40.432V46H48.3148V40.432Z" fill="#FF4FAF"/>
<path d="M67.416 39.304L66.6 40.84V46H63.96V29.2H66.6V36.52L70.104 29.2H72.696L69.024 36.688L72.696 46H69.984L67.416 39.304ZM73.8975 29.2H76.5375V46H73.8975V29.2ZM84.3238 37.048L83.3638 46H79.7398L77.8678 29.2H80.4358L81.8518 42.448L83.1238 29.2H85.6678L86.9878 42.544L88.3558 29.2H90.6598L88.7878 46H85.2838L84.3238 37.048ZM91.9913 29.2H94.6313V46H91.9913V29.2ZM100.312 40.648C100.312 39.784 100.448 39.056 100.72 38.464C101.008 37.856 101.48 37.408 102.136 37.12C100.92 36.608 100.312 35.456 100.312 33.664V33.352C100.312 31.992 100.632 30.96 101.272 30.256C101.928 29.552 102.92 29.2 104.248 29.2H107.272V31.6H104.296C103.88 31.6 103.552 31.72 103.312 31.96C103.072 32.2 102.952 32.624 102.952 33.232V34.264C102.952 34.936 103.088 35.4 103.36 35.656C103.648 35.912 104.04 36.04 104.536 36.04H105.688V34.168H108.328V36.04H109.024V38.44H108.328V43.96C108.328 44.376 108.344 44.744 108.376 45.064C108.408 45.368 108.488 45.68 108.616 46H105.928C105.864 45.824 105.816 45.656 105.784 45.496C105.752 45.32 105.72 45.048 105.688 44.68C105.224 45.688 104.408 46.192 103.24 46.192C102.264 46.192 101.528 45.864 101.032 45.208C100.552 44.552 100.312 43.6 100.312 42.352V40.648ZM102.952 42.136C102.952 42.744 103.072 43.176 103.312 43.432C103.568 43.672 103.904 43.792 104.32 43.792C104.72 43.792 105.04 43.68 105.28 43.456C105.52 43.232 105.656 42.856 105.688 42.328V38.44H104.68C104.072 38.44 103.632 38.6 103.36 38.92C103.088 39.24 102.952 39.792 102.952 40.576V42.136ZM119.472 46C119.44 45.888 119.408 45.784 119.376 45.688C119.344 45.592 119.312 45.472 119.28 45.328C119.264 45.184 119.248 45 119.232 44.776C119.232 44.552 119.232 44.272 119.232 43.936V41.296C119.232 40.512 119.096 39.96 118.824 39.64C118.552 39.32 118.112 39.16 117.504 39.16H116.592V46H113.952V29.2H117.936C119.312 29.2 120.304 29.52 120.912 30.16C121.536 30.8 121.848 31.768 121.848 33.064V34.384C121.848 36.112 121.272 37.248 120.12 37.792C120.792 38.064 121.248 38.512 121.488 39.136C121.744 39.744 121.872 40.488 121.872 41.368V43.96C121.872 44.376 121.888 44.744 121.92 45.064C121.952 45.368 122.032 45.68 122.16 46H119.472ZM116.592 31.6V36.76H117.624C118.12 36.76 118.504 36.632 118.776 36.376C119.064 36.12 119.208 35.656 119.208 34.984V33.328C119.208 32.72 119.096 32.28 118.872 32.008C118.664 31.736 118.328 31.6 117.864 31.6H116.592ZM132.152 46H129.488L129.032 42.952H125.792L125.336 46H122.912L125.6 29.2H129.464L132.152 46ZM126.128 40.672H128.672L127.4 32.176L126.128 40.672ZM133.046 33.232C133.046 31.872 133.366 30.832 134.006 30.112C134.662 29.376 135.638 29.008 136.934 29.008C138.23 29.008 139.198 29.376 139.838 30.112C140.494 30.832 140.822 31.872 140.822 33.232V33.88H138.326V33.064C138.326 32.456 138.206 32.032 137.966 31.792C137.742 31.536 137.422 31.408 137.006 31.408C136.59 31.408 136.262 31.536 136.022 31.792C135.798 32.032 135.686 32.456 135.686 33.064C135.686 33.64 135.814 34.152 136.07 34.6C136.326 35.032 136.646 35.448 137.03 35.848C137.414 36.232 137.822 36.624 138.254 37.024C138.702 37.408 139.118 37.832 139.502 38.296C139.886 38.76 140.206 39.288 140.462 39.88C140.718 40.472 140.846 41.168 140.846 41.968C140.846 43.328 140.51 44.376 139.838 45.112C139.182 45.832 138.206 46.192 136.91 46.192C135.614 46.192 134.63 45.832 133.958 45.112C133.302 44.376 132.974 43.328 132.974 41.968V40.816H135.47V42.136C135.47 42.744 135.59 43.168 135.83 43.408C136.086 43.648 136.422 43.768 136.838 43.768C137.254 43.768 137.582 43.648 137.822 43.408C138.078 43.168 138.206 42.744 138.206 42.136C138.206 41.56 138.078 41.056 137.822 40.624C137.566 40.176 137.246 39.76 136.862 39.376C136.478 38.976 136.062 38.584 135.614 38.2C135.182 37.8 134.774 37.368 134.39 36.904C134.006 36.44 133.686 35.912 133.43 35.32C133.174 34.728 133.046 34.032 133.046 33.232ZM146.246 29.2C147.574 29.2 148.558 29.552 149.198 30.256C149.854 30.96 150.182 31.992 150.182 33.352V35.536C150.182 36.896 149.854 37.928 149.198 38.632C148.558 39.336 147.574 39.688 146.246 39.688H144.998V46H142.358V29.2H146.246ZM144.998 31.6V37.288H146.246C146.662 37.288 146.982 37.176 147.206 36.952C147.43 36.728 147.542 36.312 147.542 35.704V33.184C147.542 32.576 147.43 32.16 147.206 31.936C146.982 31.712 146.662 31.6 146.246 31.6H144.998ZM155.389 29.2C156.765 29.2 157.757 29.52 158.365 30.16C158.989 30.8 159.301 31.768 159.301 33.064V33.664C159.301 34.528 159.165 35.24 158.893 35.8C158.621 36.36 158.189 36.776 157.597 37.048C158.317 37.32 158.821 37.768 159.109 38.392C159.413 39 159.565 39.752 159.565 40.648V42.016C159.565 43.312 159.229 44.304 158.557 44.992C157.885 45.664 156.885 46 155.557 46H151.405V29.2H155.389ZM154.045 38.44V43.6H155.557C156.005 43.6 156.341 43.48 156.565 43.24C156.805 43 156.925 42.568 156.925 41.944V40.48C156.925 39.696 156.789 39.16 156.517 38.872C156.261 38.584 155.829 38.44 155.221 38.44H154.045ZM154.045 31.6V36.04H155.077C155.573 36.04 155.957 35.912 156.229 35.656C156.517 35.4 156.661 34.936 156.661 34.264V33.328C156.661 32.72 156.549 32.28 156.325 32.008C156.117 31.736 155.781 31.6 155.317 31.6H154.045ZM163.795 36.28H167.419V38.68H163.795V43.6H168.355V46H161.155V29.2H168.355V31.6H163.795V36.28ZM175.511 46C175.479 45.888 175.447 45.784 175.415 45.688C175.383 45.592 175.351 45.472 175.319 45.328C175.303 45.184 175.287 45 175.271 44.776C175.271 44.552 175.271 44.272 175.271 43.936V41.296C175.271 40.512 175.135 39.96 174.863 39.64C174.591 39.32 174.151 39.16 173.543 39.16H172.631V46H169.991V29.2H173.975C175.351 29.2 176.343 29.52 176.951 30.16C177.575 30.8 177.887 31.768 177.887 33.064V34.384C177.887 36.112 177.311 37.248 176.159 37.792C176.831 38.064 177.287 38.512 177.527 39.136C177.783 39.744 177.911 40.488 177.911 41.368V43.96C177.911 44.376 177.927 44.744 177.959 45.064C177.991 45.368 178.071 45.68 178.199 46H175.511ZM172.631 31.6V36.76H173.663C174.159 36.76 174.543 36.632 174.815 36.376C175.103 36.12 175.247 35.656 175.247 34.984V33.328C175.247 32.72 175.135 32.28 174.911 32.008C174.703 31.736 174.367 31.6 173.903 31.6H172.631ZM185.168 46C185.136 45.888 185.104 45.784 185.072 45.688C185.039 45.592 185.008 45.472 184.976 45.328C184.96 45.184 184.944 45 184.928 44.776C184.928 44.552 184.928 44.272 184.928 43.936V41.296C184.928 40.512 184.792 39.96 184.52 39.64C184.248 39.32 183.808 39.16 183.2 39.16H182.288V46H179.648V29.2H183.632C185.008 29.2 186 29.52 186.608 30.16C187.232 30.8 187.544 31.768 187.544 33.064V34.384C187.544 36.112 186.968 37.248 185.816 37.792C186.488 38.064 186.944 38.512 187.184 39.136C187.44 39.744 187.568 40.488 187.568 41.368V43.96C187.568 44.376 187.584 44.744 187.616 45.064C187.648 45.368 187.728 45.68 187.856 46H185.168ZM182.288 31.6V36.76H183.32C183.816 36.76 184.2 36.632 184.472 36.376C184.76 36.12 184.904 35.656 184.904 34.984V33.328C184.904 32.72 184.792 32.28 184.568 32.008C184.36 31.736 184.024 31.6 183.56 31.6H182.288ZM191.776 40.432L188.44 29.2H191.2L193.216 36.856L195.232 29.2H197.752L194.416 40.432V46H191.776V40.432Z" fill="#F8415B"/>
<path d="M210.848 29.2C212.176 29.2 213.16 29.552 213.8 30.256C214.456 30.96 214.784 31.992 214.784 33.352V35.536C214.784 36.896 214.456 37.928 213.8 38.632C213.16 39.336 212.176 39.688 210.848 39.688H209.6V46H206.96V29.2H210.848ZM209.6 31.6V37.288H210.848C211.264 37.288 211.584 37.176 211.808 36.952C212.032 36.728 212.144 36.312 212.144 35.704V33.184C212.144 32.576 212.032 32.16 211.808 31.936C211.584 31.712 211.264 31.6 210.848 31.6H209.6ZM216.007 29.2H218.647V46H216.007V29.2ZM222.929 33.832V46H220.553V29.2H223.865L226.577 39.256V29.2H228.929V46H226.217L222.929 33.832ZM233.459 36.28H237.083V38.68H233.459V43.6H238.019V46H230.819V29.2H238.019V31.6H233.459V36.28ZM248.199 46H245.535L245.079 42.952H241.839L241.383 46H238.959L241.647 29.2H245.511L248.199 46ZM242.175 40.672H244.719L243.447 32.176L242.175 40.672ZM253.317 29.2C254.645 29.2 255.629 29.552 256.269 30.256C256.925 30.96 257.253 31.992 257.253 33.352V35.536C257.253 36.896 256.925 37.928 256.269 38.632C255.629 39.336 254.645 39.688 253.317 39.688H252.069V46H249.429V29.2H253.317ZM252.069 31.6V37.288H253.317C253.733 37.288 254.053 37.176 254.277 36.952C254.501 36.728 254.613 36.312 254.613 35.704V33.184C254.613 32.576 254.501 32.16 254.277 31.936C254.053 31.712 253.733 31.6 253.317 31.6H252.069ZM262.364 29.2C263.692 29.2 264.676 29.552 265.316 30.256C265.972 30.96 266.3 31.992 266.3 33.352V35.536C266.3 36.896 265.972 37.928 265.316 38.632C264.676 39.336 263.692 39.688 262.364 39.688H261.116V46H258.476V29.2H262.364ZM261.116 31.6V37.288H262.364C262.78 37.288 263.1 37.176 263.324 36.952C263.548 36.728 263.66 36.312 263.66 35.704V33.184C263.66 32.576 263.548 32.16 263.324 31.936C263.1 31.712 262.78 31.6 262.364 31.6H261.116ZM267.523 29.2H270.163V43.6H274.507V46H267.523V29.2ZM278.342 36.28H281.966V38.68H278.342V43.6H282.902V46H275.702V29.2H282.902V31.6H278.342V36.28Z" fill="#EFCB00"/>
</svg>
