<svg width="314" height="52" viewBox="0 0 314 52" fill="none" xmlns="http://www.w3.org/2000/svg">
<path d="M9.504 18H6.84L6.384 14.952H3.144L2.688 18H0.264L2.952 1.2H6.816L9.504 18ZM3.48 12.672H6.024L4.752 4.176L3.48 12.672ZM14.6214 1.2C15.9494 1.2 16.9334 1.552 17.5734 2.256C18.2294 2.96 18.5574 3.992 18.5574 5.352V7.536C18.5574 8.896 18.2294 9.928 17.5734 10.632C16.9334 11.336 15.9494 11.688 14.6214 11.688H13.3734V18H10.7334V1.2H14.6214ZM13.3734 3.6V9.288H14.6214C15.0374 9.288 15.3574 9.176 15.5814 8.952C15.8054 8.728 15.9174 8.312 15.9174 7.704V5.184C15.9174 4.576 15.8054 4.16 15.5814 3.936C15.3574 3.712 15.0374 3.6 14.6214 3.6H13.3734ZM23.6683 1.2C24.9963 1.2 25.9803 1.552 26.6203 2.256C27.2763 2.96 27.6043 3.992 27.6043 5.352V7.536C27.6043 8.896 27.2763 9.928 26.6203 10.632C25.9803 11.336 24.9963 11.688 23.6683 11.688H22.4203V18H19.7803V1.2H23.6683ZM22.4203 3.6V9.288H23.6683C24.0843 9.288 24.4043 9.176 24.6283 8.952C24.8523 8.728 24.9643 8.312 24.9643 7.704V5.184C24.9643 4.576 24.8523 4.16 24.6283 3.936C24.4043 3.712 24.0843 3.6 23.6683 3.6H22.4203ZM28.8272 1.2H31.4672V15.6H35.8112V18H28.8272V1.2ZM39.6469 8.28H43.2709V10.68H39.6469V15.6H44.2069V18H37.0069V1.2H44.2069V3.6H39.6469V8.28ZM53.0254 11.304L52.2094 12.84V18H49.5694V1.2H52.2094V8.52L55.7134 1.2H58.3054L54.6334 8.688L58.3054 18H55.5934L53.0254 11.304ZM59.5069 1.2H62.1469V18H59.5069V1.2ZM69.9332 9.048L68.9732 18H65.3492L63.4772 1.2H66.0452L67.4612 14.448L68.7332 1.2H71.2772L72.5972 14.544L73.9652 1.2H76.2692L74.3972 18H70.8932L69.9332 9.048ZM77.6006 1.2H80.2406V18H77.6006V1.2ZM85.5615 5.232C85.5615 3.872 85.8815 2.832 86.5215 2.112C87.1775 1.376 88.1535 1.008 89.4495 1.008C90.7455 1.008 91.7135 1.376 92.3535 2.112C93.0095 2.832 93.3375 3.872 93.3375 5.232V5.88H90.8415V5.064C90.8415 4.456 90.7215 4.032 90.4815 3.792C90.2575 3.536 89.9375 3.408 89.5215 3.408C89.1055 3.408 88.7775 3.536 88.5375 3.792C88.3135 4.032 88.2015 4.456 88.2015 5.064C88.2015 5.64 88.3295 6.152 88.5855 6.6C88.8415 7.032 89.1615 7.448 89.5455 7.848C89.9295 8.232 90.3375 8.624 90.7695 9.024C91.2175 9.408 91.6335 9.832 92.0175 10.296C92.4015 10.76 92.7215 11.288 92.9775 11.88C93.2335 12.472 93.3615 13.168 93.3615 13.968C93.3615 15.328 93.0255 16.376 92.3535 17.112C91.6975 17.832 90.7215 18.192 89.4255 18.192C88.1295 18.192 87.1455 17.832 86.4735 17.112C85.8175 16.376 85.4895 15.328 85.4895 13.968V12.816H87.9855V14.136C87.9855 14.744 88.1055 15.168 88.3455 15.408C88.6015 15.648 88.9375 15.768 89.3535 15.768C89.7695 15.768 90.0975 15.648 90.3375 15.408C90.5935 15.168 90.7215 14.744 90.7215 14.136C90.7215 13.56 90.5935 13.056 90.3375 12.624C90.0815 12.176 89.7615 11.76 89.3775 11.376C88.9935 10.976 88.5775 10.584 88.1295 10.2C87.6975 9.8 87.2895 9.368 86.9055 8.904C86.5215 8.44 86.2015 7.912 85.9455 7.32C85.6895 6.728 85.5615 6.032 85.5615 5.232ZM100.466 13.128L102.266 1.2H105.938V18H103.442V5.952L101.618 18H99.1221L97.1541 6.12V18H94.8501V1.2H98.5221L100.466 13.128ZM110.282 14.136C110.282 14.744 110.402 15.176 110.642 15.432C110.898 15.672 111.234 15.792 111.65 15.792C112.066 15.792 112.394 15.672 112.634 15.432C112.89 15.176 113.018 14.744 113.018 14.136V5.064C113.018 4.456 112.89 4.032 112.634 3.792C112.394 3.536 112.066 3.408 111.65 3.408C111.234 3.408 110.898 3.536 110.642 3.792C110.402 4.032 110.282 4.456 110.282 5.064V14.136ZM107.642 5.232C107.642 3.872 107.986 2.832 108.674 2.112C109.362 1.376 110.354 1.008 111.65 1.008C112.946 1.008 113.938 1.376 114.626 2.112C115.314 2.832 115.658 3.872 115.658 5.232V13.968C115.658 15.328 115.314 16.376 114.626 17.112C113.938 17.832 112.946 18.192 111.65 18.192C110.354 18.192 109.362 17.832 108.674 17.112C107.986 16.376 107.642 15.328 107.642 13.968V5.232ZM116.654 1.2H124.814V3.6H122.054V18H119.414V3.6H116.654V1.2ZM128.663 18H126.023V1.2H128.663V8.4H131.663V1.2H134.351V18H131.663V10.8H128.663V18ZM136.265 1.2H138.905V18H136.265V1.2ZM143.475 8.28H147.099V10.68H143.475V15.6H148.035V18H140.835V1.2H148.035V3.6H143.475V8.28Z" fill="#21CB4F"/>
<path d="M161.848 1.2C163.176 1.2 164.16 1.552 164.8 2.256C165.456 2.96 165.784 3.992 165.784 5.352V7.536C165.784 8.896 165.456 9.928 164.8 10.632C164.16 11.336 163.176 11.688 161.848 11.688H160.6V18H157.96V1.2H161.848ZM160.6 3.6V9.288H161.848C162.264 9.288 162.584 9.176 162.808 8.952C163.032 8.728 163.144 8.312 163.144 7.704V5.184C163.144 4.576 163.032 4.16 162.808 3.936C162.584 3.712 162.264 3.6 161.848 3.6H160.6ZM167.007 1.2H169.647V18H167.007V1.2ZM173.929 5.832V18H171.553V1.2H174.865L177.577 11.256V1.2H179.929V18H177.217L173.929 5.832ZM185.275 11.304L184.459 12.84V18H181.819V1.2H184.459V8.52L187.963 1.2H190.555L186.883 8.688L190.555 18H187.843L185.275 11.304ZM201.075 13.128L202.875 1.2H206.547V18H204.051V5.952L202.227 18H199.731L197.763 6.12V18H195.459V1.2H199.131L201.075 13.128ZM217.012 18H214.348L213.892 14.952H210.652L210.196 18H207.772L210.46 1.2H214.324L217.012 18ZM210.988 12.672H213.532L212.26 4.176L210.988 12.672ZM220.593 5.832V18H218.217V1.2H221.529L224.241 11.256V1.2H226.593V18H223.881L220.593 5.832ZM232.443 8.64H236.139V13.968C236.139 15.328 235.803 16.376 235.131 17.112C234.475 17.832 233.499 18.192 232.203 18.192C230.907 18.192 229.923 17.832 229.251 17.112C228.595 16.376 228.267 15.328 228.267 13.968V5.232C228.267 3.872 228.595 2.832 229.251 2.112C229.923 1.376 230.907 1.008 232.203 1.008C233.499 1.008 234.475 1.376 235.131 2.112C235.803 2.832 236.139 3.872 236.139 5.232V6.864H233.643V5.064C233.643 4.456 233.515 4.032 233.259 3.792C233.019 3.536 232.691 3.408 232.275 3.408C231.859 3.408 231.523 3.536 231.267 3.792C231.027 4.032 230.907 4.456 230.907 5.064V14.136C230.907 14.744 231.027 15.168 231.267 15.408C231.523 15.648 231.859 15.768 232.275 15.768C232.691 15.768 233.019 15.648 233.259 15.408C233.515 15.168 233.643 14.744 233.643 14.136V11.04H232.443V8.64ZM240.259 14.136C240.259 14.744 240.379 15.176 240.619 15.432C240.875 15.672 241.211 15.792 241.627 15.792C242.043 15.792 242.371 15.672 242.611 15.432C242.867 15.176 242.995 14.744 242.995 14.136V5.064C242.995 4.456 242.867 4.032 242.611 3.792C242.371 3.536 242.043 3.408 241.627 3.408C241.211 3.408 240.875 3.536 240.619 3.792C240.379 4.032 240.259 4.456 240.259 5.064V14.136ZM237.619 5.232C237.619 3.872 237.963 2.832 238.651 2.112C239.339 1.376 240.331 1.008 241.627 1.008C242.923 1.008 243.915 1.376 244.603 2.112C245.291 2.832 245.635 3.872 245.635 5.232V13.968C245.635 15.328 245.291 16.376 244.603 17.112C243.915 17.832 242.923 18.192 241.627 18.192C240.331 18.192 239.339 17.832 238.651 17.112C237.963 16.376 237.619 15.328 237.619 13.968V5.232Z" fill="#FE8A1D"/>
<path d="M261.48 18C261.448 17.888 261.416 17.784 261.384 17.688C261.352 17.592 261.32 17.472 261.288 17.328C261.272 17.184 261.256 17 261.24 16.776C261.24 16.552 261.24 16.272 261.24 15.936V13.296C261.24 12.512 261.104 11.96 260.832 11.64C260.56 11.32 260.12 11.16 259.512 11.16H258.6V18H255.96V1.2H259.944C261.32 1.2 262.312 1.52 262.92 2.16C263.544 2.8 263.856 3.768 263.856 5.064V6.384C263.856 8.112 263.28 9.248 262.128 9.792C262.8 10.064 263.256 10.512 263.496 11.136C263.752 11.744 263.88 12.488 263.88 13.368V15.96C263.88 16.376 263.896 16.744 263.928 17.064C263.96 17.368 264.04 17.68 264.168 18H261.48ZM258.6 3.6V8.76H259.632C260.128 8.76 260.512 8.632 260.784 8.376C261.072 8.12 261.216 7.656 261.216 6.984V5.328C261.216 4.72 261.104 4.28 260.88 4.008C260.672 3.736 260.336 3.6 259.872 3.6H258.6ZM268.256 8.28H271.88V10.68H268.256V15.6H272.816V18H265.616V1.2H272.816V3.6H268.256V8.28ZM274.452 1.2H278.628C279.956 1.2 280.94 1.552 281.58 2.256C282.236 2.96 282.564 3.992 282.564 5.352V13.848C282.564 15.208 282.236 16.24 281.58 16.944C280.94 17.648 279.956 18 278.628 18H274.452V1.2ZM277.092 3.6V15.6H278.58C278.996 15.6 279.324 15.48 279.564 15.24C279.804 15 279.924 14.576 279.924 13.968V5.232C279.924 4.624 279.804 4.2 279.564 3.96C279.324 3.72 278.996 3.6 278.58 3.6H277.092Z" fill="#FE4E4D"/>
<path d="M8.616 39.736V41.968C8.616 43.328 8.28 44.376 7.608 45.112C6.952 45.832 5.976 46.192 4.68 46.192C3.384 46.192 2.4 45.832 1.728 45.112C1.072 44.376 0.744 43.328 0.744 41.968V33.232C0.744 31.872 1.072 30.832 1.728 30.112C2.4 29.376 3.384 29.008 4.68 29.008C5.976 29.008 6.952 29.376 7.608 30.112C8.28 30.832 8.616 31.872 8.616 33.232V34.864H6.12V33.064C6.12 32.456 5.992 32.032 5.736 31.792C5.496 31.536 5.168 31.408 4.752 31.408C4.336 31.408 4 31.536 3.744 31.792C3.504 32.032 3.384 32.456 3.384 33.064V42.136C3.384 42.744 3.504 43.168 3.744 43.408C4 43.648 4.336 43.768 4.752 43.768C5.168 43.768 5.496 43.648 5.736 43.408C5.992 43.168 6.12 42.744 6.12 42.136V39.736H8.616ZM12.6418 42.136C12.6418 42.744 12.7618 43.176 13.0018 43.432C13.2578 43.672 13.5938 43.792 14.0098 43.792C14.4258 43.792 14.7538 43.672 14.9938 43.432C15.2498 43.176 15.3778 42.744 15.3778 42.136V33.064C15.3778 32.456 15.2498 32.032 14.9938 31.792C14.7538 31.536 14.4258 31.408 14.0098 31.408C13.5938 31.408 13.2578 31.536 13.0018 31.792C12.7618 32.032 12.6418 32.456 12.6418 33.064V42.136ZM10.0018 33.232C10.0018 31.872 10.3458 30.832 11.0338 30.112C11.7218 29.376 12.7138 29.008 14.0098 29.008C15.3058 29.008 16.2978 29.376 16.9858 30.112C17.6738 30.832 18.0178 31.872 18.0178 33.232V41.968C18.0178 43.328 17.6738 44.376 16.9858 45.112C16.2978 45.832 15.3058 46.192 14.0098 46.192C12.7138 46.192 11.7218 45.832 11.0338 45.112C10.3458 44.376 10.0018 43.328 10.0018 41.968V33.232ZM19.7334 29.2H22.3734V43.6H26.7174V46H19.7334V29.2ZM27.9131 29.2H32.0891C33.4171 29.2 34.4011 29.552 35.0411 30.256C35.6971 30.96 36.0251 31.992 36.0251 33.352V41.848C36.0251 43.208 35.6971 44.24 35.0411 44.944C34.4011 45.648 33.4171 46 32.0891 46H27.9131V29.2ZM30.5531 31.6V43.6H32.0411C32.4571 43.6 32.7851 43.48 33.0251 43.24C33.2651 43 33.3851 42.576 33.3851 41.968V33.232C33.3851 32.624 33.2651 32.2 33.0251 31.96C32.7851 31.72 32.4571 31.6 32.0411 31.6H30.5531ZM44.0766 36.664H47.4846V39.064H44.0766V46H41.4366V29.2H48.4206V31.6H44.0766V36.664ZM49.6866 29.2H52.3266V46H49.6866V29.2ZM61.5769 29.2V31.552L56.5609 43.6H61.5769V46H53.8489V43.648L58.8649 31.6H54.0889V29.2H61.5769ZM70.4597 29.2V31.552L65.4437 43.6H70.4597V46H62.7317V43.648L67.7477 31.6H62.9717V29.2H70.4597ZM74.4945 40.432L71.1585 29.2H73.9185L75.9345 36.856L77.9505 29.2H80.4705L77.1345 40.432V46H74.4945V40.432Z" fill="#00DCFD"/>
<path d="M95.816 37.048L94.856 46H91.232L89.36 29.2H91.928L93.344 42.448L94.616 29.2H97.16L98.48 42.544L99.848 29.2H102.152L100.28 46H96.776L95.816 37.048ZM112.027 46H109.363L108.907 42.952H105.667L105.211 46H102.787L105.475 29.2H109.339L112.027 46ZM106.003 40.672H108.547L107.275 32.176L106.003 40.672ZM112.537 29.2H120.697V31.6H117.937V46H115.297V31.6H112.537V29.2ZM121.185 29.2H129.345V31.6H126.585V46H123.945V31.6H121.185V29.2ZM133.194 36.28H136.818V38.68H133.194V43.6H137.754V46H130.554V29.2H137.754V31.6H133.194V36.28ZM144.91 46C144.878 45.888 144.846 45.784 144.814 45.688C144.782 45.592 144.75 45.472 144.718 45.328C144.702 45.184 144.686 45 144.67 44.776C144.67 44.552 144.67 44.272 144.67 43.936V41.296C144.67 40.512 144.534 39.96 144.262 39.64C143.99 39.32 143.55 39.16 142.942 39.16H142.03V46H139.39V29.2H143.374C144.75 29.2 145.742 29.52 146.35 30.16C146.974 30.8 147.286 31.768 147.286 33.064V34.384C147.286 36.112 146.71 37.248 145.558 37.792C146.23 38.064 146.686 38.512 146.926 39.136C147.182 39.744 147.31 40.488 147.31 41.368V43.96C147.31 44.376 147.326 44.744 147.358 45.064C147.39 45.368 147.47 45.68 147.598 46H144.91ZM142.03 31.6V36.76H143.062C143.558 36.76 143.942 36.632 144.214 36.376C144.502 36.12 144.646 35.656 144.646 34.984V33.328C144.646 32.72 144.534 32.28 144.31 32.008C144.102 31.736 143.766 31.6 143.302 31.6H142.03ZM153.03 29.2C154.406 29.2 155.398 29.52 156.006 30.16C156.63 30.8 156.942 31.768 156.942 33.064V33.664C156.942 34.528 156.806 35.24 156.534 35.8C156.262 36.36 155.83 36.776 155.238 37.048C155.958 37.32 156.462 37.768 156.75 38.392C157.054 39 157.206 39.752 157.206 40.648V42.016C157.206 43.312 156.87 44.304 156.198 44.992C155.526 45.664 154.526 46 153.198 46H149.046V29.2H153.03ZM151.686 38.44V43.6H153.198C153.646 43.6 153.982 43.48 154.206 43.24C154.446 43 154.566 42.568 154.566 41.944V40.48C154.566 39.696 154.43 39.16 154.158 38.872C153.902 38.584 153.47 38.44 152.862 38.44H151.686ZM151.686 31.6V36.04H152.718C153.214 36.04 153.598 35.912 153.87 35.656C154.158 35.4 154.302 34.936 154.302 34.264V33.328C154.302 32.72 154.19 32.28 153.966 32.008C153.758 31.736 153.422 31.6 152.958 31.6H151.686ZM161.436 36.28H165.06V38.68H161.436V43.6H165.996V46H158.796V29.2H165.996V31.6H161.436V36.28ZM173.152 46C173.12 45.888 173.088 45.784 173.056 45.688C173.024 45.592 172.992 45.472 172.96 45.328C172.944 45.184 172.928 45 172.912 44.776C172.912 44.552 172.912 44.272 172.912 43.936V41.296C172.912 40.512 172.776 39.96 172.504 39.64C172.232 39.32 171.792 39.16 171.184 39.16H170.272V46H167.632V29.2H171.616C172.992 29.2 173.984 29.52 174.592 30.16C175.216 30.8 175.528 31.768 175.528 33.064V34.384C175.528 36.112 174.952 37.248 173.8 37.792C174.472 38.064 174.928 38.512 175.168 39.136C175.424 39.744 175.552 40.488 175.552 41.368V43.96C175.552 44.376 175.568 44.744 175.6 45.064C175.632 45.368 175.712 45.68 175.84 46H173.152ZM170.272 31.6V36.76H171.304C171.8 36.76 172.184 36.632 172.456 36.376C172.744 36.12 172.888 35.656 172.888 34.984V33.328C172.888 32.72 172.776 32.28 172.552 32.008C172.344 31.736 172.008 31.6 171.544 31.6H170.272ZM182.808 46C182.776 45.888 182.744 45.784 182.712 45.688C182.68 45.592 182.648 45.472 182.616 45.328C182.6 45.184 182.584 45 182.568 44.776C182.568 44.552 182.568 44.272 182.568 43.936V41.296C182.568 40.512 182.432 39.96 182.16 39.64C181.888 39.32 181.448 39.16 180.84 39.16H179.928V46H177.288V29.2H181.272C182.648 29.2 183.64 29.52 184.248 30.16C184.872 30.8 185.184 31.768 185.184 33.064V34.384C185.184 36.112 184.608 37.248 183.456 37.792C184.128 38.064 184.584 38.512 184.824 39.136C185.08 39.744 185.208 40.488 185.208 41.368V43.96C185.208 44.376 185.224 44.744 185.256 45.064C185.288 45.368 185.368 45.68 185.496 46H182.808ZM179.928 31.6V36.76H180.96C181.456 36.76 181.84 36.632 182.112 36.376C182.4 36.12 182.544 35.656 182.544 34.984V33.328C182.544 32.72 182.432 32.28 182.208 32.008C182 31.736 181.664 31.6 181.2 31.6H179.928ZM189.416 40.432L186.08 29.2H188.84L190.856 36.856L192.872 29.2H195.392L192.056 40.432V46H189.416V40.432ZM200.187 29.2H202.827V43.6H207.171V46H200.187V29.2ZM211.006 36.28H214.63V38.68H211.006V43.6H215.566V46H208.366V29.2H215.566V31.6H211.006V36.28ZM222.794 41.128L224.594 29.2H228.266V46H225.77V33.952L223.946 46H221.45L219.482 34.12V46H217.178V29.2H220.85L222.794 41.128ZM232.611 42.136C232.611 42.744 232.731 43.176 232.971 43.432C233.227 43.672 233.563 43.792 233.979 43.792C234.395 43.792 234.723 43.672 234.963 43.432C235.219 43.176 235.347 42.744 235.347 42.136V33.064C235.347 32.456 235.219 32.032 234.963 31.792C234.723 31.536 234.395 31.408 233.979 31.408C233.563 31.408 233.227 31.536 232.971 31.792C232.731 32.032 232.611 32.456 232.611 33.064V42.136ZM229.971 33.232C229.971 31.872 230.315 30.832 231.003 30.112C231.691 29.376 232.683 29.008 233.979 29.008C235.275 29.008 236.267 29.376 236.955 30.112C237.643 30.832 237.987 31.872 237.987 33.232V41.968C237.987 43.328 237.643 44.376 236.955 45.112C236.267 45.832 235.275 46.192 233.979 46.192C232.683 46.192 231.691 45.832 231.003 45.112C230.315 44.376 229.971 43.328 229.971 41.968V33.232ZM242.054 33.832V46H239.678V29.2H242.99L245.702 39.256V29.2H248.054V46H245.342L242.054 33.832ZM258.488 46H255.824L255.368 42.952H252.128L251.672 46H249.248L251.936 29.2H255.8L258.488 46ZM252.464 40.672H255.008L253.736 32.176L252.464 40.672ZM259.718 29.2H263.894C265.222 29.2 266.206 29.552 266.846 30.256C267.502 30.96 267.83 31.992 267.83 33.352V41.848C267.83 43.208 267.502 44.24 266.846 44.944C266.206 45.648 265.222 46 263.894 46H259.718V29.2ZM262.358 31.6V43.6H263.846C264.262 43.6 264.59 43.48 264.83 43.24C265.07 43 265.19 42.576 265.19 41.968V33.232C265.19 32.624 265.07 32.2 264.83 31.96C264.59 31.72 264.262 31.6 263.846 31.6H262.358ZM272.155 36.28H275.779V38.68H272.155V43.6H276.715V46H269.515V29.2H276.715V31.6H272.155V36.28Z" fill="#C5519E"/>
<path d="M290.848 29.2C292.176 29.2 293.16 29.552 293.8 30.256C294.456 30.96 294.784 31.992 294.784 33.352V35.536C294.784 36.896 294.456 37.928 293.8 38.632C293.16 39.336 292.176 39.688 290.848 39.688H289.6V46H286.96V29.2H290.848ZM289.6 31.6V37.288H290.848C291.264 37.288 291.584 37.176 291.808 36.952C292.032 36.728 292.144 36.312 292.144 35.704V33.184C292.144 32.576 292.032 32.16 291.808 31.936C291.584 31.712 291.264 31.6 290.848 31.6H289.6ZM298.431 42.136C298.431 42.744 298.551 43.176 298.791 43.432C299.047 43.672 299.383 43.792 299.799 43.792C300.215 43.792 300.543 43.672 300.783 43.432C301.039 43.176 301.167 42.744 301.167 42.136V33.064C301.167 32.456 301.039 32.032 300.783 31.792C300.543 31.536 300.215 31.408 299.799 31.408C299.383 31.408 299.047 31.536 298.791 31.792C298.551 32.032 298.431 32.456 298.431 33.064V42.136ZM295.791 33.232C295.791 31.872 296.135 30.832 296.823 30.112C297.511 29.376 298.503 29.008 299.799 29.008C301.095 29.008 302.087 29.376 302.775 30.112C303.463 30.832 303.807 31.872 303.807 33.232V41.968C303.807 43.328 303.463 44.376 302.775 45.112C302.087 45.832 301.095 46.192 299.799 46.192C298.503 46.192 297.511 45.832 296.823 45.112C296.135 44.376 295.791 43.328 295.791 41.968V33.232ZM309.483 36.64H313.179V41.968C313.179 43.328 312.843 44.376 312.171 45.112C311.515 45.832 310.539 46.192 309.243 46.192C307.947 46.192 306.963 45.832 306.291 45.112C305.635 44.376 305.307 43.328 305.307 41.968V33.232C305.307 31.872 305.635 30.832 306.291 30.112C306.963 29.376 307.947 29.008 309.243 29.008C310.539 29.008 311.515 29.376 312.171 30.112C312.843 30.832 313.179 31.872 313.179 33.232V34.864H310.683V33.064C310.683 32.456 310.555 32.032 310.299 31.792C310.059 31.536 309.731 31.408 309.315 31.408C308.899 31.408 308.563 31.536 308.307 31.792C308.067 32.032 307.947 32.456 307.947 33.064V42.136C307.947 42.744 308.067 43.168 308.307 43.408C308.563 43.648 308.899 43.768 309.315 43.768C309.731 43.768 310.059 43.648 310.299 43.408C310.555 43.168 310.683 42.744 310.683 42.136V39.04H309.483V36.64Z" fill="#F74E1C"/>
</svg>
