<svg width="342" height="52" viewBox="0 0 342 52" fill="none" xmlns="http://www.w3.org/2000/svg">
<path d="M0.96 1.2H3.6V18H0.96V1.2ZM13.1863 11.736V13.968C13.1863 15.328 12.8503 16.376 12.1783 17.112C11.5223 17.832 10.5463 18.192 9.25031 18.192C7.95431 18.192 6.97031 17.832 6.29831 17.112C5.64231 16.376 5.31431 15.328 5.31431 13.968V5.232C5.31431 3.872 5.64231 2.832 6.29831 2.112C6.97031 1.376 7.95431 1.008 9.25031 1.008C10.5463 1.008 11.5223 1.376 12.1783 2.112C12.8503 2.832 13.1863 3.872 13.1863 5.232V6.864H10.6903V5.064C10.6903 4.456 10.5623 4.032 10.3063 3.792C10.0663 3.536 9.73831 3.408 9.32231 3.408C8.90631 3.408 8.57031 3.536 8.31431 3.792C8.07431 4.032 7.95431 4.456 7.95431 5.064V14.136C7.95431 14.744 8.07431 15.168 8.31431 15.408C8.57031 15.648 8.90631 15.768 9.32231 15.768C9.73831 15.768 10.0663 15.648 10.3063 15.408C10.5623 15.168 10.6903 14.744 10.6903 14.136V11.736H13.1863ZM17.4281 8.28H21.0521V10.68H17.4281V15.6H21.9881V18H14.7881V1.2H21.9881V3.6H17.4281V8.28ZM31.2801 11.736V13.968C31.2801 15.328 30.9441 16.376 30.2721 17.112C29.6161 17.832 28.6401 18.192 27.3441 18.192C26.0481 18.192 25.0641 17.832 24.3921 17.112C23.7361 16.376 23.4081 15.328 23.4081 13.968V5.232C23.4081 3.872 23.7361 2.832 24.3921 2.112C25.0641 1.376 26.0481 1.008 27.3441 1.008C28.6401 1.008 29.6161 1.376 30.2721 2.112C30.9441 2.832 31.2801 3.872 31.2801 5.232V6.864H28.7841V5.064C28.7841 4.456 28.6561 4.032 28.4001 3.792C28.1601 3.536 27.8321 3.408 27.4161 3.408C27.0001 3.408 26.6641 3.536 26.4081 3.792C26.1681 4.032 26.0481 4.456 26.0481 5.064V14.136C26.0481 14.744 26.1681 15.168 26.4081 15.408C26.6641 15.648 27.0001 15.768 27.4161 15.768C27.8321 15.768 28.1601 15.648 28.4001 15.408C28.6561 15.168 28.7841 14.744 28.7841 14.136V11.736H31.2801ZM35.4019 1.2V14.16C35.4019 14.768 35.5219 15.192 35.7619 15.432C36.0179 15.672 36.3539 15.792 36.7699 15.792C37.1859 15.792 37.5139 15.672 37.7539 15.432C38.0099 15.192 38.1379 14.768 38.1379 14.16V1.2H40.6339V13.992C40.6339 15.352 40.2979 16.4 39.6259 17.136C38.9699 17.856 37.9939 18.216 36.6979 18.216C35.4019 18.216 34.4179 17.856 33.7459 17.136C33.0899 16.4 32.7619 15.352 32.7619 13.992V1.2H35.4019ZM46.4284 1.2C47.8044 1.2 48.7964 1.52 49.4044 2.16C50.0284 2.8 50.3404 3.768 50.3404 5.064V5.664C50.3404 6.528 50.2044 7.24 49.9324 7.8C49.6604 8.36 49.2284 8.776 48.6364 9.048C49.3564 9.32 49.8604 9.768 50.1484 10.392C50.4524 11 50.6044 11.752 50.6044 12.648V14.016C50.6044 15.312 50.2684 16.304 49.5964 16.992C48.9244 17.664 47.9244 18 46.5964 18H42.4444V1.2H46.4284ZM45.0844 10.44V15.6H46.5964C47.0444 15.6 47.3804 15.48 47.6044 15.24C47.8444 15 47.9644 14.568 47.9644 13.944V12.48C47.9644 11.696 47.8284 11.16 47.5564 10.872C47.3004 10.584 46.8684 10.44 46.2604 10.44H45.0844ZM45.0844 3.6V8.04H46.1164C46.6124 8.04 46.9964 7.912 47.2684 7.656C47.5564 7.4 47.7004 6.936 47.7004 6.264V5.328C47.7004 4.72 47.5884 4.28 47.3644 4.008C47.1564 3.736 46.8204 3.6 46.3564 3.6H45.0844ZM54.8344 8.28H58.4584V10.68H54.8344V15.6H59.3944V18H52.1944V1.2H59.3944V3.6H54.8344V8.28Z" fill="#477041"/>
<path d="M73.944 1.2C75.32 1.2 76.312 1.52 76.92 2.16C77.544 2.8 77.856 3.768 77.856 5.064V5.664C77.856 6.528 77.72 7.24 77.448 7.8C77.176 8.36 76.744 8.776 76.152 9.048C76.872 9.32 77.376 9.768 77.664 10.392C77.968 11 78.12 11.752 78.12 12.648V14.016C78.12 15.312 77.784 16.304 77.112 16.992C76.44 17.664 75.44 18 74.112 18H69.96V1.2H73.944ZM72.6 10.44V15.6H74.112C74.56 15.6 74.896 15.48 75.12 15.24C75.36 15 75.48 14.568 75.48 13.944V12.48C75.48 11.696 75.344 11.16 75.072 10.872C74.816 10.584 74.384 10.44 73.776 10.44H72.6ZM72.6 3.6V8.04H73.632C74.128 8.04 74.512 7.912 74.784 7.656C75.072 7.4 75.216 6.936 75.216 6.264V5.328C75.216 4.72 75.104 4.28 74.88 4.008C74.672 3.736 74.336 3.6 73.872 3.6H72.6ZM79.71 1.2H82.35V15.6H86.694V18H79.71V1.2ZM90.4097 1.2V14.16C90.4097 14.768 90.5297 15.192 90.7697 15.432C91.0257 15.672 91.3617 15.792 91.7777 15.792C92.1937 15.792 92.5217 15.672 92.7617 15.432C93.0177 15.192 93.1457 14.768 93.1457 14.16V1.2H95.6417V13.992C95.6417 15.352 95.3057 16.4 94.6337 17.136C93.9777 17.856 93.0017 18.216 91.7057 18.216C90.4097 18.216 89.4257 17.856 88.7537 17.136C88.0977 16.4 87.7697 15.352 87.7697 13.992V1.2H90.4097ZM100.092 8.28H103.716V10.68H100.092V15.6H104.652V18H97.4522V1.2H104.652V3.6H100.092V8.28ZM113.999 1.2C115.375 1.2 116.367 1.52 116.975 2.16C117.599 2.8 117.911 3.768 117.911 5.064V5.664C117.911 6.528 117.775 7.24 117.503 7.8C117.231 8.36 116.799 8.776 116.207 9.048C116.927 9.32 117.431 9.768 117.719 10.392C118.023 11 118.175 11.752 118.175 12.648V14.016C118.175 15.312 117.839 16.304 117.167 16.992C116.495 17.664 115.495 18 114.167 18H110.015V1.2H113.999ZM112.655 10.44V15.6H114.167C114.615 15.6 114.951 15.48 115.175 15.24C115.415 15 115.535 14.568 115.535 13.944V12.48C115.535 11.696 115.399 11.16 115.127 10.872C114.871 10.584 114.439 10.44 113.831 10.44H112.655ZM112.655 3.6V8.04H113.687C114.183 8.04 114.567 7.912 114.839 7.656C115.127 7.4 115.271 6.936 115.271 6.264V5.328C115.271 4.72 115.159 4.28 114.935 4.008C114.727 3.736 114.391 3.6 113.927 3.6H112.655ZM122.285 1.2V14.16C122.285 14.768 122.405 15.192 122.645 15.432C122.901 15.672 123.237 15.792 123.653 15.792C124.069 15.792 124.397 15.672 124.637 15.432C124.893 15.192 125.021 14.768 125.021 14.16V1.2H127.517V13.992C127.517 15.352 127.181 16.4 126.509 17.136C125.853 17.856 124.877 18.216 123.581 18.216C122.285 18.216 121.301 17.856 120.629 17.136C119.973 16.4 119.645 15.352 119.645 13.992V1.2H122.285ZM133.311 1.2C134.687 1.2 135.679 1.52 136.287 2.16C136.911 2.8 137.223 3.768 137.223 5.064V5.664C137.223 6.528 137.087 7.24 136.815 7.8C136.543 8.36 136.111 8.776 135.519 9.048C136.239 9.32 136.743 9.768 137.031 10.392C137.335 11 137.487 11.752 137.487 12.648V14.016C137.487 15.312 137.151 16.304 136.479 16.992C135.807 17.664 134.807 18 133.479 18H129.327V1.2H133.311ZM131.967 10.44V15.6H133.479C133.927 15.6 134.263 15.48 134.487 15.24C134.727 15 134.847 14.568 134.847 13.944V12.48C134.847 11.696 134.711 11.16 134.439 10.872C134.183 10.584 133.751 10.44 133.143 10.44H131.967ZM131.967 3.6V8.04H132.999C133.495 8.04 133.879 7.912 134.151 7.656C134.439 7.4 134.583 6.936 134.583 6.264V5.328C134.583 4.72 134.471 4.28 134.247 4.008C134.039 3.736 133.703 3.6 133.239 3.6H131.967ZM143.061 1.2C144.437 1.2 145.429 1.52 146.037 2.16C146.661 2.8 146.973 3.768 146.973 5.064V5.664C146.973 6.528 146.837 7.24 146.565 7.8C146.293 8.36 145.861 8.776 145.269 9.048C145.989 9.32 146.493 9.768 146.781 10.392C147.085 11 147.237 11.752 147.237 12.648V14.016C147.237 15.312 146.901 16.304 146.229 16.992C145.557 17.664 144.557 18 143.229 18H139.077V1.2H143.061ZM141.717 10.44V15.6H143.229C143.677 15.6 144.013 15.48 144.237 15.24C144.477 15 144.597 14.568 144.597 13.944V12.48C144.597 11.696 144.461 11.16 144.189 10.872C143.933 10.584 143.501 10.44 142.893 10.44H141.717ZM141.717 3.6V8.04H142.749C143.245 8.04 143.629 7.912 143.901 7.656C144.189 7.4 144.333 6.936 144.333 6.264V5.328C144.333 4.72 144.221 4.28 143.997 4.008C143.789 3.736 143.453 3.6 142.989 3.6H141.717ZM148.827 1.2H151.467V15.6H155.811V18H148.827V1.2ZM159.647 8.28H163.271V10.68H159.647V15.6H164.207V18H157.007V1.2H164.207V3.6H159.647V8.28ZM173.553 1.2C174.929 1.2 175.921 1.52 176.529 2.16C177.153 2.8 177.465 3.768 177.465 5.064V5.664C177.465 6.528 177.329 7.24 177.057 7.8C176.785 8.36 176.353 8.776 175.761 9.048C176.481 9.32 176.985 9.768 177.273 10.392C177.577 11 177.729 11.752 177.729 12.648V14.016C177.729 15.312 177.393 16.304 176.721 16.992C176.049 17.664 175.049 18 173.721 18H169.569V1.2H173.553ZM172.209 10.44V15.6H173.721C174.169 15.6 174.505 15.48 174.729 15.24C174.969 15 175.089 14.568 175.089 13.944V12.48C175.089 11.696 174.953 11.16 174.681 10.872C174.425 10.584 173.993 10.44 173.385 10.44H172.209ZM172.209 3.6V8.04H173.241C173.737 8.04 174.121 7.912 174.393 7.656C174.681 7.4 174.825 6.936 174.825 6.264V5.328C174.825 4.72 174.713 4.28 174.489 4.008C174.281 3.736 173.945 3.6 173.481 3.6H172.209ZM181.959 8.28H185.583V10.68H181.959V15.6H186.519V18H179.319V1.2H186.519V3.6H181.959V8.28ZM193.675 18C193.643 17.888 193.611 17.784 193.579 17.688C193.547 17.592 193.515 17.472 193.483 17.328C193.467 17.184 193.451 17 193.435 16.776C193.435 16.552 193.435 16.272 193.435 15.936V13.296C193.435 12.512 193.299 11.96 193.027 11.64C192.755 11.32 192.315 11.16 191.707 11.16H190.795V18H188.155V1.2H192.139C193.515 1.2 194.507 1.52 195.115 2.16C195.739 2.8 196.051 3.768 196.051 5.064V6.384C196.051 8.112 195.475 9.248 194.323 9.792C194.995 10.064 195.451 10.512 195.691 11.136C195.947 11.744 196.075 12.488 196.075 13.368V15.96C196.075 16.376 196.091 16.744 196.123 17.064C196.155 17.368 196.235 17.68 196.363 18H193.675ZM190.795 3.6V8.76H191.827C192.323 8.76 192.707 8.632 192.979 8.376C193.267 8.12 193.411 7.656 193.411 6.984V5.328C193.411 4.72 193.299 4.28 193.075 4.008C192.867 3.736 192.531 3.6 192.067 3.6H190.795ZM203.332 18C203.3 17.888 203.268 17.784 203.236 17.688C203.204 17.592 203.172 17.472 203.14 17.328C203.124 17.184 203.108 17 203.092 16.776C203.092 16.552 203.092 16.272 203.092 15.936V13.296C203.092 12.512 202.956 11.96 202.684 11.64C202.412 11.32 201.972 11.16 201.364 11.16H200.452V18H197.812V1.2H201.796C203.172 1.2 204.164 1.52 204.772 2.16C205.396 2.8 205.708 3.768 205.708 5.064V6.384C205.708 8.112 205.132 9.248 203.98 9.792C204.652 10.064 205.108 10.512 205.348 11.136C205.604 11.744 205.732 12.488 205.732 13.368V15.96C205.732 16.376 205.748 16.744 205.78 17.064C205.812 17.368 205.892 17.68 206.02 18H203.332ZM200.452 3.6V8.76H201.484C201.98 8.76 202.364 8.632 202.636 8.376C202.924 8.12 203.068 7.656 203.068 6.984V5.328C203.068 4.72 202.956 4.28 202.732 4.008C202.524 3.736 202.188 3.6 201.724 3.6H200.452ZM209.94 12.432L206.604 1.2H209.364L211.38 8.856L213.396 1.2H215.916L212.58 12.432V18H209.94V12.432Z" fill="#D63B89"/>
<path d="M225.96 1.2H230.136C231.464 1.2 232.448 1.552 233.088 2.256C233.744 2.96 234.072 3.992 234.072 5.352V13.848C234.072 15.208 233.744 16.24 233.088 16.944C232.448 17.648 231.464 18 230.136 18H225.96V1.2ZM228.6 3.6V15.6H230.088C230.504 15.6 230.832 15.48 231.072 15.24C231.312 15 231.432 14.576 231.432 13.968V5.232C231.432 4.624 231.312 4.2 231.072 3.96C230.832 3.72 230.504 3.6 230.088 3.6H228.6ZM235.757 1.2H238.397V18H235.757V1.2ZM239.991 5.232C239.991 3.872 240.311 2.832 240.951 2.112C241.607 1.376 242.583 1.008 243.879 1.008C245.175 1.008 246.143 1.376 246.783 2.112C247.439 2.832 247.767 3.872 247.767 5.232V5.88H245.271V5.064C245.271 4.456 245.151 4.032 244.911 3.792C244.687 3.536 244.367 3.408 243.951 3.408C243.535 3.408 243.207 3.536 242.967 3.792C242.743 4.032 242.631 4.456 242.631 5.064C242.631 5.64 242.759 6.152 243.015 6.6C243.271 7.032 243.591 7.448 243.975 7.848C244.359 8.232 244.767 8.624 245.199 9.024C245.647 9.408 246.063 9.832 246.447 10.296C246.831 10.76 247.151 11.288 247.407 11.88C247.663 12.472 247.791 13.168 247.791 13.968C247.791 15.328 247.455 16.376 246.783 17.112C246.127 17.832 245.151 18.192 243.855 18.192C242.559 18.192 241.575 17.832 240.903 17.112C240.247 16.376 239.919 15.328 239.919 13.968V12.816H242.415V14.136C242.415 14.744 242.535 15.168 242.775 15.408C243.031 15.648 243.367 15.768 243.783 15.768C244.199 15.768 244.527 15.648 244.767 15.408C245.023 15.168 245.151 14.744 245.151 14.136C245.151 13.56 245.023 13.056 244.767 12.624C244.511 12.176 244.191 11.76 243.807 11.376C243.423 10.976 243.007 10.584 242.559 10.2C242.127 9.8 241.719 9.368 241.335 8.904C240.951 8.44 240.631 7.912 240.375 7.32C240.119 6.728 239.991 6.032 239.991 5.232ZM257.848 18H255.184L254.728 14.952H251.488L251.032 18H248.608L251.296 1.2H255.16L257.848 18ZM251.824 12.672H254.368L253.096 4.176L251.824 12.672ZM258.741 5.232C258.741 3.872 259.061 2.832 259.701 2.112C260.357 1.376 261.333 1.008 262.629 1.008C263.925 1.008 264.893 1.376 265.533 2.112C266.189 2.832 266.517 3.872 266.517 5.232V5.88H264.021V5.064C264.021 4.456 263.901 4.032 263.661 3.792C263.437 3.536 263.117 3.408 262.701 3.408C262.285 3.408 261.957 3.536 261.717 3.792C261.493 4.032 261.381 4.456 261.381 5.064C261.381 5.64 261.509 6.152 261.765 6.6C262.021 7.032 262.341 7.448 262.725 7.848C263.109 8.232 263.517 8.624 263.949 9.024C264.397 9.408 264.813 9.832 265.197 10.296C265.581 10.76 265.901 11.288 266.157 11.88C266.413 12.472 266.541 13.168 266.541 13.968C266.541 15.328 266.205 16.376 265.533 17.112C264.877 17.832 263.901 18.192 262.605 18.192C261.309 18.192 260.325 17.832 259.653 17.112C258.997 16.376 258.669 15.328 258.669 13.968V12.816H261.165V14.136C261.165 14.744 261.285 15.168 261.525 15.408C261.781 15.648 262.117 15.768 262.533 15.768C262.949 15.768 263.277 15.648 263.517 15.408C263.773 15.168 263.901 14.744 263.901 14.136C263.901 13.56 263.773 13.056 263.517 12.624C263.261 12.176 262.941 11.76 262.557 11.376C262.173 10.976 261.757 10.584 261.309 10.2C260.877 9.8 260.469 9.368 260.085 8.904C259.701 8.44 259.381 7.912 259.125 7.32C258.869 6.728 258.741 6.032 258.741 5.232ZM267.334 1.2H275.494V3.6H272.734V18H270.094V3.6H267.334V1.2ZM279.342 8.28H282.966V10.68H279.342V15.6H283.902V18H276.702V1.2H283.902V3.6H279.342V8.28ZM291.058 18C291.026 17.888 290.994 17.784 290.962 17.688C290.93 17.592 290.898 17.472 290.866 17.328C290.85 17.184 290.834 17 290.818 16.776C290.818 16.552 290.818 16.272 290.818 15.936V13.296C290.818 12.512 290.682 11.96 290.41 11.64C290.138 11.32 289.698 11.16 289.09 11.16H288.178V18H285.538V1.2H289.522C290.898 1.2 291.89 1.52 292.498 2.16C293.122 2.8 293.434 3.768 293.434 5.064V6.384C293.434 8.112 292.858 9.248 291.706 9.792C292.378 10.064 292.834 10.512 293.074 11.136C293.33 11.744 293.458 12.488 293.458 13.368V15.96C293.458 16.376 293.474 16.744 293.506 17.064C293.538 17.368 293.618 17.68 293.746 18H291.058ZM288.178 3.6V8.76H289.21C289.706 8.76 290.09 8.632 290.362 8.376C290.65 8.12 290.794 7.656 290.794 6.984V5.328C290.794 4.72 290.682 4.28 290.458 4.008C290.25 3.736 289.914 3.6 289.45 3.6H288.178Z" fill="#72E400"/>
<path d="M9.504 46H6.84L6.384 42.952H3.144L2.688 46H0.264L2.952 29.2H6.816L9.504 46ZM3.48 40.672H6.024L4.752 32.176L3.48 40.672ZM18.3894 39.736V41.968C18.3894 43.328 18.0534 44.376 17.3814 45.112C16.7254 45.832 15.7494 46.192 14.4534 46.192C13.1574 46.192 12.1734 45.832 11.5014 45.112C10.8454 44.376 10.5174 43.328 10.5174 41.968V33.232C10.5174 31.872 10.8454 30.832 11.5014 30.112C12.1734 29.376 13.1574 29.008 14.4534 29.008C15.7494 29.008 16.7254 29.376 17.3814 30.112C18.0534 30.832 18.3894 31.872 18.3894 33.232V34.864H15.8934V33.064C15.8934 32.456 15.7654 32.032 15.5094 31.792C15.2694 31.536 14.9414 31.408 14.5254 31.408C14.1094 31.408 13.7734 31.536 13.5174 31.792C13.2774 32.032 13.1574 32.456 13.1574 33.064V42.136C13.1574 42.744 13.2774 43.168 13.5174 43.408C13.7734 43.648 14.1094 43.768 14.5254 43.768C14.9414 43.768 15.2694 43.648 15.5094 43.408C15.7654 43.168 15.8934 42.744 15.8934 42.136V39.736H18.3894ZM19.9913 29.2H22.6313V46H19.9913V29.2ZM24.5616 29.2H28.7376C30.0656 29.2 31.0496 29.552 31.6896 30.256C32.3456 30.96 32.6736 31.992 32.6736 33.352V41.848C32.6736 43.208 32.3456 44.24 31.6896 44.944C31.0496 45.648 30.0656 46 28.7376 46H24.5616V29.2ZM27.2016 31.6V43.6H28.6896C29.1056 43.6 29.4336 43.48 29.6736 43.24C29.9136 43 30.0336 42.576 30.0336 41.968V33.232C30.0336 32.624 29.9136 32.2 29.6736 31.96C29.4336 31.72 29.1056 31.6 28.6896 31.6H27.2016ZM37.365 43.6C37.509 43.616 37.661 43.624 37.821 43.624C37.981 43.624 38.133 43.624 38.277 43.624C38.693 43.624 39.045 43.52 39.333 43.312C39.637 43.104 39.789 42.672 39.789 42.016V29.2H42.429V41.824C42.429 42.672 42.325 43.368 42.117 43.912C41.909 44.456 41.629 44.888 41.277 45.208C40.925 45.512 40.517 45.728 40.053 45.856C39.605 45.984 39.133 46.048 38.637 46.048C38.397 46.048 38.181 46.048 37.989 46.048C37.797 46.048 37.589 46.032 37.365 46V43.6ZM46.8656 36.28H50.4896V38.68H46.8656V43.6H51.4256V46H44.2256V29.2H51.4256V31.6H46.8656V36.28ZM53.0616 29.2H55.7016V43.6H60.0456V46H53.0616V29.2ZM61.2413 29.2H63.8813V43.6H68.2253V46H61.2413V29.2ZM71.8929 40.432L68.5569 29.2H71.3169L73.3329 36.856L75.3489 29.2H77.8689L74.5329 40.432V46H71.8929V40.432ZM81.9431 29.2H90.1031V31.6H87.3431V46H84.7031V31.6H81.9431V29.2ZM96.8316 46C96.7996 45.888 96.7676 45.784 96.7356 45.688C96.7036 45.592 96.6716 45.472 96.6396 45.328C96.6236 45.184 96.6076 45 96.5916 44.776C96.5916 44.552 96.5916 44.272 96.5916 43.936V41.296C96.5916 40.512 96.4556 39.96 96.1836 39.64C95.9116 39.32 95.4716 39.16 94.8636 39.16H93.9516V46H91.3116V29.2H95.2956C96.6716 29.2 97.6636 29.52 98.2716 30.16C98.8956 30.8 99.2076 31.768 99.2076 33.064V34.384C99.2076 36.112 98.6316 37.248 97.4796 37.792C98.1516 38.064 98.6076 38.512 98.8476 39.136C99.1036 39.744 99.2316 40.488 99.2316 41.368V43.96C99.2316 44.376 99.2476 44.744 99.2796 45.064C99.3116 45.368 99.3916 45.68 99.5196 46H96.8316ZM93.9516 31.6V36.76H94.9836C95.4796 36.76 95.8636 36.632 96.1356 36.376C96.4236 36.12 96.5676 35.656 96.5676 34.984V33.328C96.5676 32.72 96.4556 32.28 96.2316 32.008C96.0236 31.736 95.6876 31.6 95.2236 31.6H93.9516ZM103.608 36.28H107.232V38.68H103.608V43.6H108.168V46H100.968V29.2H108.168V31.6H103.608V36.28ZM118.348 46H115.684L115.228 42.952H111.988L111.532 46H109.108L111.796 29.2H115.66L118.348 46ZM112.324 40.672H114.868L113.596 32.176L112.324 40.672ZM118.857 29.2H127.017V31.6H124.257V46H121.617V31.6H118.857V29.2ZM127.89 33.232C127.89 31.872 128.21 30.832 128.85 30.112C129.506 29.376 130.482 29.008 131.778 29.008C133.074 29.008 134.042 29.376 134.682 30.112C135.338 30.832 135.666 31.872 135.666 33.232V33.88H133.17V33.064C133.17 32.456 133.05 32.032 132.81 31.792C132.586 31.536 132.266 31.408 131.85 31.408C131.434 31.408 131.106 31.536 130.866 31.792C130.642 32.032 130.53 32.456 130.53 33.064C130.53 33.64 130.658 34.152 130.914 34.6C131.17 35.032 131.49 35.448 131.874 35.848C132.258 36.232 132.666 36.624 133.098 37.024C133.546 37.408 133.962 37.832 134.346 38.296C134.73 38.76 135.05 39.288 135.306 39.88C135.562 40.472 135.69 41.168 135.69 41.968C135.69 43.328 135.354 44.376 134.682 45.112C134.026 45.832 133.05 46.192 131.754 46.192C130.458 46.192 129.474 45.832 128.802 45.112C128.146 44.376 127.818 43.328 127.818 41.968V40.816H130.314V42.136C130.314 42.744 130.434 43.168 130.674 43.408C130.93 43.648 131.266 43.768 131.682 43.768C132.098 43.768 132.426 43.648 132.666 43.408C132.922 43.168 133.05 42.744 133.05 42.136C133.05 41.56 132.922 41.056 132.666 40.624C132.41 40.176 132.09 39.76 131.706 39.376C131.322 38.976 130.906 38.584 130.458 38.2C130.026 37.8 129.618 37.368 129.234 36.904C128.85 36.44 128.53 35.912 128.274 35.32C128.018 34.728 127.89 34.032 127.89 33.232Z" fill="#FF69BA"/>
<path d="M148.6 46H145.96V29.2H148.6V36.4H151.6V29.2H154.288V46H151.6V38.8H148.6V46ZM158.722 29.2V42.16C158.722 42.768 158.842 43.192 159.082 43.432C159.338 43.672 159.674 43.792 160.09 43.792C160.506 43.792 160.834 43.672 161.074 43.432C161.33 43.192 161.458 42.768 161.458 42.16V29.2H163.954V41.992C163.954 43.352 163.618 44.4 162.946 45.136C162.29 45.856 161.314 46.216 160.018 46.216C158.722 46.216 157.738 45.856 157.066 45.136C156.41 44.4 156.082 43.352 156.082 41.992V29.2H158.722ZM171.285 46C171.253 45.888 171.221 45.784 171.189 45.688C171.157 45.592 171.125 45.472 171.093 45.328C171.077 45.184 171.061 45 171.045 44.776C171.045 44.552 171.045 44.272 171.045 43.936V41.296C171.045 40.512 170.909 39.96 170.637 39.64C170.365 39.32 169.925 39.16 169.317 39.16H168.405V46H165.765V29.2H169.749C171.125 29.2 172.117 29.52 172.725 30.16C173.349 30.8 173.661 31.768 173.661 33.064V34.384C173.661 36.112 173.085 37.248 171.933 37.792C172.605 38.064 173.061 38.512 173.301 39.136C173.557 39.744 173.685 40.488 173.685 41.368V43.96C173.685 44.376 173.701 44.744 173.733 45.064C173.765 45.368 173.845 45.68 173.973 46H171.285ZM168.405 31.6V36.76H169.437C169.933 36.76 170.317 36.632 170.589 36.376C170.877 36.12 171.021 35.656 171.021 34.984V33.328C171.021 32.72 170.909 32.28 170.685 32.008C170.477 31.736 170.141 31.6 169.677 31.6H168.405ZM180.941 46C180.909 45.888 180.877 45.784 180.845 45.688C180.813 45.592 180.781 45.472 180.749 45.328C180.733 45.184 180.717 45 180.701 44.776C180.701 44.552 180.701 44.272 180.701 43.936V41.296C180.701 40.512 180.565 39.96 180.293 39.64C180.021 39.32 179.581 39.16 178.973 39.16H178.061V46H175.421V29.2H179.405C180.781 29.2 181.773 29.52 182.381 30.16C183.005 30.8 183.317 31.768 183.317 33.064V34.384C183.317 36.112 182.741 37.248 181.589 37.792C182.261 38.064 182.717 38.512 182.957 39.136C183.213 39.744 183.341 40.488 183.341 41.368V43.96C183.341 44.376 183.357 44.744 183.389 45.064C183.421 45.368 183.501 45.68 183.629 46H180.941ZM178.061 31.6V36.76H179.093C179.589 36.76 179.973 36.632 180.245 36.376C180.533 36.12 180.677 35.656 180.677 34.984V33.328C180.677 32.72 180.565 32.28 180.341 32.008C180.133 31.736 179.797 31.6 179.333 31.6H178.061ZM185.077 29.2H187.717V46H185.077V29.2ZM197.304 39.736V41.968C197.304 43.328 196.968 44.376 196.296 45.112C195.64 45.832 194.664 46.192 193.368 46.192C192.072 46.192 191.088 45.832 190.416 45.112C189.76 44.376 189.432 43.328 189.432 41.968V33.232C189.432 31.872 189.76 30.832 190.416 30.112C191.088 29.376 192.072 29.008 193.368 29.008C194.664 29.008 195.64 29.376 196.296 30.112C196.968 30.832 197.304 31.872 197.304 33.232V34.864H194.808V33.064C194.808 32.456 194.68 32.032 194.424 31.792C194.184 31.536 193.856 31.408 193.44 31.408C193.024 31.408 192.688 31.536 192.432 31.792C192.192 32.032 192.072 32.456 192.072 33.064V42.136C192.072 42.744 192.192 43.168 192.432 43.408C192.688 43.648 193.024 43.768 193.44 43.768C193.856 43.768 194.184 43.648 194.424 43.408C194.68 43.168 194.808 42.744 194.808 42.136V39.736H197.304ZM207.449 46H204.785L204.329 42.952H201.089L200.633 46H198.209L200.897 29.2H204.761L207.449 46ZM201.425 40.672H203.969L202.697 32.176L201.425 40.672ZM211.031 33.832V46H208.655V29.2H211.967L214.679 39.256V29.2H217.031V46H214.319L211.031 33.832ZM221.561 36.28H225.185V38.68H221.561V43.6H226.121V46H218.921V29.2H226.121V31.6H221.561V36.28Z" fill="#FFD10B"/>
<path d="M243.616 39.736V41.968C243.616 43.328 243.28 44.376 242.608 45.112C241.952 45.832 240.976 46.192 239.68 46.192C238.384 46.192 237.4 45.832 236.728 45.112C236.072 44.376 235.744 43.328 235.744 41.968V33.232C235.744 31.872 236.072 30.832 236.728 30.112C237.4 29.376 238.384 29.008 239.68 29.008C240.976 29.008 241.952 29.376 242.608 30.112C243.28 30.832 243.616 31.872 243.616 33.232V34.864H241.12V33.064C241.12 32.456 240.992 32.032 240.736 31.792C240.496 31.536 240.168 31.408 239.752 31.408C239.336 31.408 239 31.536 238.744 31.792C238.504 32.032 238.384 32.456 238.384 33.064V42.136C238.384 42.744 238.504 43.168 238.744 43.408C239 43.648 239.336 43.768 239.752 43.768C240.168 43.768 240.496 43.648 240.736 43.408C240.992 43.168 241.12 42.744 241.12 42.136V39.736H243.616ZM250.738 46C250.706 45.888 250.674 45.784 250.642 45.688C250.61 45.592 250.578 45.472 250.546 45.328C250.53 45.184 250.514 45 250.498 44.776C250.498 44.552 250.498 44.272 250.498 43.936V41.296C250.498 40.512 250.362 39.96 250.09 39.64C249.818 39.32 249.378 39.16 248.77 39.16H247.858V46H245.218V29.2H249.202C250.578 29.2 251.57 29.52 252.178 30.16C252.802 30.8 253.114 31.768 253.114 33.064V34.384C253.114 36.112 252.538 37.248 251.386 37.792C252.058 38.064 252.514 38.512 252.754 39.136C253.01 39.744 253.138 40.488 253.138 41.368V43.96C253.138 44.376 253.154 44.744 253.186 45.064C253.218 45.368 253.298 45.68 253.426 46H250.738ZM247.858 31.6V36.76H248.89C249.386 36.76 249.77 36.632 250.042 36.376C250.33 36.12 250.474 35.656 250.474 34.984V33.328C250.474 32.72 250.362 32.28 250.138 32.008C249.93 31.736 249.594 31.6 249.13 31.6H247.858ZM254.874 29.2H257.514V46H254.874V29.2ZM265.036 41.128L266.836 29.2H270.508V46H268.012V33.952L266.188 46H263.692L261.724 34.12V46H259.42V29.2H263.092L265.036 41.128ZM272.093 33.232C272.093 31.872 272.413 30.832 273.053 30.112C273.709 29.376 274.685 29.008 275.981 29.008C277.277 29.008 278.245 29.376 278.885 30.112C279.541 30.832 279.869 31.872 279.869 33.232V33.88H277.373V33.064C277.373 32.456 277.253 32.032 277.013 31.792C276.789 31.536 276.469 31.408 276.053 31.408C275.637 31.408 275.309 31.536 275.069 31.792C274.845 32.032 274.733 32.456 274.733 33.064C274.733 33.64 274.861 34.152 275.117 34.6C275.373 35.032 275.693 35.448 276.077 35.848C276.461 36.232 276.869 36.624 277.301 37.024C277.749 37.408 278.165 37.832 278.549 38.296C278.933 38.76 279.253 39.288 279.509 39.88C279.765 40.472 279.893 41.168 279.893 41.968C279.893 43.328 279.557 44.376 278.885 45.112C278.229 45.832 277.253 46.192 275.957 46.192C274.661 46.192 273.677 45.832 273.005 45.112C272.349 44.376 272.021 43.328 272.021 41.968V40.816H274.517V42.136C274.517 42.744 274.637 43.168 274.877 43.408C275.133 43.648 275.469 43.768 275.885 43.768C276.301 43.768 276.629 43.648 276.869 43.408C277.125 43.168 277.253 42.744 277.253 42.136C277.253 41.56 277.125 41.056 276.869 40.624C276.613 40.176 276.293 39.76 275.909 39.376C275.525 38.976 275.109 38.584 274.661 38.2C274.229 37.8 273.821 37.368 273.437 36.904C273.053 36.44 272.733 35.912 272.477 35.32C272.221 34.728 272.093 34.032 272.093 33.232ZM283.829 42.136C283.829 42.744 283.949 43.176 284.189 43.432C284.445 43.672 284.781 43.792 285.197 43.792C285.613 43.792 285.941 43.672 286.181 43.432C286.437 43.176 286.565 42.744 286.565 42.136V33.064C286.565 32.456 286.437 32.032 286.181 31.792C285.941 31.536 285.613 31.408 285.197 31.408C284.781 31.408 284.445 31.536 284.189 31.792C283.949 32.032 283.829 32.456 283.829 33.064V42.136ZM281.189 33.232C281.189 31.872 281.533 30.832 282.221 30.112C282.909 29.376 283.901 29.008 285.197 29.008C286.493 29.008 287.485 29.376 288.173 30.112C288.861 30.832 289.205 31.872 289.205 33.232V41.968C289.205 43.328 288.861 44.376 288.173 45.112C287.485 45.832 286.493 46.192 285.197 46.192C283.901 46.192 282.909 45.832 282.221 45.112C281.533 44.376 281.189 43.328 281.189 41.968V33.232ZM293.273 33.832V46H290.897V29.2H294.209L296.921 39.256V29.2H299.273V46H296.561L293.273 33.832ZM304.554 33.232C304.554 31.872 304.874 30.832 305.514 30.112C306.17 29.376 307.146 29.008 308.442 29.008C309.738 29.008 310.706 29.376 311.346 30.112C312.002 30.832 312.33 31.872 312.33 33.232V33.88H309.834V33.064C309.834 32.456 309.714 32.032 309.474 31.792C309.25 31.536 308.93 31.408 308.514 31.408C308.098 31.408 307.77 31.536 307.53 31.792C307.306 32.032 307.194 32.456 307.194 33.064C307.194 33.64 307.322 34.152 307.578 34.6C307.834 35.032 308.154 35.448 308.538 35.848C308.922 36.232 309.33 36.624 309.762 37.024C310.21 37.408 310.626 37.832 311.01 38.296C311.394 38.76 311.714 39.288 311.97 39.88C312.226 40.472 312.354 41.168 312.354 41.968C312.354 43.328 312.018 44.376 311.346 45.112C310.69 45.832 309.714 46.192 308.418 46.192C307.122 46.192 306.138 45.832 305.466 45.112C304.81 44.376 304.482 43.328 304.482 41.968V40.816H306.978V42.136C306.978 42.744 307.098 43.168 307.338 43.408C307.594 43.648 307.93 43.768 308.346 43.768C308.762 43.768 309.09 43.648 309.33 43.408C309.586 43.168 309.714 42.744 309.714 42.136C309.714 41.56 309.586 41.056 309.33 40.624C309.074 40.176 308.754 39.76 308.37 39.376C307.986 38.976 307.57 38.584 307.122 38.2C306.69 37.8 306.282 37.368 305.898 36.904C305.514 36.44 305.194 35.912 304.938 35.32C304.682 34.728 304.554 34.032 304.554 33.232ZM316.29 42.136C316.29 42.744 316.41 43.176 316.65 43.432C316.906 43.672 317.242 43.792 317.658 43.792C318.074 43.792 318.402 43.672 318.642 43.432C318.898 43.176 319.026 42.744 319.026 42.136V33.064C319.026 32.456 318.898 32.032 318.642 31.792C318.402 31.536 318.074 31.408 317.658 31.408C317.242 31.408 316.906 31.536 316.65 31.792C316.41 32.032 316.29 32.456 316.29 33.064V42.136ZM313.65 33.232C313.65 31.872 313.994 30.832 314.682 30.112C315.37 29.376 316.362 29.008 317.658 29.008C318.954 29.008 319.946 29.376 320.634 30.112C321.322 30.832 321.666 31.872 321.666 33.232V41.968C321.666 43.328 321.322 44.376 320.634 45.112C319.946 45.832 318.954 46.192 317.658 46.192C316.362 46.192 315.37 45.832 314.682 45.112C313.994 44.376 313.65 43.328 313.65 41.968V33.232ZM323.382 29.2H327.558C328.886 29.2 329.87 29.552 330.51 30.256C331.166 30.96 331.494 31.992 331.494 33.352V41.848C331.494 43.208 331.166 44.24 330.51 44.944C329.87 45.648 328.886 46 327.558 46H323.382V29.2ZM326.022 31.6V43.6H327.51C327.926 43.6 328.254 43.48 328.494 43.24C328.734 43 328.854 42.576 328.854 41.968V33.232C328.854 32.624 328.734 32.2 328.494 31.96C328.254 31.72 327.926 31.6 327.51 31.6H326.022ZM341.723 46H339.059L338.603 42.952H335.363L334.907 46H332.483L335.171 29.2H339.035L341.723 46ZM335.699 40.672H338.243L336.971 32.176L335.699 40.672Z" fill="#59D2ED"/>
</svg>
