<svg width="109" height="62" viewBox="0 0 109 62" fill="none" xmlns="http://www.w3.org/2000/svg">
<path d="M106.466 28.0249C107.033 27.3796 107.464 26.6264 107.731 25.8107C108.035 24.8876 108.118 23.9064 107.974 22.9455L107.964 22.8702L107.95 22.7957C107.728 21.6351 107.228 20.5452 106.492 19.619C105.756 18.6928 104.806 17.9577 103.723 17.4767C101.764 16.5461 99.6134 16.0846 97.4433 16.1292C96.3399 16.1238 95.2403 16.2576 94.1706 16.5273C94.1921 16.0187 94.1611 15.5093 94.0781 15.0071L94.0678 14.9461L94.0558 14.8854C93.7543 13.4272 93.0482 12.0825 92.018 11.0042C90.889 9.79127 89.3989 8.97187 87.7672 8.66676C87.5255 8.61859 87.2853 8.58265 87.0467 8.55439C85.8149 8.33846 84.5459 8.54383 83.446 9.13714C79.2838 4.03244 75.4118 5.64855 74.3439 6.24814C74.247 6.30782 74.1491 6.36503 74.0537 6.42834C73.072 4.80074 71.6157 3.50994 69.8791 2.72798C68.1425 1.94602 66.208 1.71003 64.3333 2.05146L64.2218 2.08002L64.0482 2.13454L63.9246 2.17479C61.7194 3.31209 59.8966 5.06784 58.6811 7.22539L58.6719 7.24125C58.4856 7.16695 58.2964 7.09921 58.1064 7.0333C57.2144 6.74747 55.9878 6.48695 55.9878 6.48695C55.5152 6.4048 55.0367 6.36173 54.557 6.35821C53.361 6.36264 52.1932 6.72085 51.2017 7.38743C50.2905 8.00198 49.5355 8.81974 48.9968 9.77578C48.867 10 48.748 10.2341 48.6369 10.4749C48.2121 9.35605 47.6084 8.31305 46.8493 7.38632C45.5895 5.88209 44.0343 4.65058 42.2791 3.76753C41.9609 3.60081 41.6293 3.44116 41.2879 3.28696C38.1282 2.00206 34.7882 1.21144 31.3862 0.943116C30.3801 0.870617 29.337 0.834012 28.2569 0.833301C24.7832 0.821588 21.3172 1.16055 17.9121 1.845C14.7785 2.44633 11.7577 3.52904 8.9576 5.05441C6.37005 6.45266 4.18114 8.48269 2.59603 10.9543C0.963956 13.6242 0.382221 16.8019 0.96311 19.8741C1.14623 21.1191 1.56351 22.3184 2.19304 23.4092C2.84084 24.597 3.83832 25.5584 5.05115 26.1641C6.09267 26.7952 7.28889 27.1272 8.5078 27.1236C8.77108 27.1235 9.03415 27.1091 9.29586 27.0805C9.89954 27.0187 10.4962 26.9015 11.0783 26.7304C11.8071 26.5257 12.505 26.2241 13.1531 25.8337C13.9541 25.3532 14.6388 24.7024 15.1583 23.9278C15.3834 23.5915 15.5681 23.2302 15.7086 22.8511C15.4752 23.6914 15.26 24.5253 15.0632 25.3527C14.4974 27.6879 14.067 30.0537 13.7743 32.4383C13.5383 34.2624 13.4074 36.0985 13.3823 37.9376V38.3004L13.6145 39.4591C13.7212 39.9801 13.892 40.486 14.1231 40.9653C14.826 42.7223 16.1813 44.1419 17.9073 44.929C19.2467 45.5224 20.6971 45.8261 22.1629 45.82C23.5086 45.8483 24.837 45.5145 26.0084 44.8538C26.154 44.7685 26.2937 44.6771 26.4276 44.5796C27.0809 44.662 27.7258 44.7233 28.3623 44.7635C28.9014 44.7948 29.4603 44.8193 30.0294 44.8368C30.2363 44.8425 30.443 44.8454 30.6497 44.8456L30.7797 44.8438C30.5267 45.2635 30.3163 45.7073 30.1516 46.1686C29.8365 47.0345 29.6691 47.9468 29.6562 48.8678V48.9037C29.6562 49.6716 29.8189 50.4308 30.1336 51.1318C30.4331 51.7923 30.8519 52.3923 31.3691 52.9019C31.897 53.4196 32.5081 53.8456 33.177 54.1624C33.8468 54.4811 34.5568 54.7078 35.2877 54.8364C35.8427 54.937 36.4056 54.988 36.9698 54.9888C37.4101 54.9887 37.8499 54.9568 38.2856 54.8933C39.1931 54.7655 40.0779 54.5106 40.9138 54.136C41.0081 54.0934 41.0981 54.0482 41.1876 54.0024L42.2972 53.445L42.5603 52.2903L42.5711 52.2321C42.6597 52.2279 42.7484 52.2231 42.8363 52.2231C43.4671 52.2232 44.093 52.3341 44.6852 52.5508C44.7479 52.5738 44.8116 52.5924 44.8753 52.6112C45.0031 53.6206 45.5216 54.5402 46.3203 55.1738C47.0439 55.7375 47.9184 56.0756 48.8341 56.1457C48.9962 56.1591 49.1616 56.166 49.3257 56.166C49.9949 56.1624 50.6596 56.0569 51.2968 55.853C51.3875 55.8244 51.4775 55.7946 51.5668 55.7635C52.2854 56.2087 53.1121 56.4504 53.9582 56.4627C54.0329 56.4661 54.1085 56.4679 54.1847 56.4679C54.9258 56.4577 55.6581 56.3066 56.3423 56.0226C56.4696 55.972 56.5958 55.9184 56.7207 55.862C57.0004 56.0203 57.2954 56.1501 57.6013 56.2494C57.4799 56.5919 57.376 56.9402 57.2898 57.293L57.219 57.5891L57.2211 57.9822C57.2222 58.5585 57.382 59.1235 57.6832 59.6154C57.9844 60.1074 58.4154 60.5075 58.9292 60.7721C59.5969 61.1096 60.3378 61.2778 61.0863 61.2615H61.1034C62.0713 61.2848 63.0241 61.0196 63.8397 60.4998C64.4542 60.0936 64.9769 59.5641 65.3745 58.9452C65.6908 58.4527 65.9441 57.9227 66.1285 57.3675C66.1872 57.181 66.2607 56.9995 66.3484 56.8246L66.3796 56.7631C66.4489 56.6218 66.5246 56.4776 66.6069 56.3305C66.9525 56.4059 67.3054 56.4434 67.6592 56.4424C67.752 56.4424 67.8464 56.44 67.9423 56.4351C68.7765 56.3864 69.5892 56.1524 70.3209 55.7503C70.8568 55.9636 71.4294 56.0704 72.0065 56.0647L72.1615 56.0624C72.4456 56.057 72.7289 56.0329 73.0098 55.9903L73.0951 55.9775L73.1795 55.9589C73.7856 55.8229 74.3715 55.6089 74.9222 55.3221C75.4745 55.5653 76.0733 55.686 76.6771 55.676C76.9249 55.6752 77.1725 55.6598 77.4185 55.63C78.2281 55.5206 79.0043 55.2381 79.6941 54.8018C79.8515 54.7059 80.0059 54.6055 80.1572 54.5006C80.8192 54.7679 81.5268 54.9049 82.2411 54.904H82.2856L82.33 54.9026C82.5957 54.895 82.8683 54.8735 83.1441 54.8382C83.4425 54.7996 83.7375 54.7388 84.0267 54.6562C85.0634 54.4142 86.0358 53.953 86.8779 53.3037C87.64 52.7076 88.2682 51.9589 88.7218 51.1058C89.1309 50.3239 89.4077 49.4799 89.5408 48.6081C89.6643 47.8048 89.6988 46.9905 89.6437 46.1798C89.592 45.4177 89.484 44.6604 89.3204 43.9141C89.2444 43.5674 89.1624 43.229 89.0743 42.899C90.1606 43.312 91.294 43.5895 92.4487 43.7254C93.2141 43.8594 93.9898 43.9271 94.7669 43.9276C95.0707 43.9276 95.379 43.9171 95.6832 43.8963C97.4014 43.844 99.0999 43.5168 100.714 42.9272C102.157 42.3981 103.487 41.6034 104.635 40.5845C105.742 39.5956 106.598 38.3587 107.132 36.9758C107.656 35.6138 107.819 34.14 107.605 32.6969L107.601 32.6696C107.398 31.5284 106.889 30.463 106.128 29.5865C105.942 29.3579 105.742 29.1271 105.53 28.8943C105.87 28.6359 106.184 28.3447 106.466 28.0249ZM82.4151 21.0436C83.1824 20.6231 83.8595 20.0569 84.4084 19.3771C84.8105 18.8464 85.0132 18.192 84.9811 17.5278C84.9045 17.3255 84.7689 17.1506 84.5918 17.0257C84.4943 16.9513 84.395 16.8731 84.2941 16.7912C84.1938 16.7099 84.0918 16.6249 83.988 16.5361L83.9866 16.5345L83.9731 16.5233C83.759 16.3407 83.5528 16.1503 83.3545 15.9523C83.1601 15.764 83.0384 15.5135 83.011 15.2447C82.9232 14.8694 82.9318 14.4782 83.0359 14.1072C83.14 13.7361 83.3363 13.3972 83.6066 13.1217C83.8038 12.9194 84.029 12.7461 84.2753 12.6071L84.3554 12.5651L84.5028 12.4926L84.59 12.4533C84.6603 12.4236 84.7322 12.3963 84.8056 12.3714L84.8855 12.3463C84.9505 12.326 85.0168 12.3075 85.0842 12.2908L85.1433 12.2758C85.2284 12.2563 85.3159 12.2403 85.4048 12.2265L85.4736 12.2166C85.5672 12.2038 85.6622 12.1927 85.7602 12.1859C86.19 12.1579 86.6217 12.1887 87.0432 12.2772C87.9127 12.4343 88.7081 12.8666 89.3114 13.5101C89.8759 14.0914 90.2649 14.8192 90.4339 15.6104C90.5505 16.3841 90.4474 17.1749 90.1362 17.8932C89.472 19.5107 88.3292 20.8884 86.8599 21.8427C86.2189 22.2814 85.4792 22.5559 84.7064 22.6419C84.3752 22.6729 84.041 22.6419 83.7212 22.5505C83.435 22.4754 83.1638 22.3519 82.9195 22.1852C82.7361 22.1551 82.5527 21.9952 82.3695 21.7056C82.1862 21.4168 82.2014 21.1961 82.4151 21.0436ZM51.5558 13.3728C51.631 13.0036 51.7383 12.6417 51.8766 12.2911C51.9229 12.1742 51.971 12.0593 52.0236 11.9494C52.0778 11.8339 52.1351 11.7221 52.197 11.6151C52.4526 11.1506 52.8134 10.7519 53.2508 10.4508C53.6346 10.1858 54.0898 10.0426 54.5568 10.0399C55.0126 10.0517 55.4658 10.113 55.9084 10.2225C56.4414 10.3443 56.9627 10.5123 57.4663 10.7248C57.9426 10.9221 58.3896 11.1833 58.795 11.501C59.1349 11.7411 59.372 12.0995 59.4594 12.5054C59.5205 12.8707 59.2913 13.3121 58.7719 13.8296C58.3867 14.2207 58.0624 14.667 57.8098 15.1537C57.5351 15.6717 57.2755 16.1663 57.031 16.6376L56.9787 16.734C56.9153 16.8532 56.8515 16.9677 56.7871 17.0776C56.6333 17.3448 56.4621 17.6022 56.2751 17.8474C56.1835 17.9918 56.059 18.1125 55.9116 18.1999C55.7643 18.2872 55.5984 18.3385 55.4273 18.3498H54.7403C54.1694 18.3302 53.6095 18.1875 53.0992 17.9317L53.0436 17.9035C52.9431 17.8508 52.8438 17.7952 52.7469 17.7333C52.4812 17.5577 52.2547 17.3295 52.0815 17.0627C52.0207 16.9723 51.9646 16.8787 51.9134 16.7825L51.8912 16.7408C51.8563 16.6732 51.8227 16.6029 51.7905 16.5302L51.7293 16.3869L51.6838 16.2684C51.6528 16.1848 51.6234 16.0983 51.5955 16.0088L51.5747 15.938C51.5435 15.8324 51.5137 15.724 51.4869 15.6102C51.3927 14.8654 51.4159 14.1105 51.5558 13.3728ZM46.6072 31.2482C46.7194 30.1055 46.8953 28.9699 47.1341 27.8466C47.1889 27.5871 47.2494 27.3342 47.3127 27.0846L47.3742 26.8528C47.4212 26.6774 47.4703 26.5046 47.5215 26.3342L47.5942 26.0952C47.6584 25.8927 47.7257 25.6937 47.7961 25.4983L47.8311 25.3971C47.9221 25.15 48.0181 24.9088 48.1191 24.6734C48.3781 24.0614 48.6993 23.4775 49.0777 22.9307L49.1162 22.8759L49.2403 22.7061L49.3208 22.6017L49.4168 22.4798C49.4796 22.4025 49.5432 22.3268 49.6082 22.2535C50.1323 21.6306 50.8645 21.2172 51.6702 21.0894C52.3573 20.9926 53.0564 21.0235 53.7322 21.1805C54.1971 21.264 54.6183 21.5062 54.9235 21.8655C55.116 22.1253 55.256 22.4199 55.3358 22.7329C55.3684 23.259 55.3455 23.787 55.2674 24.3084C55.1846 24.8043 55.0621 25.2929 54.9008 25.7693C54.8154 26.024 54.7242 26.2887 54.627 26.5634L54.6255 26.5677L54.4818 26.9696L54.328 27.3904C54.114 27.969 53.8849 28.6691 53.6407 29.4906C53.4267 30.1914 53.1976 31.0056 52.9534 31.9333C52.7078 32.8674 52.5544 33.8231 52.4952 34.787C52.4994 34.8936 52.5259 34.9982 52.573 35.0941C52.6201 35.19 52.6867 35.275 52.7687 35.3438C52.8506 35.4125 52.946 35.4635 53.0489 35.4934C53.1517 35.5233 53.2596 35.5315 53.3658 35.5175C54.244 35.4012 55.0499 34.9713 55.6339 34.3076C56.047 33.925 56.4692 33.5111 56.8993 33.0701C56.9168 32.6533 56.9378 32.2221 56.9626 31.7736C56.9865 31.3442 57.0142 30.9098 57.0457 30.4703C57.0619 30.2396 57.0808 30.0052 57.0989 29.772C57.1138 29.5818 57.1283 29.3921 57.1445 29.2002C57.1706 28.887 57.1987 28.5713 57.2287 28.2531L57.2555 27.9712C57.2911 27.5989 57.329 27.2239 57.3689 26.8461C57.4078 26.4813 57.4461 26.1172 57.4893 25.7466C57.5321 25.38 57.5805 25.0118 57.6283 24.6439C57.7006 24.0862 57.7788 23.5267 57.8627 22.9659L57.8647 22.9521C58.0427 21.7673 58.246 20.5756 58.4745 19.3772C58.6297 18.57 58.7989 17.7844 58.982 17.0204C59.0261 16.8365 59.0718 16.6552 59.1175 16.4738C59.2477 15.9569 59.3846 15.4501 59.528 14.9533C59.6029 14.6942 59.6795 14.4377 59.7578 14.1838L59.7642 14.1625C59.8442 13.9043 59.926 13.6488 60.0095 13.3959C60.5475 11.7162 61.2697 10.1007 62.163 8.57869C62.8214 7.37401 63.8057 6.37746 65.0039 5.70222C65.0579 5.67904 65.1131 5.65883 65.1693 5.64168L65.2878 5.60681C65.4353 5.56796 65.586 5.54244 65.7381 5.53059C65.826 5.52364 65.917 5.51963 66.0119 5.51963C66.2341 5.52046 66.456 5.53571 66.6762 5.56529C66.9153 5.59791 67.1524 5.64364 67.3864 5.70226C67.5062 5.73449 67.625 5.77158 67.7432 5.81105L67.83 5.84145C67.9281 5.87586 68.0256 5.91281 68.1225 5.95229L68.1824 5.97667C68.4318 6.08139 68.6746 6.20115 68.9094 6.33528C69.0846 6.43517 69.2578 6.54375 69.4289 6.66101C69.5045 6.71247 69.5798 6.76554 69.6545 6.82092C70.2832 7.22627 70.7337 7.85469 70.9146 8.57877C70.9747 8.91973 70.9266 9.27087 70.777 9.58331C70.6129 9.93719 70.4133 10.2737 70.1814 10.5876C69.6418 11.3938 69.1668 12.2411 68.7608 13.1217C68.6835 13.2825 68.6059 13.4477 68.5283 13.6154L68.4689 13.7447C68.4066 13.8805 68.3442 14.0184 68.2817 14.1582L68.2317 14.2704C68.0681 14.6396 67.9039 15.0232 67.739 15.4211C67.5537 15.8691 67.3673 16.3354 67.1801 16.82C66.8455 17.6869 66.521 18.587 66.2047 19.5131C66.087 19.8574 65.9706 20.2058 65.8555 20.5583C65.7854 20.773 65.7146 20.9857 65.6455 21.2034C65.4837 21.7122 65.3267 22.217 65.1744 22.7178L65.0722 23.0541C64.9219 23.5507 64.7753 24.0443 64.6323 24.5351C64.5168 24.9333 64.4039 25.3294 64.2937 25.7234C64.19 26.0949 64.0911 26.4605 63.9971 26.8203C63.9137 27.139 63.8354 27.4524 63.7596 27.7621L63.6917 28.045C63.6373 28.2721 63.585 28.4967 63.5348 28.7187L63.4735 28.9916C63.4075 29.2914 63.344 29.5881 63.2857 29.8787C63.0518 30.9686 62.9062 32.0756 62.8504 33.1888C62.8198 33.4922 62.8046 33.797 62.8047 34.102C62.8017 34.3893 62.8482 34.675 62.942 34.9466C63.0257 35.1951 63.1861 35.4109 63.4003 35.5631C63.6746 35.7321 63.9948 35.8119 64.3167 35.7915C64.9258 35.7546 65.5021 35.5039 65.9434 35.0838C66.6849 34.4185 67.353 33.6761 67.9364 32.8694L68.1656 31.2714C68.2573 30.2975 68.41 29.1333 68.6238 27.7785C68.6677 27.5003 68.7143 27.2187 68.7637 26.9334C68.8088 26.6689 68.8568 26.4006 68.9058 26.131C69.0604 25.2813 69.2321 24.4091 69.4256 23.5094C69.7463 22.0181 70.1357 20.5112 70.5939 18.9889C70.6499 18.8028 70.7072 18.6183 70.7656 18.4353C70.821 18.2613 70.8776 18.0889 70.9353 17.918L70.942 17.8976C71.0623 17.5404 71.1872 17.1895 71.3167 16.8449C71.4671 16.4444 71.6236 16.0525 71.7862 15.669L71.7933 15.6521C71.9242 15.3437 72.0589 15.0406 72.1974 14.7427C72.3056 14.5108 72.4168 14.2857 72.5294 14.0638L72.59 13.9449C72.7052 13.7211 72.8223 13.5016 72.942 13.2881C73.0681 13.0632 73.1972 12.8452 73.3283 12.6316C73.3959 12.5217 73.4641 12.413 73.533 12.3061L73.5696 12.2502C73.6301 12.1571 73.691 12.0646 73.7525 11.9738L73.8456 11.8387L73.9862 11.637C74.0689 11.5212 74.1524 11.4074 74.2366 11.2955C74.8887 10.3892 75.7436 9.64659 76.7338 9.12674C77.2384 9.13386 77.7395 9.21068 78.2229 9.35502C78.7641 9.51086 79.2807 9.74141 79.7577 10.04C79.8883 10.1214 80.0131 10.2072 80.1339 10.2963C80.4588 10.534 80.7554 10.808 81.0178 11.1129C81.368 11.5221 81.5979 12.0199 81.6822 12.5511C81.7308 12.9658 81.6593 13.3857 81.476 13.7612C81.2979 14.2033 81.0241 14.6009 80.6741 14.9255C80.5955 15.0104 80.5172 15.102 80.4388 15.1958C80.3786 15.268 80.3186 15.345 80.2586 15.4226C79.5626 16.3657 78.9793 17.3864 78.5205 18.4641C78.4113 18.7078 78.3035 18.9546 78.1971 19.2045L78.1595 19.2932C78.0563 19.5364 77.9541 19.7819 77.8531 20.0297C77.4022 21.1381 76.9755 22.298 76.5732 23.5095L76.5299 23.6428C76.2424 24.5171 75.9801 25.3877 75.743 26.2547L75.7299 26.3037C75.6756 26.5033 75.6225 26.7028 75.5706 26.9021L75.5371 27.0348C75.493 27.2067 75.4493 27.3784 75.4072 27.55L75.3427 27.821L75.2528 28.1996C75.2027 28.4171 75.1541 28.6345 75.1071 28.8516C74.7732 30.3108 74.536 31.7903 74.397 33.2805C74.3662 33.5542 74.3434 33.8053 74.3285 34.0338C74.3111 34.2242 74.3187 34.4161 74.3514 34.6045C74.3859 34.941 74.5216 35.2593 74.7407 35.5177C74.8662 35.6334 75.0146 35.7217 75.1763 35.7767C75.3381 35.8318 75.5097 35.8525 75.68 35.8375C76.3079 35.8231 76.9191 35.6332 77.444 35.2895C78.2219 34.7637 78.9234 34.1338 79.5289 33.4174C79.7106 33.2314 79.879 33.033 80.0328 32.8236L80.5827 32.0931C80.766 31.85 80.934 31.637 81.0868 31.4541C81.2393 31.2714 81.3615 31.1801 81.4534 31.1801C81.733 31.1958 81.9957 31.3185 82.1865 31.5227C82.4205 31.7337 82.5809 32.0135 82.6445 32.3215C82.6519 33.307 82.3384 34.2682 81.7512 35.0611C81.0843 36.017 80.2729 36.8641 79.3456 37.5723C78.3615 38.3371 77.274 38.9597 76.1153 39.4218C75.0486 39.8706 73.9052 40.1109 72.7474 40.1294C71.764 40.1452 70.7984 39.8668 69.9753 39.3303C69.1746 38.8102 68.5827 38.0265 68.3028 37.1159C67.3263 38.0892 66.1866 38.8851 64.9352 39.4674C63.8019 40.0286 62.5578 40.3326 61.2926 40.3576C60.8118 40.3544 60.3338 40.2853 59.872 40.1522C59.3882 40.0176 58.931 39.8014 58.5205 39.513C58.0904 39.2059 57.7246 38.8182 57.4436 38.3716C57.2103 38.0026 57.0417 37.5969 56.945 37.1716L56.8481 37.2526C55.8808 38.0375 54.8279 38.7114 53.7094 39.2616C52.7699 39.7638 51.7277 40.045 50.6623 40.0838C49.6229 40.1878 48.5827 39.8938 47.7528 39.2616C47.1073 38.5371 46.7136 37.6244 46.6302 36.6591C46.5251 35.895 46.4716 35.1246 46.4699 34.3533C46.4582 33.3166 46.504 32.28 46.6072 31.2482ZM79.0598 42.6092C78.9301 42.7805 78.8268 42.9702 78.7533 43.1719C78.673 43.3861 78.5971 43.5904 78.5255 43.785C78.4627 43.9607 78.3837 44.1302 78.2894 44.2913C78.2595 44.3525 78.2157 44.406 78.1615 44.4474C78.1073 44.4888 78.0442 44.5171 77.9771 44.53L77.7015 44.5665C77.4176 44.5954 77.131 44.5489 76.8709 44.4318C76.7247 44.3521 76.5957 44.2443 76.4914 44.1147C76.3872 43.9851 76.3097 43.8362 76.2634 43.6766C76.1902 43.3947 76.1632 43.1028 76.1833 42.8122C76.2005 42.5688 76.2574 42.3298 76.3517 42.1046C76.4302 41.9128 76.5523 41.7417 76.7083 41.6049C76.8461 41.4836 77.0168 41.4057 77.1989 41.381C77.3777 41.3623 77.558 41.3623 77.7369 41.381C77.9518 41.3997 78.1648 41.4362 78.3735 41.4903C78.5706 41.5399 78.7601 41.6153 78.9373 41.7144C79.0834 41.7864 79.1969 41.9105 79.2554 42.0621C79.3001 42.1985 79.2355 42.3813 79.0598 42.6092ZM57.75 43.8917C57.5931 44.0392 57.4592 44.2091 57.3527 44.396C57.2375 44.5941 57.1283 44.783 57.0252 44.963C56.9338 45.126 56.8273 45.2801 56.7071 45.4234C56.6672 45.479 56.6148 45.5245 56.5541 45.5564C56.4934 45.5883 56.4261 45.6057 56.3575 45.6073L56.0783 45.5978C55.7922 45.5795 55.5159 45.4865 55.2774 45.328C55.1458 45.2255 55.0358 45.0981 54.954 44.9531C54.8722 44.808 54.82 44.6482 54.8006 44.4829C54.7749 44.1928 54.7965 43.9004 54.8648 43.6172C54.9222 43.3799 55.0183 43.1535 55.1492 42.9471C55.2591 42.7707 55.4086 42.6222 55.5859 42.5131C55.7429 42.4163 55.9249 42.3677 56.1094 42.3733C56.2899 42.3843 56.4688 42.4141 56.6431 42.4621C56.8529 42.516 57.0579 42.5872 57.2558 42.6749C57.4428 42.7562 57.6181 42.8618 57.7773 42.9889C57.91 43.0837 58.0019 43.2249 58.0347 43.3842C58.0563 43.5263 57.9621 43.6959 57.75 43.8917ZM40.1459 47.5652C39.837 47.96 39.4391 48.2767 38.9845 48.4898C38.4573 48.7395 37.8922 48.9004 37.3121 48.9662C36.6654 49.0453 36.0103 49.0225 35.3706 48.8987C35.3237 49.3038 35.4084 49.7133 35.6123 50.0668C35.9051 50.4539 36.3397 50.7099 36.8213 50.7787C37.6659 50.9107 38.5308 50.7948 39.3105 50.4451L39.3789 50.4126C39.9086 50.4522 40.1841 50.7963 40.145 51.4409C40.1389 51.5395 40.1247 51.6376 40.1025 51.7339C40.0255 51.7727 39.9505 51.813 39.8697 51.8496C39.2494 52.1267 38.5928 52.3146 37.9194 52.4078C37.1945 52.5121 36.4573 52.4975 35.737 52.3645C35.2303 52.2765 34.738 52.1202 34.2735 51.9001C33.8573 51.7051 33.4769 51.442 33.148 51.1217C32.8489 50.8286 32.6067 50.4831 32.4336 50.1025C32.2631 49.7209 32.1757 49.3077 32.1773 48.8901C32.1873 48.2489 32.3053 47.614 32.5265 47.0118C32.737 46.4081 33.0719 45.855 33.5097 45.3881C33.7471 45.1391 34.0151 44.9209 34.3075 44.7389C34.6343 44.5356 34.9871 44.3771 35.3564 44.2675C35.7812 44.1425 36.2197 44.0693 36.6622 44.0495C37.182 44.0264 37.7028 44.0619 38.2147 44.1554C38.8643 44.2264 39.4768 44.4932 39.9704 44.92C40.3407 45.2753 40.5578 45.7603 40.5757 46.2722C40.5829 46.7392 40.4315 47.1949 40.1459 47.5652ZM37.1003 40.4489C35.3241 40.8484 33.5137 41.0778 31.6937 41.1338C31.1739 41.1637 30.6546 41.1713 30.1358 41.1565C29.616 41.1407 29.0967 41.1179 28.5778 41.088C27.5563 41.0216 26.5391 40.8996 25.5308 40.7227C25.2707 40.6776 25.0138 40.6306 24.7602 40.5817C24.7629 40.804 24.7063 41.023 24.5962 41.2162C24.486 41.4095 24.3263 41.5701 24.1333 41.6816C23.5292 42.0063 22.8489 42.1639 22.163 42.1382C21.2164 42.1446 20.2792 41.9499 19.4139 41.5673C18.5159 41.141 17.8239 40.3777 17.4894 39.4443C17.3741 39.2207 17.2893 38.9827 17.2374 38.7366L17.077 37.9375C17.1035 36.2426 17.2258 34.5505 17.4436 32.8693C17.719 30.6258 18.1244 28.4 18.6577 26.2031C19.2449 23.7541 19.9637 21.3383 20.8112 18.9662C21.6339 16.6166 22.7012 14.3593 23.9958 12.2313C24.3008 11.714 24.6291 11.1966 24.9809 10.679C25.3152 10.1832 25.6825 9.71032 26.0805 9.26367L26.1661 9.17414C24.3342 9.19203 22.5062 9.34405 20.6967 9.62897C18.8351 9.9 17.0124 10.3905 15.267 11.0901C13.775 11.6625 12.4348 12.5685 11.3494 13.7383C10.8694 14.2699 10.5201 14.9056 10.3292 15.595C10.1384 16.2845 10.1111 17.0087 10.2497 17.7104C10.3112 18.1462 10.4591 18.5653 10.685 18.9434C10.8623 19.2233 11.0783 19.4769 11.3267 19.6967C11.5558 19.8949 11.7697 20.0776 11.9684 20.2446C12.142 20.3733 12.2639 20.5596 12.312 20.7698C12.3807 21.1581 12.2988 21.558 12.0829 21.8884C11.8629 22.2137 11.5735 22.4866 11.2353 22.6873C10.8702 22.9065 10.4771 23.0755 10.0665 23.1895C9.69266 23.3011 9.30914 23.3775 8.92098 23.4177C8.17992 23.5223 7.42664 23.3428 6.81319 22.9155C6.19817 22.6431 5.69646 22.1674 5.39288 21.5688C4.99118 20.8717 4.72678 20.1045 4.6139 19.3085C4.175 17.1055 4.57519 14.8185 5.73645 12.8935C6.9944 10.9473 8.72897 9.35233 10.7767 8.259C13.2414 6.92077 15.9003 5.97339 18.6578 5.45096C21.8173 4.8153 25.0336 4.50169 28.2569 4.51497C28.5503 4.51497 28.8387 4.51881 29.1251 4.52452L29.3903 4.53117C29.5935 4.53654 29.7949 4.54337 29.9945 4.55167L30.2711 4.5634C30.535 4.57619 30.7966 4.59098 31.054 4.60901L31.2869 4.62755C31.4712 4.64171 31.6544 4.65676 31.8353 4.67359L32.1813 4.708C32.3253 4.72292 32.4681 4.73879 32.6098 4.75562C32.7257 4.76926 32.8421 4.78247 32.9566 4.79727C33.1783 4.82591 33.3975 4.85665 33.6142 4.88947C34.1918 4.97758 34.7505 5.08104 35.2903 5.19986C36.1347 5.38688 36.925 5.60089 37.667 5.83902C37.909 5.91672 38.146 5.99719 38.377 6.08043L38.5622 6.14813C38.7026 6.20019 38.8411 6.25321 38.9777 6.30718C39.0833 6.34896 39.1877 6.39131 39.2911 6.43422L39.493 6.51948C39.6492 6.58684 39.8024 6.65568 39.9526 6.72602L40.0692 6.7817C40.236 6.86146 40.4003 6.94241 40.5596 7.02588C41.8684 7.6749 43.0301 8.5839 43.9732 9.69696C44.7523 10.6189 45.2739 11.7292 45.4853 12.916C45.5067 13.0477 45.5245 13.1794 45.5399 13.311C45.6383 14.1481 45.6122 14.9951 45.4624 15.8246L45.4613 15.8312C45.4348 15.9783 45.4049 16.1254 45.3707 16.2719C45.0996 17.4086 44.6179 18.4849 43.9504 19.4454C43.8743 19.5565 43.7949 19.6665 43.7138 19.7758L43.631 19.8854L43.4599 20.1049L43.3622 20.2265C43.2809 20.3253 43.198 20.4235 43.1126 20.5206C42.5601 21.1451 41.9509 21.7174 41.293 22.2304C40.9625 22.4901 40.6122 22.7354 40.2464 22.9697L40.1634 23.0226C40.0659 23.084 39.9677 23.1448 39.8677 23.2045L39.7694 23.2621C39.5845 23.3705 39.3956 23.476 39.2026 23.5785L39.0906 23.6387L38.8693 23.7502L38.6241 23.8711L38.4222 23.9661C38.323 24.0121 38.2227 24.0574 38.1214 24.1019L37.9538 24.1754C37.7937 24.244 37.6319 24.3113 37.467 24.3763C38.6568 24.8865 39.7927 25.5137 40.8577 26.2485C41.7188 26.8435 42.5103 27.5327 43.2174 28.3033C43.7988 28.9379 44.2849 29.6529 44.6608 30.4263C44.9783 31.0865 45.2093 31.7847 45.3481 32.5036C45.5814 33.7449 45.3272 35.0281 44.6379 36.0879C43.8766 37.2052 42.8546 38.1218 41.6597 38.7589C40.2297 39.5388 38.6941 40.1081 37.1003 40.4489ZM46.8414 48.992C46.7808 49.3539 46.5995 49.6848 46.3268 49.9312C46.2393 50.047 46.1189 50.1339 45.9812 50.1806C45.8435 50.2273 45.6949 50.2317 45.5547 50.1931C44.3465 49.7509 43.048 49.6102 41.7727 49.7831C41.5378 49.8152 41.3586 49.668 41.2232 49.3295C41.0817 48.9853 41.0639 48.6029 41.1728 48.2472C41.2064 48.0798 41.293 47.9275 41.4198 47.8126C41.5466 47.6978 41.7069 47.6264 41.8773 47.609C43.4242 47.458 44.9849 47.673 46.4326 48.2366C46.5837 48.2879 46.7098 48.3943 46.7855 48.5343C46.8613 48.6744 46.8814 48.838 46.8414 48.992ZM87.05 48.2235C86.9599 48.8222 86.7707 49.4018 86.4902 49.9388C86.1994 50.4829 85.7969 50.9598 85.3089 51.3386C84.7356 51.773 84.074 52.0776 83.3704 52.2311C83.1903 52.2848 83.0062 52.3238 82.8197 52.3478C82.6303 52.3722 82.4427 52.3871 82.2568 52.3925C81.7084 52.3997 81.1692 52.2514 80.7021 51.965C80.4196 51.7868 80.1816 51.5467 80.0062 51.263C79.8802 51.4196 79.7453 51.5688 79.602 51.7098C79.2321 52.0717 78.8219 52.3902 78.3794 52.6592C77.9989 52.9062 77.5695 53.0689 77.1204 53.1362C76.6853 53.2301 76.2309 53.1684 75.837 52.9619C75.5344 52.7226 75.3239 52.3867 75.2408 52.0108L75.2357 51.9916C75.1848 52.0453 75.135 52.0993 75.0801 52.1522C74.7372 52.4807 74.3538 52.7645 73.9391 52.9967C73.5319 53.2308 73.0919 53.4028 72.6337 53.507C72.4581 53.5338 72.2809 53.5487 72.1032 53.5517C71.8165 53.5978 71.5225 53.5527 71.2629 53.4229C71.0034 53.293 70.7914 53.085 70.6572 52.8283C70.5961 52.7081 70.5525 52.5797 70.5279 52.4471C70.1427 52.859 69.6982 53.2115 69.209 53.4933C68.7845 53.745 68.3065 53.8935 67.8137 53.9268C67.3266 53.9782 66.8381 53.8423 66.4482 53.5468C66.2175 53.3553 66.0372 53.1106 65.923 52.8338C65.7005 53.1444 65.4746 53.462 65.2452 53.7866C64.819 54.3807 64.441 55.0077 64.115 55.6618C63.9635 55.9582 63.8363 56.2663 63.7347 56.5832C63.6164 56.9388 63.4538 57.2782 63.2509 57.5935C63.0406 57.9198 62.764 58.1986 62.439 58.412C62.0348 58.6536 61.5682 58.7711 61.0973 58.7499C60.7583 58.7656 60.4205 58.6986 60.1134 58.5546C60.001 58.5033 59.906 58.4206 59.8401 58.3164C59.7741 58.2122 59.7401 58.0912 59.742 57.968L59.7415 57.8795C59.8344 57.5072 59.9504 57.141 60.089 56.7831C60.2405 56.3821 60.3943 55.9661 60.5504 55.5353C60.7062 55.1042 60.8508 54.6761 60.9843 54.2509C61.1102 53.8565 61.2073 53.4536 61.2748 53.0453C61.0296 53.3313 60.7354 53.5716 60.4058 53.755C60.1018 53.9269 59.7579 54.0165 59.4084 54.015C59.0695 54.0353 58.73 53.9875 58.41 53.8744C58.0901 53.7613 57.7962 53.5852 57.5459 53.3566C57.361 53.1659 57.2168 52.9398 57.122 52.692C57.012 52.7823 56.8976 52.8708 56.7747 52.9561C56.3479 53.2521 55.8886 53.4986 55.4057 53.6908C54.9873 53.8717 54.5348 53.9613 54.0788 53.9536C53.632 53.9746 53.192 53.8388 52.8353 53.5699C52.5753 53.2845 52.4223 52.9184 52.402 52.5336L52.3986 52.4975C52.2626 52.6057 52.1209 52.7066 51.9741 52.7999C51.5264 53.0798 51.0442 53.3007 50.5396 53.4572C50.0581 53.6157 49.5502 53.6786 49.0445 53.6425C48.622 53.615 48.2176 53.4618 47.8835 53.2027C47.7156 53.0606 47.5807 52.8838 47.488 52.6846C47.3954 52.4854 47.3473 52.2686 47.3471 52.049C47.3413 51.6318 47.375 51.2149 47.4476 50.804C47.5326 50.2134 47.6603 49.5435 47.8307 48.7944C48.0003 48.0454 48.2096 47.2645 48.4585 46.4516C48.689 45.6856 48.9699 44.9356 49.2994 44.2065C49.5682 43.5951 49.9099 43.0181 50.3172 42.4882C50.4525 42.2877 50.6279 42.1173 50.8325 41.9877C51.0371 41.8581 51.2665 41.7722 51.506 41.7352C51.6907 41.7387 51.8731 41.7756 52.0446 41.8439C52.2297 41.914 52.407 42.0029 52.5738 42.1093C52.7889 42.2201 52.9812 42.3703 53.1405 42.5521C53.2938 42.7132 53.3942 42.9171 53.4283 43.1365C53.4461 43.25 53.4303 43.3663 53.3827 43.471C53.3232 43.5992 53.2315 43.7099 53.1166 43.7925C52.8464 44.0696 52.6137 44.3806 52.4243 44.7176C52.1831 45.1226 51.94 45.5769 51.6951 46.0808C51.4496 46.585 51.2135 47.11 50.9865 47.6557C50.7594 48.2014 50.5607 48.7253 50.3905 49.2276C50.2352 49.6782 50.1027 50.1364 49.9937 50.6003C49.9092 50.913 49.8732 51.2367 49.8868 51.5603C49.8934 51.6944 49.943 51.8229 50.0282 51.9269C50.134 52.0274 50.275 52.0827 50.4211 52.0811C50.6708 52.0865 50.9169 52.021 51.1307 51.8924C51.4007 51.7468 51.6565 51.5767 51.8949 51.3841C52.0874 51.2293 52.2663 51.0759 52.4375 50.9228C52.4558 50.7639 52.4746 50.6042 52.5011 50.4368C52.572 49.9967 52.669 49.5611 52.7914 49.1323C52.907 48.7152 53.0653 48.3111 53.2638 47.9263C53.4332 47.5913 53.6558 47.2857 53.9229 47.0212C54.1548 46.7884 54.4608 46.6431 54.7884 46.6103C55.0715 46.5854 55.3568 46.6092 55.6319 46.6806C55.8192 46.7188 55.9883 46.8186 56.1121 46.9639C56.1877 47.0662 56.242 47.1825 56.2719 47.306C56.2797 47.5104 56.2644 47.715 56.2266 47.916C56.1869 48.1076 56.1308 48.2954 56.0587 48.4773C55.9834 48.6697 55.8979 48.8764 55.802 49.0975C55.706 49.3185 55.6018 49.5865 55.4895 49.9013C55.3912 50.1695 55.2846 50.4814 55.1696 50.8369C55.054 51.194 54.9766 51.5623 54.9386 51.9356C54.9582 52.1256 55.079 52.2251 55.301 52.234C55.6683 52.2069 56.0147 52.0532 56.2806 51.7992C56.5036 51.6215 56.7325 51.424 56.9655 51.2109C57.0247 50.7969 57.1426 50.3934 57.3157 50.0125C57.561 49.4567 57.8843 48.9386 58.2759 48.4735C58.6697 48.0012 59.1394 47.5972 59.6659 47.2779C60.173 46.9633 60.758 46.7953 61.3554 46.7929C61.465 46.7923 61.5746 46.7975 61.6837 46.8085C61.776 46.8169 61.8673 46.8339 61.9564 46.8593C61.9434 46.8042 61.9362 46.7478 61.935 46.6912L61.9326 46.5229C61.9228 46.3662 61.9561 46.2098 62.0288 46.0705C62.0738 46.0091 62.1344 45.9607 62.2043 45.9303C62.2742 45.8999 62.351 45.8886 62.4267 45.8975C62.763 45.8729 63.0997 45.9407 63.4 46.0936C63.6198 46.2223 63.7971 46.4122 63.9102 46.6399C64.0258 46.8774 64.0973 47.1337 64.1211 47.3965C64.1485 47.6736 64.1728 47.9418 64.1938 48.2009C64.2049 48.5434 64.1959 48.9511 64.1669 49.4241C64.1376 49.8975 64.0987 50.3769 64.0503 50.8621C64.0014 51.3478 63.9517 51.8127 63.9011 52.2568C63.85 52.7009 63.8027 53.0651 63.7594 53.3495C63.9366 53.1449 64.1786 52.8554 64.4855 52.481C64.7914 52.1064 65.1008 51.7187 65.4138 51.3178C65.507 51.1985 65.5932 51.0839 65.6814 50.9677C65.6861 50.7827 65.6959 50.5921 65.7118 50.3945C65.7466 49.9757 65.8047 49.5592 65.8859 49.1469C65.9627 48.744 66.0814 48.3501 66.2401 47.9717C66.3785 47.6343 66.5736 47.323 66.817 47.0509C67.0355 46.8058 67.3243 46.6335 67.6443 46.5576C68.0017 46.49 68.3704 46.5117 68.7173 46.6207C68.8051 46.628 68.8884 46.662 68.9561 46.7181C69.0237 46.7742 69.0725 46.8497 69.0956 46.9343C69.1407 47.0395 69.1615 47.1535 69.1565 47.2677C69.1769 47.5646 69.1497 47.8629 69.0758 48.1512C69.0013 48.4461 68.9121 48.7681 68.8082 49.1173C68.7044 49.4668 68.5995 49.8634 68.4934 50.3071C68.3781 50.813 68.3043 51.3274 68.2728 51.8452C68.3113 52.0442 68.4541 52.1365 68.7012 52.1223C68.8885 52.1104 69.0701 52.0529 69.23 51.9548C69.3898 51.8567 69.5231 51.721 69.618 51.5596C69.8634 51.1816 70.0543 50.7712 70.1853 50.3404C70.3711 49.7476 70.5141 49.2104 70.6146 48.7289C70.7 48.3066 70.8085 47.8893 70.9397 47.4787C71.0308 47.1778 71.1655 46.8918 71.3396 46.6297C71.4886 46.4173 71.7148 46.2709 71.9701 46.2216C72.2756 46.1761 72.5864 46.1783 72.8912 46.2282C73.0735 46.2553 73.2504 46.3105 73.4156 46.392C73.4878 46.4241 73.552 46.4716 73.6037 46.5311C73.6555 46.5906 73.6935 46.6607 73.7151 46.7365C73.7769 47.1268 73.7703 47.5249 73.6956 47.913C73.62 48.3479 73.5218 48.7874 73.4009 49.2317C73.2797 49.6762 73.1616 50.1023 73.0465 50.5097C72.9433 50.8553 72.8739 51.21 72.8391 51.5689C72.8975 51.7655 73.0562 51.8519 73.3153 51.8282C73.6101 51.779 73.885 51.648 74.1085 51.4502C74.4632 51.1476 74.767 50.7905 75.0084 50.3923C75.0007 50.24 74.993 50.0877 74.9913 49.9265C74.9881 49.4808 75.0113 49.0352 75.0605 48.5922C75.105 48.162 75.1935 47.7374 75.3246 47.3251C75.4354 46.9671 75.6032 46.6292 75.8216 46.3242C76.0101 46.0568 76.2863 45.8632 76.6025 45.7769C76.8762 45.7059 77.1601 45.6825 77.4417 45.7078C77.6321 45.7147 77.8147 45.7853 77.9599 45.9082C78.0511 45.9968 78.1236 46.1026 78.1734 46.2194C78.2145 46.4197 78.2335 46.6239 78.2298 46.8284C78.2226 47.0238 78.1985 47.2182 78.1579 47.4095C78.1157 47.6116 78.0659 47.8296 78.0085 48.0633C77.9508 48.2971 77.8929 48.5785 77.8346 48.9074C77.7824 49.1881 77.7293 49.5132 77.6754 49.8828C77.6209 50.254 77.6057 50.6299 77.6301 51.0043C77.6401 51.0469 77.6587 51.087 77.6848 51.1221C77.7109 51.1573 77.7439 51.1867 77.7818 51.2087C77.8197 51.2307 77.8618 51.2447 77.9053 51.2499C77.9489 51.2551 77.993 51.2514 78.0351 51.239C78.3916 51.1517 78.7064 50.9431 78.9249 50.6491C79.1254 50.4251 79.3288 50.178 79.5339 49.9124C79.4221 49.394 79.3916 48.8616 79.4434 48.3339C79.5041 47.6793 79.7176 47.0479 80.067 46.4903C80.3879 45.9885 80.8174 45.5646 81.3241 45.2498C81.818 44.9407 82.3679 44.731 82.9427 44.6325C83.1145 44.5974 83.2924 44.6067 83.4595 44.6596C83.5297 44.6822 83.5935 44.7209 83.6458 44.7726C83.6982 44.8243 83.7376 44.8875 83.7609 44.9572C83.7869 45.0004 83.8036 45.0485 83.8099 45.0985C83.8162 45.1485 83.8119 45.1992 83.7974 45.2475C83.7829 45.2958 83.7585 45.3405 83.7257 45.3788C83.6929 45.4171 83.6524 45.4482 83.6069 45.4701C83.2679 45.6316 82.964 45.8579 82.7124 46.1361C82.4385 46.4356 82.2248 46.7846 82.0827 47.1643C81.7481 48.0674 81.7428 49.0589 82.0677 49.9654C82.1715 50.1767 82.3386 50.3507 82.546 50.4631C82.7458 50.5968 82.9878 50.6529 83.2262 50.6208C83.411 50.5823 83.5845 50.5022 83.7334 50.3866C83.8823 50.271 84.0027 50.123 84.0854 49.9538C84.3339 49.4962 84.4915 48.9951 84.5495 48.478C84.6343 47.8163 84.6452 47.1473 84.582 46.4832C84.5159 45.7285 84.3755 44.9821 84.1628 44.2548C84.034 43.8338 83.8606 43.4277 83.6455 43.0433C83.4532 42.7119 83.2659 42.4183 83.0835 42.1627C82.9008 41.9073 82.7353 41.6725 82.587 41.4584C82.4418 41.2521 82.3384 41.0196 82.2825 40.7739C82.2466 40.6901 82.2281 40.6 82.2279 40.5089C82.2277 40.4179 82.246 40.3277 82.2815 40.2438C82.3553 40.0911 82.4676 39.96 82.6073 39.8634C82.7617 39.756 82.9309 39.6714 83.1096 39.6124C83.2987 39.5485 83.4745 39.4955 83.6368 39.4533C83.8876 39.418 84.1426 39.476 84.3531 39.6163C84.6391 39.794 84.8916 40.0201 85.0994 40.2845C85.3664 40.6161 85.6022 40.9716 85.8037 41.3464C86.0382 41.777 86.2339 42.2275 86.3886 42.6925C86.5635 43.2357 86.7199 43.8216 86.8579 44.4501C86.9951 45.0749 87.0856 45.709 87.1288 46.3471C87.1719 46.9735 87.1457 47.603 87.05 48.2235ZM104.225 24.6509C104.115 24.9952 103.936 25.3136 103.698 25.5869C103.479 25.8383 103.215 26.0472 102.919 26.2034C102.66 26.3477 102.369 26.4261 102.071 26.4318C101.808 26.4413 101.545 26.3954 101.3 26.2971C101.056 26.1987 100.834 26.05 100.651 25.8608C100.288 25.4847 99.9652 25.0715 99.6888 24.6279C99.4139 24.1874 99.1389 23.7765 98.864 23.3954C98.7505 23.2199 98.5945 23.0756 98.4103 22.9758C98.2262 22.8761 98.0199 22.824 97.8103 22.8245C97.3606 22.8005 96.9186 22.9474 96.5732 23.2353C96.4348 23.3401 96.3275 23.4804 96.2629 23.6413C96.1984 23.8021 96.1789 23.9775 96.2066 24.1485C96.3045 24.6868 96.5413 25.1903 96.8938 25.6096C97.3276 26.1689 97.8024 26.6954 98.3141 27.1849C98.864 27.7179 99.4521 28.2582 100.078 28.8058C100.704 29.3537 101.292 29.8864 101.842 30.4038C102.348 30.8751 102.823 31.3784 103.263 31.9108C103.603 32.2854 103.84 32.7416 103.95 33.2348C104.071 34.059 103.977 34.9005 103.675 35.6775C103.345 36.5191 102.819 37.2703 102.14 37.8692C101.334 38.5766 100.401 39.1265 99.391 39.4902C98.1334 39.9432 96.8103 40.19 95.4734 40.2207C94.6462 40.2813 93.8145 40.2353 92.9991 40.0839C91.1932 39.9565 89.479 39.2425 88.1192 38.0515C86.9951 37.0446 86.2986 35.6485 86.1718 34.1477C86.052 33.1101 86.3124 32.0642 86.905 31.2027C87.2083 30.7639 87.598 30.3911 88.0504 30.1071C88.5217 29.8138 89.0551 29.634 89.6083 29.5821C90.0258 29.5293 90.4499 29.5762 90.8456 29.719C91.3562 29.8829 91.8361 30.1297 92.2659 30.4496C92.5428 30.6316 92.7901 30.8548 92.999 31.1116C93.2384 31.3912 93.3968 31.7305 93.4572 32.0931C93.5677 32.5492 93.5023 33.0299 93.2739 33.4402C93.0782 33.7418 92.8205 33.9986 92.518 34.1938C92.2271 34.3764 91.9597 34.5362 91.716 34.6731C91.6123 34.7136 91.5248 34.7869 91.4668 34.8817C91.4089 34.9765 91.3837 35.0876 91.3952 35.198C91.43 35.4143 91.5199 35.6182 91.6562 35.79C91.7925 35.9619 91.9708 36.0961 92.174 36.1798C92.9047 36.4544 93.6856 36.5712 94.4651 36.5223C94.8597 36.5577 95.2572 36.502 95.6267 36.3595C95.9962 36.2169 96.3277 35.9914 96.5955 35.7004C96.8104 35.4437 96.9651 35.1425 97.0483 34.8186C97.1316 34.4948 97.1412 34.1565 97.0766 33.8285C96.9103 33.1202 96.5257 32.4816 95.9769 32.0021C95.3354 31.3628 94.6328 30.6931 93.8691 29.993C93.1282 29.3162 92.4246 28.5997 91.7616 27.8469C91.1817 27.2374 90.7848 26.4782 90.6159 25.6554C90.4921 24.9101 90.5713 24.1454 90.8452 23.441C91.126 22.7172 91.5825 22.074 92.1738 21.569C92.8419 21.0037 93.6116 20.5699 94.442 20.2905C95.4074 19.9603 96.4226 19.7982 97.4432 19.8111C99.0396 19.7672 100.624 20.0955 102.071 20.7699C102.636 21.0036 103.136 21.371 103.528 21.8403C103.919 22.3097 104.189 22.8668 104.316 23.4637C104.379 23.861 104.348 24.2678 104.225 24.6509ZM38.0911 45.7291C38.1672 45.8572 38.2069 46.0035 38.2059 46.1524C38.2048 46.4102 38.1215 46.661 37.9679 46.8686C37.8024 47.1056 37.5895 47.3059 37.3426 47.4569C37.0757 47.6193 36.7795 47.7279 36.4707 47.7766C36.1451 47.832 35.8109 47.8084 35.4965 47.7078C35.5831 47.3751 35.7152 47.056 35.8893 46.7593C36.0427 46.494 36.2304 46.2499 36.4475 46.0332C36.6278 45.8505 36.8388 45.7006 37.071 45.5904C37.2612 45.4972 37.4755 45.4646 37.6849 45.4972C37.7654 45.5043 37.8434 45.5287 37.9135 45.5687C37.9837 45.6087 38.0442 45.6635 38.0911 45.7291ZM61.9528 47.9038L62.0095 47.9032C62.0009 48.26 61.9651 48.6156 61.9026 48.967C61.8383 49.3337 61.7767 49.6886 61.7178 50.0314C61.5973 50.546 61.4756 51.0604 61.3528 51.5746C61.2234 51.7424 61.0632 51.8842 60.8807 51.9924C60.6959 52.1041 60.4836 52.1623 60.2675 52.1602C60.1613 52.1703 60.0542 52.1579 59.9532 52.1238C59.8521 52.0897 59.7595 52.0347 59.6814 51.9624C59.5462 51.7713 59.484 51.5383 59.506 51.3056C59.5163 50.9482 59.5883 50.5952 59.7189 50.2622C59.8607 49.8725 60.05 49.5016 60.2826 49.1579C60.5013 48.8277 60.7652 48.5296 61.0668 48.2724C61.3088 48.0484 61.6229 47.9177 61.9528 47.9038ZM27.2221 22.578C27.2618 22.4471 27.3001 22.3155 27.3405 22.185C27.4731 21.4802 27.6568 20.7859 27.8904 20.1076C28.1653 19.2706 28.5089 18.365 28.9214 17.3908C29.3337 16.4169 29.7918 15.4124 30.2959 14.3773C30.7826 13.3736 31.3256 12.398 31.9225 11.4552V11.5009C31.9818 11.3547 32.0204 11.201 32.0371 11.0443C32.0529 10.907 32.0451 10.768 32.0141 10.6333C31.9689 10.3158 31.8601 10.0106 31.6942 9.73575C31.9164 9.78627 32.1327 9.84122 32.3462 9.89822C32.4485 9.92567 32.5482 9.95496 32.6485 9.98395L32.9464 10.0721C33.077 10.1126 33.206 10.1543 33.3333 10.1973L33.4944 10.2532C33.6426 10.3054 33.7898 10.3582 33.9333 10.4139C34.0977 10.4779 34.2618 10.5418 34.4197 10.6104C35.4243 11.0287 36.3354 11.6418 37.1002 12.4139C37.5272 12.8531 37.8644 13.371 38.0927 13.9387L38.1323 14.0493C38.2487 14.3624 38.3328 14.6865 38.3833 15.0166C38.5825 16.0315 38.4374 17.0836 37.9709 18.0073C37.5741 18.7509 37.0342 19.4094 36.3819 19.945L36.2382 20.0617C36.1602 20.1234 36.0822 20.185 36.0007 20.2445C35.0808 20.9005 34.0592 21.4018 32.9765 21.7284C31.8137 22.0942 30.616 22.339 29.4026 22.4589C28.9314 22.5213 28.4573 22.5593 27.9823 22.5731C27.7287 22.5812 27.4754 22.5824 27.2221 22.578ZM38.0624 31.9563C38.1463 32.4179 38.1326 32.8918 38.0221 33.3478C37.9116 33.8038 37.7067 34.2318 37.4207 34.6043C36.7759 35.4157 35.9424 36.0583 34.9923 36.4763C33.8537 36.9945 32.6523 37.3628 31.4184 37.5719C30.1033 37.813 28.7691 37.9352 27.4319 37.9372C26.4849 37.8765 25.5914 37.7928 24.7514 37.686L24.6198 37.6678C24.5969 35.4391 24.7869 33.2132 25.187 31.0203C25.5305 29.1285 25.9395 27.2692 26.414 25.4425C26.5361 25.4687 26.659 25.4947 26.7904 25.5185L28.4858 25.7922C28.6383 25.8229 28.7837 25.8459 28.9212 25.8608C29.0586 25.8766 29.2032 25.8991 29.3564 25.9293C30.5579 26.1691 31.7322 26.5286 32.8617 27.0022C33.7909 27.3916 34.6745 27.8816 35.4963 28.4633C36.1705 28.9388 36.7657 29.5166 37.2604 30.1756C37.6647 30.6979 37.9395 31.3081 38.0624 31.9563Z" fill="white"/>
</svg>
