<svg width="367" height="369" viewBox="0 0 367 369" fill="none" xmlns="http://www.w3.org/2000/svg">
<path d="M242.952 101.682H137.502C129.099 101.682 122.267 108.493 122.241 116.896L121.838 249.227C121.813 257.63 128.604 264.442 137.007 264.442H189.732H206.717H214.137L257.82 215.456L257.919 183.062L258.121 116.896C258.146 108.493 251.355 101.682 242.952 101.682Z" fill="#680199"/>
<path d="M204.615 252.872L204.58 252.869H204.545H189.767H141.109C135.888 252.869 131.668 248.637 131.684 243.416L132.063 118.983C132.079 113.762 136.324 109.529 141.545 109.529H238.862C244.083 109.529 248.303 113.762 248.287 118.983L248.098 181.191L247.356 219.71L220.24 253.967L204.615 252.872Z" stroke="white" stroke-width="2"/>
<path d="M171.31 198.021C167.347 198.011 163.548 196.41 160.745 193.568C157.942 190.726 156.363 186.875 156.354 182.856V137.398H186.267V144.999H163.85V152.563H186.267V159.978H163.85V182.707C163.85 184.713 164.636 186.637 166.035 188.056C167.434 189.474 169.332 190.271 171.31 190.271C173.289 190.271 175.187 189.474 176.586 188.056C177.985 186.637 178.771 184.713 178.771 182.707V175.292H171.457V167.691H186.267V182.856C186.267 184.847 185.881 186.819 185.129 188.659C184.377 190.499 183.276 192.171 181.887 193.579C180.498 194.987 178.849 196.104 177.034 196.866C175.22 197.628 173.275 198.021 171.31 198.021ZM223.605 148.781C223.589 151.525 222.573 154.166 220.753 156.196C222.6 158.284 223.617 160.993 223.605 163.797V175.143C223.633 178.525 222.547 181.82 220.521 184.506C218.494 187.193 215.641 189.117 212.415 189.975V198.021H205.101V189.975C201.874 189.117 199.022 187.193 196.995 184.506C194.968 181.82 193.883 178.525 193.911 175.143V167.728H201.224V175.143C201.222 176.465 201.558 177.764 202.199 178.914C202.84 180.064 203.764 181.026 204.881 181.706V175.292H212.378V181.892C213.511 181.229 214.447 180.271 215.09 179.116C215.734 177.962 216.06 176.654 216.035 175.329V163.946C216.035 162.962 215.65 162.019 214.964 161.324C214.278 160.629 213.348 160.238 212.378 160.238H193.728V137.398H212.415C215.386 137.408 218.232 138.611 220.33 140.745C222.427 142.879 223.605 145.768 223.605 148.781ZM216.291 148.781C216.291 147.797 215.906 146.854 215.22 146.159C214.534 145.464 213.604 145.073 212.634 145.073H201.188V152.489H212.415C212.901 152.498 213.385 152.41 213.837 152.228C214.289 152.046 214.701 151.775 215.048 151.429C215.395 151.084 215.671 150.672 215.86 150.217C216.048 149.762 216.145 149.274 216.145 148.781H216.291ZM183.378 220.935C183.285 221.907 182.838 222.808 182.125 223.464C181.412 224.12 180.483 224.484 179.52 224.484C178.557 224.484 177.629 224.12 176.916 223.464C176.203 222.808 175.756 221.907 175.662 220.935V213.148H172.005V220.935C172.005 223 172.814 224.98 174.255 226.441C175.695 227.901 177.648 228.721 179.685 228.721C181.725 228.721 183.682 227.902 185.128 226.443C186.574 224.984 187.391 223.003 187.401 220.935V213.148H183.744L183.378 220.935ZM219.948 217.227C219.948 218.26 219.544 219.25 218.823 219.98C218.103 220.71 217.127 221.12 216.108 221.12C215.09 221.12 214.113 220.71 213.393 219.98C212.673 219.25 212.268 218.26 212.268 217.227V213.148H208.246V217.042C208.259 218.748 208.83 220.401 209.869 221.743C210.908 223.084 212.356 224.039 213.987 224.457V228.61H217.644V224.606C219.279 224.189 220.732 223.235 221.777 221.894C222.822 220.553 223.401 218.899 223.422 217.19V213.482H219.765L219.948 217.227ZM206.308 218.97C206.266 220.342 205.748 221.655 204.845 222.678C205.789 223.748 206.31 225.135 206.308 226.571V228.536H202.468V226.571C202.468 226.314 202.417 226.061 202.32 225.824C202.222 225.588 202.078 225.374 201.898 225.194C201.718 225.015 201.504 224.873 201.269 224.779C201.034 224.684 200.782 224.638 200.53 224.643H194.788V228.536H191.131V213.148H200.712C202.207 213.196 203.624 213.83 204.668 214.915C205.711 216.001 206.299 217.454 206.308 218.97ZM202.468 218.97C202.468 218.449 202.264 217.949 201.9 217.58C201.537 217.212 201.044 217.005 200.53 217.005H194.788V220.898H200.53C200.782 220.903 201.034 220.857 201.269 220.762C201.504 220.667 201.718 220.526 201.898 220.346C202.078 220.167 202.222 219.953 202.32 219.716C202.417 219.48 202.468 219.226 202.468 218.97ZM156.354 213.148V228.721H160.193V224.828H167.873V221.12H160.193V217.042H167.873V213.148H156.354Z" fill="white"/>
<path d="M214.077 265.254C211.481 226.851 231.193 204.039 258.199 215.315L214.077 265.254Z" fill="url(#paint0_linear_2_359)"/>
<path d="M214.077 265.254C211.481 226.851 231.193 204.039 258.199 215.315L214.077 265.254Z" fill="url(#paint1_linear_2_359)"/>
<path d="M327.69 203.511L326.693 203.442L326.611 204.612L327.779 204.507L327.69 203.511ZM328.083 197.864L328.004 196.867L327.145 196.935L327.085 197.794L328.083 197.864ZM334.612 197.346L334.691 198.343L335.55 198.275L335.609 197.416L334.612 197.346ZM335.09 190.478L336.087 190.547L336.147 189.688L335.306 189.501L335.09 190.478ZM328.695 189.062L327.698 188.992L327.638 189.852L328.479 190.038L328.695 189.062ZM329.053 183.923L329.279 182.949L328.136 182.684L328.055 183.854L329.053 183.923ZM364.271 192.098L365.269 192.168L365.328 191.317L364.497 191.124L364.271 192.098ZM363.701 200.29L363.79 201.286L364.64 201.21L364.699 200.359L363.701 200.29ZM339.873 191.526L340.09 190.55L338.956 190.299L338.876 191.457L339.873 191.526ZM339.498 196.919L338.501 196.85L338.42 198.008L339.577 197.916L339.498 196.919ZM357.697 195.476L357.776 196.472L357.913 194.499L357.697 195.476ZM328.688 203.58L329.081 197.933L327.085 197.794L326.693 203.442L328.688 203.58ZM328.162 198.861L334.691 198.343L334.533 196.349L328.004 196.867L328.162 198.861ZM335.609 197.416L336.087 190.547L334.092 190.408L333.614 197.277L335.609 197.416ZM335.306 189.501L328.911 188.085L328.479 190.038L334.873 191.454L335.306 189.501ZM329.693 189.131L330.05 183.992L328.055 183.854L327.698 188.992L329.693 189.131ZM328.827 184.897L364.045 193.073L364.497 191.124L329.279 182.949L328.827 184.897ZM363.273 192.029L362.704 200.22L364.699 200.359L365.269 192.168L363.273 192.029ZM363.612 199.294L327.601 202.515L327.779 204.507L363.79 201.286L363.612 199.294ZM338.876 191.457L338.501 196.85L340.496 196.989L340.871 191.596L338.876 191.457ZM339.577 197.916L357.776 196.472L357.618 194.479L339.419 195.923L339.577 197.916ZM357.913 194.499L340.09 190.55L339.657 192.503L357.48 196.452L357.913 194.499Z" fill="#2E0043"/>
<path d="M362.33 214.522L363.308 214.728L363.514 213.75L362.536 213.544L362.33 214.522ZM361.173 220.012L360.967 220.991L361.946 221.197L362.152 220.218L361.173 220.012ZM331.23 213.706L331.436 212.727L330.457 212.521L330.251 213.5L331.23 213.706ZM329.327 222.739L329.121 223.717L330.1 223.924L330.306 222.945L329.327 222.739ZM324.337 221.688L323.358 221.482L323.152 222.46L324.131 222.666L324.337 221.688ZM327.395 207.165L327.601 206.187L326.623 205.981L326.417 206.959L327.395 207.165ZM361.351 214.316L360.195 219.806L362.152 220.218L363.308 214.728L361.351 214.316ZM361.38 219.034L331.436 212.727L331.024 214.684L360.967 220.991L361.38 219.034ZM330.251 213.5L328.349 222.533L330.306 222.945L332.208 213.912L330.251 213.5ZM329.533 221.76L324.543 220.709L324.131 222.666L329.121 223.717L329.533 221.76ZM325.315 221.894L328.374 207.371L326.417 206.959L323.358 221.482L325.315 221.894ZM327.189 208.144L362.124 215.501L362.536 213.544L327.601 206.187L327.189 208.144Z" fill="#2E0043"/>
<path d="M357.161 236.177L358.106 236.504L358.432 235.559L357.487 235.232L357.161 236.177ZM355.329 241.48L355.002 242.425L355.947 242.752L356.274 241.806L355.329 241.48ZM326.406 231.487L326.732 230.542L325.787 230.215L325.46 231.161L326.406 231.487ZM323.391 240.212L323.064 241.157L324.01 241.484L324.336 240.539L323.391 240.212ZM318.571 238.547L317.625 238.22L317.299 239.165L318.244 239.492L318.571 238.547ZM323.417 224.519L323.744 223.574L322.798 223.247L322.472 224.193L323.417 224.519ZM356.215 235.851L354.383 241.153L356.274 241.806L358.106 236.504L356.215 235.851ZM355.655 240.535L326.732 230.542L326.079 232.432L355.002 242.425L355.655 240.535ZM325.46 231.161L322.446 239.886L324.336 240.539L327.351 231.814L325.46 231.161ZM323.718 239.267L318.897 237.602L318.244 239.492L323.064 241.157L323.718 239.267ZM319.516 238.873L324.362 224.846L322.472 224.193L317.625 238.22L319.516 238.873ZM323.091 225.464L356.834 237.123L357.487 235.232L323.744 223.574L323.091 225.464Z" fill="#2E0043"/>
<path d="M329.979 272.368L329.678 273.322L330.519 271.527L329.979 272.368ZM308.215 258.408L307.373 257.868L306.833 258.709L307.675 259.249L308.215 258.408ZM310.941 254.158L311.481 253.316L310.639 252.776L310.099 253.618L310.941 254.158ZM340.991 273.433L341.832 273.973L342.372 273.131L341.531 272.591L340.991 273.433ZM337.191 279.357L336.889 280.31L337.619 280.542L338.032 279.897L337.191 279.357ZM316.092 272.67L316.394 271.717L315.552 273.512L316.092 272.67ZM334.079 284.208L334.921 284.748L335.461 283.906L334.619 283.366L334.079 284.208ZM331.381 288.415L330.841 289.257L331.682 289.797L332.222 288.955L331.381 288.415ZM301.331 269.14L300.489 268.6L299.949 269.442L300.791 269.981L301.331 269.14ZM304.442 264.289L304.744 263.335L304.014 263.104L303.6 263.749L304.442 264.289ZM330.519 271.527L308.754 257.566L307.675 259.249L329.44 273.21L330.519 271.527ZM309.056 258.947L311.782 254.698L310.099 253.618L307.373 257.868L309.056 258.947ZM310.401 254.999L340.451 274.275L341.531 272.591L311.481 253.316L310.401 254.999ZM340.149 272.893L336.349 278.817L338.032 279.897L341.832 273.973L340.149 272.893ZM337.493 278.404L316.394 271.717L315.79 273.624L336.889 280.31L337.493 278.404ZM315.552 273.512L333.539 285.05L334.619 283.366L316.632 271.829L315.552 273.512ZM333.237 283.668L330.539 287.875L332.222 288.955L334.921 284.748L333.237 283.668ZM331.921 287.573L301.87 268.298L300.791 269.981L330.841 289.257L331.921 287.573ZM302.172 269.68L305.284 264.829L303.6 263.749L300.489 268.6L302.172 269.68ZM304.141 265.242L329.678 273.322L330.281 271.415L304.744 263.335L304.141 265.242Z" fill="#2E0043"/>
<path d="M325.928 296.118L326.701 296.753L327.336 295.98L326.563 295.345L325.928 296.118ZM322.369 300.455L321.735 301.228L322.508 301.862L323.142 301.089L322.369 300.455ZM294.773 277.806L294 277.172L293.365 277.945L294.138 278.579L294.773 277.806ZM298.332 273.47L298.966 272.697L298.193 272.062L297.559 272.835L298.332 273.47ZM325.155 295.484L321.596 299.821L323.142 301.089L326.701 296.753L325.155 295.484ZM323.004 299.682L295.407 277.033L294.138 278.579L321.735 301.228L323.004 299.682ZM295.546 278.441L299.105 274.104L297.559 272.835L294 277.172L295.546 278.441ZM297.697 274.243L325.294 296.891L326.563 295.345L298.966 272.697L297.697 274.243Z" fill="#2E0043"/>
<path d="M298.862 302.368L299.561 303.082L300.276 302.383L299.577 301.668L298.862 302.368ZM293.248 307.861L292.533 308.56L293.232 309.275L293.947 308.575L293.248 307.861ZM282.188 293.494L283.188 293.46L283.188 293.459L282.188 293.494ZM291.119 284.756L291.188 283.758L291.176 283.757L291.165 283.757L291.119 284.756ZM313.412 307.539L314.411 307.505L314.411 307.504L313.412 307.539ZM304.481 316.278L304.549 315.28L304.537 315.28L304.526 315.279L304.481 316.278ZM295.887 310.558L295.188 309.843L294.473 310.543L295.173 311.257L295.887 310.558ZM299.679 306.849L300.393 306.149L299.694 305.435L298.979 306.134L299.679 306.849ZM304.827 310.944L304.87 309.945L304.838 309.944L304.806 309.944L304.827 310.944ZM307.853 307.984L306.853 307.973L306.853 307.973L307.853 307.984ZM290.59 290.34L290.601 289.34L290.584 289.34L290.568 289.34L290.59 290.34ZM287.564 293.3L288.563 293.343L288.564 293.327L288.564 293.311L287.564 293.3ZM293.472 300.506L292.758 301.205L293.457 301.92L294.172 301.22L293.472 300.506ZM295.295 298.722L296.01 298.023L295.31 297.308L294.596 298.008L295.295 298.722ZM298.162 301.653L292.549 307.146L293.947 308.575L299.561 303.082L298.162 301.653ZM293.963 307.161L286.044 299.068L284.615 300.467L292.533 308.56L293.963 307.161ZM286.044 299.068C284.133 297.115 283.249 295.248 283.188 293.46L281.189 293.529C281.273 295.973 282.483 298.289 284.615 300.467L286.044 299.068ZM283.188 293.459C283.127 291.756 283.893 290.015 285.73 288.217L284.331 286.788C282.231 288.842 281.102 291.095 281.189 293.53L283.188 293.459ZM285.73 288.217C287.566 286.421 289.34 285.676 291.074 285.755L291.165 283.757C288.717 283.645 286.432 284.732 284.331 286.788L285.73 288.217ZM291.051 285.753C292.817 285.874 294.657 286.811 296.572 288.768L298.001 287.369C295.874 285.195 293.602 283.923 291.188 283.758L291.051 285.753ZM296.572 288.768L309.555 302.037L310.984 300.639L298.001 287.369L296.572 288.768ZM309.555 302.037C311.471 303.996 312.351 305.839 312.413 307.575L314.411 307.504C314.326 305.102 313.111 302.812 310.984 300.639L309.555 302.037ZM312.412 307.574C312.473 309.331 311.701 311.097 309.869 312.889L311.268 314.318C313.374 312.258 314.497 309.981 314.411 307.505L312.412 307.574ZM309.869 312.889C308.037 314.682 306.272 315.398 304.549 315.28L304.412 317.276C306.87 317.444 309.164 316.377 311.268 314.318L309.869 312.889ZM304.526 315.279C302.771 315.199 300.94 314.292 299.028 312.338L297.598 313.736C299.728 315.914 302.009 317.167 304.435 317.277L304.526 315.279ZM299.028 312.338L296.602 309.859L295.173 311.257L297.598 313.736L299.028 312.338ZM296.587 311.273L300.378 307.563L298.979 306.134L295.188 309.843L296.587 311.273ZM298.964 307.548L301.639 310.282L303.068 308.883L300.393 306.149L298.964 307.548ZM301.639 310.282C302.603 311.267 303.682 311.969 304.849 311.944L304.806 309.944C304.482 309.951 303.912 309.745 303.068 308.883L301.639 310.282ZM304.784 311.943C305.856 311.989 306.802 311.552 307.592 310.78L306.193 309.35C305.719 309.814 305.288 309.963 304.87 309.945L304.784 311.943ZM307.592 310.78C308.383 310.006 308.841 309.069 308.853 307.995L306.853 307.973C306.848 308.437 306.666 308.887 306.193 309.35L307.592 310.78ZM308.853 307.995C308.865 306.864 308.179 305.793 307.224 304.817L305.795 306.216C306.647 307.087 306.856 307.661 306.853 307.973L308.853 307.995ZM307.224 304.817L293.742 291.038L292.312 292.436L305.795 306.216L307.224 304.817ZM293.742 291.038C292.787 290.062 291.732 289.352 290.601 289.34L290.579 291.34C290.89 291.343 291.46 291.565 292.312 292.436L293.742 291.038ZM290.568 289.34C289.523 289.362 288.602 289.816 287.824 290.576L289.223 292.006C289.709 291.53 290.166 291.349 290.611 291.34L290.568 289.34ZM287.824 290.576C287.048 291.336 286.575 292.246 286.564 293.289L288.564 293.311C288.568 292.913 288.735 292.483 289.223 292.006L287.824 290.576ZM286.565 293.257C286.515 294.423 287.192 295.517 288.156 296.502L289.586 295.104C288.743 294.242 288.549 293.667 288.563 293.343L286.565 293.257ZM288.156 296.502L292.758 301.205L294.187 299.806L289.586 295.104L288.156 296.502ZM294.172 301.22L295.994 299.437L294.596 298.008L292.773 299.791L294.172 301.22ZM294.58 299.422L298.147 303.067L299.577 301.668L296.01 298.023L294.58 299.422Z" fill="#2E0043"/>
<path d="M272.46 299.77L271.872 298.962L271.063 299.55L271.651 300.359L272.46 299.77ZM276.997 296.47L277.805 295.882L277.217 295.073L276.409 295.662L276.997 296.47ZM297.998 325.341L298.586 326.149L299.395 325.561L298.806 324.752L297.998 325.341ZM293.461 328.641L292.652 329.229L293.24 330.038L294.049 329.449L293.461 328.641ZM284.461 316.268L285.269 315.68L284.681 314.871L283.872 315.459L284.461 316.268ZM279.305 320.018L278.717 319.209L277.908 319.797L278.496 320.606L279.305 320.018ZM288.305 332.391L288.894 333.2L289.702 332.611L289.114 331.803L288.305 332.391ZM283.686 335.751L282.878 336.339L283.466 337.148L284.274 336.56L283.686 335.751ZM262.685 306.881L262.097 306.072L261.288 306.66L261.877 307.469L262.685 306.881ZM267.305 303.521L268.113 302.932L267.525 302.124L266.716 302.712L267.305 303.521ZM276.305 315.894L275.496 316.482L276.085 317.29L276.893 316.702L276.305 315.894ZM281.46 312.143L282.049 312.952L282.857 312.364L282.269 311.555L281.46 312.143ZM273.048 300.579L277.585 297.279L276.409 295.662L271.872 298.962L273.048 300.579ZM276.188 297.058L297.189 325.929L298.806 324.752L277.805 295.882L276.188 297.058ZM297.409 324.532L292.873 327.832L294.049 329.449L298.586 326.149L297.409 324.532ZM294.27 328.053L285.269 315.68L283.652 316.856L292.652 329.229L294.27 328.053ZM283.872 315.459L278.717 319.209L279.893 320.827L285.049 317.076L283.872 315.459ZM278.496 320.606L287.497 332.979L289.114 331.803L280.114 319.43L278.496 320.606ZM287.717 331.582L283.098 334.942L284.274 336.56L288.894 333.2L287.717 331.582ZM284.495 335.163L263.494 306.292L261.877 307.469L282.878 336.339L284.495 335.163ZM263.274 307.689L267.893 304.329L266.716 302.712L262.097 306.072L263.274 307.689ZM266.496 304.109L275.496 316.482L277.114 315.305L268.113 302.932L266.496 304.109ZM276.893 316.702L282.049 312.952L280.872 311.335L275.717 315.085L276.893 316.702ZM282.269 311.555L273.269 299.182L271.651 300.359L280.652 312.732L282.269 311.555Z" fill="#2E0043"/>
<path d="M276.476 340.205L276.942 341.089L277.827 340.622L277.36 339.738L276.476 340.205ZM261.14 348.298L260.256 348.765L260.723 349.649L261.607 349.183L261.14 348.298ZM258.76 343.788L258.293 342.903L257.409 343.37L257.875 344.255L258.76 343.788ZM263.947 341.05L264.413 341.935L265.298 341.468L264.831 340.583L263.947 341.05ZM249.664 313.988L249.197 313.103L248.313 313.57L248.779 314.454L249.664 313.988ZM254.625 311.369L255.51 310.902L255.043 310.018L254.158 310.485L254.625 311.369ZM268.908 338.432L268.024 338.898L268.491 339.783L269.375 339.316L268.908 338.432ZM274.095 335.694L274.98 335.227L274.513 334.343L273.628 334.81L274.095 335.694ZM276.009 339.32L260.673 347.414L261.607 349.183L276.942 341.089L276.009 339.32ZM262.025 347.832L259.644 343.321L257.875 344.255L260.256 348.765L262.025 347.832ZM259.226 344.672L264.413 341.935L263.48 340.166L258.293 342.903L259.226 344.672ZM264.831 340.583L250.548 313.521L248.779 314.454L263.062 341.517L264.831 340.583ZM250.13 314.872L255.092 312.253L254.158 310.485L249.197 313.103L250.13 314.872ZM253.741 311.836L268.024 338.898L269.793 337.965L255.51 310.902L253.741 311.836ZM269.375 339.316L274.562 336.579L273.628 334.81L268.441 337.547L269.375 339.316ZM273.211 336.161L275.591 340.671L277.36 339.738L274.98 335.227L273.211 336.161Z" fill="#2E0043"/>
<path d="M222.062 331.145L222.985 330.76L221.067 331.249L222.062 331.145ZM225.1 360.423L225.347 361.392L226.184 361.179L226.095 360.32L225.1 360.423ZM220.108 361.695L219.113 361.791L219.225 362.952L220.355 362.664L220.108 361.695ZM216.632 325.739L216.385 324.77L215.554 324.982L215.637 325.836L216.632 325.739ZM224.738 323.674L225.658 323.283L225.322 322.494L224.491 322.705L224.738 323.674ZM238.889 356.91L239.136 357.879L240.266 357.592L239.809 356.519L238.889 356.91ZM233.403 358.308L232.48 358.693L232.813 359.49L233.65 359.277L233.403 358.308ZM221.067 331.249L224.105 360.526L226.095 360.32L223.057 331.042L221.067 331.249ZM224.853 359.454L219.861 360.726L220.355 362.664L225.347 361.392L224.853 359.454ZM221.104 361.599L217.628 325.643L215.637 325.836L219.113 361.791L221.104 361.599ZM216.879 326.708L224.984 324.644L224.491 322.705L216.385 324.77L216.879 326.708ZM223.817 324.066L237.969 357.302L239.809 356.519L225.658 323.283L223.817 324.066ZM238.642 355.941L233.156 357.339L233.65 359.277L239.136 357.879L238.642 355.941ZM234.326 357.923L222.985 330.76L221.139 331.531L232.48 358.693L234.326 357.923Z" fill="#2E0043"/>
<path d="M189.102 330.212L189.002 329.217L187.835 329.334L188.135 330.468L189.102 330.212ZM194.735 329.645L195.704 329.399L195.492 328.564L194.635 328.65L194.735 329.645ZM196.347 335.993L195.378 336.239L195.59 337.074L196.447 336.988L196.347 335.993ZM203.198 335.304L203.298 336.299L204.155 336.213L204.196 335.352L203.198 335.304ZM203.514 328.762L203.413 327.767L202.556 327.854L202.515 328.714L203.514 328.762ZM208.639 328.247L209.637 328.305L209.706 327.135L208.539 327.252L208.639 328.247ZM206.528 364.34L206.628 365.335L207.477 365.25L207.527 364.398L206.528 364.34ZM198.358 365.162L197.392 365.418L197.61 366.242L198.458 366.157L198.358 365.162ZM202.972 340.196L203.971 340.245L204.027 339.085L202.872 339.201L202.972 340.196ZM197.593 340.737L197.493 339.742L196.338 339.858L196.624 340.984L197.593 340.737ZM202.089 358.43L201.12 358.677L203.088 358.479L202.089 358.43ZM189.202 331.207L194.835 330.64L194.635 328.65L189.002 329.217L189.202 331.207ZM193.765 329.892L195.378 336.239L197.316 335.747L195.704 329.399L193.765 329.892ZM196.447 336.988L203.298 336.299L203.098 334.309L196.247 334.998L196.447 336.988ZM204.196 335.352L204.512 328.811L202.515 328.714L202.199 335.256L204.196 335.352ZM203.614 329.757L208.739 329.242L208.539 327.252L203.413 327.767L203.614 329.757ZM207.641 328.189L205.53 364.282L207.527 364.398L209.637 328.305L207.641 328.189ZM206.428 363.345L198.258 364.167L198.458 366.157L206.628 365.335L206.428 363.345ZM199.325 364.906L190.069 329.956L188.135 330.468L197.392 365.418L199.325 364.906ZM202.872 339.201L197.493 339.742L197.693 341.732L203.072 341.191L202.872 339.201ZM196.624 340.984L201.12 358.677L203.059 358.184L198.562 340.491L196.624 340.984ZM203.088 358.479L203.971 340.245L201.973 340.148L201.091 358.382L203.088 358.479Z" fill="#2E0043"/>
<path d="M168.653 362.694L169.423 362.056L169.415 362.047L168.653 362.694ZM169.477 344.914L170.176 345.629L170.185 345.62L169.477 344.914ZM178.496 343.085L178.45 344.084L179.449 344.131L179.495 343.132L178.496 343.085ZM179.117 329.687L179.163 328.688L178.164 328.641L178.118 329.64L179.117 329.687ZM184.721 329.946L185.72 329.993L185.766 328.994L184.768 328.947L184.721 329.946ZM183.069 365.609L183.022 366.608L184.021 366.654L184.068 365.655L183.069 365.609ZM177.701 360.254L177.654 361.253L178.653 361.3L178.7 360.301L177.701 360.254ZM178.26 348.18L179.259 348.226L179.305 347.227L178.306 347.181L178.26 348.18ZM173.54 348.676L172.866 347.937L173.54 348.676ZM173.047 359.324L172.307 359.998L173.047 359.324ZM174.862 364.227C172.209 364.104 170.471 363.322 169.423 362.057L167.882 363.332C169.414 365.181 171.783 366.087 174.769 366.225L174.862 364.227ZM169.415 362.047C168.313 360.748 167.741 358.81 167.867 356.072L165.87 355.979C165.729 359.014 166.346 361.522 167.89 363.341L169.415 362.047ZM167.867 356.072L168.082 351.436L166.084 351.343L165.87 355.979L167.867 356.072ZM168.082 351.436C168.209 348.697 168.958 346.82 170.176 345.629L168.777 344.199C167.072 345.868 166.225 348.308 166.084 351.343L168.082 351.436ZM170.185 345.62C171.345 344.457 173.148 343.839 175.801 343.962L175.893 341.964C172.908 341.825 170.464 342.508 168.769 344.208L170.185 345.62ZM175.801 343.962L178.45 344.084L178.543 342.087L175.893 341.964L175.801 343.962ZM179.495 343.132L180.116 329.733L178.118 329.64L177.497 343.039L179.495 343.132ZM179.071 330.686L184.675 330.945L184.768 328.947L179.163 328.688L179.071 330.686ZM183.722 329.9L182.07 365.562L184.068 365.655L185.72 329.993L183.722 329.9ZM183.115 364.61L174.862 364.227L174.769 366.225L183.022 366.608L183.115 364.61ZM178.7 360.301L179.259 348.226L177.261 348.134L176.702 360.208L178.7 360.301ZM178.306 347.181L175.657 347.058L175.565 349.056L178.214 349.179L178.306 347.181ZM175.657 347.058C174.595 347.009 173.616 347.254 172.866 347.937L174.214 349.415C174.459 349.191 174.86 349.024 175.565 349.056L175.657 347.058ZM172.866 347.937C172.057 348.675 171.767 349.906 171.705 351.246L173.703 351.339C173.76 350.097 174.028 349.584 174.214 349.415L172.866 347.937ZM171.705 351.246L171.457 356.595L173.455 356.688L173.703 351.339L171.705 351.246ZM171.457 356.595C171.395 357.935 171.569 359.188 172.307 359.998L173.786 358.65C173.617 358.465 173.397 357.929 173.455 356.688L171.457 356.595ZM172.307 359.998C172.99 360.747 173.943 361.081 175.005 361.131L175.098 359.133C174.393 359.1 174.01 358.896 173.786 358.65L172.307 359.998ZM175.005 361.131L177.654 361.253L177.747 359.255L175.098 359.133L175.005 361.131Z" fill="#2E0043"/>
<path d="M155.664 347.546L156.647 347.729L156.831 346.746L155.848 346.563L155.664 347.546ZM148.094 346.132L147.111 345.948L146.928 346.931L147.911 347.115L148.094 346.132ZM149.031 341.118L149.214 340.135L148.231 339.952L148.048 340.935L149.031 341.118ZM156.601 342.532L156.417 343.515L157.4 343.699L157.584 342.716L156.601 342.532ZM158.52 332.255L159.503 332.438L159.687 331.455L158.704 331.272L158.52 332.255ZM148.995 330.476L148.012 330.292L147.828 331.275L148.811 331.459L148.995 330.476ZM149.931 325.462L150.115 324.479L149.132 324.296L148.948 325.279L149.931 325.462ZM164.972 328.271L165.955 328.455L166.138 327.472L165.155 327.288L164.972 328.271ZM158.417 363.365L158.233 364.348L159.216 364.532L159.4 363.549L158.417 363.365ZM143.377 360.556L142.394 360.372L142.21 361.355L143.193 361.539L143.377 360.556ZM144.313 355.543L144.497 354.56L143.514 354.376L143.33 355.359L144.313 355.543ZM153.838 357.322L153.655 358.305L154.638 358.488L154.821 357.505L153.838 357.322ZM155.848 346.563L148.278 345.149L147.911 347.115L155.481 348.529L155.848 346.563ZM149.077 346.315L150.014 341.302L148.048 340.935L147.111 345.948L149.077 346.315ZM148.847 342.101L156.417 343.515L156.784 341.549L149.214 340.135L148.847 342.101ZM157.584 342.716L159.503 332.438L157.537 332.071L155.618 342.349L157.584 342.716ZM158.704 331.272L149.179 329.493L148.811 331.459L158.337 333.238L158.704 331.272ZM149.978 330.659L150.914 325.646L148.948 325.279L148.012 330.292L149.978 330.659ZM149.748 326.445L164.788 329.254L165.155 327.288L150.115 324.479L149.748 326.445ZM163.989 328.088L157.434 363.182L159.4 363.549L165.955 328.455L163.989 328.088ZM158.6 362.382L143.56 359.573L143.193 361.539L158.233 364.348L158.6 362.382ZM144.36 360.74L145.296 355.726L143.33 355.359L142.394 360.372L144.36 360.74ZM144.129 356.526L153.655 358.305L154.022 356.339L144.497 354.56L144.129 356.526ZM154.821 357.505L156.647 347.729L154.681 347.362L152.855 357.138L154.821 357.505Z" fill="#2E0043"/>
<path d="M128.813 341.656L128.14 340.916L128.135 340.921L128.13 340.925L128.813 341.656ZM126.549 343.105L126.907 344.038L126.907 344.038L126.549 343.105ZM123.877 343.59L123.858 344.59L123.865 344.59L123.872 344.59L123.877 343.59ZM118.798 341.329L119.538 340.657L119.533 340.651L119.528 340.646L118.798 341.329ZM117.37 339.019L118.313 338.686L118.304 338.66L118.293 338.635L117.37 339.019ZM116.885 336.346L117.885 336.365L117.885 336.358L117.885 336.351L116.885 336.346ZM119.145 331.268L118.473 330.528L118.468 330.532L118.462 330.537L119.145 331.268ZM121.456 329.84L121.814 330.773L121.814 330.773L121.456 329.84ZM124.107 329.401L124.089 330.401L124.096 330.401L124.103 330.401L124.107 329.401ZM129.186 331.662L129.926 330.989L129.921 330.984L129.916 330.979L129.186 331.662ZM130.635 333.926L131.578 333.593L131.569 333.567L131.558 333.542L130.635 333.926ZM131.073 336.577L132.073 336.596L132.073 336.589L132.073 336.582L131.073 336.577ZM129.532 338.961C129.183 339.743 128.719 340.39 128.14 340.916L129.485 342.396C130.281 341.673 130.905 340.794 131.359 339.775L129.532 338.961ZM128.13 340.925C127.512 341.503 126.866 341.912 126.19 342.171L126.907 344.038C127.848 343.677 128.711 343.12 129.496 342.386L128.13 340.925ZM126.19 342.171C125.455 342.453 124.688 342.593 123.881 342.59L123.872 344.59C124.923 344.594 125.937 344.411 126.907 344.038L126.19 342.171ZM123.895 342.59C123.073 342.575 122.274 342.396 121.492 342.048L120.679 343.875C121.699 344.329 122.761 344.569 123.858 344.59L123.895 342.59ZM121.492 342.048C120.71 341.7 120.064 341.235 119.538 340.657L118.058 342.002C118.781 342.798 119.66 343.421 120.679 343.875L121.492 342.048ZM119.528 340.646C118.959 340.038 118.56 339.385 118.313 338.686L116.427 339.352C116.773 340.331 117.325 341.218 118.067 342.012L119.528 340.646ZM118.293 338.635C118.009 337.951 117.869 337.198 117.885 336.365L115.885 336.328C115.865 337.414 116.048 338.443 116.446 339.402L118.293 338.635ZM117.885 336.351C117.888 335.569 118.058 334.791 118.406 334.009L116.579 333.196C116.125 334.215 115.889 335.266 115.885 336.342L117.885 336.351ZM118.406 334.009C118.754 333.227 119.228 332.56 119.828 331.998L118.462 330.537C117.661 331.287 117.032 332.176 116.579 333.196L118.406 334.009ZM119.818 332.008C120.415 331.465 121.079 331.056 121.814 330.773L121.097 328.906C120.127 329.279 119.25 329.821 118.473 330.528L119.818 332.008ZM121.814 330.773C122.489 330.514 123.244 330.385 124.089 330.401L124.126 328.401C123.051 328.381 122.038 328.545 121.097 328.906L121.814 330.773ZM124.103 330.401C124.885 330.405 125.663 330.574 126.445 330.922L127.258 329.095C126.239 328.641 125.187 328.406 124.112 328.401L124.103 330.401ZM126.445 330.922C127.227 331.27 127.894 331.744 128.455 332.345L129.916 330.979C129.167 330.177 128.278 329.549 127.258 329.095L126.445 330.922ZM128.446 332.334C128.996 332.94 129.416 333.598 129.711 334.309L131.558 333.542C131.171 332.61 130.624 331.758 129.926 330.989L128.446 332.334ZM129.692 334.259C129.948 334.985 130.077 335.754 130.073 336.573L132.073 336.582C132.078 335.543 131.914 334.545 131.578 333.593L129.692 334.259ZM130.073 336.559C130.058 337.381 129.88 338.179 129.532 338.961L131.359 339.775C131.813 338.755 132.053 337.693 132.073 336.596L130.073 336.559Z" fill="#2E0043"/>
<path d="M97.5168 302.11L98.0567 301.269L97.0696 300.635L96.6004 301.71L97.5168 302.11ZM102.282 305.167L103.194 305.576L103.547 304.79L102.822 304.325L102.282 305.167ZM99.6005 311.142L98.6881 310.732L98.3354 311.518L99.0606 311.984L99.6005 311.142ZM105.396 314.859L104.856 315.701L105.581 316.166L106.148 315.518L105.396 314.859ZM109.709 309.931L110.248 309.089L109.523 308.624L108.956 309.272L109.709 309.931ZM114.044 312.712L114.79 313.378L115.571 312.503L114.584 311.87L114.044 312.712ZM89.9612 339.678L89.4213 340.519L90.139 340.98L90.707 340.344L89.9612 339.678ZM83.0497 335.244L82.1332 334.844L81.792 335.626L82.5098 336.086L83.0497 335.244ZM102.179 318.552L102.931 319.211L103.696 318.337L102.719 317.71L102.179 318.552ZM97.6285 315.633L98.1684 314.791L97.1913 314.165L96.7161 315.224L97.6285 315.633ZM90.156 332.289L89.2436 331.88L90.9085 332.948L90.156 332.289ZM96.9769 302.952L101.742 306.009L102.822 304.325L98.0567 301.269L96.9769 302.952ZM101.37 304.757L98.6881 310.732L100.513 311.551L103.194 305.576L101.37 304.757ZM99.0606 311.984L104.856 315.701L105.936 314.018L100.14 310.3L99.0606 311.984ZM106.148 315.518L110.461 310.589L108.956 309.272L104.643 314.201L106.148 315.518ZM109.169 310.772L113.504 313.553L114.584 311.87L110.248 309.089L109.169 310.772ZM113.299 312.046L89.2153 339.012L90.707 340.344L114.79 313.378L113.299 312.046ZM90.5011 338.836L83.5896 334.403L82.5098 336.086L89.4213 340.519L90.5011 338.836ZM83.9661 335.645L98.4333 302.51L96.6004 301.71L82.1332 334.844L83.9661 335.645ZM102.719 317.71L98.1684 314.791L97.0886 316.475L101.639 319.394L102.719 317.71ZM96.7161 315.224L89.2436 331.88L91.0684 332.699L98.5409 316.043L96.7161 315.224ZM90.9085 332.948L102.931 319.211L101.426 317.893L89.4035 331.631L90.9085 332.948Z" fill="#2E0043"/>
<path d="M71.9376 326.927L71.2893 327.688L72.0506 328.336L72.699 327.575L71.9376 326.927ZM67.6665 323.289L66.9051 322.641L66.2568 323.402L67.0181 324.051L67.6665 323.289ZM87.5067 299.992L88.268 300.641L88.9164 299.879L88.1551 299.231L87.5067 299.992ZM80.4787 294.007L79.7174 293.359L79.069 294.12L79.8304 294.768L80.4787 294.007ZM83.7854 290.124L84.4338 289.363L83.6724 288.714L83.0241 289.476L83.7854 290.124ZM95.0846 299.747L95.8459 300.395L96.4943 299.634L95.7329 298.985L95.0846 299.747ZM72.586 326.165L68.3148 322.528L67.0181 324.051L71.2893 327.688L72.586 326.165ZM68.4278 323.938L88.268 300.641L86.7454 299.344L66.9051 322.641L68.4278 323.938ZM88.1551 299.231L81.1271 293.246L79.8304 294.768L86.8584 300.753L88.1551 299.231ZM81.24 294.655L84.5468 290.773L83.0241 289.476L79.7174 293.359L81.24 294.655ZM83.1371 290.885L94.4362 300.508L95.7329 298.985L84.4338 289.363L83.1371 290.885ZM94.3232 299.098L71.1763 326.278L72.699 327.575L95.8459 300.395L94.3232 299.098Z" fill="#2E0043"/>
<path d="M55.3169 311.943L54.5797 312.618L55.2553 313.355L55.9925 312.68L55.3169 311.943ZM51.5267 307.806L50.851 307.069L50.1138 307.745L50.7894 308.482L51.5267 307.806ZM74.0872 287.132L74.7628 287.87L75.5001 287.194L74.8245 286.457L74.0872 287.132ZM67.8505 280.327L67.1749 279.589L66.4376 280.265L67.1132 281.002L67.8505 280.327ZM71.6106 276.881L72.3478 276.205L71.6722 275.468L70.935 276.144L71.6106 276.881ZM81.6375 287.823L82.3131 288.56L83.0504 287.884L82.3748 287.147L81.6375 287.823ZM56.0542 311.267L52.2639 307.131L50.7894 308.482L54.5797 312.618L56.0542 311.267ZM52.2023 308.544L74.7628 287.87L73.4116 286.395L50.851 307.069L52.2023 308.544ZM74.8245 286.457L68.5878 279.651L67.1132 281.002L73.3499 287.808L74.8245 286.457ZM68.5261 281.064L72.2862 277.618L70.935 276.144L67.1749 279.589L68.5261 281.064ZM70.8733 277.556L80.9003 288.498L82.3748 287.147L72.3478 276.205L70.8733 277.556ZM80.9619 287.085L54.6413 311.205L55.9925 312.68L82.3131 288.56L80.9619 287.085Z" fill="#2E0043"/>
<path d="M36.1881 271.946L35.4908 271.229L36.6744 272.82L36.1881 271.946ZM58.783 259.373L59.6569 258.886L59.1706 258.013L58.2968 258.499L58.783 259.373ZM61.2381 263.785L61.7244 264.658L62.5982 264.172L62.1119 263.298L61.2381 263.785ZM30.042 281.144L29.1682 281.63L29.6545 282.504L30.5283 282.018L30.042 281.144ZM26.6198 274.994L25.9228 274.277L25.3735 274.811L25.746 275.48L26.6198 274.994ZM42.4906 259.567L43.1876 260.284L42.0044 258.693L42.4906 259.567ZM23.8175 269.958L22.9437 270.444L23.4299 271.318L24.3038 270.832L23.8175 269.958ZM21.3872 265.59L20.901 264.717L20.0271 265.203L20.5134 266.077L21.3872 265.59ZM52.5833 248.231L53.4571 247.745L52.9709 246.871L52.0971 247.357L52.5833 248.231ZM55.3856 253.267L56.0829 253.984L56.6317 253.45L56.2594 252.781L55.3856 253.267ZM36.6744 272.82L59.2693 260.246L58.2968 258.499L35.7019 271.072L36.6744 272.82ZM57.9092 259.859L60.3643 264.271L62.1119 263.298L59.6569 258.886L57.9092 259.859ZM60.7519 262.911L29.5558 280.27L30.5283 282.018L61.7244 264.658L60.7519 262.911ZM30.9159 280.658L27.4936 274.508L25.746 275.48L29.1682 281.63L30.9159 280.658ZM27.3168 275.711L43.1876 260.284L41.7936 258.85L25.9228 274.277L27.3168 275.711ZM42.0044 258.693L23.3313 269.084L24.3038 270.832L42.9768 260.441L42.0044 258.693ZM24.6913 269.472L22.261 265.104L20.5134 266.077L22.9437 270.444L24.6913 269.472ZM21.8735 266.464L53.0695 249.105L52.0971 247.357L20.901 264.717L21.8735 266.464ZM51.7095 248.717L54.5118 253.753L56.2594 252.781L53.4571 247.745L51.7095 248.717ZM54.6882 252.55L35.4908 271.229L36.8855 272.662L56.0829 253.984L54.6882 252.55Z" fill="#2E0043"/>
<path d="M17.354 256.24L16.4287 256.62L16.8079 257.545L17.7332 257.166L17.354 256.24ZM15.2266 251.049L14.8474 250.124L13.9221 250.503L14.3013 251.429L15.2266 251.049ZM48.261 237.512L49.1863 237.132L48.8071 236.207L47.8818 236.586L48.261 237.512ZM50.3883 242.703L50.7675 243.628L51.6928 243.249L51.3136 242.323L50.3883 242.703ZM18.2793 255.861L16.1519 250.67L14.3013 251.429L16.4287 256.62L18.2793 255.861ZM15.6058 251.975L48.6402 238.437L47.8818 236.586L14.8474 250.124L15.6058 251.975ZM47.3357 237.891L49.463 243.082L51.3136 242.323L49.1863 237.132L47.3357 237.891ZM50.0091 241.777L16.9748 255.315L17.7332 257.166L50.7675 243.628L50.0091 241.777Z" fill="#2E0043"/>
<path d="M24.518 230.95L23.5569 231.226L23.8331 232.187L24.7942 231.911L24.518 230.95ZM22.349 223.401L22.0728 222.44L21.1117 222.717L21.3879 223.678L22.349 223.401ZM40.2438 220.488L39.7997 221.384L39.8006 221.385L40.2438 220.488ZM43.6945 232.498L44.5401 233.031L44.5463 233.022L44.5522 233.012L43.6945 232.498ZM13.0585 241.301L12.6144 242.197L12.6153 242.197L13.0585 241.301ZM9.60777 229.291L10.4534 229.825L10.4595 229.815L10.4654 229.805L9.60777 229.291ZM18.7217 224.444L19.6828 224.168L19.4067 223.206L18.4455 223.483L18.7217 224.444ZM20.1865 229.542L20.4627 230.503L21.4238 230.227L21.1476 229.265L20.1865 229.542ZM14.1376 232.129L14.9964 232.641L15.0129 232.613L15.0276 232.585L14.1376 232.129ZM15.3066 236.197L15.7909 235.322L15.7909 235.322L15.3066 236.197ZM39.0311 229.38L39.906 229.865L39.9138 229.85L39.9212 229.836L39.0311 229.38ZM37.8621 225.312L37.3498 226.171L37.3637 226.179L37.3778 226.187L37.8621 225.312ZM28.7156 227.091L28.4394 226.13L27.4783 226.406L27.7544 227.367L28.7156 227.091ZM29.4198 229.542L29.6959 230.503L30.6571 230.227L30.3809 229.266L29.4198 229.542ZM25.4791 230.674L23.3101 223.125L21.3879 223.678L23.5569 231.226L25.4791 230.674ZM22.6252 224.363L33.5071 221.236L32.9548 219.314L22.0728 222.44L22.6252 224.363ZM33.5071 221.236C36.1333 220.481 38.1962 220.59 39.7997 221.384L40.6879 219.592C38.4962 218.506 35.8839 218.472 32.9548 219.314L33.5071 221.236ZM39.8006 221.385C41.328 222.14 42.497 223.641 43.2068 226.111L45.129 225.559C44.3177 222.735 42.8706 220.671 40.6869 219.592L39.8006 221.385ZM43.2068 226.111C43.9162 228.58 43.7292 230.495 42.8368 231.984L44.5522 233.012C45.8121 230.91 45.9407 228.384 45.129 225.559L43.2068 226.111ZM42.8488 231.964C41.9041 233.461 40.2061 234.635 37.5745 235.391L38.1268 237.314C41.0505 236.474 43.2484 235.078 44.5401 233.031L42.8488 231.964ZM37.5745 235.391L19.7321 240.518L20.2844 242.44L38.1268 237.314L37.5745 235.391ZM19.7321 240.518C17.0988 241.275 15.0587 241.174 13.5016 240.404L12.6153 242.197C14.7693 243.262 17.3623 243.28 20.2844 242.44L19.7321 240.518ZM13.5026 240.405C11.927 239.624 10.74 238.106 10.0324 235.643L8.11016 236.195C8.92367 239.027 10.3949 241.096 12.6144 242.197L13.5026 240.405ZM10.0324 235.643C9.32437 233.179 9.53159 231.286 10.4534 229.825L8.76211 228.757C7.44748 230.84 7.29704 233.366 8.11016 236.195L10.0324 235.643ZM10.4654 229.805C11.3687 228.299 13.0368 227.118 15.6647 226.363L15.1123 224.44C12.1848 225.282 9.99917 226.694 8.75009 228.777L10.4654 229.805ZM15.6647 226.363L18.9979 225.405L18.4455 223.483L15.1123 224.44L15.6647 226.363ZM17.7606 224.72L19.2254 229.818L21.1476 229.265L19.6828 224.168L17.7606 224.72ZM19.9103 228.58L16.234 229.637L16.7863 231.559L20.4627 230.503L19.9103 228.58ZM16.234 229.637C14.9092 230.017 13.7797 230.634 13.2475 231.673L15.0276 232.585C15.1754 232.296 15.6276 231.892 16.7863 231.559L16.234 229.637ZM13.2788 231.616C12.729 232.538 12.6646 233.578 12.9697 234.64L14.8919 234.088C14.7087 233.45 14.7822 233 14.9964 232.641L13.2788 231.616ZM12.9697 234.64C13.2752 235.703 13.8822 236.552 14.8223 237.072L15.7909 235.322C15.3849 235.097 15.0746 234.724 14.8919 234.088L12.9697 234.64ZM14.8223 237.072C15.8118 237.62 17.0799 237.524 18.392 237.147L17.8396 235.225C16.6681 235.561 16.0635 235.473 15.7909 235.322L14.8223 237.072ZM18.392 237.147L36.9206 231.823L36.3683 229.901L17.8396 235.225L18.392 237.147ZM36.9206 231.823C38.2327 231.446 39.3582 230.854 39.906 229.865L38.1563 228.896C38.0054 229.168 37.5398 229.564 36.3683 229.901L36.9206 231.823ZM39.9212 229.836C40.3979 228.905 40.4364 227.88 40.136 226.834L38.2137 227.386C38.4016 228.04 38.3442 228.528 38.1411 228.924L39.9212 229.836ZM40.136 226.834C39.8362 225.791 39.2598 224.943 38.3465 224.437L37.3778 226.187C37.7265 226.38 38.0253 226.73 38.2137 227.386L40.136 226.834ZM38.3744 224.453C37.3719 223.855 36.0874 223.932 34.7627 224.313L35.315 226.235C36.4738 225.902 37.0715 226.005 37.3498 226.171L38.3744 224.453ZM34.7627 224.313L28.4394 226.13L28.9917 228.052L35.315 226.235L34.7627 224.313ZM27.7544 227.367L28.4587 229.818L30.3809 229.266L29.6767 226.815L27.7544 227.367ZM29.1436 228.581L24.2419 229.989L24.7942 231.911L29.6959 230.503L29.1436 228.581Z" fill="#2E0043"/>
<path d="M39.6751 208.452L40.6665 208.321L40.5359 207.33L39.5445 207.46L39.6751 208.452ZM40.4079 214.014L40.5386 215.005L41.53 214.875L41.3994 213.883L40.4079 214.014ZM5.01313 218.677L4.0217 218.808L4.15232 219.799L5.14376 219.669L5.01313 218.677ZM4.28031 213.115L4.14969 212.124L3.15826 212.254L3.28888 213.246L4.28031 213.115ZM19.4495 211.116L19.5801 212.108L20.5716 211.977L20.4409 210.986L19.4495 211.116ZM18.6168 204.796L19.6082 204.665L19.4776 203.674L18.4861 203.805L18.6168 204.796ZM3.44757 206.795L2.45613 206.925L2.58676 207.917L3.57819 207.786L3.44757 206.795ZM2.70142 201.131L2.5708 200.14L1.57937 200.271L1.70999 201.262L2.70142 201.131ZM38.0962 196.468L39.0877 196.337L38.957 195.346L37.9656 195.477L38.0962 196.468ZM38.8424 202.131L38.973 203.123L39.9644 202.992L39.8338 202.001L38.8424 202.131ZM23.6732 204.13L23.5425 203.138L22.5511 203.269L22.6817 204.26L23.6732 204.13ZM24.5059 210.45L23.5145 210.581L23.6451 211.572L24.6365 211.442L24.5059 210.45ZM38.6837 208.582L39.4165 214.144L41.3994 213.883L40.6665 208.321L38.6837 208.582ZM40.2773 213.022L4.88251 217.686L5.14376 219.669L40.5386 215.005L40.2773 213.022ZM6.00456 218.546L5.27175 212.984L3.28888 213.246L4.0217 218.808L6.00456 218.546ZM4.41094 214.106L19.5801 212.108L19.3189 210.125L4.14969 212.124L4.41094 214.106ZM20.4409 210.986L19.6082 204.665L17.6253 204.927L18.4581 211.247L20.4409 210.986ZM18.4861 203.805L3.31694 205.803L3.57819 207.786L18.7474 205.787L18.4861 203.805ZM4.439 206.664L3.69286 201.001L1.70999 201.262L2.45613 206.925L4.439 206.664ZM2.83205 202.123L38.2269 197.459L37.9656 195.477L2.5708 200.14L2.83205 202.123ZM37.1048 196.599L37.8509 202.262L39.8338 202.001L39.0877 196.337L37.1048 196.599ZM38.7117 201.14L23.5425 203.138L23.8038 205.121L38.973 203.123L38.7117 201.14ZM22.6817 204.26L23.5145 210.581L25.4973 210.32L24.6646 203.999L22.6817 204.26ZM24.6365 211.442L39.8057 209.443L39.5445 207.46L24.3753 209.459L24.6365 211.442Z" fill="#2E0043"/>
<path d="M2.30691 191.526L1.30703 191.51L1.29159 192.51L2.29147 192.525L2.30691 191.526ZM2.57464 174.187L2.59008 173.187L1.5902 173.172L1.57476 174.172L2.57464 174.187ZM7.67413 174.266L8.67401 174.281L8.68945 173.282L7.68957 173.266L7.67413 174.266ZM7.58358 180.13L6.58369 180.115L6.56825 181.115L7.56814 181.13L7.58358 180.13ZM38.1805 180.603L39.1804 180.618L39.1958 179.618L38.196 179.603L38.1805 180.603ZM38.0939 186.212L38.0785 187.212L39.0783 187.228L39.0938 186.228L38.0939 186.212ZM7.49696 185.74L7.5124 184.74L6.51252 184.725L6.49708 185.724L7.49696 185.74ZM7.4064 191.604L7.39096 192.604L8.39084 192.62L8.40628 191.62L7.4064 191.604ZM3.30679 191.541L3.57452 174.203L1.57476 174.172L1.30703 191.51L3.30679 191.541ZM2.5592 175.187L7.65869 175.266L7.68957 173.266L2.59008 173.187L2.5592 175.187ZM6.67425 174.251L6.58369 180.115L8.58346 180.146L8.67401 174.281L6.67425 174.251ZM7.56814 181.13L38.1651 181.603L38.196 179.603L7.59901 179.131L7.56814 181.13ZM37.1806 180.587L37.094 186.197L39.0938 186.228L39.1804 180.618L37.1806 180.587ZM38.1093 185.212L7.5124 184.74L7.48152 186.74L38.0785 187.212L38.1093 185.212ZM6.49708 185.724L6.40652 191.589L8.40628 191.62L8.49684 185.755L6.49708 185.724ZM7.42184 190.604L2.32235 190.526L2.29147 192.525L7.39096 192.604L7.42184 190.604Z" fill="#2E0043"/>
<path d="M36.042 147.576L35.9388 148.571L36.4273 146.653L36.042 147.576ZM8.87947 136.235L7.91042 135.988L7.69721 136.825L8.49418 137.158L8.87947 136.235ZM10.1511 131.243L10.5429 130.323L9.46997 129.867L9.18209 130.997L10.1511 131.243ZM43.387 145.395L44.3561 145.642L44.5678 144.811L43.7788 144.475L43.387 145.395ZM41.3221 153.5L41.2259 154.495L42.0795 154.578L42.2912 153.747L41.3221 153.5ZM5.36664 150.024L4.39759 149.777L4.10971 150.907L5.27042 151.019L5.36664 150.024ZM6.76422 144.538L6.86742 143.543L6.00838 143.454L5.79517 144.291L6.76422 144.538ZM36.4273 146.653L9.26475 135.312L8.49418 137.158L35.6567 148.499L36.4273 146.653ZM9.84852 136.482L11.1202 131.49L9.18209 130.997L7.91042 135.988L9.84852 136.482ZM9.75939 132.164L42.9953 146.315L43.7788 144.475L10.5429 130.323L9.75939 132.164ZM42.418 145.148L40.3531 153.253L42.2912 153.747L44.3561 145.642L42.418 145.148ZM41.4183 152.505L5.46287 149.029L5.27042 151.019L41.2259 154.495L41.4183 152.505ZM6.33569 150.271L7.73327 144.785L5.79517 144.291L4.39759 149.777L6.33569 150.271ZM6.66101 145.533L35.9388 148.571L36.1452 146.581L6.86742 143.543L6.66101 145.533Z" fill="#2E0043"/>
<path d="M52.8657 120.202L53.7867 120.592L54.2436 119.511L53.1049 119.231L52.8657 120.202ZM50.6604 125.416L50.4114 126.384L51.2458 126.599L51.5814 125.805L50.6604 125.416ZM44.3175 123.785L44.5665 122.817L43.7321 122.602L43.3965 123.396L44.3175 123.785ZM41.6354 130.126L40.7144 129.737L40.3787 130.53L41.1138 130.98L41.6354 130.126ZM47.2233 133.542L48.1443 133.932L48.4799 133.138L47.7449 132.689L47.2233 133.542ZM45.2167 138.286L44.6865 139.134L45.6809 139.756L46.1377 138.676L45.2167 138.286ZM14.5614 119.118L13.6404 118.729L13.3082 119.514L14.0312 119.966L14.5614 119.118ZM17.7601 111.556L17.9992 110.585L17.1712 110.381L16.8391 111.166L17.7601 111.556ZM37.4511 127.581L36.9295 128.435L37.9199 129.04L38.3722 127.971L37.4511 127.581ZM39.5571 122.602L40.4781 122.992L40.9303 121.923L39.806 121.634L39.5571 122.602ZM21.876 118.059L22.1249 117.09L21.3544 118.912L21.876 118.059ZM51.9447 119.812L49.7394 125.026L51.5814 125.805L53.7867 120.592L51.9447 119.812ZM50.9094 124.447L44.5665 122.817L44.0685 124.754L50.4114 126.384L50.9094 124.447ZM43.3965 123.396L40.7144 129.737L42.5564 130.516L45.2385 124.175L43.3965 123.396ZM41.1138 130.98L46.7018 134.395L47.7449 132.689L42.1569 129.273L41.1138 130.98ZM46.3023 133.153L44.2957 137.897L46.1377 138.676L48.1443 133.932L46.3023 133.153ZM45.7469 137.438L15.0916 118.27L14.0312 119.966L44.6865 139.134L45.7469 137.438ZM15.4824 119.508L18.6811 111.945L16.8391 111.166L13.6404 118.729L15.4824 119.508ZM17.5209 112.527L52.6266 121.173L53.1049 119.231L17.9992 110.585L17.5209 112.527ZM38.3722 127.971L40.4781 122.992L38.6361 122.213L36.5301 127.192L38.3722 127.971ZM39.806 121.634L22.1249 117.09L21.6271 119.027L39.3082 123.571L39.806 121.634ZM21.3544 118.912L36.9295 128.435L37.9728 126.728L22.3976 117.206L21.3544 118.912Z" fill="#2E0043"/>
<path d="M33.4736 87.1766L33.6656 88.1581L33.6777 88.1556L33.4736 87.1766ZM48.6978 96.3984L47.7356 96.6709L47.7391 96.6827L48.6978 96.3984ZM45.9931 105.195L45.1378 104.677L44.6197 105.532L45.475 106.05L45.9931 105.195ZM57.4658 112.144L58.3211 112.662L58.8392 111.807L57.9839 111.289L57.4658 112.144ZM54.5592 116.943L54.0411 117.798L54.8965 118.316L55.4146 117.461L54.5592 116.943ZM24.0236 98.4464L23.1683 97.9283L22.6502 98.7836L23.5055 99.3017L24.0236 98.4464ZM31.2924 96.2902L30.4371 95.7721L29.919 96.6275L30.7743 97.1456L31.2924 96.2902ZM41.6309 102.553L41.1128 103.408L41.9681 103.926L42.4862 103.071L41.6309 102.553ZM43.4511 98.1694L44.4223 97.9309L43.4511 98.1694ZM34.334 92.6469L34.0956 91.6758L34.334 92.6469ZM29.1595 91.8976C30.5352 89.6265 32.0536 88.4734 33.6656 88.158L33.2816 86.1952C30.9252 86.6562 28.9973 88.3051 27.4488 90.8615L29.1595 91.8976ZM33.6777 88.1556C35.3455 87.8079 37.3211 88.2316 39.6662 89.652L40.7023 87.9414C38.1035 86.3672 35.6054 85.7108 33.2696 86.1977L33.6777 88.1556ZM39.6662 89.652L43.6358 92.0566L44.672 90.3459L40.7023 87.9414L39.6662 89.652ZM43.6358 92.0566C45.9808 93.477 47.2713 95.0317 47.7357 96.6709L49.6599 96.1258C49.0096 93.8301 47.2708 91.9201 44.672 90.3459L43.6358 92.0566ZM47.7391 96.6827C48.2062 98.2575 47.8875 100.137 46.5118 102.408L48.2225 103.445C49.7709 100.888 50.3393 98.4159 49.6565 96.114L47.7391 96.6827ZM46.5118 102.408L45.1378 104.677L46.8484 105.713L48.2225 103.445L46.5118 102.408ZM45.475 106.05L56.9477 113L57.9839 111.289L46.5112 104.34L45.475 106.05ZM56.6105 111.626L53.7039 116.425L55.4146 117.461L58.3211 112.662L56.6105 111.626ZM55.0773 116.087L24.5417 97.591L23.5055 99.3017L54.0411 117.798L55.0773 116.087ZM24.8789 98.9645L29.1595 91.8976L27.4488 90.8615L23.1683 97.9283L24.8789 98.9645ZM30.7743 97.1456L41.1128 103.408L42.149 101.697L31.8105 95.4349L30.7743 97.1456ZM42.4862 103.071L43.8602 100.802L42.1496 99.7661L40.7756 102.034L42.4862 103.071ZM43.8602 100.802C44.4109 99.8931 44.664 98.9154 44.4223 97.9309L42.48 98.4078C42.5593 98.7309 42.5149 99.163 42.1496 99.7661L43.8602 100.802ZM44.4223 97.9309C44.161 96.8667 43.218 96.0243 42.0708 95.3293L41.0346 97.04C42.0975 97.6838 42.4202 98.1645 42.48 98.4078L44.4223 97.9309ZM42.0708 95.3293L37.4904 92.5549L36.4542 94.2655L41.0346 97.04L42.0708 95.3293ZM37.4904 92.5549C36.3432 91.86 35.1598 91.4145 34.0956 91.6758L34.5725 93.6181C34.8158 93.5583 35.3913 93.6217 36.4542 94.2655L37.4904 92.5549ZM34.0956 91.6758C33.1111 91.9175 32.3618 92.5946 31.8111 93.5038L33.5217 94.54C33.887 93.9369 34.2495 93.6974 34.5725 93.6181L34.0956 91.6758ZM31.8111 93.5038L30.4371 95.7721L32.1477 96.8083L33.5217 94.54L31.8111 93.5038Z" fill="#2E0043"/>
<path d="M52.2973 82.9567L51.6685 83.7343L52.4462 84.363L53.0749 83.5854L52.2973 82.9567ZM57.1394 76.9682L57.7682 76.1906L56.9906 75.5619L56.3618 76.3395L57.1394 76.9682ZM61.1053 80.1749L61.8829 80.8037L62.5116 80.0261L61.734 79.3973L61.1053 80.1749ZM56.2632 86.1634L55.4856 85.5346L54.8568 86.3122L55.6344 86.941L56.2632 86.1634ZM64.3932 92.7371L63.7644 93.5147L64.542 94.1435L65.1708 93.3659L64.3932 92.7371ZM70.4859 85.202L71.1147 84.4244L70.3371 83.7956L69.7083 84.5733L70.4859 85.202ZM74.4518 88.4087L75.2294 89.0375L75.8581 88.2599L75.0805 87.6311L74.4518 88.4087ZM64.8317 100.306L64.2029 101.084L64.9805 101.713L65.6093 100.935L64.8317 100.306ZM37.0706 77.8594L36.293 77.2306L35.6643 78.0082L36.4419 78.637L37.0706 77.8594ZM46.6908 65.9618L47.3195 65.1842L46.5419 64.5554L45.9131 65.333L46.6908 65.9618ZM50.6566 69.1685L51.4342 69.7972L52.063 69.0196L51.2854 68.3909L50.6566 69.1685ZM44.5639 76.7036L43.7863 76.0749L43.1575 76.8525L43.9351 77.4812L44.5639 76.7036ZM53.0749 83.5854L57.917 77.597L56.3618 76.3395L51.5197 82.3279L53.0749 83.5854ZM56.5107 77.7458L60.4765 80.9526L61.734 79.3973L57.7682 76.1906L56.5107 77.7458ZM60.3277 79.5462L55.4856 85.5346L57.0408 86.7921L61.8829 80.8037L60.3277 79.5462ZM55.6344 86.941L63.7644 93.5147L65.0219 91.9595L56.8919 85.3858L55.6344 86.941ZM65.1708 93.3659L71.2635 85.8308L69.7083 84.5733L63.6156 92.1084L65.1708 93.3659ZM69.8572 85.9796L73.823 89.1863L75.0805 87.6311L71.1147 84.4244L69.8572 85.9796ZM73.6742 87.78L64.0541 99.6775L65.6093 100.935L75.2294 89.0375L73.6742 87.78ZM65.4604 99.5287L37.6994 77.0818L36.4419 78.637L64.2029 101.084L65.4604 99.5287ZM37.8482 78.4881L47.4684 66.5905L45.9131 65.333L36.293 77.2306L37.8482 78.4881ZM46.062 66.7394L50.0279 69.9461L51.2854 68.3909L47.3195 65.1842L46.062 66.7394ZM49.879 68.5397L43.7863 76.0749L45.3415 77.3324L51.4342 69.7972L49.879 68.5397ZM43.9351 77.4812L51.6685 83.7343L52.9261 82.1791L45.1926 75.926L43.9351 77.4812Z" fill="#2E0043"/>
<path d="M71.4637 62.5793L72.4342 62.3381L72.4325 62.3312L72.4307 62.3243L71.4637 62.5793ZM71.2614 59.8993L70.2695 59.7724L70.2695 59.7724L71.2614 59.8993ZM72.101 57.3164L71.2295 56.826L71.226 56.8323L71.2226 56.8385L72.101 57.3164ZM76.4992 53.9164L76.7404 54.8869L76.7473 54.8852L76.7542 54.8833L76.4992 53.9164ZM79.2104 53.7544L79.0567 54.7426L79.0834 54.7467L79.1103 54.7494L79.2104 53.7544ZM81.7934 54.5941L81.303 55.4656L81.3092 55.4691L81.3155 55.4725L81.7934 54.5941ZM85.1933 58.9922L86.1638 58.7511L86.1621 58.7441L86.1603 58.7373L85.1933 58.9922ZM85.3553 61.7034L84.3634 61.5765L84.3634 61.5765L85.3553 61.7034ZM84.4845 64.246L83.6129 63.7557L83.6094 63.7619L83.606 63.7682L84.4845 64.246ZM80.0863 67.646L80.3275 68.6165L80.3344 68.6148L80.3413 68.613L80.0863 67.646ZM77.4063 67.8483L77.2526 68.8364L77.2793 68.8406L77.3062 68.8433L77.4063 67.8483ZM74.8637 66.9775L74.3734 67.849L74.3796 67.8525L74.3858 67.8559L74.8637 66.9775ZM73.4954 64.4897C72.9718 63.8125 72.6227 63.0966 72.4342 62.3381L70.4932 62.8205C70.7527 63.8645 71.2306 64.83 71.9131 65.713L73.4954 64.4897ZM72.4307 62.3243C72.2152 61.5071 72.1615 60.7438 72.2533 60.0263L70.2695 59.7724C70.1416 60.7718 70.2228 61.7952 70.4968 62.8343L72.4307 62.3243ZM72.2533 60.0263C72.3533 59.2451 72.594 58.5029 72.9795 57.7942L71.2226 56.8385C70.7206 57.7614 70.4015 58.7411 70.2695 59.7724L72.2533 60.0263ZM72.9726 57.8067C73.3758 57.09 73.9116 56.4716 74.5888 55.9481L73.3656 54.3658C72.4825 55.0484 71.7676 55.8696 71.2295 56.826L72.9726 57.8067ZM74.5888 55.9481C75.2661 55.4245 75.9819 55.0754 76.7404 54.8869L76.258 52.9459C75.214 53.2054 74.2485 53.6832 73.3656 54.3658L74.5888 55.9481ZM76.7542 54.8833C77.5597 54.6709 78.3241 54.6286 79.0567 54.7426L79.3641 52.7663C78.3381 52.6067 77.2951 52.6723 76.2442 52.9495L76.7542 54.8833ZM79.1103 54.7494C79.848 54.8237 80.5771 55.0572 81.303 55.4656L82.2837 53.7225C81.3365 53.1897 80.3436 52.8634 79.3105 52.7595L79.1103 54.7494ZM81.3155 55.4725C82.0021 55.846 82.6069 56.3642 83.1304 57.0415L84.7128 55.8183C84.0302 54.9353 83.2162 54.2297 82.2712 53.7156L81.3155 55.4725ZM83.1304 57.0415C83.6539 57.7186 84.0167 58.4521 84.2264 59.2472L86.1603 58.7373C85.8804 57.6761 85.3954 56.7013 84.7128 55.8183L83.1304 57.0415ZM84.2228 59.2334C84.4174 60.0164 84.4634 60.7953 84.3634 61.5765L86.3472 61.8304C86.4792 60.7992 86.4172 59.7706 86.1638 58.7511L84.2228 59.2334ZM84.3634 61.5765C84.2715 62.294 84.0273 63.0191 83.6129 63.7557L85.356 64.7364C85.8829 63.7998 86.2193 62.8299 86.3472 61.8304L84.3634 61.5765ZM83.606 63.7682C83.2326 64.4547 82.7144 65.0595 82.0371 65.5831L83.2603 67.1654C84.1432 66.4829 84.8488 65.6689 85.3629 64.7239L83.606 63.7682ZM82.0371 65.5831C81.3599 66.1066 80.6264 66.4694 79.8313 66.6791L80.3413 68.613C81.4024 68.3331 82.3772 67.8481 83.2603 67.1654L82.0371 65.5831ZM79.8451 66.6755C79.0505 66.873 78.2726 66.9304 77.5064 66.8533L77.3062 68.8433C78.3109 68.9444 79.3196 68.867 80.3275 68.6165L79.8451 66.6755ZM77.56 66.8602C76.7992 66.7418 76.0608 66.4903 75.3415 66.099L74.3858 67.8559C75.2981 68.3522 76.2548 68.6812 77.2526 68.8364L77.56 66.8602ZM75.354 66.106C74.6373 65.7027 74.0189 65.1669 73.4954 64.4897L71.9131 65.713C72.5957 66.596 73.4169 67.3109 74.3734 67.849L75.354 66.106Z" fill="#2E0043"/>
<path d="M120.125 53.3849L120.612 54.2587L121.636 53.6885L120.911 52.7667L120.125 53.3849ZM115.179 56.1376L114.386 56.7478L114.912 57.4303L115.665 57.0114L115.179 56.1376ZM111.182 50.9489L111.975 50.3387L111.449 49.6562L110.696 50.0751L111.182 50.9489ZM105.166 54.2968L104.68 53.4229L103.927 53.8418L104.23 54.6484L105.166 54.2968ZM107.469 60.4278L107.955 61.3016L108.708 60.8827L108.405 60.0762L107.469 60.4278ZM102.967 62.9325L102.028 63.2746L102.429 64.3765L103.454 63.8063L102.967 62.9325ZM90.5996 28.9589L90.1134 28.0851L89.3683 28.4997L89.66 29.301L90.5996 28.9589ZM97.7747 24.9663L98.5608 24.3481L98.0336 23.6778L97.2885 24.0925L97.7747 24.9663ZM103.434 49.7158L102.498 50.0673L102.906 51.1541L103.92 50.5896L103.434 49.7158ZM108.158 47.0871L108.644 47.961L109.659 47.3965L108.95 46.4769L108.158 47.0871ZM97.0171 32.6252L97.8093 32.0149L96.0809 32.9767L97.0171 32.6252ZM119.639 52.5111L114.692 55.2638L115.665 57.0114L120.612 54.2587L119.639 52.5111ZM115.971 55.5274L111.975 50.3387L110.39 51.5591L114.386 56.7478L115.971 55.5274ZM110.696 50.0751L104.68 53.4229L105.652 55.1706L111.669 51.8227L110.696 50.0751ZM104.23 54.6484L106.532 60.7794L108.405 60.0762L106.102 53.9452L104.23 54.6484ZM106.982 59.554L102.481 62.0587L103.454 63.8063L107.955 61.3016L106.982 59.554ZM103.907 62.5904L91.5393 28.6168L89.66 29.301L102.028 63.2746L103.907 62.5904ZM91.0859 29.8327L98.261 25.8401L97.2885 24.0925L90.1134 28.0851L91.0859 29.8327ZM96.9887 25.5845L119.339 54.0031L120.911 52.7667L98.5608 24.3481L96.9887 25.5845ZM103.92 50.5896L108.644 47.961L107.672 46.2133L102.948 48.842L103.92 50.5896ZM108.95 46.4769L97.8093 32.0149L96.2249 33.2354L107.366 47.6974L108.95 46.4769ZM96.0809 32.9767L102.498 50.0673L104.37 49.3643L97.9533 32.2737L96.0809 32.9767Z" fill="#2E0043"/>
<path d="M110.734 18.4054L110.372 17.4732L109.44 17.835L109.802 18.7672L110.734 18.4054ZM115.964 16.3756L116.896 16.0138L116.534 15.0815L115.602 15.4433L115.964 16.3756ZM127.036 44.9029L126.103 45.2648L126.465 46.197L127.397 45.8352L127.036 44.9029ZM135.641 41.5629L136.574 41.2011L136.212 40.2689L135.28 40.6307L135.641 41.5629ZM137.487 46.3175L137.848 47.2497L138.781 46.8879L138.419 45.9557L137.487 46.3175ZM123.651 51.6873L122.719 52.0492L123.08 52.9814L124.013 52.6196L123.651 51.6873ZM111.096 19.3377L116.326 17.3078L115.602 15.4433L110.372 17.4732L111.096 19.3377ZM115.032 16.7374L126.103 45.2648L127.968 44.5411L116.896 16.0138L115.032 16.7374ZM127.397 45.8352L136.003 42.4952L135.28 40.6307L126.674 43.9707L127.397 45.8352ZM134.709 41.9248L136.554 46.6793L138.419 45.9557L136.574 41.2011L134.709 41.9248ZM137.125 45.3853L123.289 50.7551L124.013 52.6196L137.848 47.2497L137.125 45.3853ZM124.583 51.3255L111.666 18.0436L109.802 18.7672L122.719 52.0492L124.583 51.3255Z" fill="#2E0043"/>
<path d="M131.538 10.7342L131.295 9.76419L130.325 10.0074L130.568 10.9774L131.538 10.7342ZM136.98 9.36985L137.95 9.12666L137.706 8.15669L136.736 8.39987L136.98 9.36985ZM144.421 39.0518L143.451 39.295L143.695 40.265L144.665 40.0218L144.421 39.0518ZM153.375 36.8069L154.345 36.5637L154.102 35.5937L153.132 35.8369L153.375 36.8069ZM154.616 41.7539L154.859 42.7238L155.829 42.4806L155.586 41.5107L154.616 41.7539ZM140.22 45.3631L139.25 45.6063L139.493 46.5763L140.463 46.3331L140.22 45.3631ZM131.781 11.7041L137.223 10.3398L136.736 8.39987L131.295 9.76419L131.781 11.7041ZM136.01 9.61304L143.451 39.295L145.391 38.8086L137.95 9.12666L136.01 9.61304ZM144.665 40.0218L153.619 37.7768L153.132 35.8369L144.178 38.0818L144.665 40.0218ZM152.405 37.0501L153.646 41.997L155.586 41.5107L154.345 36.5637L152.405 37.0501ZM154.373 40.7839L139.977 44.3931L140.463 46.3331L154.859 42.7238L154.373 40.7839ZM141.19 45.1199L132.508 10.491L130.568 10.9774L139.25 45.6063L141.19 45.1199Z" fill="#2E0043"/>
<path d="M176.178 13.0602L177.141 12.7882L175.178 13.0718L176.178 13.0602ZM176.478 38.9159L176.489 39.9159L177.489 39.9043L177.478 38.9044L176.478 38.9159ZM171.429 38.9744L170.429 38.986L170.441 39.9859L171.441 39.9744L171.429 38.9744ZM171.016 3.27612L171.004 2.27619L170.004 2.28777L170.016 3.2877L171.016 3.27612ZM178.053 3.19462L179.016 2.92307L178.808 2.18582L178.042 2.19469L178.053 3.19462ZM184.063 24.4959L183.101 24.7674L185.063 24.4843L184.063 24.4959ZM183.816 3.12788L183.804 2.12795L182.804 2.13953L182.816 3.13946L183.816 3.12788ZM188.814 3.07001L189.814 3.05843L189.802 2.05849L188.802 2.07007L188.814 3.07001ZM189.227 38.7683L189.239 39.7682L190.239 39.7567L190.227 38.7567L189.227 38.7683ZM183.464 38.835L182.502 39.1071L182.71 39.8438L183.476 39.835L183.464 38.835ZM175.178 13.0718L175.478 38.9275L177.478 38.9044L177.178 13.0486L175.178 13.0718ZM176.466 37.916L171.417 37.9745L171.441 39.9744L176.489 39.9159L176.466 37.916ZM172.429 38.9628L172.015 3.26454L170.016 3.2877L170.429 38.986L172.429 38.9628ZM171.027 4.27606L178.065 4.19455L178.042 2.19469L171.004 2.27619L171.027 4.27606ZM177.091 3.46617L183.101 24.7674L185.026 24.2243L179.016 2.92307L177.091 3.46617ZM185.063 24.4843L184.816 3.1163L182.816 3.13946L183.063 24.5074L185.063 24.4843ZM183.827 4.12782L188.825 4.06994L188.802 2.07007L183.804 2.12795L183.827 4.12782ZM187.814 3.08159L188.227 38.7799L190.227 38.7567L189.814 3.05843L187.814 3.08159ZM189.216 37.7684L183.453 37.8351L183.476 39.835L189.239 39.7682L189.216 37.7684ZM184.427 38.563L177.141 12.7882L175.216 13.3322L182.502 39.1071L184.427 38.563Z" fill="#2E0043"/>
<path d="M198.78 3.5057L198.888 2.51152L197.894 2.40379L197.786 3.39797L198.78 3.5057ZM204.358 4.11009L205.352 4.21782L205.46 3.22364L204.466 3.11591L204.358 4.11009ZM200.512 39.603L200.404 40.5972L201.398 40.7049L201.506 39.7107L200.512 39.603ZM194.934 38.9986L193.94 38.8909L193.832 39.8851L194.827 39.9928L194.934 38.9986ZM198.673 4.49988L204.25 5.10427L204.466 3.11591L198.888 2.51152L198.673 4.49988ZM203.364 4.00236L199.518 39.4953L201.506 39.7107L205.352 4.21782L203.364 4.00236ZM200.62 38.6088L195.042 38.0044L194.827 39.9928L200.404 40.5972L200.62 38.6088ZM195.929 39.1064L199.775 3.61344L197.786 3.39797L193.94 38.8909L195.929 39.1064Z" fill="#2E0043"/>
<path d="M218.271 22.9486L218.488 21.9724L217.512 21.7552L217.295 22.7313L218.271 22.9486ZM225.937 24.655L226.914 24.8722L227.131 23.8961L226.155 23.6789L225.937 24.655ZM219.935 41.7629L219.361 40.9443L219.36 40.9449L219.935 41.7629ZM207.738 39.0481L206.865 39.5354L206.871 39.5455L206.877 39.5553L207.738 39.0481ZM214.664 7.93393L214.089 7.11532L214.089 7.11593L214.664 7.93393ZM226.861 10.6487L225.987 11.136L225.993 11.146L225.999 11.1559L226.861 10.6487ZM226.757 20.971L226.54 21.9472L227.516 22.1644L227.734 21.1883L226.757 20.971ZM221.58 19.8187L220.604 19.6014L220.387 20.5775L221.363 20.7948L221.58 19.8187ZM222.202 13.2692L221.341 13.7783L221.358 13.8061L221.376 13.8327L222.202 13.2692ZM218.07 12.3495L218.606 13.1933L218.606 13.1933L218.07 12.3495ZM212.707 36.4443L211.863 36.9809L211.872 36.9945L211.881 37.0079L212.707 36.4443ZM216.839 37.364L216.33 36.5033L216.316 36.5115L216.302 36.5202L216.839 37.364ZM219.652 28.4809L220.628 28.6981L220.845 27.722L219.869 27.5047L219.652 28.4809ZM217.163 27.9268L216.187 27.7096L215.97 28.6857L216.946 28.9029L217.163 27.9268ZM218.054 23.9247L225.72 25.6311L226.155 23.6789L218.488 21.9724L218.054 23.9247ZM224.961 24.4377L222.501 35.4895L224.454 35.924L226.914 24.8722L224.961 24.4377ZM222.501 35.4895C221.908 38.1567 220.826 39.9164 219.361 40.9443L220.51 42.5815C222.512 41.1765 223.792 38.8988 224.454 35.924L222.501 35.4895ZM219.36 40.9449C217.966 41.9249 216.089 42.2336 213.58 41.6752L213.146 43.6274C216.013 44.2657 218.518 43.9821 220.51 42.5809L219.36 40.9449ZM213.58 41.6752C211.073 41.1171 209.48 40.0367 208.6 38.541L206.877 39.5553C208.119 41.667 210.277 42.9888 213.146 43.6274L213.58 41.6752ZM208.612 38.5609C207.749 37.0151 207.53 34.9623 208.125 32.2896L206.173 31.855C205.512 34.8244 205.686 37.4221 206.865 39.5354L208.612 38.5609ZM208.125 32.2896L212.158 14.1687L210.206 13.7341L206.173 31.855L208.125 32.2896ZM212.158 14.1687C212.754 11.4943 213.818 9.75102 215.239 8.75193L214.089 7.11593C212.123 8.49808 210.867 10.7665 210.206 13.7341L212.158 14.1687ZM215.238 8.75254C216.678 7.7425 218.578 7.42626 221.079 7.98295L221.514 6.03073C218.639 5.39072 216.117 5.69254 214.089 7.11532L215.238 8.75254ZM221.079 7.98295C223.582 8.53996 225.146 9.62775 225.987 11.136L227.734 10.1614C226.534 8.01051 224.388 6.67042 221.514 6.03073L221.079 7.98295ZM225.999 11.1559C226.89 12.6698 227.129 14.6997 226.535 17.3686L228.487 17.8031C229.149 14.8299 228.954 12.235 227.722 10.1415L225.999 11.1559ZM226.535 17.3686L225.781 20.7538L227.734 21.1883L228.487 17.8031L226.535 17.3686ZM226.975 19.9949L221.797 18.8425L221.363 20.7948L226.54 21.9472L226.975 19.9949ZM222.556 20.0359L223.387 16.3022L221.435 15.8677L220.604 19.6014L222.556 20.0359ZM223.387 16.3022C223.687 14.9568 223.686 13.67 223.028 12.7057L221.376 13.8327C221.558 14.1004 221.697 14.6908 221.435 15.8677L223.387 16.3022ZM223.063 12.7601C222.516 11.8363 221.634 11.2823 220.555 11.0422L220.121 12.9945C220.768 13.1386 221.128 13.4184 221.341 13.7783L223.063 12.7601ZM220.555 11.0422C219.475 10.8019 218.44 10.929 217.533 11.5057L218.606 13.1933C218.998 12.9443 219.475 12.8507 220.121 12.9945L220.555 11.0422ZM217.533 11.5057C216.579 12.1125 216.056 13.272 215.76 14.6045L217.712 15.039C217.977 13.8492 218.344 13.3605 218.606 13.1933L217.533 11.5057ZM215.76 14.6045L211.571 33.4224L213.523 33.8569L217.712 15.039L215.76 14.6045ZM211.571 33.4224C211.275 34.7549 211.256 36.0265 211.863 36.9809L213.551 35.9078C213.384 35.6449 213.259 35.0467 213.523 33.8569L211.571 33.4224ZM211.881 37.0079C212.47 37.8718 213.352 38.3962 214.414 38.6326L214.849 36.6804C214.185 36.5326 213.784 36.2489 213.533 35.8808L211.881 37.0079ZM214.414 38.6326C215.474 38.8684 216.494 38.7681 217.375 38.2079L216.302 36.5202C215.966 36.734 215.515 36.8286 214.849 36.6804L214.414 38.6326ZM217.348 38.2247C218.353 37.6304 218.899 36.4656 219.199 35.1201L217.247 34.6856C216.985 35.8624 216.609 36.3384 216.33 36.5033L217.348 38.2247ZM219.199 35.1201L220.628 28.6981L218.676 28.2636L217.247 34.6856L219.199 35.1201ZM219.869 27.5047L217.38 26.9507L216.946 28.9029L219.435 29.457L219.869 27.5047ZM218.139 28.1441L219.247 23.1658L217.295 22.7313L216.187 27.7096L218.139 28.1441Z" fill="#2E0043"/>
<path d="M230.526 47.218L230.168 48.1516L231.101 48.5099L231.46 47.5763L230.526 47.218ZM225.288 45.2077L224.355 44.8494L223.996 45.783L224.93 46.1413L225.288 45.2077ZM238.081 11.8776L238.439 10.944L237.505 10.5857L237.147 11.5193L238.081 11.8776ZM243.318 13.8878L244.252 14.2462L244.61 13.3126L243.677 12.9542L243.318 13.8878ZM237.836 28.1722L236.902 27.8139L236.544 28.7475L237.478 29.1058L237.836 28.1722ZM243.788 30.4565L243.429 31.3901L244.363 31.7484L244.721 30.8148L243.788 30.4565ZM249.27 16.1722L249.628 15.2386L248.695 14.8803L248.336 15.8139L249.27 16.1722ZM254.603 18.2189L255.537 18.5773L255.895 17.6437L254.961 17.2853L254.603 18.2189ZM241.811 51.5491L241.452 52.4827L242.386 52.841L242.744 51.9074L241.811 51.5491ZM236.478 49.5023L235.544 49.144L235.186 50.0776L236.119 50.4359L236.478 49.5023ZM241.96 35.218L242.894 35.5763L243.252 34.6427L242.319 34.2844L241.96 35.218ZM236.008 32.9336L236.367 32L235.433 31.6417L235.075 32.5753L236.008 32.9336ZM230.884 46.2844L225.647 44.2741L224.93 46.1413L230.168 48.1516L230.884 46.2844ZM226.222 45.5661L239.014 12.2359L237.147 11.5193L224.355 44.8494L226.222 45.5661ZM237.722 12.8112L242.96 14.8214L243.677 12.9542L238.439 10.944L237.722 12.8112ZM242.385 13.5295L236.902 27.8139L238.769 28.5305L244.252 14.2462L242.385 13.5295ZM237.478 29.1058L243.429 31.3901L244.146 29.5229L238.194 27.2386L237.478 29.1058ZM244.721 30.8148L250.204 16.5305L248.336 15.8139L242.854 30.0982L244.721 30.8148ZM248.912 17.1058L254.245 19.1525L254.961 17.2853L249.628 15.2386L248.912 17.1058ZM253.669 17.8606L240.877 51.1907L242.744 51.9074L255.537 18.5773L253.669 17.8606ZM242.169 50.6155L236.836 48.5687L236.119 50.4359L241.452 52.4827L242.169 50.6155ZM237.411 49.8606L242.894 35.5763L241.027 34.8596L235.544 49.144L237.411 49.8606ZM242.319 34.2844L236.367 32L235.65 33.8672L241.602 36.1516L242.319 34.2844ZM235.075 32.5753L229.592 46.8596L231.46 47.5763L236.942 33.2919L235.075 32.5753Z" fill="#2E0043"/>
<path d="M262.319 21.2547L262.809 20.3827L261.937 19.8932L261.447 20.7652L262.319 21.2547ZM277.44 29.7422L278.313 30.2316L278.802 29.3596L277.93 28.8701L277.44 29.7422ZM274.944 34.1896L274.455 35.0616L275.327 35.5511L275.816 34.679L274.944 34.1896ZM269.83 31.3188L270.319 30.4468L269.447 29.9573L268.958 30.8293L269.83 31.3188ZM254.852 58.0032L254.362 58.8753L255.234 59.3647L255.724 58.4927L254.852 58.0032ZM249.96 55.2573L249.088 54.7678L248.598 55.6398L249.47 56.1293L249.96 55.2573ZM264.938 28.5729L265.81 29.0623L266.299 28.1903L265.427 27.7008L264.938 28.5729ZM259.823 25.7021L258.951 25.2126L258.462 26.0846L259.334 26.5741L259.823 25.7021ZM261.83 22.1267L276.951 30.6142L277.93 28.8701L262.809 20.3827L261.83 22.1267ZM276.568 29.2527L274.072 33.7001L275.816 34.679L278.313 30.2316L276.568 29.2527ZM275.434 33.3175L270.319 30.4468L269.34 32.1908L274.455 35.0616L275.434 33.3175ZM268.958 30.8293L253.98 57.5138L255.724 58.4927L270.702 31.8083L268.958 30.8293ZM255.341 57.1312L250.449 54.3853L249.47 56.1293L254.362 58.8753L255.341 57.1312ZM250.832 55.7467L265.81 29.0623L264.065 28.0834L249.088 54.7678L250.832 55.7467ZM265.427 27.7008L260.312 24.8301L259.334 26.5741L264.448 29.4449L265.427 27.7008ZM260.695 26.1916L263.191 21.7441L261.447 20.7652L258.951 25.2126L260.695 26.1916Z" fill="#2E0043"/>
<path d="M285.408 72.2142L284.582 71.6501L286.036 72.9922L285.408 72.2142ZM308.308 53.7216L308.987 52.9868L308.352 52.401L307.68 52.9436L308.308 53.7216ZM312.093 57.2155L312.716 57.9979L313.628 57.2717L312.772 56.4807L312.093 57.2155ZM283.831 79.7122L283.152 80.447L283.782 81.0287L284.453 80.4946L283.831 79.7122ZM277.685 74.0389L276.855 73.4806L276.376 74.192L277.006 74.7737L277.685 74.0389ZM297.853 44.0701L298.531 43.3353L297.674 42.5443L297.023 43.5117L297.853 44.0701ZM302.012 47.9099L302.838 48.474L303.325 47.7609L302.691 47.1751L302.012 47.9099ZM286.036 72.9922L308.937 54.4996L307.68 52.9436L284.779 71.4362L286.036 72.9922ZM307.63 54.4564L311.415 57.9503L312.772 56.4807L308.987 52.9868L307.63 54.4564ZM311.471 56.4331L283.208 78.9298L284.453 80.4946L312.716 57.9979L311.471 56.4331ZM284.509 78.9774L278.363 73.3041L277.006 74.7737L283.152 80.447L284.509 78.9774ZM278.514 74.5972L298.682 44.6284L297.023 43.5117L276.855 73.4806L278.514 74.5972ZM297.174 44.8049L301.334 48.6447L302.691 47.1751L298.531 43.3353L297.174 44.8049ZM301.187 47.3458L284.582 71.6501L286.233 72.7783L302.838 48.474L301.187 47.3458Z" fill="#2E0043"/>
<path d="M302.005 99.5358L301.226 100.162L301.96 101.076L302.747 100.207L302.005 99.5358ZM298.462 95.1208L297.728 94.4421L297.143 95.0748L297.682 95.7467L298.462 95.1208ZM302.907 90.3109L303.641 90.9896L304.226 90.3569L303.687 89.685L302.907 90.3109ZM298.597 84.9412L299.377 84.3153L298.838 83.6434L298.094 84.0773L298.597 84.9412ZM292.94 88.2397L292.16 88.8656L292.699 89.5375L293.443 89.1036L292.94 88.2397ZM289.715 84.2224L289.22 83.3534L288.201 83.9337L288.935 84.8483L289.715 84.2224ZM321.133 66.3315L321.913 65.7056L321.379 65.0406L320.638 65.4625L321.133 66.3315ZM326.273 72.7353L327.014 73.4065L327.586 72.7744L327.053 72.1094L326.273 72.7353ZM302.823 82.4655L302.319 81.6015L301.317 82.186L302.043 83.0914L302.823 82.4655ZM306.207 86.6816L305.427 87.3076L306.154 88.2129L306.941 87.3603L306.207 86.6816ZM318.595 73.273L319.33 73.9516L318.092 72.4091L318.595 73.273ZM302.785 98.9099L299.242 94.4948L297.682 95.7467L301.226 100.162L302.785 98.9099ZM299.196 95.7995L303.641 90.9896L302.173 89.6322L297.728 94.4421L299.196 95.7995ZM303.687 89.685L299.377 84.3153L297.818 85.5672L302.127 90.9368L303.687 89.685ZM298.094 84.0773L292.436 87.3757L293.443 89.1036L299.101 85.8052L298.094 84.0773ZM293.719 87.6137L290.495 83.5965L288.935 84.8483L292.16 88.8656L293.719 87.6137ZM290.21 85.0914L321.628 67.2005L320.638 65.4625L289.22 83.3534L290.21 85.0914ZM320.353 66.9574L325.493 73.3612L327.053 72.1094L321.913 65.7056L320.353 66.9574ZM325.531 72.0641L301.264 98.8646L302.747 100.207L327.014 73.4065L325.531 72.0641ZM302.043 83.0914L305.427 87.3076L306.987 86.0557L303.603 81.8396L302.043 83.0914ZM306.941 87.3603L319.33 73.9516L317.861 72.5944L305.472 86.003L306.941 87.3603ZM318.092 72.4091L302.319 81.6015L303.327 83.3294L319.099 74.137L318.092 72.4091Z" fill="#2E0043"/>
<path d="M340.519 98.582L339.563 98.2871L339.56 98.2989L340.519 98.582ZM325.194 107.635L325.409 106.658L325.397 106.656L325.194 107.635ZM318.722 101.092L319.583 100.583L319.074 99.7225L318.213 100.231L318.722 101.092ZM307.173 107.914L306.312 108.423L306.821 109.284L307.682 108.775L307.173 107.914ZM304.32 103.084L303.811 102.223L302.95 102.732L303.459 103.593L304.32 103.084ZM335.058 84.9259L335.919 84.4173L335.41 83.5563L334.549 84.0649L335.058 84.9259ZM333.52 92.3502L334.381 91.8416L333.873 90.9806L333.012 91.4892L333.52 92.3502ZM323.113 98.498L322.605 97.6371L321.744 98.1457L322.252 99.0067L323.113 98.498ZM326.115 102.175L325.865 103.143L326.115 102.175ZM335.292 96.7532L336.26 97.0024L335.292 96.7532ZM338.399 92.5482C339.75 94.8344 340.048 96.7176 339.563 98.2871L341.474 98.877C342.182 96.5827 341.641 94.1042 340.121 91.5309L338.399 92.5482ZM339.56 98.2989C339.077 99.9328 337.77 101.473 335.409 102.868L336.426 104.59C339.042 103.044 340.802 101.154 341.478 98.8652L339.56 98.2989ZM335.409 102.868L331.413 105.228L332.43 106.95L336.426 104.59L335.409 102.868ZM331.413 105.228C329.053 106.623 327.072 107.025 325.409 106.659L324.979 108.612C327.309 109.124 329.814 108.496 332.43 106.95L331.413 105.228ZM325.397 106.656C323.788 106.323 322.283 105.153 320.932 102.867L319.21 103.884C320.73 106.457 322.64 108.127 324.991 108.614L325.397 106.656ZM320.932 102.867L319.583 100.583L317.861 101.601L319.21 103.884L320.932 102.867ZM318.213 100.231L306.665 107.053L307.682 108.775L319.231 101.953L318.213 100.231ZM308.034 107.406L305.181 102.575L303.459 103.593L306.312 108.423L308.034 107.406ZM304.829 103.945L335.567 85.7869L334.549 84.0649L303.811 102.223L304.829 103.945ZM334.197 85.4346L338.399 92.5482L340.121 91.5309L335.919 84.4173L334.197 85.4346ZM333.012 91.4892L322.605 97.6371L323.622 99.359L334.029 93.2112L333.012 91.4892ZM322.252 99.0067L323.601 101.29L325.323 100.273L323.974 97.9894L322.252 99.0067ZM323.601 101.29C324.142 102.205 324.884 102.891 325.865 103.143L326.364 101.206C326.042 101.123 325.682 100.88 325.323 100.273L323.601 101.29ZM325.865 103.143C326.927 103.416 328.115 102.984 329.27 102.302L328.252 100.58C327.182 101.212 326.606 101.269 326.364 101.206L325.865 103.143ZM329.27 102.302L333.88 99.5778L332.863 97.8559L328.252 100.58L329.27 102.302ZM333.88 99.5778C335.035 98.8956 335.987 98.0636 336.26 97.0024L334.324 96.504C334.261 96.7467 333.933 97.2238 332.863 97.8559L333.88 99.5778ZM336.26 97.0024C336.513 96.0206 336.271 95.0402 335.73 94.125L334.008 95.1422C334.367 95.7493 334.406 96.1819 334.324 96.504L336.26 97.0024ZM335.73 94.125L334.381 91.8416L332.659 92.8588L334.008 95.1422L335.73 94.125Z" fill="#2E0043"/>
<path d="M334.954 117.754L334.568 116.831L333.646 117.217L334.032 118.14L334.954 117.754ZM337.928 124.858L338.314 125.78L339.236 125.394L338.85 124.472L337.928 124.858ZM333.223 126.827L332.301 127.213L332.687 128.136L333.609 127.749L333.223 126.827ZM330.25 119.723L331.172 119.337L330.786 118.414L329.863 118.801L330.25 119.723ZM320.605 123.76L320.219 122.837L319.297 123.224L319.683 124.146L320.605 123.76ZM324.347 132.699L324.733 133.621L325.655 133.235L325.269 132.312L324.347 132.699ZM319.642 134.668L318.72 135.054L319.106 135.976L320.028 135.59L319.642 134.668ZM313.734 120.554L313.348 119.632L312.426 120.018L312.812 120.94L313.734 120.554ZM346.667 106.77L347.589 106.384L347.203 105.461L346.281 105.847L346.667 106.77ZM352.574 120.883L352.96 121.806L353.883 121.42L353.497 120.497L352.574 120.883ZM347.87 122.853L346.947 123.239L347.333 124.161L348.256 123.775L347.87 122.853ZM344.128 113.914L345.051 113.528L344.665 112.605L343.742 112.991L344.128 113.914ZM334.032 118.14L337.005 125.244L338.85 124.472L335.877 117.368L334.032 118.14ZM337.542 123.935L332.837 125.905L333.609 127.749L338.314 125.78L337.542 123.935ZM334.146 126.441L331.172 119.337L329.327 120.109L332.301 127.213L334.146 126.441ZM329.863 118.801L320.219 122.837L320.991 124.682L330.636 120.645L329.863 118.801ZM319.683 124.146L323.424 133.085L325.269 132.312L321.528 123.374L319.683 124.146ZM323.961 131.776L319.256 133.745L320.028 135.59L324.733 133.621L323.961 131.776ZM320.564 134.282L314.657 120.168L312.812 120.94L318.72 135.054L320.564 134.282ZM314.121 121.476L347.053 107.692L346.281 105.847L313.348 119.632L314.121 121.476ZM345.744 107.156L351.652 121.27L353.497 120.497L347.589 106.384L345.744 107.156ZM352.188 119.961L347.484 121.93L348.256 123.775L352.96 121.806L352.188 119.961ZM348.792 122.467L345.051 113.528L343.206 114.3L346.947 123.239L348.792 122.467ZM343.742 112.991L334.568 116.831L335.34 118.676L344.514 114.836L343.742 112.991Z" fill="#2E0043"/>
<path d="M346.382 150.26L346.128 151.227L346.135 151.229L346.142 151.231L346.382 150.26ZM348.831 151.368L349.418 150.559L349.418 150.559L348.831 151.368ZM350.694 153.344L351.543 152.814L351.539 152.808L351.535 152.802L350.694 153.344ZM351.568 158.834L350.601 158.58L350.599 158.587L350.597 158.594L351.568 158.834ZM350.41 161.29L349.617 160.682L349.6 160.703L349.585 160.725L350.41 161.29ZM348.434 163.154L347.905 162.306L347.899 162.31L347.893 162.314L348.434 163.154ZM342.944 164.028L342.69 164.995L342.697 164.997L342.704 164.999L342.944 164.028ZM340.488 162.87L341.075 162.06L341.075 162.06L340.488 162.87ZM338.674 160.886L339.523 160.357L339.519 160.351L339.515 160.345L338.674 160.886ZM337.8 155.396L336.833 155.142L336.831 155.149L336.83 155.156L337.8 155.396ZM338.908 152.948L338.115 152.339L338.098 152.36L338.083 152.382L338.908 152.948ZM340.892 151.134L340.362 150.286L340.356 150.29L340.35 150.294L340.892 151.134ZM343.731 151.127C344.577 150.992 345.372 151.029 346.128 151.227L346.636 149.293C345.595 149.02 344.519 148.976 343.417 149.152L343.731 151.127ZM346.142 151.231C346.962 151.434 347.658 151.753 348.243 152.178L349.418 150.559C348.602 149.967 347.665 149.547 346.622 149.289L346.142 151.231ZM348.243 152.178C348.881 152.64 349.417 153.207 349.854 153.885L351.535 152.802C350.966 151.919 350.259 151.169 349.418 150.559L348.243 152.178ZM349.846 153.873C350.282 154.571 350.567 155.338 350.702 156.183L352.677 155.869C352.501 154.766 352.124 153.745 351.543 152.814L349.846 153.873ZM350.702 156.183C350.836 157.028 350.799 157.824 350.601 158.58L352.535 159.088C352.809 158.047 352.852 156.971 352.677 155.869L350.702 156.183ZM350.597 158.594C350.397 159.402 350.068 160.093 349.617 160.682L351.203 161.899C351.835 161.075 352.278 160.129 352.539 159.074L350.597 158.594ZM349.585 160.725C349.166 161.337 348.611 161.865 347.905 162.306L348.964 164.002C349.886 163.427 350.648 162.712 351.235 161.855L349.585 160.725ZM347.893 162.314C347.236 162.737 346.491 163.019 345.645 163.154L345.96 165.129C347.062 164.953 348.072 164.577 348.976 163.995L347.893 162.314ZM345.645 163.154C344.8 163.288 343.983 163.255 343.184 163.057L342.704 164.999C343.77 165.262 344.858 165.304 345.96 165.129L345.645 163.154ZM343.198 163.061C342.418 162.856 341.712 162.523 341.075 162.06L339.9 163.679C340.742 164.29 341.674 164.729 342.69 164.995L343.198 163.061ZM341.075 162.06C340.489 161.636 339.97 161.073 339.523 160.357L337.826 161.416C338.395 162.327 339.085 163.088 339.9 163.679L341.075 162.06ZM339.515 160.345C339.092 159.688 338.809 158.943 338.675 158.097L336.7 158.412C336.875 159.514 337.251 160.523 337.834 161.428L339.515 160.345ZM338.675 158.097C338.54 157.252 338.574 156.434 338.771 155.636L336.83 155.156C336.566 156.221 336.524 157.309 336.7 158.412L338.675 158.097ZM338.768 155.65C338.975 154.858 339.298 154.148 339.733 153.513L338.083 152.382C337.513 153.216 337.097 154.138 336.833 155.142L338.768 155.65ZM339.702 153.556C340.17 152.945 340.745 152.418 341.434 151.975L340.35 150.294C339.477 150.856 338.73 151.538 338.115 152.339L339.702 153.556ZM341.421 151.982C342.119 151.547 342.886 151.261 343.731 151.127L343.417 149.152C342.314 149.327 341.293 149.705 340.362 150.286L341.421 151.982Z" fill="#2E0043"/>
<defs>
<linearGradient id="paint0_linear_2_359" x1="246.885" y1="236.394" x2="224.054" y2="315.347" gradientUnits="userSpaceOnUse">
<stop stop-color="#EDD7F5"/>
<stop offset="0.992113" stop-color="#F88FB5" stop-opacity="0.82"/>
</linearGradient>
<linearGradient id="paint1_linear_2_359" x1="235.795" y1="243.907" x2="247.283" y2="237.527" gradientUnits="userSpaceOnUse">
<stop stop-color="white"/>
<stop offset="1" stop-color="white" stop-opacity="0"/>
</linearGradient>
</defs>
</svg>
