<svg width="88" height="86" viewBox="0 0 88 86" fill="none" xmlns="http://www.w3.org/2000/svg">
<g filter="url(#filter0_d_2_4160)">
<path d="M71.1158 42.0436C71.7555 26.6895 60.5179 13.5626 45.5721 11.5696C43.904 11.3472 42.258 11.9761 41.0202 13.1123L12.3412 39.4375C11.6646 55.6762 24.2734 69.4237 40.5035 70.1434C56.7337 70.8631 70.4393 58.2824 71.1158 42.0436Z" fill="url(#paint0_linear_2_4160)"/>
<path d="M71.1158 42.0436C71.7555 26.6895 60.5179 13.5626 45.5721 11.5696C43.904 11.3472 42.258 11.9761 41.0202 13.1123L12.3412 39.4375C11.6646 55.6762 24.2734 69.4237 40.5035 70.1434C56.7337 70.8631 70.4393 58.2824 71.1158 42.0436Z" fill="url(#paint1_linear_2_4160)"/>
<path d="M71.1158 42.0436C71.7555 26.6895 60.5179 13.5626 45.5721 11.5696C43.904 11.3472 42.258 11.9761 41.0202 13.1123L12.3412 39.4375C11.6646 55.6762 24.2734 69.4237 40.5035 70.1434C56.7337 70.8631 70.4393 58.2824 71.1158 42.0436Z" fill="white" fill-opacity="0.2"/>
<path d="M71.1158 42.0436C71.7555 26.6895 60.5179 13.5626 45.5721 11.5696C43.904 11.3472 42.258 11.9761 41.0202 13.1123L12.3412 39.4375C11.6646 55.6762 24.2734 69.4237 40.5035 70.1434C56.7337 70.8631 70.4393 58.2824 71.1158 42.0436Z" fill="url(#paint2_linear_2_4160)"/>
<path fill-rule="evenodd" clip-rule="evenodd" d="M38.97 21.0007C39.2596 20.9645 39.5243 21.1699 39.5612 21.4594L39.8683 23.8679L41.1438 22.227C41.3227 21.9968 41.6548 21.9556 41.8855 22.135C42.1163 22.3143 42.1583 22.6463 41.9793 22.8765L40.0572 25.3493L41.3876 35.7834C42.4188 34.9523 43.7917 34.6874 45.0461 35.0465L50.3975 28.1712L50.0019 25.0681C49.965 24.7786 50.1698 24.5145 50.4595 24.4783C50.7491 24.442 51.0138 24.6474 51.0507 24.9369L51.3131 26.995L52.8053 25.0779C52.9844 24.8479 53.3165 24.8069 53.5471 24.9864C53.7777 25.1659 53.8195 25.4979 53.6404 25.728L52.1525 27.6396L54.2148 27.3816C54.5044 27.3454 54.7692 27.5507 54.8061 27.8403C54.843 28.1298 54.6381 28.3939 54.3485 28.4301L51.2339 28.8197L46.0452 35.4859C46.1728 35.564 46.2974 35.65 46.4184 35.7439C47.5106 36.5911 48.0528 37.884 47.9869 39.1651L56.5528 38.0937L58.4714 35.6254C58.6503 35.3953 58.9824 35.3541 59.2131 35.5334C59.4438 35.7127 59.4858 36.0447 59.3069 36.2749L58.0376 37.9079L60.4494 37.6063C60.739 37.57 61.0037 37.7754 61.0406 38.0649C61.0776 38.3545 60.8727 38.6186 60.5831 38.6548L58.1663 38.9571L59.8108 40.2284C60.042 40.4072 60.0848 40.7391 59.9065 40.9697C59.7282 41.2004 59.3962 41.2424 59.165 41.0637L56.6806 39.1429L47.8849 40.2431C47.8499 40.2475 47.8152 40.2483 47.7812 40.2459C47.6406 40.6633 47.4288 41.0645 47.1437 41.432L45.7795 43.1907L53.8589 49.437L56.9753 49.0472C57.265 49.011 57.5297 49.2164 57.5666 49.5059C57.6035 49.7955 57.3987 50.0595 57.109 50.0958L55.0448 50.354L56.9697 51.8422C57.2009 52.0209 57.2438 52.3528 57.0655 52.5834C56.8872 52.8141 56.5552 52.8562 56.324 52.6774L54.3993 51.1894L54.6611 53.2424C54.698 53.5319 54.4931 53.796 54.2035 53.8322C53.9139 53.8685 53.6491 53.6631 53.6122 53.3736L53.2172 50.2755L45.1323 44.0249L42.8187 47.0073L43.9425 55.8205L46.4231 57.7383C46.6543 57.917 46.6972 58.2489 46.5189 58.4796C46.3405 58.7102 46.0086 58.7523 45.7774 58.5735L44.1312 57.3009L44.4037 59.438C44.4407 59.7275 44.2358 59.9916 43.9462 60.0278C43.6565 60.0641 43.3918 59.8587 43.3549 59.5692L43.0823 57.4317L41.8048 59.0707C41.6256 59.3006 41.2935 59.3414 41.063 59.1617C40.8325 58.9821 40.7909 58.65 40.9701 58.4201L42.8937 55.9522L41.7883 47.2826L39.2183 45.289L33.4116 52.7494L33.8066 55.8474C33.8435 56.1369 33.6386 56.401 33.349 56.4372C33.0594 56.4735 32.7947 56.2681 32.7577 55.9786L32.496 53.9257L31.0036 55.843C30.8246 56.0731 30.4925 56.1141 30.2618 55.9346C30.0312 55.7551 29.9894 55.423 30.1685 55.193L31.6611 53.2753L29.5968 53.5335C29.3072 53.5697 29.0424 53.3644 29.0055 53.0748C28.9686 52.7853 29.1735 52.5212 29.4631 52.485L32.5797 52.0951L38.3822 44.6403L36.0372 42.8212C35.6726 42.5384 35.3692 42.2059 35.1294 41.8407L27.2599 42.825L25.3385 45.2936C25.1594 45.5236 24.8273 45.5646 24.5967 45.3851C24.3661 45.2056 24.3243 44.8736 24.5034 44.6435L25.7742 43.0109L23.3595 43.3129C23.0699 43.3491 22.8051 43.1438 22.7682 42.8542C22.7313 42.5647 22.9362 42.3006 23.2258 42.2644L25.6421 41.9621L23.999 40.6901C23.7679 40.5112 23.7253 40.1793 23.9038 39.9487C24.0822 39.7182 24.4142 39.6763 24.6453 39.8552L27.1268 41.7764L34.6521 40.8352C34.2658 39.61 34.4662 38.2232 35.3119 37.1331C35.5668 36.8045 35.8623 36.526 36.186 36.2992L29.9556 31.4823L26.8319 31.873C26.5423 31.9093 26.2776 31.7039 26.2406 31.4144C26.2037 31.1248 26.4086 30.8607 26.6982 30.8245L28.7696 30.5654L26.8402 29.0737C26.609 28.895 26.5661 28.5631 26.7444 28.3324C26.9227 28.1018 27.2547 28.0597 27.4859 28.2385L29.4106 29.7265L29.1493 27.6775C29.1124 27.388 29.3173 27.1239 29.6069 27.0876C29.8965 27.0514 30.1613 27.2568 30.1982 27.5463L30.5927 30.6404L37.2326 35.7738C38.2415 35.4399 39.3674 35.5071 40.3507 36.0079L39.008 25.4778L36.5259 23.5588C36.2947 23.3801 36.2519 23.0482 36.4302 22.8176C36.6085 22.5869 36.9405 22.5448 37.1717 22.7236L38.8193 23.9974L38.5124 21.5906C38.4755 21.301 38.6803 21.037 38.97 21.0007ZM37.1977 36.9276C37.3225 36.9233 37.4448 36.8752 37.5399 36.7863C38.4635 36.4704 39.5244 36.6115 40.3546 37.2556L41.0368 37.7848L41.5648 37.1042C42.5783 35.7977 44.4616 35.5621 45.7713 36.5781C47.081 37.594 47.3211 39.4768 46.3075 40.7834L42.1454 46.1487C42.1206 46.1533 42.0965 46.1595 42.0731 46.1674L36.6843 41.987C36.4059 41.7711 36.1759 41.5161 35.996 41.2357C35.9952 41.2239 35.9941 41.212 35.9926 41.2001C35.9737 41.0515 35.8947 40.9251 35.7832 40.8421C35.3458 39.8646 35.4471 38.6854 36.1481 37.7817C36.438 37.4079 36.7992 37.1218 37.1977 36.9276Z" fill="white"/>
<path d="M42.3474 12.0728C42.5721 11.8678 42.946 12.0255 42.9648 12.3295C43.016 13.1543 43.1013 14.2278 43.0865 14.7307C41.0443 32.426 27.4349 42.7698 12.3454 39.4392L42.3474 12.0728Z" fill="url(#paint3_linear_2_4160)"/>
<path d="M42.3474 12.0728C42.5721 11.8678 42.946 12.0255 42.9648 12.3295C43.016 13.1543 43.1013 14.2278 43.0865 14.7307C41.0443 32.426 27.4349 42.7698 12.3454 39.4392L42.3474 12.0728Z" fill="url(#paint4_linear_2_4160)"/>
<path d="M42.3474 12.0728C42.5721 11.8678 42.946 12.0255 42.9648 12.3295C43.016 13.1543 43.1013 14.2278 43.0865 14.7307C41.0443 32.426 27.4349 42.7698 12.3454 39.4392L42.3474 12.0728Z" fill="url(#paint5_linear_2_4160)"/>
</g>
<defs>
<filter id="filter0_d_2_4160" x="-1.46391" y="0.0253906" width="90.8336" height="89.7296" filterUnits="userSpaceOnUse" color-interpolation-filters="sRGB">
<feFlood flood-opacity="0" result="BackgroundImageFix"/>
<feColorMatrix in="SourceAlpha" type="matrix" values="0 0 0 0 0 0 0 0 0 0 0 0 0 0 0 0 0 0 127 0" result="hardAlpha"/>
<feOffset dy="2.03374"/>
<feGaussianBlur stdDeviation="1.01687"/>
<feComposite in2="hardAlpha" operator="out"/>
<feColorMatrix type="matrix" values="0 0 0 0 0 0 0 0 0 0 0 0 0 0 0 0 0 0 0.25 0"/>
<feBlend mode="normal" in2="BackgroundImageFix" result="effect1_dropShadow_2_4160"/>
<feBlend mode="normal" in="SourceGraphic" in2="effect1_dropShadow_2_4160" result="shape"/>
</filter>
<linearGradient id="paint0_linear_2_4160" x1="71.0706" y1="42.0351" x2="12.3138" y2="39.5872" gradientUnits="userSpaceOnUse">
<stop stop-color="#3997B5"/>
<stop offset="1" stop-color="#0075FF"/>
</linearGradient>
<linearGradient id="paint1_linear_2_4160" x1="26.1271" y1="64.426" x2="65.3671" y2="24.2829" gradientUnits="userSpaceOnUse">
<stop stop-color="#00F0FF"/>
<stop offset="1" stop-color="#00F0FF" stop-opacity="0"/>
</linearGradient>
<linearGradient id="paint2_linear_2_4160" x1="74.3846" y1="37.5677" x2="46.2408" y2="32.837" gradientUnits="userSpaceOnUse">
<stop stop-color="white" stop-opacity="0"/>
<stop offset="0.334125" stop-color="white" stop-opacity="0.37"/>
<stop offset="0.916662" stop-color="white" stop-opacity="0"/>
</linearGradient>
<linearGradient id="paint3_linear_2_4160" x1="30.7081" y1="30.9738" x2="-19.4896" y2="21.3305" gradientUnits="userSpaceOnUse">
<stop stop-color="#D7F0F5"/>
<stop offset="0.992113" stop-color="#8FE5F8"/>
</linearGradient>
<linearGradient id="paint4_linear_2_4160" x1="24.9401" y1="27.0494" x2="28.7109" y2="32.2889" gradientUnits="userSpaceOnUse">
<stop stop-color="white"/>
<stop offset="1" stop-color="white" stop-opacity="0"/>
</linearGradient>
<linearGradient id="paint5_linear_2_4160" x1="38.9429" y1="38.2281" x2="20.1687" y2="22.7378" gradientUnits="userSpaceOnUse">
<stop stop-color="#7BCADB"/>
<stop offset="0.407967" stop-color="#6A91CC" stop-opacity="0"/>
</linearGradient>
</defs>
</svg>
