<svg width="83" height="83" viewBox="0 0 83 83" fill="none" xmlns="http://www.w3.org/2000/svg">
<path d="M82.5384 42.9772C83.4286 21.6101 67.7902 3.34242 46.9913 0.568937C44.6699 0.259389 42.3793 1.13459 40.6567 2.71578L0.746415 39.3505C-0.195047 61.9486 17.3515 81.0799 39.9377 82.0814C62.524 83.0829 81.597 65.5754 82.5384 42.9772Z" fill="url(#paint0_linear_2_31)"/>
<path d="M82.5384 42.9772C83.4286 21.6101 67.7902 3.34242 46.9913 0.568937C44.6699 0.259389 42.3793 1.13459 40.6567 2.71578L0.746415 39.3505C-0.195047 61.9486 17.3515 81.0799 39.9377 82.0814C62.524 83.0829 81.597 65.5754 82.5384 42.9772Z" fill="url(#paint1_linear_2_31)"/>
<path d="M82.5384 42.9772C83.4286 21.6101 67.7902 3.34242 46.9913 0.568937C44.6699 0.259389 42.3793 1.13459 40.6567 2.71578L0.746415 39.3505C-0.195047 61.9486 17.3515 81.0799 39.9377 82.0814C62.524 83.0829 81.597 65.5754 82.5384 42.9772Z" fill="white" fill-opacity="0.2"/>
<path d="M82.5384 42.9772C83.4286 21.6101 67.7902 3.34242 46.9913 0.568937C44.6699 0.259389 42.3793 1.13459 40.6567 2.71578L0.746415 39.3505C-0.195047 61.9486 17.3515 81.0799 39.9377 82.0814C62.524 83.0829 81.597 65.5754 82.5384 42.9772Z" fill="url(#paint2_linear_2_31)"/>
<defs>
<linearGradient id="paint0_linear_2_31" x1="82.4756" y1="42.9654" x2="0.708357" y2="39.5589" gradientUnits="userSpaceOnUse">
<stop stop-color="#3997B5"/>
<stop offset="1" stop-color="#0075FF"/>
</linearGradient>
<linearGradient id="paint1_linear_2_31" x1="19.9312" y1="74.125" x2="74.5385" y2="18.261" gradientUnits="userSpaceOnUse">
<stop stop-color="#00F0FF"/>
<stop offset="1" stop-color="#00F0FF" stop-opacity="0"/>
</linearGradient>
<linearGradient id="paint2_linear_2_31" x1="87.0873" y1="36.7485" x2="47.9218" y2="30.165" gradientUnits="userSpaceOnUse">
<stop stop-color="white" stop-opacity="0"/>
<stop offset="0.334125" stop-color="white" stop-opacity="0.37"/>
<stop offset="0.916662" stop-color="white" stop-opacity="0"/>
</linearGradient>
</defs>
</svg>
