<svg width="190" height="52" viewBox="0 0 190 52" fill="none" xmlns="http://www.w3.org/2000/svg">
<path d="M16.5258 50.1465L17.7371 31.4029L20.5277 49.9772L20.5757 50.2964L20.8982 50.2828L29.5045 49.9185L29.8257 49.905L29.8478 49.5842L32.6994 8.12659L32.727 7.72598L32.3258 7.74296L26.6669 7.98243L26.3428 7.99615L26.3234 8.31991L24.5638 37.6759L20.4357 8.57034L20.39 8.24806L20.0648 8.26183L13.8164 8.52625L13.4902 8.54005L13.4728 8.86603L11.9147 38.0005L7.5848 9.11135L7.53693 8.79198L7.21428 8.80564L0.906928 9.07256L0.505734 9.08953L0.567037 9.48638L6.91111 50.5549L6.96019 50.8726L7.28139 50.859L16.1824 50.4823L16.505 50.4687L16.5258 50.1465ZM35.596 7.60457L35.237 7.61976L35.2522 7.97873L36.9984 49.2418L37.0136 49.6008L37.3726 49.5856L43.8568 49.3112L44.2157 49.296L44.2006 48.937L42.4544 7.67395L42.4392 7.31498L42.0802 7.33017L35.596 7.60457ZM45.0529 7.20437L44.6939 7.21956L44.7091 7.57853L44.9586 13.4733L44.9738 13.8322L45.3327 13.817L51.7527 13.5454L53.2342 48.5547L53.2494 48.9137L53.6084 48.8985L60.0926 48.6241L60.4516 48.6089L60.4364 48.2499L58.9548 13.2406L65.3748 12.9689L65.7338 12.9537L65.7186 12.5947L65.4691 6.7L65.4539 6.34103L65.0949 6.35622L45.0529 7.20437ZM76.3238 47.9372L76.6828 47.922L76.6676 47.5631L75.9344 30.2379L82.5849 29.9564L83.318 47.2816L83.3332 47.6406L83.6922 47.6254L90.2943 47.346L90.6533 47.3308L90.6381 46.9719L88.8919 5.70878L88.8767 5.34981L88.5177 5.365L81.9156 5.64439L81.5567 5.65958L81.5719 6.01855L82.305 23.3438L75.6546 23.6252L74.9214 6.29999L74.9062 5.94102L74.5472 5.95621L68.063 6.23061L67.7041 6.2458L67.7193 6.60477L69.4654 47.8678L69.4806 48.2268L69.8396 48.2116L76.3238 47.9372ZM102.372 4.7787L102.013 4.79389L102.028 5.15286L103.775 46.4159L103.79 46.7749L104.149 46.7597L121.302 46.0338L121.661 46.0186L121.646 45.6596L121.397 39.7649L121.382 39.4059L121.023 39.4211L110.712 39.8575L109.231 4.84808L109.215 4.48911L108.856 4.5043L102.372 4.7787ZM134.226 10.414L134.234 10.4221L134.243 10.4296C134.782 10.8937 135.132 11.7945 135.194 13.2568L136.137 35.5389C136.199 36.998 135.929 37.9533 135.423 38.5037C134.937 39.0327 134.242 39.3341 133.293 39.3743C132.349 39.4142 131.609 39.1765 131.038 38.6892C130.526 38.1804 130.197 37.2488 130.135 35.7929L129.192 13.5108C129.13 12.0438 129.385 11.1135 129.85 10.6075C130.378 10.0329 131.094 9.71532 132.036 9.67546C132.979 9.63557 133.694 9.89251 134.226 10.414ZM141.025 42.9031L141.027 42.9001C142.718 40.9305 143.466 38.2204 143.322 34.8215L142.414 13.3647C142.27 9.96709 141.298 7.34762 139.446 5.56622C137.59 3.74273 135.008 2.92519 131.756 3.06279C128.505 3.2004 126.001 4.23327 124.305 6.20726C122.611 8.13871 121.864 10.8308 122.007 14.2283L122.915 35.6851C123.059 39.084 124.033 41.7213 125.884 43.5409L125.887 43.5437C127.742 45.3275 130.323 46.1245 133.573 45.987C136.823 45.8494 139.327 44.8372 141.025 42.9031ZM160.229 2.63757L156.955 34.0768L151.036 3.02659L150.978 2.72178L150.668 2.7349L144.125 3.01179L143.706 3.02951L143.788 3.44052L151.9 44.4342L151.96 44.7364L152.268 44.7234L161.935 44.3143L162.243 44.3013L162.277 43.995L166.897 2.46256L166.943 2.04615L166.525 2.06386L160.571 2.31581L160.261 2.32893L160.229 2.63757ZM188.732 36.5558L177.891 37.0145L177.41 25.6483L185.952 25.2868L186.311 25.2716L186.296 24.9126L186.047 19.0179L186.031 18.6589L185.672 18.6741L177.13 19.0356L176.674 8.25886L187.515 7.80008L187.874 7.78489L187.859 7.42592L187.61 1.5312L187.594 1.17222L187.235 1.18741L169.551 1.93578L169.192 1.95097L169.208 2.30995L170.954 43.573L170.969 43.932L171.328 43.9168L189.012 43.1684L189.371 43.1532L189.356 42.7943L189.106 36.8995L189.091 36.5406L188.732 36.5558Z" stroke="#D8D8D8" stroke-width="0.718587"/>
</svg>
