<svg width="247" height="47" viewBox="0 0 247 47" fill="none" xmlns="http://www.w3.org/2000/svg">
<mask id="path-1-outside-1_425_27" maskUnits="userSpaceOnUse" x="0.201904" y="0.0610352" width="246" height="47" fill="black">
<rect fill="white" x="0.201904" y="0.0610352" width="246" height="47"/>
<path d="M7.97294 22.9458L16.35 22.8171L16.4406 28.7164L8.06355 28.8451L8.32542 45.8941L1.83618 45.9938L1.2019 4.69864L18.3689 4.43496L18.4595 10.3343L7.78175 10.4983L7.97294 22.9458ZM35.6834 45.4739C35.6006 45.1998 35.518 44.9454 35.4357 44.7106C35.3534 44.4758 35.2702 44.1821 35.1861 43.8293C35.1414 43.476 35.0951 43.0243 35.0473 42.4743C35.0388 41.9237 35.0283 41.2355 35.0156 40.4095L34.9159 33.9203C34.8863 31.9932 34.5312 30.6415 33.8505 29.8652C33.1698 29.0889 32.0823 28.7122 30.5878 28.7352L28.346 28.7696L28.6043 45.5826L22.115 45.6823L21.4808 4.38716L31.2736 4.23675C34.6559 4.1848 37.1063 4.93392 38.625 6.48411C40.183 8.0337 40.9864 10.4013 41.0354 13.5869L41.0852 16.8315C41.1504 21.079 39.7775 23.8931 36.9664 25.2738C38.6284 25.917 39.7662 27.001 40.3797 28.5258C41.0319 30.0106 41.3746 31.8345 41.4079 33.9976L41.5057 40.3689C41.5214 41.3914 41.5747 42.2954 41.6654 43.0807C41.7555 43.8268 41.964 44.5907 42.2907 45.3724L35.6834 45.4739ZM28.0606 10.1868L28.2554 22.8703L30.7921 22.8313C32.0113 22.8126 32.9504 22.4835 33.6093 21.844C34.3075 21.2038 34.644 20.0579 34.6186 18.406L34.5561 14.3355C34.5331 12.841 34.2412 11.7637 33.6804 11.1036C33.1588 10.4429 32.3278 10.1213 31.1872 10.1388L28.0606 10.1868ZM51.6629 35.7283C51.6859 37.2228 51.9972 38.2802 52.5968 38.9004C53.2351 39.4806 54.0655 39.7629 55.0881 39.7472C56.1106 39.7315 56.9123 39.4241 57.4932 38.8252C58.1128 38.1862 58.4111 37.1195 58.3881 35.625L58.0456 13.3257C58.0227 11.8312 57.692 10.7938 57.0537 10.2135C56.4541 9.59333 55.6431 9.29108 54.6205 9.30679C53.598 9.32249 52.7769 9.64981 52.1573 10.2887C51.5764 10.8877 51.2975 11.9345 51.3204 13.429L51.6629 35.7283ZM44.8375 13.9416C44.7862 10.5986 45.5925 8.02929 47.2564 6.23352C48.9198 4.39843 51.3443 3.45641 54.5299 3.40748C57.7155 3.35855 60.1678 4.22566 61.8867 6.0088C63.605 7.75262 64.4899 10.296 64.5412 13.6389L64.871 35.1124C64.9224 38.4553 64.1164 41.0444 62.453 42.8795C60.7891 44.6752 58.3643 45.5976 55.1787 45.6465C51.9931 45.6954 49.5411 44.848 47.8228 43.1042C46.1038 41.321 45.2187 38.758 45.1674 35.4151L44.8375 13.9416ZM82.8018 32.7718L86.7759 3.38425L95.8019 3.24561L96.4361 44.5407L90.3009 44.635L89.846 15.0205L85.8174 44.7038L79.6821 44.7981L74.3962 15.6708L74.8447 44.8724L69.1814 44.9594L68.5471 3.66424L77.573 3.5256L82.8018 32.7718ZM109.009 12.9559C108.957 9.61299 109.705 7.04455 111.251 5.25059C112.835 3.41671 115.22 2.4753 118.406 2.42637C121.592 2.37744 123.985 3.24545 125.586 5.0304C127.226 6.77543 128.071 9.31941 128.122 12.6624L128.147 14.2552L122.012 14.3494L121.981 12.3436C121.958 10.8491 121.647 9.81147 121.048 9.2306C120.488 8.60979 119.696 8.30725 118.674 8.32295C117.651 8.33866 116.85 8.66567 116.269 9.30399C115.728 9.90238 115.469 10.9488 115.491 12.4433C115.513 13.8591 115.847 15.1128 116.493 16.2044C117.139 17.2566 117.941 18.267 118.9 19.2358C119.859 20.1652 120.876 21.1133 121.953 22.0802C123.069 23.0072 124.108 24.0337 125.069 25.1597C126.03 26.2858 126.837 27.5715 127.488 29.017C128.14 30.4625 128.481 32.1685 128.511 34.1349C128.563 37.4779 127.776 40.0666 126.152 41.9011C124.567 43.6956 122.181 44.6174 118.996 44.6663C115.81 44.7152 113.378 43.8675 111.699 42.1231C110.059 40.3387 109.213 37.7751 109.161 34.4321L109.118 31.6005L115.253 31.5062L115.303 34.7508C115.326 36.2453 115.637 37.283 116.236 37.8639C116.874 38.4441 117.705 38.7264 118.727 38.7107C119.75 38.695 120.552 38.3877 121.132 37.7887C121.753 37.1891 122.051 36.142 122.028 34.6475C122.007 33.2317 121.673 31.9977 121.027 30.9455C120.381 29.8539 119.579 28.8435 118.62 27.9141C117.661 26.9454 116.624 25.9975 115.508 25.0705C114.431 24.1036 113.412 23.0572 112.451 21.9311C111.489 20.8051 110.683 19.5193 110.031 18.0738C109.38 16.6283 109.039 14.9224 109.009 12.9559ZM131.747 2.69351L138.236 2.59383L138.871 43.889L132.381 43.9886L131.747 2.69351ZM152.774 2.37054C156.156 2.31859 158.607 3.06771 160.125 4.61791C161.683 6.1675 162.487 8.5351 162.536 11.7207L162.558 13.1956C162.591 15.3193 162.284 17.0746 161.636 18.4613C160.989 19.8481 159.942 20.887 158.498 21.5779C160.278 22.2193 161.533 23.3015 162.265 24.8244C163.035 26.3074 163.437 28.1502 163.471 30.3526L163.523 33.7152C163.572 36.9008 162.783 39.3519 161.157 41.0684C159.531 42.7455 157.085 43.6092 153.821 43.6593L143.615 43.8161L142.981 2.52096L152.774 2.37054ZM149.819 25.1336L150.014 37.8171L153.731 37.76C154.832 37.7431 155.653 37.4355 156.195 36.8371C156.776 36.2381 157.054 35.1717 157.031 33.6379L156.975 30.0393C156.946 28.1122 156.591 26.7998 155.912 26.1022C155.272 25.4039 154.204 25.0663 152.71 25.0892L149.819 25.1336ZM149.561 8.32059L149.729 19.2343L152.265 19.1953C153.484 19.1766 154.424 18.8475 155.082 18.208C155.781 17.5678 156.117 16.4219 156.092 14.7701L156.056 12.4693C156.033 10.9748 155.742 9.89752 155.181 9.23739C154.659 8.57665 153.828 8.25505 152.688 8.27256L149.561 8.32059ZM173.704 19.4561L182.611 19.3193L182.702 25.2186L173.794 25.3554L173.98 37.449L185.189 37.2768L185.279 43.1761L167.581 43.448L166.947 2.15285L184.645 1.88101L184.736 7.78032L173.527 7.95248L173.704 19.4561ZM202.869 42.906C202.786 42.6319 202.703 42.3775 202.621 42.1427C202.539 41.9079 202.456 41.6142 202.371 41.2614C202.327 40.9081 202.28 40.4564 202.233 39.9064C202.224 39.3558 202.214 38.6675 202.201 37.8416L202.101 31.3524C202.072 29.4253 201.717 28.0736 201.036 27.2973C200.355 26.521 199.268 26.1443 197.773 26.1673L195.531 26.2017L195.79 43.0147L189.3 43.1144L188.666 1.81925L198.459 1.66883C201.841 1.61688 204.292 2.366 205.81 3.9162C207.368 5.46579 208.172 7.83339 208.221 11.019L208.271 14.2636C208.336 18.5111 206.963 21.3252 204.152 22.7059C205.814 23.3491 206.952 24.4331 207.565 25.9578C208.217 27.4427 208.56 29.2666 208.593 31.4297L208.691 37.801C208.707 38.8235 208.76 39.7275 208.851 40.5128C208.941 41.2589 209.149 42.0227 209.476 42.8045L202.869 42.906ZM195.246 7.61888L195.441 20.3024L197.977 20.2634C199.197 20.2447 200.136 19.9156 200.795 19.276C201.493 18.6359 201.829 17.4899 201.804 15.8381L201.741 11.7676C201.719 10.2731 201.427 9.19581 200.866 8.53568C200.344 7.87495 199.513 7.55334 198.373 7.57086L195.246 7.61888ZM212.402 1.45468L218.891 1.35501L219.525 42.6501L213.036 42.7498L212.402 1.45468ZM245.271 42.2547L238.723 42.3553L237.487 34.8804L229.523 35.0027L228.517 42.512L222.559 42.6035L228.532 1.20692L238.03 1.06104L245.271 42.2547ZM230.263 29.3857L236.516 29.2896L233.069 8.4541L230.263 29.3857Z"/>
</mask>
<path d="M7.97294 22.9458L16.35 22.8171L16.4406 28.7164L8.06355 28.8451L8.32542 45.8941L1.83618 45.9938L1.2019 4.69864L18.3689 4.43496L18.4595 10.3343L7.78175 10.4983L7.97294 22.9458ZM35.6834 45.4739C35.6006 45.1998 35.518 44.9454 35.4357 44.7106C35.3534 44.4758 35.2702 44.1821 35.1861 43.8293C35.1414 43.476 35.0951 43.0243 35.0473 42.4743C35.0388 41.9237 35.0283 41.2355 35.0156 40.4095L34.9159 33.9203C34.8863 31.9932 34.5312 30.6415 33.8505 29.8652C33.1698 29.0889 32.0823 28.7122 30.5878 28.7352L28.346 28.7696L28.6043 45.5826L22.115 45.6823L21.4808 4.38716L31.2736 4.23675C34.6559 4.1848 37.1063 4.93392 38.625 6.48411C40.183 8.0337 40.9864 10.4013 41.0354 13.5869L41.0852 16.8315C41.1504 21.079 39.7775 23.8931 36.9664 25.2738C38.6284 25.917 39.7662 27.001 40.3797 28.5258C41.0319 30.0106 41.3746 31.8345 41.4079 33.9976L41.5057 40.3689C41.5214 41.3914 41.5747 42.2954 41.6654 43.0807C41.7555 43.8268 41.964 44.5907 42.2907 45.3724L35.6834 45.4739ZM28.0606 10.1868L28.2554 22.8703L30.7921 22.8313C32.0113 22.8126 32.9504 22.4835 33.6093 21.844C34.3075 21.2038 34.644 20.0579 34.6186 18.406L34.5561 14.3355C34.5331 12.841 34.2412 11.7637 33.6804 11.1036C33.1588 10.4429 32.3278 10.1213 31.1872 10.1388L28.0606 10.1868ZM51.6629 35.7283C51.6859 37.2228 51.9972 38.2802 52.5968 38.9004C53.2351 39.4806 54.0655 39.7629 55.0881 39.7472C56.1106 39.7315 56.9123 39.4241 57.4932 38.8252C58.1128 38.1862 58.4111 37.1195 58.3881 35.625L58.0456 13.3257C58.0227 11.8312 57.692 10.7938 57.0537 10.2135C56.4541 9.59333 55.6431 9.29108 54.6205 9.30679C53.598 9.32249 52.7769 9.64981 52.1573 10.2887C51.5764 10.8877 51.2975 11.9345 51.3204 13.429L51.6629 35.7283ZM44.8375 13.9416C44.7862 10.5986 45.5925 8.02929 47.2564 6.23352C48.9198 4.39843 51.3443 3.45641 54.5299 3.40748C57.7155 3.35855 60.1678 4.22566 61.8867 6.0088C63.605 7.75262 64.4899 10.296 64.5412 13.6389L64.871 35.1124C64.9224 38.4553 64.1164 41.0444 62.453 42.8795C60.7891 44.6752 58.3643 45.5976 55.1787 45.6465C51.9931 45.6954 49.5411 44.848 47.8228 43.1042C46.1038 41.321 45.2187 38.758 45.1674 35.4151L44.8375 13.9416ZM82.8018 32.7718L86.7759 3.38425L95.8019 3.24561L96.4361 44.5407L90.3009 44.635L89.846 15.0205L85.8174 44.7038L79.6821 44.7981L74.3962 15.6708L74.8447 44.8724L69.1814 44.9594L68.5471 3.66424L77.573 3.5256L82.8018 32.7718ZM109.009 12.9559C108.957 9.61299 109.705 7.04455 111.251 5.25059C112.835 3.41671 115.22 2.4753 118.406 2.42637C121.592 2.37744 123.985 3.24545 125.586 5.0304C127.226 6.77543 128.071 9.31941 128.122 12.6624L128.147 14.2552L122.012 14.3494L121.981 12.3436C121.958 10.8491 121.647 9.81147 121.048 9.2306C120.488 8.60979 119.696 8.30725 118.674 8.32295C117.651 8.33866 116.85 8.66567 116.269 9.30399C115.728 9.90238 115.469 10.9488 115.491 12.4433C115.513 13.8591 115.847 15.1128 116.493 16.2044C117.139 17.2566 117.941 18.267 118.9 19.2358C119.859 20.1652 120.876 21.1133 121.953 22.0802C123.069 23.0072 124.108 24.0337 125.069 25.1597C126.03 26.2858 126.837 27.5715 127.488 29.017C128.14 30.4625 128.481 32.1685 128.511 34.1349C128.563 37.4779 127.776 40.0666 126.152 41.9011C124.567 43.6956 122.181 44.6174 118.996 44.6663C115.81 44.7152 113.378 43.8675 111.699 42.1231C110.059 40.3387 109.213 37.7751 109.161 34.4321L109.118 31.6005L115.253 31.5062L115.303 34.7508C115.326 36.2453 115.637 37.283 116.236 37.8639C116.874 38.4441 117.705 38.7264 118.727 38.7107C119.75 38.695 120.552 38.3877 121.132 37.7887C121.753 37.1891 122.051 36.142 122.028 34.6475C122.007 33.2317 121.673 31.9977 121.027 30.9455C120.381 29.8539 119.579 28.8435 118.62 27.9141C117.661 26.9454 116.624 25.9975 115.508 25.0705C114.431 24.1036 113.412 23.0572 112.451 21.9311C111.489 20.8051 110.683 19.5193 110.031 18.0738C109.38 16.6283 109.039 14.9224 109.009 12.9559ZM131.747 2.69351L138.236 2.59383L138.871 43.889L132.381 43.9886L131.747 2.69351ZM152.774 2.37054C156.156 2.31859 158.607 3.06771 160.125 4.61791C161.683 6.1675 162.487 8.5351 162.536 11.7207L162.558 13.1956C162.591 15.3193 162.284 17.0746 161.636 18.4613C160.989 19.8481 159.942 20.887 158.498 21.5779C160.278 22.2193 161.533 23.3015 162.265 24.8244C163.035 26.3074 163.437 28.1502 163.471 30.3526L163.523 33.7152C163.572 36.9008 162.783 39.3519 161.157 41.0684C159.531 42.7455 157.085 43.6092 153.821 43.6593L143.615 43.8161L142.981 2.52096L152.774 2.37054ZM149.819 25.1336L150.014 37.8171L153.731 37.76C154.832 37.7431 155.653 37.4355 156.195 36.8371C156.776 36.2381 157.054 35.1717 157.031 33.6379L156.975 30.0393C156.946 28.1122 156.591 26.7998 155.912 26.1022C155.272 25.4039 154.204 25.0663 152.71 25.0892L149.819 25.1336ZM149.561 8.32059L149.729 19.2343L152.265 19.1953C153.484 19.1766 154.424 18.8475 155.082 18.208C155.781 17.5678 156.117 16.4219 156.092 14.7701L156.056 12.4693C156.033 10.9748 155.742 9.89752 155.181 9.23739C154.659 8.57665 153.828 8.25505 152.688 8.27256L149.561 8.32059ZM173.704 19.4561L182.611 19.3193L182.702 25.2186L173.794 25.3554L173.98 37.449L185.189 37.2768L185.279 43.1761L167.581 43.448L166.947 2.15285L184.645 1.88101L184.736 7.78032L173.527 7.95248L173.704 19.4561ZM202.869 42.906C202.786 42.6319 202.703 42.3775 202.621 42.1427C202.539 41.9079 202.456 41.6142 202.371 41.2614C202.327 40.9081 202.28 40.4564 202.233 39.9064C202.224 39.3558 202.214 38.6675 202.201 37.8416L202.101 31.3524C202.072 29.4253 201.717 28.0736 201.036 27.2973C200.355 26.521 199.268 26.1443 197.773 26.1673L195.531 26.2017L195.79 43.0147L189.3 43.1144L188.666 1.81925L198.459 1.66883C201.841 1.61688 204.292 2.366 205.81 3.9162C207.368 5.46579 208.172 7.83339 208.221 11.019L208.271 14.2636C208.336 18.5111 206.963 21.3252 204.152 22.7059C205.814 23.3491 206.952 24.4331 207.565 25.9578C208.217 27.4427 208.56 29.2666 208.593 31.4297L208.691 37.801C208.707 38.8235 208.76 39.7275 208.851 40.5128C208.941 41.2589 209.149 42.0227 209.476 42.8045L202.869 42.906ZM195.246 7.61888L195.441 20.3024L197.977 20.2634C199.197 20.2447 200.136 19.9156 200.795 19.276C201.493 18.6359 201.829 17.4899 201.804 15.8381L201.741 11.7676C201.719 10.2731 201.427 9.19581 200.866 8.53568C200.344 7.87495 199.513 7.55334 198.373 7.57086L195.246 7.61888ZM212.402 1.45468L218.891 1.35501L219.525 42.6501L213.036 42.7498L212.402 1.45468ZM245.271 42.2547L238.723 42.3553L237.487 34.8804L229.523 35.0027L228.517 42.512L222.559 42.6035L228.532 1.20692L238.03 1.06104L245.271 42.2547ZM230.263 29.3857L236.516 29.2896L233.069 8.4541L230.263 29.3857Z" stroke="#D8D8D8" stroke-width="1.43717" mask="url(#path-1-outside-1_425_27)"/>
</svg>
