<svg width="325" height="49" viewBox="0 0 325 49" fill="none" xmlns="http://www.w3.org/2000/svg">
<mask id="path-1-outside-1_425_28" maskUnits="userSpaceOnUse" x="-0.194824" y="0.0488281" width="325" height="49" fill="black">
<rect fill="white" x="-0.194824" y="0.0488281" width="325" height="49"/>
<path d="M10.3617 6.35049C13.6259 6.29344 16.0596 7.11638 17.663 8.81929C19.3056 10.5215 20.1562 13.044 20.2146 16.3869L20.3084 21.755C20.3668 25.0979 19.6049 27.6486 18.0228 29.4071C16.4799 31.165 14.0764 32.0725 10.8122 32.1296L7.7447 32.1832L8.01583 47.6978L1.52682 47.8112L0.805176 6.5175L10.3617 6.35049ZM7.39728 12.3032L7.64161 26.2841L10.7091 26.2305C11.7316 26.2126 12.5134 25.9235 13.0543 25.3633C13.5953 24.8031 13.8527 23.7758 13.8266 22.2814L13.7184 16.0873C13.6922 14.5929 13.3991 13.5752 12.8389 13.0342C12.2787 12.4933 11.4873 12.2317 10.4648 12.2496L7.39728 12.3032ZM37.3316 47.1855C37.2481 46.9116 37.165 46.6573 37.0822 46.4227C36.9994 46.1881 36.9156 45.8945 36.8308 45.542C36.7853 45.1887 36.7381 44.7371 36.6891 44.1872C36.6795 43.6367 36.6675 42.9484 36.653 42.1226L36.5396 35.6335C36.5059 33.7065 36.148 32.3556 35.4656 31.5807C34.7833 30.8058 33.695 30.4315 32.2005 30.4576L29.9589 30.4967L30.2527 47.3092L23.7637 47.4226L23.042 6.12889L32.8345 5.95775C36.2167 5.89865 38.6687 6.64258 40.1906 8.18956C41.7519 9.73585 42.5604 12.1018 42.616 15.2873L42.6727 18.5318C42.747 22.7791 41.38 25.5961 38.5718 26.9827C40.2352 27.6224 41.3753 28.704 41.992 30.2274C42.6473 31.7109 42.9939 33.5341 43.0317 35.6971L43.1431 42.0681C43.1609 43.0907 43.2161 43.9945 43.3085 44.7797C43.4002 45.5255 43.6102 46.289 43.9386 47.07L37.3316 47.1855ZM29.6341 11.9146L29.8558 24.5977L32.3924 24.5533C33.6115 24.532 34.5499 24.2009 35.2075 23.56C35.9043 22.9184 36.2384 21.7717 36.2095 20.1199L36.1384 16.0496C36.1122 14.5551 35.8181 13.4784 35.2558 12.8195C34.7328 12.1599 33.9011 11.84 32.7606 11.8599L29.6341 11.9146ZM53.5698 23.003L62.4774 22.8474L62.5805 28.7465L53.6729 28.9021L53.8842 40.9953L65.0925 40.7994L65.1956 46.6985L47.4983 47.0078L46.7767 5.7141L64.474 5.40482L64.5771 11.3039L53.3688 11.4998L53.5698 23.003ZM82.7523 34.4129L86.6643 5.01703L95.6899 4.85929L96.4115 46.153L90.2765 46.2602L89.7589 16.6467L85.7932 46.3386L79.6581 46.4458L74.3105 17.3298L74.8208 46.5303L69.1577 46.6293L68.436 5.33558L77.4617 5.17785L82.7523 34.4129ZM100.41 4.7768L106.899 4.6634L107.621 45.9571L101.132 46.0705L100.41 4.7768ZM117.838 4.47224L118.394 36.3274C118.421 37.8218 118.734 38.8588 119.334 39.4384C119.974 40.0173 120.805 40.2979 121.827 40.28C122.85 40.2621 123.651 39.9531 124.23 39.3529C124.849 38.752 125.146 37.7043 125.119 36.2099L124.563 4.35471L130.698 4.2475L131.247 35.6897C131.306 39.0325 130.525 41.6229 128.905 43.4608C127.323 45.2587 124.94 46.1855 121.754 46.2412C118.569 46.2969 116.135 45.4543 114.452 43.7134C112.808 41.9325 111.957 39.3707 111.898 36.0278L111.349 4.58564L117.838 4.47224ZM149.405 33.248L153.317 3.8522L162.343 3.69447L163.064 44.9882L156.929 45.0954L156.412 15.4819L152.446 45.1737L146.311 45.2809L140.963 16.1649L141.474 45.3655L135.811 45.4645L135.089 4.17076L144.115 4.01302L149.405 33.248ZM183.016 20.7408L191.924 20.5852L192.027 26.4843L183.119 26.6399L183.33 38.7331L194.539 38.5372L194.642 44.4363L176.944 44.7456L176.223 3.4519L193.92 3.14263L194.023 9.04173L182.815 9.2376L183.016 20.7408ZM197.955 20.7748L209.754 20.5686L209.857 26.4677L198.059 26.6739L197.955 20.7748ZM213.841 2.79449L220.33 2.68108L220.949 38.0757L231.626 37.8891L231.729 43.7882L214.563 44.0882L213.841 2.79449ZM233.946 2.44313L240.435 2.32972L241.157 43.6234L234.668 43.7368L233.946 2.44313ZM244.822 12.1666C244.764 8.82375 245.565 6.2527 247.225 4.45341C248.884 2.6148 251.307 1.66767 254.492 1.612C257.678 1.55633 260.132 2.41824 261.855 4.19774C263.577 5.93792 264.467 8.47942 264.525 11.8222L264.901 33.295C264.941 35.6153 264.562 37.5495 263.763 39.0977C263.927 39.4883 264.128 39.7405 264.366 39.8543C264.643 39.9282 265.056 39.9603 265.607 39.9506L266.197 39.9403L266.298 45.7215L265.413 45.7369C263.958 45.7623 262.754 45.5277 261.801 45.0329C260.888 44.5768 260.208 43.9003 259.759 43.0033C259.095 43.2509 258.39 43.4403 257.645 43.5713C256.9 43.7417 256.096 43.8344 255.23 43.8495C252.045 43.9052 249.591 43.063 247.869 41.3228C246.146 39.5433 245.256 36.9821 245.198 33.6393L244.822 12.1666ZM251.694 33.9388C251.72 35.4333 252.033 36.49 252.634 37.1089C253.274 37.6878 254.105 37.9683 255.127 37.9504C256.15 37.9326 256.951 37.6235 257.531 37.0233C258.149 36.3831 258.445 35.3157 258.419 33.8213L258.029 11.5227C258.003 10.0283 257.67 8.9916 257.031 8.41268C256.43 7.79375 255.618 7.49322 254.595 7.51109C253.573 7.52896 252.753 7.85801 252.134 8.49825C251.555 9.09847 251.278 10.1458 251.304 11.6402L251.694 33.9388ZM274.763 1.72981L275.32 33.585C275.346 35.0794 275.659 36.1164 276.259 36.696C276.899 37.2749 277.73 37.5554 278.752 37.5376C279.775 37.5197 280.576 37.2107 281.155 36.6104C281.774 36.0095 282.071 34.9619 282.045 33.4674L281.488 1.61229L287.623 1.50507L288.173 32.9473C288.231 36.2901 287.45 38.8805 285.83 40.7184C284.249 42.5163 281.865 43.4431 278.679 43.4988C275.494 43.5544 273.06 42.7118 271.377 40.971C269.733 39.1901 268.882 36.6282 268.824 33.2854L268.274 1.84322L274.763 1.72981ZM292.073 1.4273L298.562 1.3139L299.284 42.6076L292.795 42.721L292.073 1.4273ZM303.307 1.23098L313.571 1.0516C316.835 0.994557 319.269 1.81749 320.873 3.5204C322.515 5.22263 323.366 7.74515 323.424 11.088L323.789 31.9708C323.848 35.3136 323.086 37.8643 321.503 39.6229C319.961 41.3808 317.557 42.2883 314.293 42.3453L304.029 42.5247L303.307 1.23098ZM309.899 7.01668L310.414 36.5122L314.072 36.4483C315.094 36.4304 315.895 36.1213 316.475 35.5211C317.055 34.9209 317.331 33.8736 317.305 32.3791L316.93 10.9064C316.904 9.41198 316.591 8.37496 315.99 7.79536C315.39 7.21576 314.579 6.93489 313.556 6.95276L309.899 7.01668Z"/>
</mask>
<path d="M10.3617 6.35049C13.6259 6.29344 16.0596 7.11638 17.663 8.81929C19.3056 10.5215 20.1562 13.044 20.2146 16.3869L20.3084 21.755C20.3668 25.0979 19.6049 27.6486 18.0228 29.4071C16.4799 31.165 14.0764 32.0725 10.8122 32.1296L7.7447 32.1832L8.01583 47.6978L1.52682 47.8112L0.805176 6.5175L10.3617 6.35049ZM7.39728 12.3032L7.64161 26.2841L10.7091 26.2305C11.7316 26.2126 12.5134 25.9235 13.0543 25.3633C13.5953 24.8031 13.8527 23.7758 13.8266 22.2814L13.7184 16.0873C13.6922 14.5929 13.3991 13.5752 12.8389 13.0342C12.2787 12.4933 11.4873 12.2317 10.4648 12.2496L7.39728 12.3032ZM37.3316 47.1855C37.2481 46.9116 37.165 46.6573 37.0822 46.4227C36.9994 46.1881 36.9156 45.8945 36.8308 45.542C36.7853 45.1887 36.7381 44.7371 36.6891 44.1872C36.6795 43.6367 36.6675 42.9484 36.653 42.1226L36.5396 35.6335C36.5059 33.7065 36.148 32.3556 35.4656 31.5807C34.7833 30.8058 33.695 30.4315 32.2005 30.4576L29.9589 30.4967L30.2527 47.3092L23.7637 47.4226L23.042 6.12889L32.8345 5.95775C36.2167 5.89865 38.6687 6.64258 40.1906 8.18956C41.7519 9.73585 42.5604 12.1018 42.616 15.2873L42.6727 18.5318C42.747 22.7791 41.38 25.5961 38.5718 26.9827C40.2352 27.6224 41.3753 28.704 41.992 30.2274C42.6473 31.7109 42.9939 33.5341 43.0317 35.6971L43.1431 42.0681C43.1609 43.0907 43.2161 43.9945 43.3085 44.7797C43.4002 45.5255 43.6102 46.289 43.9386 47.07L37.3316 47.1855ZM29.6341 11.9146L29.8558 24.5977L32.3924 24.5533C33.6115 24.532 34.5499 24.2009 35.2075 23.56C35.9043 22.9184 36.2384 21.7717 36.2095 20.1199L36.1384 16.0496C36.1122 14.5551 35.8181 13.4784 35.2558 12.8195C34.7328 12.1599 33.9011 11.84 32.7606 11.8599L29.6341 11.9146ZM53.5698 23.003L62.4774 22.8474L62.5805 28.7465L53.6729 28.9021L53.8842 40.9953L65.0925 40.7994L65.1956 46.6985L47.4983 47.0078L46.7767 5.7141L64.474 5.40482L64.5771 11.3039L53.3688 11.4998L53.5698 23.003ZM82.7523 34.4129L86.6643 5.01703L95.6899 4.85929L96.4115 46.153L90.2765 46.2602L89.7589 16.6467L85.7932 46.3386L79.6581 46.4458L74.3105 17.3298L74.8208 46.5303L69.1577 46.6293L68.436 5.33558L77.4617 5.17785L82.7523 34.4129ZM100.41 4.7768L106.899 4.6634L107.621 45.9571L101.132 46.0705L100.41 4.7768ZM117.838 4.47224L118.394 36.3274C118.421 37.8218 118.734 38.8588 119.334 39.4384C119.974 40.0173 120.805 40.2979 121.827 40.28C122.85 40.2621 123.651 39.9531 124.23 39.3529C124.849 38.752 125.146 37.7043 125.119 36.2099L124.563 4.35471L130.698 4.2475L131.247 35.6897C131.306 39.0325 130.525 41.6229 128.905 43.4608C127.323 45.2587 124.94 46.1855 121.754 46.2412C118.569 46.2969 116.135 45.4543 114.452 43.7134C112.808 41.9325 111.957 39.3707 111.898 36.0278L111.349 4.58564L117.838 4.47224ZM149.405 33.248L153.317 3.8522L162.343 3.69447L163.064 44.9882L156.929 45.0954L156.412 15.4819L152.446 45.1737L146.311 45.2809L140.963 16.1649L141.474 45.3655L135.811 45.4645L135.089 4.17076L144.115 4.01302L149.405 33.248ZM183.016 20.7408L191.924 20.5852L192.027 26.4843L183.119 26.6399L183.33 38.7331L194.539 38.5372L194.642 44.4363L176.944 44.7456L176.223 3.4519L193.92 3.14263L194.023 9.04173L182.815 9.2376L183.016 20.7408ZM197.955 20.7748L209.754 20.5686L209.857 26.4677L198.059 26.6739L197.955 20.7748ZM213.841 2.79449L220.33 2.68108L220.949 38.0757L231.626 37.8891L231.729 43.7882L214.563 44.0882L213.841 2.79449ZM233.946 2.44313L240.435 2.32972L241.157 43.6234L234.668 43.7368L233.946 2.44313ZM244.822 12.1666C244.764 8.82375 245.565 6.2527 247.225 4.45341C248.884 2.6148 251.307 1.66767 254.492 1.612C257.678 1.55633 260.132 2.41824 261.855 4.19774C263.577 5.93792 264.467 8.47942 264.525 11.8222L264.901 33.295C264.941 35.6153 264.562 37.5495 263.763 39.0977C263.927 39.4883 264.128 39.7405 264.366 39.8543C264.643 39.9282 265.056 39.9603 265.607 39.9506L266.197 39.9403L266.298 45.7215L265.413 45.7369C263.958 45.7623 262.754 45.5277 261.801 45.0329C260.888 44.5768 260.208 43.9003 259.759 43.0033C259.095 43.2509 258.39 43.4403 257.645 43.5713C256.9 43.7417 256.096 43.8344 255.23 43.8495C252.045 43.9052 249.591 43.063 247.869 41.3228C246.146 39.5433 245.256 36.9821 245.198 33.6393L244.822 12.1666ZM251.694 33.9388C251.72 35.4333 252.033 36.49 252.634 37.1089C253.274 37.6878 254.105 37.9683 255.127 37.9504C256.15 37.9326 256.951 37.6235 257.531 37.0233C258.149 36.3831 258.445 35.3157 258.419 33.8213L258.029 11.5227C258.003 10.0283 257.67 8.9916 257.031 8.41268C256.43 7.79375 255.618 7.49322 254.595 7.51109C253.573 7.52896 252.753 7.85801 252.134 8.49825C251.555 9.09847 251.278 10.1458 251.304 11.6402L251.694 33.9388ZM274.763 1.72981L275.32 33.585C275.346 35.0794 275.659 36.1164 276.259 36.696C276.899 37.2749 277.73 37.5554 278.752 37.5376C279.775 37.5197 280.576 37.2107 281.155 36.6104C281.774 36.0095 282.071 34.9619 282.045 33.4674L281.488 1.61229L287.623 1.50507L288.173 32.9473C288.231 36.2901 287.45 38.8805 285.83 40.7184C284.249 42.5163 281.865 43.4431 278.679 43.4988C275.494 43.5544 273.06 42.7118 271.377 40.971C269.733 39.1901 268.882 36.6282 268.824 33.2854L268.274 1.84322L274.763 1.72981ZM292.073 1.4273L298.562 1.3139L299.284 42.6076L292.795 42.721L292.073 1.4273ZM303.307 1.23098L313.571 1.0516C316.835 0.994557 319.269 1.81749 320.873 3.5204C322.515 5.22263 323.366 7.74515 323.424 11.088L323.789 31.9708C323.848 35.3136 323.086 37.8643 321.503 39.6229C319.961 41.3808 317.557 42.2883 314.293 42.3453L304.029 42.5247L303.307 1.23098ZM309.899 7.01668L310.414 36.5122L314.072 36.4483C315.094 36.4304 315.895 36.1213 316.475 35.5211C317.055 34.9209 317.331 33.8736 317.305 32.3791L316.93 10.9064C316.904 9.41198 316.591 8.37496 315.99 7.79536C315.39 7.21576 314.579 6.93489 313.556 6.95276L309.899 7.01668Z" stroke="#D8D8D8" stroke-width="1.43717" mask="url(#path-1-outside-1_425_28)"/>
</svg>
